<svg width="104" height="142" viewBox="0 0 104 142" fill="none" xmlns="http://www.w3.org/2000/svg">
<path opacity="0.1" d="M4.96406 142V131.8L63.1641 74.8C68.4974 69.6 72.4974 65.0667 75.1641 61.2C77.8307 57.2 79.6307 53.4667 80.5641 50C81.4974 46.5333 81.9641 43.2667 81.9641 40.2C81.9641 32.0667 79.1641 25.6667 73.5641 21C68.0974 16.3333 59.9641 14 49.1641 14C40.8974 14 33.5641 15.2667 27.1641 17.8C20.8974 20.3333 15.4974 24.2667 10.9641 29.6L0.764063 20.8C6.23073 14.4 13.2307 9.46666 21.7641 6C30.2974 2.53333 39.8307 0.799994 50.3641 0.799994C59.8307 0.799994 68.0307 2.33333 74.9641 5.39999C81.8974 8.33333 87.2307 12.6667 90.9641 18.4C94.8307 24.1333 96.7641 30.8667 96.7641 38.6C96.7641 43.1333 96.0974 47.6 94.7641 52C93.5641 56.4 91.2974 61.0667 87.9641 66C84.7641 70.8 80.0307 76.2667 73.7641 82.4L20.3641 134.8L16.3641 129.2H103.164V142H4.96406Z" fill="white"/>
</svg>
