<svg width="103" height="142" viewBox="0 0 103 142" fill="none" xmlns="http://www.w3.org/2000/svg">
<path opacity="0.1" d="M51.2547 141.2C41.1214 141.2 31.5214 139.6 22.4547 136.4C13.5214 133.067 6.32135 128.667 0.854688 123.2L7.85469 111.8C12.388 116.467 18.4547 120.333 26.0547 123.4C33.788 126.467 42.188 128 51.2547 128C62.8547 128 71.7214 125.467 77.8547 120.4C84.1214 115.333 87.2547 108.533 87.2547 100C87.2547 91.4667 84.188 84.6667 78.0547 79.6C72.0547 74.5333 62.5214 72 49.4547 72H39.4547V61.4L82.6547 7.19999L84.6547 12.8H6.65469V-9.53674e-06H96.6547V10.2L53.4547 64.4L46.4547 59.8H51.8547C68.6547 59.8 81.188 63.5333 89.4547 71C97.8547 78.4667 102.055 88.0667 102.055 99.8C102.055 107.667 100.188 114.733 96.4547 121C92.7214 127.267 87.0547 132.2 79.4547 135.8C71.988 139.4 62.588 141.2 51.2547 141.2Z" fill="white"/>
</svg>
