<svg width="102" height="142" viewBox="0 0 102 142" fill="none" xmlns="http://www.w3.org/2000/svg">
<path opacity="0.1" d="M50.9594 141.2C40.9594 141.2 31.426 139.6 22.3594 136.4C13.2927 133.067 6.09271 128.667 0.759375 123.2L7.75938 111.8C12.1594 116.467 18.1594 120.333 25.7594 123.4C33.4927 126.467 41.826 128 50.7594 128C62.626 128 71.626 125.4 77.7594 120.2C84.026 114.867 87.1594 107.933 87.1594 99.4C87.1594 93.4 85.6927 88.2667 82.7594 84C79.9594 79.6 75.1594 76.2 68.3594 73.8C61.5594 71.4 52.226 70.2 40.3594 70.2H10.5594L17.7594 -9.53674e-06H94.3594V12.8H23.5594L30.9594 5.8L24.7594 64.6L17.3594 57.4H43.5594C57.6927 57.4 69.026 59.1333 77.5594 62.6C86.0927 66.0667 92.226 70.9333 95.9594 77.2C99.826 83.3333 101.759 90.5333 101.759 98.8C101.759 106.667 99.8927 113.867 96.1594 120.4C92.426 126.8 86.826 131.867 79.3594 135.6C71.8927 139.333 62.426 141.2 50.9594 141.2Z" fill="white"/>
</svg>
