<svg width="112" height="67" viewBox="0 0 112 67" fill="none" xmlns="http://www.w3.org/2000/svg">
<g clip-path="url(#clip0_17_264)">
<path d="M9.88235 1.01955C9.88235 1.01955 9.59591 1.1652 9.16624 1.1652C8.73657 1.1652 8.02046 1.31085 7.30435 1.60216C6.44501 1.89346 5.58568 2.47607 4.58312 3.20433C4.4399 3.34998 4.29668 3.49564 4.15345 3.64129C4.15345 3.64129 4.01023 3.78694 3.86701 3.93259C3.72379 4.07824 3.58056 4.2239 3.58056 4.36955C3.43734 4.36955 3.29412 4.5152 3.1509 4.66085C3.1509 4.8065 3.00767 4.95216 2.86445 5.24346C2.72123 5.38911 2.72123 5.53477 2.57801 5.68042C2.57801 5.82607 2.43478 5.82607 2.43478 5.97172C2.43478 6.11737 2.29156 6.11737 2.29156 6.26303C2.29156 6.40868 2.14834 6.55433 2.14834 6.69998C1.71867 7.71955 1.43223 8.88477 1.43223 10.1956C1.43223 11.5065 1.57545 12.8174 1.43223 14.4195C1.289 15.8761 1.71867 17.4782 1.43223 19.0804C1.289 20.6826 1.43223 22.4304 1.43223 24.1782C1.43223 25.9261 1.289 27.8195 1.43223 29.713C1.71867 31.6065 1.00256 33.6456 1.43223 35.6848C1.57545 37.7239 1.43223 39.9087 1.43223 42.0935C1.14578 44.2782 1.43223 46.6087 1.43223 48.9391C1.14578 51.2695 1.289 53.6 1.43223 56.0761C1.43223 56.3674 1.289 56.6587 1.289 56.95V57.3869C1.289 57.5326 1.289 57.6782 1.289 57.8239C1.289 58.4065 1.43223 58.9891 1.57545 59.5717C2.00512 60.7369 2.72123 61.6109 3.58056 62.3391C4.29668 63.213 5.29923 63.9413 6.30179 64.3782C6.87468 64.6695 7.44757 64.8152 8.02046 64.8152H8.45013C8.59335 64.8152 8.73657 64.8152 8.8798 64.8152H9.30946H9.73913C12.3171 64.8152 15.0384 64.6695 17.7596 64.8152C20.4808 64.5239 23.202 64.5239 26.0665 64.8152C28.931 64.5239 31.7954 64.6695 34.6599 64.8152C37.5243 64.9609 40.532 64.5239 43.5396 64.8152C46.5473 64.8152 49.555 64.6695 52.7059 64.8152C55.8568 64.9609 58.8645 65.1065 62.0153 64.8152C65.1662 64.6695 68.3171 64.6695 71.6113 64.8152C74.7622 64.5239 78.0563 64.6695 81.3504 64.8152C84.6445 64.8152 87.9386 64.9609 91.2327 64.8152C94.5269 64.8152 97.9642 64.6695 101.258 64.8152C101.974 64.8152 102.691 64.8152 103.407 64.5239C103.55 64.5239 103.693 64.3782 103.98 64.3782L104.266 64.2326C104.409 64.2326 104.409 64.0869 104.552 64.0869C104.696 63.9413 104.839 63.9413 105.125 63.7956L105.555 63.5043C105.698 63.5043 105.698 63.3587 105.841 63.3587L106.128 63.213C106.271 63.0674 106.414 62.9217 106.558 62.9217C106.701 62.7761 106.844 62.6304 106.987 62.4848L107.417 62.0478C107.56 61.9022 107.703 61.7565 107.703 61.6109C107.847 61.4652 107.99 61.3195 107.99 61.1739L108.276 60.7369L108.419 60.1543C108.706 59.4261 108.849 58.6978 108.992 57.9695V57.6782C108.992 57.5326 108.992 57.5326 108.992 57.3869V56.8043C108.992 56.3674 108.992 55.9304 108.992 55.4935C108.992 53.7456 109.136 52.1435 108.992 50.3956C109.279 47.0456 108.849 43.6956 108.992 40.4913C108.992 37.2869 109.136 33.9369 108.992 30.7326C108.992 27.5282 108.849 24.3239 108.992 21.2652C108.563 18.0609 109.136 15.0022 108.992 11.9435C108.992 11.5065 108.992 11.2152 108.992 10.7782C108.992 10.3413 108.992 10.05 108.992 9.61303C108.992 9.46737 108.992 9.32172 108.992 9.17607L109.708 8.73911V8.44781C109.708 8.30216 109.708 8.30216 109.708 8.15651L109.565 7.71955C109.136 6.40868 108.419 5.38911 107.417 4.36955C107.13 4.2239 106.987 3.93259 106.701 3.78694L106.271 3.49564L105.985 3.20433L105.841 3.05868L105.698 2.91303L105.269 2.62172C105.125 2.62172 104.982 2.47607 104.839 2.47607C104.696 2.47607 104.552 2.33042 104.409 2.33042C104.123 2.18477 103.836 2.18477 103.55 2.03911L103.12 1.89346H102.691C102.404 1.89346 101.974 1.89346 101.688 1.89346C101.402 1.89346 100.972 1.89346 100.685 1.89346C97.821 1.89346 95.0997 2.03911 92.3785 1.89346C89.6573 2.18477 86.9361 1.74781 84.3581 1.89346C81.7801 1.89346 79.202 1.89346 76.624 1.89346C74.046 1.4565 71.6113 1.89346 69.1765 1.89346C66.7417 1.89346 64.4501 2.18477 62.1586 1.89346C59.867 1.89346 57.7187 1.74781 55.4271 1.89346C53.2788 1.89346 51.1304 1.31085 49.1253 1.89346C47.1202 2.03911 45.1151 1.4565 43.2532 1.89346C41.3913 2.18477 39.5294 1.89346 37.8107 1.89346C36.0921 1.89346 34.3734 1.89346 32.798 1.89346C25.6368 1.74781 19.9079 1.74781 16.0409 1.60216C13.8926 1.31085 12.3171 1.31085 11.4578 1.1652C10.4552 1.1652 9.88235 1.1652 9.88235 1.01955C9.88235 1.01955 10.4552 0.873896 11.7442 0.873896C13.0332 0.873896 14.7519 0.728244 17.1867 0.728244C21.913 0.582592 28.7877 0.582592 37.5243 0.43694C39.243 0.43694 41.1049 0.145635 42.9668 0.43694C44.8286 0.43694 46.8338 0.291288 48.8389 0.43694C50.844 -1.68085e-05 52.9923 0.43694 55.1407 0.43694C57.289 0.43694 59.5806 0.582592 61.8721 0.43694C64.1637 0.291288 66.4552 0.582592 68.89 0.43694C71.3248 0.728244 73.7596 0.582592 76.3376 0.43694C78.9156 0.582592 81.4936 0.43694 84.0716 0.43694C86.6496 0.728244 89.3708 0.582592 92.0921 0.43694C94.8133 0.291288 97.5345 0.43694 100.399 0.43694C100.685 0.43694 101.115 0.43694 101.402 0.43694C101.688 0.43694 102.118 0.43694 102.547 0.43694H103.12L103.693 0.582592C104.123 0.582592 104.409 0.728244 104.839 0.873896C106.414 1.31085 107.847 2.18477 108.992 3.34998C110.138 4.5152 111.141 5.97172 111.714 7.5739V7.71955C111.714 7.8652 111.714 7.8652 111.857 8.01085V8.30216L112 8.88477C112 9.03042 112 9.32172 112 9.46737C112 9.90433 112 10.1956 112 10.6326C112 11.0695 112 11.3609 112 11.7978C112.143 14.8565 112 17.9152 112 21.1195C112.143 24.1782 112 27.3826 112 30.5869C112 33.7913 111.714 36.9956 112 40.3456C112 43.55 112 46.9 112 50.25C112 51.8522 112 53.6 112 55.3478C112 55.7848 112 56.2217 112 56.6587V57.3869C112 57.5326 112 57.6782 112 57.6782V57.9695C111.857 58.8435 111.57 59.863 111.284 60.7369C110.281 62.3391 109.136 63.7956 107.56 64.9608L106.987 65.3978C106.844 65.5435 106.558 65.6891 106.414 65.6891C106.271 65.6891 106.271 65.8348 106.128 65.8348L105.841 65.9804C105.555 66.1261 105.412 66.1261 105.125 66.2717C104.266 66.563 103.263 66.7087 102.261 66.8543C98.8235 67 95.5294 66.8543 92.2353 66.8543C88.9412 66.8543 85.6471 66.8543 82.3529 66.8543C79.0588 67 75.7647 66.7087 72.6138 66.8543C69.4629 67 66.1688 66.7087 63.0179 66.8543C59.867 67 56.7161 67 53.7084 66.8543C50.7008 66.8543 47.5499 66.563 44.5422 66.8543C41.5345 66.8543 38.5269 67.2913 35.6624 66.8543C32.798 67 29.9335 66.563 27.0691 66.8543C24.2046 66.4174 21.4834 66.8543 18.7621 66.8543C16.0409 66.7087 13.3197 66.7087 10.7417 66.8543H10.312H9.73913C9.59591 66.8543 9.30946 66.8543 9.16624 66.8543L8.59335 66.7087C7.87724 66.563 7.16113 66.4174 6.58824 66.1261C5.29923 65.5435 4.15345 64.6695 3.1509 63.65C2.14834 62.6304 1.43223 61.4652 1.00256 60.0087C0.859336 59.2804 0.716113 58.6978 0.572891 57.9695C0.572891 57.8239 0.572891 57.6782 0.572891 57.5326V57.0956C0.572891 56.95 0.572891 56.8043 0.572891 56.6587C0.572891 56.513 0.572891 56.3674 0.572891 56.2217C0.572891 53.7456 0.572891 51.4152 0.572891 49.0848C0.143223 46.7543 0.572891 44.5695 0.572891 42.2391C0.572891 40.0543 0.286446 37.8695 0.572891 35.8304C0.143223 33.7913 0.572891 31.7522 0.572891 29.8587C0.716113 27.9652 0.429668 26.0717 0.572891 24.3239C0.286446 22.5761 0.716113 20.8282 0.572891 19.2261C0.716113 17.6239 0.572891 16.0217 0.572891 14.5652C0.572891 13.1087 0.572891 11.6522 0.572891 10.3413C0.572891 9.03042 0.859336 7.71955 1.289 6.55433C1.43223 6.26303 1.57545 5.97172 1.71867 5.82607C1.71867 5.68042 1.86189 5.68042 1.86189 5.53477C1.86189 5.38911 2.00512 5.38911 2.00512 5.24346C2.14834 5.09781 2.29156 4.95216 2.29156 4.66085C2.43478 4.66085 2.57801 4.36955 2.72123 4.2239C2.72123 4.07824 2.86445 3.93259 3.00767 3.78694C3.1509 3.64129 3.29412 3.49564 3.43734 3.34998C3.58056 3.20433 3.72379 3.05868 3.86701 3.05868C4.01023 2.91303 4.01023 2.91303 4.15345 2.76737C5.29923 1.89346 6.30179 1.4565 7.16113 1.31085C8.02046 1.01955 8.73657 1.01955 9.16624 1.01955C9.59591 1.01955 9.88235 1.01955 9.88235 1.01955Z" fill="#212529"/>
<path d="M8.45014 15.4391C8.59336 15.4391 8.73658 16.4587 8.8798 18.2065C8.8798 18.4978 8.8798 18.7891 8.8798 19.2261C8.8798 19.5174 9.02302 19.9543 8.8798 20.3913C8.73658 20.8282 9.16625 21.2652 8.8798 21.7021C8.73658 22.1391 8.8798 22.5761 8.8798 23.013C8.8798 23.45 8.73658 24.0326 8.8798 24.4695C9.16625 25.0521 8.45013 25.4891 8.8798 26.0717C9.02302 26.6543 8.8798 27.2369 8.8798 27.8195C8.59336 28.4021 8.8798 28.9848 8.8798 29.713C8.59336 30.2956 8.73658 31.0239 8.8798 31.6065C8.45013 32.3348 8.45013 32.9174 8.8798 33.6456C8.8798 34.3739 8.73658 35.1021 8.8798 35.8304C8.8798 36.1217 8.8798 36.1217 8.8798 36.2674V36.413H9.02303C9.16625 36.2674 9.16625 36.2674 9.16625 36.2674H9.30947C9.45269 36.2674 9.45269 36.2674 9.59591 36.2674C10.0256 36.2674 10.312 36.2674 10.7417 36.413C11.4578 36.1217 12.3171 36.2674 13.0333 36.413C13.7494 36.5587 14.6087 36.1217 15.468 36.413C16.3274 36.413 17.0435 36.2674 17.9028 36.413C18.7622 36.5587 19.6215 36.7043 20.4808 36.413C21.3402 36.2674 22.1995 36.2674 23.0588 36.413C23.9182 36.1217 24.7775 36.2674 25.6368 36.413C26.4962 36.413 27.3555 36.5587 28.3581 36.413C28.7877 36.413 29.2174 36.413 29.6471 36.413C29.6471 36.413 29.6471 36.413 29.7903 36.413C29.7903 36.413 29.7903 36.413 29.9335 36.413C29.9335 35.9761 29.9335 35.5391 29.7903 35.1021C29.5038 34.2282 29.9335 33.2087 29.7903 32.3348C30.0767 31.4608 29.6471 30.5869 29.7903 29.713C29.7903 28.8391 29.9335 27.9652 29.7903 27.0913C29.7903 26.2174 29.6471 25.3435 29.7903 24.4695C29.3606 23.5956 29.9335 22.7217 29.7903 21.9935C29.9335 21.1195 29.7903 20.3913 29.7903 19.5174C29.7903 19.0804 29.7903 18.7891 29.7903 18.3521C29.7903 18.2065 29.7903 17.9152 29.7903 17.7695C29.7903 17.6239 29.7903 17.6239 29.7903 17.4782V17.3326C29.7903 17.1869 29.7903 17.1869 29.7903 17.0413C29.6471 17.0413 29.6471 17.0413 29.6471 16.8956C29.6471 16.8956 29.6471 16.8956 29.5038 16.8956C29.3606 16.8956 29.3606 16.8956 29.2174 16.8956C29.0742 16.8956 28.7877 16.8956 28.6445 16.8956C28.2148 16.8956 27.9284 16.75 27.642 16.8956C26.9258 16.8956 26.2097 16.8956 25.4936 16.8956C24.7775 16.4587 24.2046 16.8956 23.4885 16.8956C22.7724 16.8956 22.1995 17.1869 21.6266 16.8956C21.0537 16.8956 20.4808 16.75 19.7647 16.8956C19.1918 16.8956 18.6189 16.313 18.046 16.8956C17.4732 17.0413 17.0435 16.4587 16.4706 16.8956C15.8977 17.1869 15.468 16.8956 15.0384 16.8956C14.6087 16.8956 14.179 16.8956 13.7494 16.8956C10.5985 15.8761 8.45014 15.5848 8.45014 15.4391C8.45014 15.1478 11.1714 15.0021 15.8977 14.8565C16.3274 14.8565 16.9003 14.5652 17.3299 14.8565C17.9028 14.8565 18.3325 14.7108 18.9054 14.8565C19.4783 14.4195 20.0512 14.8565 20.624 14.8565C21.1969 14.8565 21.7698 15.0021 22.4859 14.8565C23.0588 14.7108 23.7749 15.0021 24.3478 14.8565C25.0639 15.1478 25.6368 15.0021 26.3529 14.8565C27.0691 15.1478 27.7852 14.8565 28.5013 14.8565C28.7877 15.0021 29.2174 15.0021 29.5038 15.0021C29.6471 15.0021 29.9335 15.0021 30.0767 14.8565H30.3632H30.7928C31.3657 14.8565 32.0818 14.8565 32.6547 14.8565C32.6547 15.5848 32.6547 16.313 32.6547 17.0413V17.3326C32.6547 17.4782 32.6547 17.4782 32.6547 17.6239C32.6547 17.7695 32.6547 18.0608 32.6547 18.2065C32.6547 18.6435 32.6547 18.9348 32.6547 19.3717C32.798 20.1 32.798 20.9739 32.6547 21.8478C32.798 22.7217 32.6547 23.45 32.6547 24.3239C32.798 25.1978 32.6547 26.0717 32.6547 26.9456C32.6547 27.8195 32.3683 28.6935 32.6547 29.5674C32.6547 30.4413 32.6547 31.3152 32.6547 32.1891C32.6547 33.063 32.5115 33.9369 32.6547 34.9565C32.5115 35.3935 32.3683 35.8304 32.5115 36.2674C32.5115 36.413 32.5115 36.7043 32.5115 36.85C32.5115 36.9956 32.5115 37.2869 32.5115 37.4326C32.5115 37.8695 32.6547 38.3065 32.6547 38.7435C32.2251 38.7435 31.7954 38.7435 31.3657 38.7435H30.6496H30.0767C29.6471 38.7435 29.2174 38.7435 28.7877 38.7435C27.9284 38.7435 26.9258 38.7435 26.0665 38.7435C25.2072 38.8891 24.3478 38.5978 23.4885 38.7435C22.6292 38.8891 21.7698 38.5978 20.9105 38.7435C20.0512 38.8891 19.1918 38.8891 18.3325 38.7435C17.4732 38.7435 16.6138 38.4522 15.8977 38.7435C15.0384 38.7435 14.3223 39.1804 13.4629 38.7435C12.7468 38.8891 11.8875 38.4522 11.1714 38.7435C10.7417 38.5978 10.4553 38.5978 10.0256 38.5978C9.88236 38.5978 9.88236 38.5978 9.73914 38.5978H9.59591H9.30947C9.02303 38.5978 8.59336 38.5978 8.30691 38.5978C8.02047 38.5978 7.5908 38.5978 7.30435 38.5978C7.30435 38.1608 7.30435 37.7239 7.30435 37.1413C7.30435 36.7043 7.30435 36.1217 7.16113 35.9761C7.01791 35.2478 7.30435 34.5195 7.16113 33.7913C7.01791 33.063 7.44758 32.4804 7.16113 31.7521C7.16113 31.0239 7.16113 30.4413 7.16113 29.8587C6.73146 29.2761 7.16113 28.6935 7.16113 27.9652C7.16113 27.3826 6.87469 26.8 7.16113 26.2174C6.73146 25.6348 7.16113 25.1978 7.16113 24.6152C7.30435 24.0326 7.01791 23.5956 7.16113 23.1587C6.87469 22.7217 7.30435 22.2848 7.16113 21.8478C7.30435 21.4108 7.16113 20.9739 7.16113 20.5369C7.16113 20.1 7.16113 19.8087 7.16113 19.3717C7.16113 19.0804 7.16113 18.6435 7.16113 18.3521C8.16369 16.4587 8.30691 15.4391 8.45014 15.4391Z" fill="#212529"/>
<path d="M98.9668 15.2934C98.9668 15.4391 98.2506 15.5847 97.1049 15.7304C96.9616 15.7304 96.6752 15.7304 96.3888 15.7304C96.1023 15.7304 95.9591 15.876 95.6726 15.7304C95.3862 15.5847 95.0997 16.0217 94.8133 15.7304C94.5269 15.5847 94.2404 15.7304 93.954 15.7304C93.6675 15.7304 93.3811 15.5847 92.9514 15.7304C92.665 16.0217 92.2353 15.2934 91.9488 15.7304C91.5192 15.876 91.2327 15.7304 90.8031 15.7304C90.3734 15.4391 89.9437 15.7304 89.6573 15.7304C89.2276 15.4391 88.798 15.5847 88.3683 15.7304C87.9386 15.2934 87.509 15.2934 87.0793 15.7304C86.6496 15.7304 86.22 15.5847 85.6471 15.7304C85.2174 15.7304 84.6445 15.876 84.2148 15.7304C83.7852 16.0217 83.2123 16.0217 82.7826 15.7304C82.2097 16.0217 81.7801 15.876 81.2072 15.7304C80.6343 15.5847 80.2046 16.0217 79.6317 15.7304C79.0588 15.7304 78.4859 15.876 78.0563 15.7304C77.4834 15.5847 76.9105 15.4391 76.3376 15.7304C75.7647 15.876 75.1918 15.876 74.6189 15.7304C74.046 16.0217 73.4732 15.876 72.9003 15.7304C72.3274 15.7304 71.7545 15.5847 71.1816 15.7304C70.6087 15.7304 70.0358 15.876 69.3197 15.7304C68.7468 15.5847 68.1739 15.5847 67.4578 15.7304C66.8849 16.0217 66.312 15.5847 65.7391 15.7304C65.1662 15.4391 64.5934 15.876 64.0205 15.7304C63.4476 15.7304 62.8747 15.5847 62.3018 15.7304C61.7289 15.7304 61.156 15.876 60.5831 15.7304C60.0102 16.1673 59.4373 15.5847 59.0077 15.7304C58.4348 15.5847 58.0051 15.7304 57.4322 15.7304C56.8593 15.876 56.4297 15.4391 55.8568 15.7304C55.2839 15.7304 54.8542 15.876 54.4246 15.7304C53.9949 16.0217 53.422 15.5847 52.9923 15.7304C52.5627 15.7304 51.9898 15.7304 51.5601 15.7304C51.1304 15.2934 50.7008 15.7304 50.2711 15.7304C49.8414 15.7304 49.4118 16.0217 48.9821 15.7304C48.5524 15.7304 48.1228 15.5847 47.8363 15.7304C47.4067 15.7304 47.1202 15.1478 46.6905 15.7304C46.2609 15.876 45.9744 15.2934 45.688 15.7304C45.4015 16.0217 44.9719 15.7304 44.6854 15.7304C44.399 15.7304 44.1125 15.7304 43.8261 15.7304C41.2481 15.5847 39.8159 15.2934 39.8159 15.1478C39.8159 14.8565 41.6777 14.7108 44.8286 14.5652C45.1151 14.5652 45.4015 14.2739 45.8312 14.5652C46.1176 14.5652 46.5473 14.4195 46.8338 14.5652C47.2634 14.1282 47.5499 14.5652 47.9795 14.5652C48.4092 14.5652 48.8389 14.7108 49.1253 14.5652C49.555 14.4195 49.9847 14.7108 50.4143 14.5652C50.844 14.8565 51.2737 14.7108 51.7033 14.5652C52.133 14.7108 52.5627 14.5652 53.1355 14.5652C53.5652 14.8565 54.1381 14.7108 54.5678 14.5652C54.9974 14.4195 55.5703 14.5652 56 14.5652C56.5729 14.5652 57.0026 14.4195 57.5755 14.5652C58.1483 14.4195 58.578 14.4195 59.1509 14.5652C59.7238 14.4195 60.2967 14.5652 60.7263 14.5652C61.2992 14.4195 61.8721 14.5652 62.445 14.5652C63.0179 14.5652 63.5908 14.8565 64.1637 14.5652C64.7366 14.5652 65.3095 14.5652 65.8824 14.5652C66.4552 14.5652 67.0281 14.7108 67.601 14.5652C68.1739 15.0021 68.7468 14.7108 69.4629 14.5652C70.0358 14.4195 70.6087 14.5652 71.3248 14.5652C71.8977 14.5652 72.4706 14.5652 73.0435 14.5652C73.6164 14.4195 74.1893 14.7108 74.7622 14.5652C75.335 14.4195 75.9079 14.7108 76.4808 14.5652C77.0537 14.4195 77.6266 14.4195 78.1995 14.5652C78.7724 14.5652 79.3453 14.8565 79.7749 14.5652C80.3478 14.5652 80.7775 14.1282 81.3504 14.5652C81.9233 14.4195 82.3529 14.8565 82.9258 14.5652C83.4987 15.0021 83.9284 14.5652 84.3581 14.5652C84.7877 14.7108 85.3606 14.7108 85.7903 14.5652C86.22 14.4195 86.7928 14.7108 87.2225 14.5652C87.6522 14.4195 88.0818 14.8565 88.5115 14.5652C88.9412 14.5652 89.3708 14.5652 89.8005 14.5652C90.2302 14.1282 90.6599 14.5652 90.9463 14.5652C91.376 14.7108 91.6624 14.2739 92.0921 14.5652C92.5217 14.1282 92.8082 14.5652 93.0946 14.5652C93.3811 14.7108 93.8107 14.4195 94.0972 14.5652C94.3836 14.2739 94.6701 14.7108 94.9565 14.5652C95.243 14.7108 95.5294 14.5652 95.8159 14.5652C96.1023 14.5652 96.3888 14.5652 96.532 14.5652C96.8184 14.5652 96.9616 14.5652 97.2481 14.5652C98.2506 15.0021 98.9668 15.1478 98.9668 15.2934Z" fill="#212529"/>
<path d="M99.8261 55.6391C99.8261 55.7848 98.8235 55.9304 96.9616 56.0761C96.6752 56.0761 96.3887 56.0761 95.9591 56.0761C95.6726 56.0761 95.243 56.2217 94.8133 56.0761C94.3836 55.9304 93.954 56.3674 93.5243 56.0761C93.0946 55.9304 92.665 56.0761 92.0921 56.0761C91.6624 56.0761 91.0895 55.9304 90.6599 56.0761C90.087 56.3674 89.6573 55.6391 89.0844 56.0761C88.5115 56.2217 87.9386 56.0761 87.3657 56.0761C86.7928 55.7848 86.22 56.0761 85.5038 56.0761C84.931 55.7848 84.2148 55.9304 83.642 56.0761C82.9258 55.6391 82.3529 55.6391 81.6368 56.0761C80.9207 56.0761 80.2046 55.9304 79.4885 56.0761C78.7724 56.0761 78.0563 56.2217 77.3402 56.0761C76.624 56.3674 75.7647 56.3674 75.0486 56.0761C74.3325 56.3674 73.4732 56.2217 72.6138 56.0761C71.7545 55.9304 71.0384 56.3674 70.179 56.0761C69.3197 56.0761 68.4604 56.2217 67.7442 56.0761C66.8849 55.9304 66.0256 55.7848 65.1662 56.0761C64.3069 56.2217 63.4476 56.2217 62.5882 56.0761C61.7289 56.3674 60.8696 56.2217 59.867 56.0761C59.0077 56.0761 58.0051 55.9304 57.1458 56.0761C56.2864 56.0761 55.2839 56.2217 54.4246 56.0761C53.5652 55.9304 52.5627 55.9304 51.7033 56.0761C50.844 56.3674 49.8414 55.9304 48.9821 56.0761C48.1228 55.7848 47.1202 56.2217 46.2609 56.0761C45.4015 56.0761 44.5422 55.9304 43.6829 56.0761C42.8235 56.0761 41.9642 56.2217 41.1049 56.0761C40.2455 56.5131 39.3862 55.9304 38.6701 56.0761C37.8107 55.9304 37.0946 56.0761 36.2353 56.0761C35.376 56.2217 34.6598 55.7848 33.9437 56.0761C33.2276 56.0761 32.3683 56.2217 31.6522 56.0761C30.9361 56.3674 30.2199 55.9304 29.5038 56.0761C28.7877 56.0761 28.0716 56.0761 27.3555 56.0761C26.6394 55.6391 25.9233 56.0761 25.3504 56.0761C24.6343 56.0761 24.0614 56.3674 23.4885 56.0761C22.9156 56.0761 22.1995 55.9304 21.6266 56.0761C21.0537 56.0761 20.4808 55.4935 19.9079 56.0761C19.335 56.2217 18.7621 55.6391 18.3325 56.0761C17.7596 56.3674 17.3299 56.0761 16.9003 56.0761C16.4706 56.0761 15.8977 56.0761 15.468 56.0761C11.4578 55.9304 9.30946 55.6391 9.30946 55.4935C9.30946 55.2022 12.0307 55.0565 16.9003 54.9109C17.3299 54.9109 17.9028 54.6196 18.3325 54.9109C18.9054 54.9109 19.335 54.7652 19.9079 54.9109C20.4808 54.4739 21.0537 54.9109 21.6266 54.9109C22.1995 54.9109 22.7724 55.0565 23.4885 54.9109C24.0614 54.7652 24.7775 55.0565 25.3504 54.9109C26.0665 55.2022 26.6394 55.0565 27.3555 54.9109C28.0716 55.2022 28.7877 54.9109 29.5038 54.9109C30.2199 55.2022 30.9361 55.0565 31.6522 54.9109C32.3683 54.7652 33.2276 54.9109 33.9437 54.9109C34.6598 54.9109 35.5192 54.7652 36.2353 54.9109C37.0946 54.7652 37.8107 54.7652 38.6701 54.9109C39.5294 54.7652 40.3888 54.9109 41.1049 54.9109C41.9642 54.7652 42.8235 54.9109 43.6829 54.9109C44.5422 54.9109 45.4015 55.2022 46.2609 54.9109C47.1202 54.9109 47.9795 54.9109 48.9821 54.9109C49.8414 54.9109 50.844 55.0565 51.7033 54.9109C52.5627 55.3478 53.5652 55.0565 54.4246 54.9109C55.2839 54.7652 56.2864 54.9109 57.1458 54.9109C58.0051 54.9109 59.0077 54.9109 59.867 54.9109C60.7263 54.7652 61.7289 55.0565 62.5882 54.9109C63.4476 54.7652 64.3069 55.0565 65.1662 54.9109C66.0256 54.7652 66.8849 54.7652 67.7442 54.9109C68.6036 54.9109 69.4629 55.2022 70.179 54.9109C71.0384 54.9109 71.7545 54.4739 72.6138 54.9109C73.4732 54.7652 74.1893 55.2022 75.0486 54.9109C75.7647 55.3478 76.624 54.9109 77.3402 54.9109C78.0563 54.9109 78.7724 55.0565 79.4885 54.9109C80.2046 54.7652 80.9207 55.0565 81.6368 54.9109C82.3529 54.7652 83.0691 55.2022 83.642 54.9109C84.3581 54.9109 84.931 54.9109 85.5038 54.9109C86.0767 54.4739 86.7928 54.9109 87.3657 54.9109C87.9386 54.9109 88.5115 54.6196 89.0844 54.9109C89.6573 54.4739 90.2302 54.9109 90.6599 54.9109C91.2327 55.0565 91.6624 54.7652 92.0921 54.9109C92.5217 54.6196 93.0946 55.0565 93.5243 54.9109C93.954 55.0565 94.3836 54.9109 94.8133 54.9109C95.243 54.9109 95.5294 54.9109 95.9591 54.9109C96.2455 54.9109 96.6752 54.9109 96.9616 54.9109C98.8235 55.3478 99.8261 55.4935 99.8261 55.6391Z" fill="#212529"/>
<path d="M98.9668 37.4326C98.9668 37.5782 98.2506 37.7239 97.1049 37.8696C96.9616 37.8696 96.6752 37.8696 96.3888 37.8696C96.1023 37.8696 95.9591 38.0152 95.6726 37.8696C95.3862 37.7239 95.0997 38.1609 94.8133 37.8696C94.5269 37.7239 94.2404 37.8696 93.954 37.8696C93.6675 37.8696 93.3811 37.7239 92.9514 37.8696C92.665 38.1609 92.2353 37.4326 91.9488 37.8696C91.5192 38.0152 91.2327 37.8696 90.8031 37.8696C90.3734 37.5782 89.9437 37.8696 89.6573 37.8696C89.2276 37.5782 88.798 37.7239 88.3683 37.8696C87.9386 37.4326 87.509 37.4326 87.0793 37.8696C86.6496 37.8696 86.22 37.7239 85.6471 37.8696C85.2174 37.8696 84.6445 38.0152 84.2148 37.8696C83.7852 38.1609 83.2123 38.1609 82.7826 37.8696C82.2097 38.1609 81.7801 38.0152 81.2072 37.8696C80.6343 37.7239 80.2046 38.1609 79.6317 37.8696C79.0588 37.8696 78.4859 38.0152 78.0563 37.8696C77.4834 37.7239 76.9105 37.5782 76.3376 37.8696C75.7647 38.0152 75.1918 38.0152 74.6189 37.8696C74.046 38.1609 73.4732 38.0152 72.9003 37.8696C72.3274 37.8696 71.7545 37.7239 71.1816 37.8696C70.6087 37.8696 70.0358 38.0152 69.3197 37.8696C68.7468 37.7239 68.1739 37.7239 67.4578 37.8696C66.8849 38.1609 66.312 37.7239 65.7391 37.8696C65.1662 37.5782 64.5934 38.0152 64.0205 37.8696C63.4476 37.8696 62.8747 37.7239 62.3018 37.8696C61.7289 37.8696 61.156 38.0152 60.5831 37.8696C60.0102 38.3065 59.4373 37.7239 59.0077 37.8696C58.4348 37.7239 58.0051 37.8696 57.4322 37.8696C56.8593 38.0152 56.4297 37.5782 55.8568 37.8696C55.2839 37.8696 54.8542 38.0152 54.4246 37.8696C53.9949 38.1609 53.422 37.7239 52.9923 37.8696C52.5627 37.8696 51.9898 37.8696 51.5601 37.8696C51.1304 37.4326 50.7008 37.8696 50.2711 37.8696C49.8414 37.8696 49.4118 38.1609 48.9821 37.8696C48.5524 37.8696 48.1228 37.7239 47.8363 37.8696C47.4067 37.8696 47.1202 37.2869 46.6905 37.8696C46.2609 38.0152 45.9744 37.4326 45.688 37.8696C45.4015 38.1609 44.9719 37.8696 44.6854 37.8696C44.399 37.8696 44.1125 37.8696 43.8261 37.8696C41.2481 37.7239 39.8159 37.4326 39.8159 37.2869C39.8159 36.9956 41.6777 36.85 44.8286 36.7043C45.1151 36.7043 45.4015 36.413 45.8312 36.7043C46.1176 36.7043 46.5473 36.5587 46.8338 36.7043C47.2634 36.2674 47.5499 36.7043 47.9795 36.7043C48.4092 36.7043 48.8389 36.85 49.1253 36.7043C49.555 36.5587 49.9847 36.85 50.4143 36.7043C50.844 36.9956 51.2737 36.85 51.7033 36.7043C52.133 36.9956 52.5627 36.7043 53.1355 36.7043C53.5652 36.9956 54.1381 36.85 54.5678 36.7043C54.9974 36.5587 55.5703 36.7043 56 36.7043C56.5729 36.7043 57.0026 36.5587 57.5755 36.7043C58.1483 36.5587 58.578 36.5587 59.1509 36.7043C59.7238 36.5587 60.2967 36.7043 60.7263 36.7043C61.2992 36.5587 61.8721 36.7043 62.445 36.7043C63.0179 36.7043 63.5908 36.9956 64.1637 36.7043C64.7366 36.7043 65.3095 36.7043 65.8824 36.7043C66.4552 36.7043 67.0281 36.85 67.601 36.7043C68.1739 37.1413 68.7468 36.85 69.4629 36.7043C70.0358 36.5587 70.6087 36.7043 71.3248 36.7043C71.8977 36.7043 72.4706 36.7043 73.0435 36.7043C73.6164 36.5587 74.1893 36.85 74.7622 36.7043C75.335 36.5587 75.9079 36.85 76.4808 36.7043C77.0537 36.5587 77.6266 36.5587 78.1995 36.7043C78.7724 36.7043 79.3453 36.9956 79.7749 36.7043C80.3478 36.7043 80.7775 36.2674 81.3504 36.7043C81.9233 36.5587 82.3529 36.9956 82.9258 36.7043C83.4987 37.1413 83.9284 36.7043 84.3581 36.7043C84.7877 36.7043 85.3606 36.85 85.7903 36.7043C86.22 36.5587 86.7928 36.85 87.2225 36.7043C87.6522 36.5587 88.0818 36.9956 88.5115 36.7043C88.9412 36.7043 89.3708 36.7043 89.8005 36.7043C90.2302 36.2674 90.6599 36.7043 90.9463 36.7043C91.376 36.7043 91.6624 36.413 92.0921 36.7043C92.5217 36.2674 92.8082 36.7043 93.0946 36.7043C93.3811 36.85 93.8107 36.5587 94.0972 36.7043C94.3836 36.413 94.6701 36.85 94.9565 36.7043C95.243 36.85 95.5294 36.7043 95.8159 36.7043C96.1023 36.7043 96.3888 36.7043 96.532 36.7043C96.8184 36.7043 96.9616 36.7043 97.2481 36.7043C98.2506 37.1413 98.9668 37.2869 98.9668 37.4326Z" fill="#212529"/>
</g>
<defs>
<clipPath id="clip0_17_264">
<rect width="112" height="67" fill="white"/>
</clipPath>
</defs>
</svg>
