<svg width="126" height="105" viewBox="0 0 126 105" fill="none" xmlns="http://www.w3.org/2000/svg">
<g clip-path="url(#clip0_17_95)">
<path d="M63.4325 3.33507e-06C63.4325 3.33507e-06 62.8558 0.432696 61.8467 1.15385C60.6934 1.875 59.1076 2.88462 56.9451 4.32693C56.2243 4.75962 55.5034 5.19231 54.6384 5.76923C53.7735 6.34616 52.9085 6.92308 52.0435 7.35577C51.0343 7.78846 50.3135 8.79808 49.016 9.23077C47.8627 9.8077 46.8535 10.5288 45.7002 11.25C44.5469 11.9712 43.2494 12.5481 42.0961 13.4135C41.087 14.4231 39.357 14.5673 38.2037 15.7212C36.9062 16.5865 35.4645 17.3077 34.1671 18.1731C32.5812 18.75 31.2838 19.9038 29.8421 20.7692C28.1121 21.3462 26.6705 22.3558 25.2288 23.5096C23.3547 23.9423 21.7689 24.9519 20.4714 26.3942C18.8856 27.4038 17.0114 28.125 15.4256 29.4231C14.5606 30 13.6957 30.4327 12.8307 31.0096C12.3982 31.2981 11.9657 31.5865 11.5332 31.7308C11.2449 31.875 11.1007 32.0192 10.8124 32.1635L10.524 32.3077L10.3799 32.4519H10.2357C9.94737 32.8846 10.3799 32.7404 9.65904 33.0288L9.51488 33.1731C10.0915 32.8846 10.0915 32.8846 10.2357 32.8846H10.3799H10.524H10.9565C11.5332 32.8846 12.1098 33.0288 12.5423 33.0288C14.7048 33.1731 17.0114 32.7404 19.3181 33.0288C21.6247 33.0288 23.9314 32.8846 26.238 33.0288C28.5446 33.1731 30.9954 33.3173 33.3021 33.0288C35.7529 32.8846 38.0595 32.8846 40.5103 33.0288C42.9611 32.5962 45.4119 32.8846 48.0069 33.0288C50.4577 33.0288 53.0526 33.1731 55.5034 33.0288C58.0984 33.0288 60.5492 32.8846 63.1442 33.0288C65.7391 33.1731 68.3341 33.3173 70.7849 33.0288C73.3799 32.7404 75.8307 33.1731 78.2815 33.0288C80.7323 33.3173 83.3272 32.8846 85.778 33.0288C88.2288 33.0288 90.6796 33.1731 92.9863 33.0288C95.4371 33.0288 97.7437 32.8846 100.05 33.0288C102.357 32.4519 104.664 33.1731 106.97 33.0288C109.277 33.3173 111.439 33.0288 113.746 33.0288C114.323 33.0288 114.899 33.0288 115.332 33.0288H115.764H115.908H116.053H116.197C116.341 33.0288 116.485 33.0288 116.629 33.0288C116.773 33.0288 116.918 33.0288 116.918 32.8846C117.062 32.8846 117.062 32.8846 117.206 32.8846C116.918 32.7404 116.773 32.5962 116.485 32.5962C116.341 32.4519 116.197 32.4519 116.053 32.3077H115.908L115.764 32.1635C115.62 32.1635 115.476 32.0192 115.476 32.0192C115.188 31.875 115.043 31.7308 114.755 31.5865C114.323 31.2981 113.89 31.0096 113.458 30.7212C112.593 30.1442 111.728 29.5673 110.863 29.1346C109.133 28.125 107.403 27.1154 105.817 26.1058C104.375 24.8077 102.645 24.0865 101.059 23.2212C99.4737 22.2115 97.8879 21.6346 96.4462 20.4808C95.0046 19.6154 93.5629 18.6058 92.1213 17.8846C90.6796 17.1635 89.6705 15.7212 88.0847 15.4327C86.643 14.7115 85.6339 13.5577 84.1922 13.125C82.7506 12.6923 81.7414 11.6827 80.5881 10.9615C79.4348 10.2404 78.4256 9.66346 77.2723 8.94231C72.659 6.0577 68.9108 3.89423 66.46 2.3077C64.73 1.00962 63.4325 0.144234 63.4325 3.33507e-06C63.5767 -0.144227 65.3066 0.721157 68.4783 2.45193C71.6499 4.1827 76.2632 6.77885 82.0298 9.95193C83.1831 10.6731 84.4806 11.1058 85.6339 11.9712C86.9314 12.6923 88.2288 13.2692 89.5263 14.1346C91.1121 14.5673 92.2654 15.7212 93.7071 16.4423C95.1487 17.3077 96.5904 18.1731 98.1762 18.8942C99.762 19.6154 101.204 20.7692 102.789 21.4904C104.231 22.6442 105.961 23.5096 107.691 24.2308C109.277 25.3846 111.007 26.1058 112.737 27.1154C113.458 27.8365 114.323 28.2692 115.332 28.8462C115.764 29.1346 116.197 29.2788 116.773 29.5673C117.062 29.7115 117.206 29.8558 117.494 29.8558L117.783 30L117.927 30.1442C117.927 30.1442 118.071 30.1442 118.215 30.2885C119.513 31.0096 120.954 31.875 122.252 32.5962C123.549 33.3173 124.847 34.1827 126.144 34.9039C125.423 34.9039 124.847 34.9039 124.27 34.9039C122.252 34.9039 120.378 34.9039 118.503 34.9039C117.783 34.9039 116.918 34.9039 116.053 34.9039C115.476 34.9039 114.899 34.9039 114.467 34.9039C112.304 35.0481 109.998 35.1923 107.691 34.9039C105.384 35.0481 103.078 34.9039 100.771 34.9039C98.4645 35.0481 96.0137 34.9039 93.7071 34.9039C91.2563 35.0481 88.9497 34.4712 86.4989 34.9039C84.0481 34.9039 81.5973 34.9039 79.0023 34.9039C76.5515 34.9039 73.9565 34.7596 71.5057 34.9039C68.9108 34.4712 66.46 34.7596 63.865 34.9039C61.27 35.0481 58.6751 34.9039 56.2243 34.9039C53.6293 34.9039 51.1785 34.9039 48.7277 34.9039C46.2769 35.0481 43.6819 34.7596 41.2311 34.9039C38.7803 35.0481 36.3295 34.7596 34.0229 34.9039C31.5721 35.0481 29.2654 35.0481 26.9588 34.9039C24.6522 34.9039 22.3455 34.4712 20.0389 34.9039C17.7323 35.0481 15.5698 35.4808 13.2632 34.9039C12.6865 34.9039 12.1098 34.9039 11.6774 34.9039C10.9565 34.9039 10.0915 34.9039 9.37071 34.9039C8.36156 34.9039 7.49657 34.9039 6.63158 34.9039C5.76659 34.9039 4.75744 34.9038 3.60412 35.0481C3.17163 35.0481 2.73913 34.9039 2.16248 34.9039C3.74829 34.0385 4.75744 33.4615 5.91076 32.5962C7.06408 31.875 8.36156 31.0096 9.65904 30.2885C10.0915 30 10.6682 29.8558 11.1007 29.5673C11.5332 29.2788 11.9657 29.1346 12.3982 28.8462C13.2632 28.4135 14.1281 27.8365 14.9931 27.2596C16.5789 26.1058 18.4531 25.3846 20.0389 24.375C21.6247 23.2212 23.4989 22.7885 24.9405 21.6346C26.5263 20.7692 28.1121 19.7596 29.5538 19.0385C30.7071 17.7404 32.5812 17.3077 34.0229 16.5865C35.4645 15.8654 36.6179 14.7115 38.2037 14.2788C39.357 13.125 40.7986 12.6923 42.0961 12.1154C43.3936 11.5385 44.4027 10.5288 45.7002 10.0962C46.7094 9.23077 48.0069 8.94231 49.016 8.22116C50.1693 7.78846 51.0343 7.06731 52.0435 6.49039C52.9085 5.91347 53.9176 5.33654 54.7826 4.90385C55.6476 4.47116 56.3684 4.03846 57.2334 3.60577C59.54 2.3077 61.27 1.44231 62.4233 0.865388C62.7117 0.288465 63.4325 3.33507e-06 63.4325 3.33507e-06Z" fill="#212529"/>
<path d="M21.7689 34.1827C21.913 34.1827 22.0572 34.7596 22.2014 35.7692C22.2014 35.9135 22.2014 36.0577 22.2014 36.3462C22.2014 36.4904 22.3455 36.7789 22.2014 36.9231C22.0572 37.0673 22.6339 37.3558 22.2014 37.6443C22.0572 37.9327 22.2014 38.0769 22.2014 38.3654C22.2014 38.3654 22.2014 38.5096 22.2014 38.6539C22.2014 38.7981 22.2014 38.7981 22.3455 38.7981C22.4897 38.7981 22.4897 38.7981 22.4897 38.9423C22.4897 39.0866 22.3455 39.0866 22.3455 39.2308C22.3455 39.2308 22.4897 39.2308 22.6339 39.0866C22.778 38.9423 22.9222 38.9423 23.0664 39.0866C23.0664 39.0866 23.0664 39.0866 23.0664 39.2308C23.0664 39.2308 23.0664 39.2308 23.2105 39.2308C23.3547 39.2308 23.3547 39.2308 23.4988 39.2308C23.643 39.2308 23.7872 39.0866 24.0755 39.0866C24.3638 39.5193 24.7963 39.2308 25.0847 39.0866C25.373 39.5193 25.8055 39.5193 26.238 39.0866C26.6705 39.0866 26.9588 39.2308 27.3913 39.0866C27.8238 39.0866 28.2563 38.9423 28.5446 39.0866C28.9771 38.7981 29.4096 38.7981 29.8421 39.0866C30.2746 38.7981 30.7071 38.9423 31.1396 39.0866C31.5721 39.2308 32.0046 38.7981 32.4371 39.0866C32.8696 39.0866 33.3021 38.9423 33.7345 39.0866C34.167 39.2308 34.5995 39.375 35.1762 39.0866C35.6087 38.9423 36.1853 38.9423 36.6178 39.0866C37.0503 38.6539 37.627 38.9423 38.0595 39.0866C38.492 39.0866 39.0686 39.2308 39.5011 39.0866C39.7895 39.0866 39.5011 38.9423 39.7895 39.0866H39.9336C39.9336 39.0866 39.9336 39.0866 39.9336 38.9423C39.9336 38.9423 39.9336 38.9423 39.9336 38.7981C39.6453 38.3654 40.0778 37.7885 39.9336 37.3558C40.0778 37.0673 40.0778 36.9231 40.0778 36.6346C40.0778 36.4904 40.0778 36.3462 39.9336 36.2019C39.9336 36.2019 39.9336 36.2019 39.9336 36.0577V35.9135C39.9336 35.9135 39.7895 35.9135 39.7895 36.0577H39.6453H39.5011H39.357C38.9245 36.6346 38.492 35.9135 38.0595 36.0577C37.627 35.7693 37.1945 36.0577 36.762 36.0577C36.3295 36.2019 35.897 35.7693 35.4645 36.0577C35.032 36.0577 34.5995 36.2019 34.167 36.0577C33.7345 36.3462 33.3021 35.7693 33.0137 36.0577C32.5812 36.0577 32.2929 36.0577 31.8604 36.0577C31.4279 35.625 31.1396 36.0577 30.7071 36.0577C30.2746 36.0577 29.9863 36.3462 29.6979 36.0577C29.4096 36.0577 28.9771 35.7693 28.6888 36.0577C28.4005 36.0577 28.1121 35.4808 27.6796 36.0577C27.3913 36.2019 27.103 35.625 26.8146 36.0577C26.5263 36.3462 26.238 36.0577 25.9497 36.0577C25.6613 36.0577 25.373 36.0577 25.2288 36.0577C23.0664 34.6154 21.7689 34.4712 21.7689 34.1827C21.7689 33.8943 23.3547 33.6058 25.9497 33.4616C26.238 33.4616 26.5263 33.1731 26.8146 33.4616C27.103 33.4616 27.3913 33.1731 27.6796 33.4616C27.968 33.0289 28.2563 33.3173 28.6888 33.4616C28.9771 33.4616 29.4096 33.6058 29.6979 33.4616C29.9863 33.1731 30.4188 33.6058 30.7071 33.4616C31.1396 33.75 31.4279 33.6058 31.8604 33.4616C32.2929 33.75 32.5812 33.4616 33.0137 33.4616C33.4462 33.8943 33.8787 33.6058 34.167 33.4616C34.5995 33.3173 35.032 33.4616 35.4645 33.4616C35.897 33.4616 36.3295 33.3173 36.762 33.4616C37.1945 33.3173 37.627 33.1731 38.0595 33.4616C38.492 33.3173 38.9245 33.4616 39.357 33.4616H39.5011H39.6453C39.6453 33.4616 39.6453 33.4616 39.7895 33.4616C40.0778 33.4616 40.222 33.4616 40.5103 33.4616C40.9428 33.4616 41.3753 33.4616 41.8078 33.4616C42.0961 33.4616 42.2403 33.4616 42.3844 33.4616C42.3844 33.8943 42.2403 34.1827 42.2403 34.4712C42.2403 34.7596 42.2403 35.0481 42.3844 35.3366C42.3844 35.625 42.3844 35.7693 42.3844 36.0577C42.3844 36.2019 42.3844 36.3462 42.3844 36.4904C42.3844 36.7789 42.3844 36.9231 42.3844 37.2116C42.3844 37.6442 42.2403 38.2212 42.3844 38.6539C41.9519 39.375 42.2403 40.2404 42.3844 41.3943C41.9519 41.3943 41.5194 41.3943 40.9428 41.3943C40.6545 41.3943 40.5103 41.3943 40.222 41.3943H39.7895H39.6453C39.6453 41.3943 39.6453 41.3943 39.5011 41.3943C39.0686 41.3943 38.492 41.3943 38.0595 41.3943C37.627 41.5385 37.0503 41.25 36.6178 41.3943C36.1853 41.5385 35.6087 41.25 35.1762 41.3943C34.7437 41.5385 34.167 41.5385 33.7345 41.3943C33.3021 41.3943 32.8696 40.9616 32.4371 41.3943C32.0046 41.5385 31.5721 41.9712 31.1396 41.3943C30.7071 41.5385 30.2746 41.1058 29.8421 41.3943C29.4096 40.9616 28.9771 41.3943 28.5446 41.3943C28.1121 41.25 27.6796 41.25 27.3913 41.3943C26.9588 41.5385 26.6705 41.25 26.238 41.3943C25.8055 41.6827 25.5172 41.1058 25.0847 41.3943C24.6522 41.3943 24.3638 41.3943 24.0755 41.3943C23.9313 41.6827 23.7872 41.6827 23.4988 41.5385C23.3547 41.5385 23.3547 41.3943 23.2105 41.3943H23.0664H22.9222C22.6339 41.3943 22.3455 41.3942 22.0572 41.5385C21.7689 41.5385 21.4805 41.5385 21.3364 41.3943C21.048 41.5385 20.9039 41.5385 20.6156 41.5385C20.6156 41.25 20.7597 40.6731 20.9039 40.3846C20.9039 40.0962 20.9039 39.9519 20.9039 39.8077C20.9039 39.6635 20.9039 39.375 21.048 39.2308C20.7597 38.9423 21.1922 38.6539 21.048 38.5096C21.1922 38.2212 21.048 38.0769 21.048 37.7885C21.048 37.5 21.048 37.3558 21.048 37.2116C21.048 37.0673 21.048 36.7789 21.048 36.6346C21.4805 34.7596 21.6247 34.1827 21.7689 34.1827Z" fill="#212529"/>
<path d="M53.7734 34.1827C53.9176 34.1827 54.0618 34.7596 54.2059 35.7692C54.2059 35.9135 54.2059 36.0577 54.2059 36.3462C54.2059 36.4904 54.3501 36.7789 54.2059 36.9231C54.0618 37.0673 54.6384 37.3558 54.2059 37.6443C54.0618 37.9327 54.2059 38.0769 54.2059 38.3654C54.2059 38.3654 54.2059 38.5096 54.2059 38.6539C54.2059 38.7981 54.2059 38.7981 54.2059 38.7981C54.3501 38.7981 54.3501 38.7981 54.3501 38.9423C54.3501 39.0866 54.2059 39.0866 54.2059 39.2308C54.2059 39.2308 54.3501 39.2308 54.4943 39.0866C54.6384 38.9423 54.7826 38.9423 54.9268 39.0866C54.9268 39.0866 54.9268 39.0866 54.9268 39.2308C54.9268 39.2308 54.9268 39.2308 55.0709 39.2308C55.2151 39.2308 55.2151 39.2308 55.3593 39.2308C55.5034 39.2308 55.6476 39.0866 55.9359 39.0866C56.2243 39.5193 56.6567 39.2308 56.9451 39.0866C57.3776 39.5193 57.6659 39.5193 58.0984 39.0866C58.5309 39.0866 58.8192 39.2308 59.2517 39.0866C59.6842 39.0866 60.1167 38.9423 60.405 39.0866C60.8375 38.7981 61.27 38.7981 61.7025 39.0866C62.135 38.7981 62.5675 38.9423 63 39.0866C63.4325 39.2308 63.865 38.7981 64.2975 39.0866C64.73 39.0866 65.1625 38.9423 65.595 39.0866C66.0275 39.2308 66.4599 39.375 67.0366 39.0866C67.4691 38.9423 68.0458 38.9423 68.4783 39.0866C68.9107 38.6539 69.4874 38.9423 69.9199 39.0866C70.3524 39.0866 70.9291 39.2308 71.3615 39.0866C71.6499 39.0866 71.3616 38.9423 71.6499 39.0866H71.794C71.794 39.0866 71.794 39.0866 71.794 38.9423C71.794 38.9423 71.794 38.9423 71.794 38.7981C71.5057 38.3654 71.9382 37.7885 71.794 37.3558C71.9382 37.0673 71.9382 36.9231 71.9382 36.6346C71.9382 36.4904 71.9382 36.3462 71.794 36.2019C71.794 36.2019 71.794 36.2019 71.794 36.0577V35.9135C71.794 35.9135 71.6499 35.9135 71.6499 36.0577H71.5057H71.3615H71.2174C70.7849 36.6346 70.3524 35.9135 69.9199 36.0577C69.4874 35.7693 69.0549 36.0577 68.6224 36.0577C68.1899 36.2019 67.7574 35.7693 67.3249 36.0577C66.8924 36.0577 66.4599 36.2019 66.0275 36.0577C65.595 36.3462 65.1625 35.7693 64.8741 36.0577C64.4416 36.0577 64.1533 36.0577 63.7208 36.0577C63.2883 35.625 63 36.0577 62.5675 36.0577C62.2792 36.0577 61.8467 36.3462 61.5583 36.0577C61.27 36.0577 60.8375 35.7693 60.5492 36.0577C60.2609 36.0577 59.9725 35.4808 59.54 36.0577C59.2517 36.2019 58.9634 35.625 58.6751 36.0577C58.3867 36.3462 58.0984 36.0577 57.8101 36.0577C57.5217 36.0577 57.2334 36.0577 57.0892 36.0577C55.0709 34.6154 53.7734 34.4712 53.7734 34.1827C53.7734 33.8943 55.3593 33.6058 57.9542 33.4616C58.2426 33.4616 58.5309 33.1731 58.8192 33.4616C59.1075 33.4616 59.3959 33.1731 59.6842 33.4616C59.9725 33.0289 60.2609 33.3173 60.6934 33.4616C60.9817 33.4616 61.4142 33.6058 61.7025 33.4616C61.9908 33.1731 62.4233 33.6058 62.7117 33.4616C63.1442 33.75 63.4325 33.6058 63.865 33.4616C64.2975 33.75 64.5858 33.4616 65.0183 33.4616C65.4508 33.8943 65.8833 33.6058 66.1716 33.4616C66.6041 33.3173 67.0366 33.4616 67.4691 33.4616C67.9016 33.4616 68.3341 33.3173 68.7666 33.4616C69.1991 33.3173 69.6316 33.1731 70.0641 33.4616C70.4966 33.3173 70.9291 33.4616 71.3615 33.4616H71.5057H71.6499C71.6499 33.4616 71.6499 33.4616 71.794 33.4616C72.0824 33.4616 72.2265 33.4616 72.5149 33.4616C72.9474 33.4616 73.3799 33.4616 73.8124 33.4616C74.1007 33.4616 74.2448 33.4616 74.389 33.4616C74.389 33.8943 74.2448 34.1827 74.2448 34.4712C74.2448 34.7596 74.2448 35.0481 74.389 35.3366C74.389 35.625 74.389 35.7693 74.389 36.0577C74.389 36.2019 74.389 36.3462 74.389 36.4904C74.389 36.7789 74.389 36.9231 74.389 37.2116C74.389 37.6442 74.2448 38.2212 74.389 38.6539C73.9565 39.375 74.2448 40.2404 74.389 41.3943C73.9565 41.3943 73.524 41.3943 72.9474 41.3943C72.659 41.3943 72.5149 41.3943 72.2265 41.3943H71.794H71.6499C71.6499 41.3943 71.6499 41.3943 71.5057 41.3943C71.0732 41.3943 70.4966 41.3943 70.0641 41.3943C69.6316 41.5385 69.0549 41.25 68.6224 41.3943C68.1899 41.5385 67.6133 41.25 67.1808 41.3943C66.7483 41.5385 66.1716 41.5385 65.7391 41.3943C65.3066 41.3943 64.8741 40.9616 64.4416 41.3943C64.0091 41.5385 63.5767 41.9712 63.1442 41.3943C62.7117 41.5385 62.2792 41.1058 61.8467 41.3943C61.4142 40.9616 60.9817 41.3943 60.5492 41.3943C60.1167 41.25 59.6842 41.25 59.3959 41.3943C58.9634 41.5385 58.6751 41.25 58.2426 41.3943C57.8101 41.6827 57.5217 41.1058 57.0892 41.3943C56.8009 41.3943 56.3684 41.3943 56.0801 41.3943C55.9359 41.6827 55.7918 41.6827 55.5034 41.5385C55.3593 41.5385 55.3593 41.3943 55.2151 41.3943H55.0709H54.9268C54.6384 41.3943 54.3501 41.3942 54.0618 41.5385C53.7735 41.5385 53.4851 41.5385 53.341 41.3943C53.0526 41.5385 52.9085 41.5385 52.6201 41.5385C52.6201 41.25 52.7643 40.6731 52.9085 40.3846C52.9085 40.0962 52.9085 39.9519 52.9085 39.8077C52.9085 39.6635 52.9085 39.375 52.9085 39.2308C52.6201 38.9423 53.0526 38.6539 52.9085 38.5096C53.0526 38.2212 52.9085 38.0769 52.9085 37.7885C52.9085 37.5 52.9085 37.3558 52.9085 37.2116C52.9085 37.0673 52.9085 36.7789 52.9085 36.6346C53.4851 34.7596 53.6293 34.1827 53.7734 34.1827Z" fill="#212529"/>
<path d="M85.778 34.1827C85.9222 34.1827 86.0664 34.7596 86.2105 35.7692C86.2105 35.9135 86.2105 36.0577 86.2105 36.3462C86.2105 36.4904 86.3547 36.7789 86.2105 36.9231C86.0664 37.0673 86.643 37.3558 86.2105 37.6443C86.0664 37.9327 86.2105 38.0769 86.2105 38.3654C86.2105 38.3654 86.2105 38.5096 86.2105 38.6539C86.2105 38.7981 86.2105 38.7981 86.3547 38.7981C86.4989 38.7981 86.4989 38.7981 86.4989 38.9423C86.4989 39.0866 86.3547 39.0866 86.3547 39.2308C86.3547 39.2308 86.4989 39.2308 86.643 39.0866C86.7872 38.9423 86.9314 38.9423 87.0755 39.0866C87.0755 39.0866 87.0755 39.0866 87.0755 39.2308C87.0755 39.2308 87.0755 39.2308 87.2197 39.2308C87.3638 39.2308 87.3638 39.2308 87.508 39.2308C87.6522 39.2308 87.7963 39.0866 88.0847 39.0866C88.373 39.5193 88.8055 39.2308 89.0938 39.0866C89.3822 39.5193 89.8146 39.5193 90.2471 39.0866C90.6796 39.0866 90.968 39.2308 91.4005 39.0866C91.833 39.0866 92.2654 38.9423 92.5538 39.0866C92.9863 38.7981 93.4188 38.7981 93.8513 39.0866C94.2838 38.7981 94.7162 38.9423 95.1487 39.0866C95.5812 39.2308 96.0137 38.7981 96.4462 39.0866C96.8787 39.0866 97.3112 38.9423 97.7437 39.0866C98.1762 39.2308 98.6087 39.375 99.1854 39.0866C99.6179 38.9423 100.195 38.9423 100.627 39.0866C101.06 38.6539 101.636 38.9423 102.069 39.0866C102.501 39.0866 103.078 39.2308 103.51 39.0866C103.799 39.0866 103.51 38.9423 103.799 39.0866H103.943C103.943 39.0866 103.943 39.0866 103.943 38.9423C103.943 38.9423 103.943 38.9423 103.943 38.7981C103.654 38.3654 104.087 37.7885 103.943 37.3558C104.087 37.0673 104.087 36.9231 104.087 36.6346C104.087 36.4904 104.087 36.3462 103.943 36.2019C103.943 36.2019 103.943 36.2019 103.943 36.0577V35.9135C103.943 35.9135 103.799 35.9135 103.799 36.0577H103.654H103.51H103.366C102.934 36.6346 102.501 35.9135 102.069 36.0577C101.636 35.7693 101.204 36.0577 100.771 36.0577C100.339 36.2019 99.9062 35.7693 99.4737 36.0577C99.0412 36.0577 98.6087 36.2019 98.1762 36.0577C97.7437 36.3462 97.3112 35.7693 97.0229 36.0577C96.5904 36.0577 96.3021 36.0577 95.8696 36.0577C95.4371 35.625 95.1487 36.0577 94.7162 36.0577C94.2838 36.0577 93.9954 36.3462 93.7071 36.0577C93.4188 36.0577 92.9863 35.7693 92.6979 36.0577C92.4096 36.0577 92.1213 35.4808 91.6888 36.0577C91.4005 36.2019 91.1121 35.625 90.8238 36.0577C90.5355 36.3462 90.2471 36.0577 89.9588 36.0577C89.6705 36.0577 89.3822 36.0577 89.238 36.0577C87.0755 34.6154 85.778 34.4712 85.778 34.1827C85.778 33.8943 87.3638 33.6058 89.9588 33.4616C90.2471 33.4616 90.5355 33.1731 90.8238 33.4616C91.1121 33.4616 91.4005 33.1731 91.6888 33.4616C91.9771 33.0289 92.2655 33.3173 92.6979 33.4616C92.9863 33.4616 93.4188 33.6058 93.7071 33.4616C93.9954 33.1731 94.4279 33.6058 94.7162 33.4616C95.1487 33.75 95.4371 33.6058 95.8696 33.4616C96.3021 33.75 96.5904 33.4616 97.0229 33.4616C97.4554 33.8943 97.8879 33.6058 98.1762 33.4616C98.6087 33.3173 99.0412 33.4616 99.4737 33.4616C99.9062 33.4616 100.339 33.3173 100.771 33.4616C101.204 33.3173 101.636 33.1731 102.069 33.4616C102.501 33.3173 102.934 33.4616 103.366 33.4616H103.51H103.654C103.654 33.4616 103.654 33.4616 103.799 33.4616C104.087 33.4616 104.231 33.4616 104.519 33.4616C104.952 33.4616 105.384 33.4616 105.817 33.4616C106.105 33.4616 106.249 33.4616 106.394 33.4616C106.394 33.8943 106.249 34.1827 106.249 34.4712C106.249 34.7596 106.249 35.0481 106.394 35.3366C106.394 35.625 106.394 35.7693 106.394 36.0577C106.394 36.2019 106.394 36.3462 106.394 36.4904C106.394 36.7789 106.394 36.9231 106.394 37.2116C106.394 37.6442 106.249 38.2212 106.394 38.6539C105.961 39.375 106.249 40.2404 106.394 41.3943C105.961 41.3943 105.529 41.3943 104.952 41.3943C104.664 41.3943 104.519 41.3943 104.231 41.3943H103.799H103.654C103.654 41.3943 103.654 41.3943 103.51 41.3943C103.078 41.3943 102.501 41.3943 102.069 41.3943C101.636 41.5385 101.06 41.25 100.627 41.3943C100.195 41.5385 99.6179 41.25 99.1854 41.3943C98.7529 41.5385 98.1762 41.5385 97.7437 41.3943C97.3112 41.3943 96.8787 40.9616 96.4462 41.3943C96.0137 41.5385 95.5812 41.9712 95.1487 41.3943C94.7162 41.5385 94.2838 41.1058 93.8513 41.3943C93.4188 40.9616 92.9863 41.3943 92.5538 41.3943C92.1213 41.25 91.6888 41.25 91.4005 41.3943C90.968 41.5385 90.6796 41.25 90.2471 41.3943C89.8146 41.6827 89.5263 41.1058 89.0938 41.3943C88.6613 41.3943 88.373 41.3943 88.0847 41.3943C87.9405 41.6827 87.7963 41.6827 87.508 41.5385C87.3638 41.5385 87.3638 41.3943 87.2197 41.3943H87.0755H86.9314C86.643 41.3943 86.3547 41.3942 86.0664 41.5385C85.778 41.5385 85.4897 41.5385 85.3455 41.3943C85.0572 41.5385 84.913 41.5385 84.6247 41.5385C84.6247 41.25 84.7689 40.6731 84.913 40.3846C84.913 40.0962 84.913 39.9519 84.913 39.8077C84.913 39.6635 84.913 39.375 85.0572 39.2308C84.7689 38.9423 85.2014 38.6539 85.0572 38.5096C85.2014 38.2212 85.0572 38.0769 85.0572 37.7885C85.0572 37.5 85.0572 37.3558 85.0572 37.2116C85.0572 37.0673 85.0572 36.7789 85.0572 36.6346C85.4897 34.7596 85.6339 34.1827 85.778 34.1827Z" fill="#212529"/>
<path d="M57.8101 39.8077C57.9542 39.8077 58.0984 41.1058 58.2426 43.4135C58.2426 43.8462 58.2426 44.2789 58.2426 44.7116C58.2426 45.1443 58.3867 45.5769 58.2426 46.1539C58.0984 46.7308 58.6751 47.1635 58.2426 47.7404C58.0984 48.3173 58.2426 48.8943 58.2426 49.4712C58.2426 50.0481 58.0984 50.7693 58.2426 51.3462C58.6751 52.0673 57.8101 52.6443 58.2426 53.3654C58.3867 54.0866 58.3867 54.8077 58.2426 55.5289C57.9542 56.25 58.2426 57.1154 58.2426 57.8366C57.8101 58.7019 58.0984 59.4231 58.2426 60.2885C57.8101 61.1539 57.8101 62.0193 58.2426 62.8846C58.2426 63.75 58.0984 64.6154 58.2426 65.625C58.2426 66.4904 58.3867 67.5 58.2426 68.5096C58.5309 69.5193 58.5309 70.3846 58.2426 71.3943C58.5309 72.4039 58.3867 73.4135 58.2426 74.4231C58.0984 75.4327 58.5309 76.4423 58.2426 77.5962C58.2426 78.6058 58.3867 79.7596 58.2426 80.7693C58.0984 81.9231 57.9542 82.9327 58.2426 84.0866C58.2426 84.2308 58.2426 84.5193 58.2426 84.6635V84.952V85.0962C58.2426 85.0962 58.2426 85.0962 58.2426 85.2404C58.2426 85.2404 58.2426 85.2404 58.2426 85.3846C58.3867 85.2404 58.2426 85.2404 58.6751 85.2404C58.9634 85.2404 59.2517 85.2404 59.5401 85.2404C60.1167 85.2404 60.6934 85.3846 61.27 85.3846C62.4233 85.3846 63.5767 85.5289 64.73 85.3846C65.3066 85.3846 65.8833 85.3846 66.46 85.3846H66.7483H66.8925C66.8925 85.3846 66.8925 85.3846 67.0366 85.3846C67.0366 85.3846 67.0366 85.3846 67.1808 85.2404C67.1808 85.2404 67.1808 85.2404 67.1808 85.0962V84.952V84.6635C67.1808 84.0866 67.1808 83.5096 67.0366 82.9327C66.7483 81.7789 67.1808 80.625 67.0366 79.4712C67.3249 78.3173 66.8925 77.1635 67.0366 76.0096C67.0366 74.8558 67.1808 73.702 67.0366 72.6923C67.0366 71.5385 66.8925 70.5289 67.0366 69.375C66.46 68.2212 67.1808 67.2116 67.0366 66.202C67.3249 65.1923 67.0366 64.0385 67.0366 63.0289C66.8925 62.0193 67.3249 61.0096 67.0366 60C67.0366 58.9904 66.8925 57.9808 67.0366 57.1154C66.7483 56.1058 67.3249 55.2404 67.0366 54.2308C67.0366 53.3654 67.0366 52.3558 67.0366 51.4904C67.4691 50.625 67.1808 49.7596 67.0366 48.8943C67.0366 48.0289 66.7483 47.1635 67.0366 46.4423C67.0366 45.5769 67.3249 44.8558 67.0366 44.1346C67.0366 43.4135 67.6133 42.6923 67.0366 41.9712C67.0366 41.8269 67.0366 41.6827 67.0366 41.3943C67.0366 41.25 67.0366 41.25 67.0366 41.1058V40.9616C67.0366 40.9616 67.0366 40.9616 67.0366 40.8173C67.1808 40.6731 67.1808 40.3846 66.8925 40.3846H66.7483C66.46 40.5289 66.46 40.2404 66.0275 40.2404C65.4508 40.2404 64.8741 40.2404 64.2975 40.2404C60.6934 40.2404 57.8101 39.9519 57.8101 39.8077C57.8101 39.5193 61.4142 39.2308 67.6133 39.0866H67.7574C67.9016 39.0866 67.9016 39.0866 68.0458 39.0866C68.1899 39.0866 68.4783 39.0866 68.6224 39.0866C69.0549 39.0866 69.4874 38.9423 69.9199 39.0866C69.9199 39.2308 69.9199 39.375 69.7758 39.6635C69.7758 40.2404 69.7757 40.6731 69.9199 41.25V41.5385C69.9199 41.6827 69.9199 41.6827 69.9199 41.8269C69.9199 41.9712 69.9199 42.1154 69.9199 42.4039C70.3524 43.125 70.0641 43.8462 69.9199 44.5673C69.9199 45.2885 69.7757 46.1539 69.9199 46.875C70.2082 47.7404 69.7757 48.4616 69.9199 49.3269C69.6316 50.1923 69.7757 51.0577 69.9199 51.9231C69.6316 52.7885 69.9199 53.6539 69.9199 54.6635C69.4874 55.5289 69.7757 56.5385 69.9199 57.5481C70.0641 58.5577 69.9199 59.4231 69.9199 60.4327C69.9199 61.4423 70.0641 62.4519 69.9199 63.4616C70.0641 64.4712 70.2082 65.4808 69.9199 66.6346C70.0641 67.6443 69.9199 68.7981 69.9199 69.8077C70.0641 70.9616 69.9199 71.9712 69.9199 73.125C70.0641 74.2789 69.4874 75.2885 69.9199 76.4423C69.9199 77.5962 69.9199 78.75 69.9199 79.9039C69.9199 81.0577 69.7757 82.2116 69.9199 83.3654C69.7757 83.9423 69.6316 84.5193 69.7758 85.0962C69.7758 86.1058 69.9199 87.1154 69.9199 88.125C69.3433 88.125 68.7666 88.125 68.1899 88.125H67.3249H66.7483C66.1716 88.125 65.595 88.125 65.0183 88.125C63.865 88.125 62.7117 88.125 61.5584 88.125C60.9817 88.125 60.405 88.125 59.8284 88.125C59.5401 88.125 59.2517 88.125 58.9634 88.125C58.8192 88.125 58.0984 88.125 57.6659 88.125C57.0893 88.125 56.5126 88.125 55.9359 88.125C55.9359 87.2596 55.9359 86.5385 56.0801 85.6731V85.2404C56.0801 85.0962 56.0801 85.0962 56.0801 84.952C56.0801 84.8077 56.0801 84.5193 56.0801 84.375C55.9359 83.2212 55.9359 82.2116 56.0801 81.0577C56.0801 79.9039 56.5126 78.8943 56.0801 77.8846C55.9359 76.875 55.5034 75.7212 56.0801 74.7116C55.9359 73.7019 56.3684 72.6923 56.0801 71.6827C56.5126 70.6731 56.0801 69.6635 56.0801 68.7981C56.2243 67.7885 56.3684 66.9231 56.0801 65.9135C55.9359 65.0481 56.2243 64.0385 56.0801 63.1731C55.7918 62.3077 56.3684 61.4423 56.0801 60.5769C56.0801 59.7116 56.0801 58.8462 56.0801 58.125C55.5034 57.2596 56.0801 56.5385 56.0801 55.8173C56.2243 55.0962 55.6476 54.375 56.0801 53.6539C55.6476 52.9327 56.0801 52.2116 56.0801 51.6346C56.2243 50.9135 55.9359 50.3366 56.0801 49.7596C55.7918 49.1827 56.2243 48.6058 56.0801 48.0289C56.2243 47.4519 56.0801 46.875 56.0801 46.4423C56.0801 45.8654 56.0801 45.4327 56.0801 45C56.0801 44.5673 56.0801 44.1346 56.0801 43.7019C57.5217 41.1058 57.6659 39.8077 57.8101 39.8077Z" fill="#212529"/>
<path d="M89.8146 39.8077C89.9588 39.8077 90.103 41.1058 90.2471 43.4135C90.2471 43.8462 90.2471 44.2789 90.2471 44.7116C90.2471 45.1443 90.3913 45.5769 90.2471 46.1539C90.103 46.7308 90.6796 47.1635 90.2471 47.7404C90.103 48.3173 90.2471 48.8943 90.2471 49.4712C90.2471 50.0481 90.103 50.7693 90.2471 51.3462C90.6796 52.0673 89.8146 52.6443 90.2471 53.3654C90.3913 54.0866 90.3913 54.8077 90.2471 55.5289C89.9588 56.25 90.2471 57.1154 90.2471 57.8366C89.8146 58.7019 90.103 59.4231 90.2471 60.2885C89.8146 61.1539 89.8146 62.0193 90.2471 62.8846C90.2471 63.75 90.103 64.6154 90.2471 65.625C90.2471 66.4904 90.3913 67.5 90.2471 68.5096C90.5355 69.5193 90.5355 70.3846 90.2471 71.3943C90.5355 72.4039 90.3913 73.4135 90.2471 74.4231C90.103 75.4327 90.5355 76.4423 90.2471 77.5962C90.2471 78.6058 90.3913 79.7596 90.2471 80.7693C90.103 81.9231 89.9588 82.9327 90.2471 84.0866C90.2471 84.2308 90.2471 84.5193 90.2471 84.6635V84.952V85.0962C90.2471 85.0962 90.2471 85.0962 90.2471 85.2404C90.2471 85.2404 90.2471 85.2404 90.2471 85.3846C90.3913 85.2404 90.2471 85.2404 90.6796 85.2404C90.968 85.2404 91.2563 85.2404 91.5446 85.2404C92.1213 85.2404 92.6979 85.3846 93.2746 85.3846C94.4279 85.3846 95.5812 85.5289 96.7346 85.3846C97.3112 85.3846 97.8879 85.3846 98.4645 85.3846H98.7529H98.897C98.897 85.3846 98.897 85.3846 99.0412 85.3846C99.0412 85.3846 99.0412 85.3846 99.1854 85.2404C99.1854 85.2404 99.1854 85.2404 99.1854 85.0962V84.952V84.6635C99.1854 84.0866 99.1854 83.5096 99.0412 82.9327C98.7529 81.7789 99.1854 80.625 99.0412 79.4712C99.3295 78.3173 98.897 77.1635 99.0412 76.0096C99.0412 74.8558 99.1854 73.702 99.0412 72.6923C99.0412 71.5385 98.897 70.5289 99.0412 69.375C98.4645 68.2212 99.1854 67.2116 99.0412 66.202C99.3295 65.1923 99.0412 64.0385 99.0412 63.0289C98.897 62.0193 99.3295 61.0096 99.0412 60C99.0412 58.9904 98.897 57.9808 99.0412 57.1154C98.7529 56.1058 99.3295 55.2404 99.0412 54.2308C99.0412 53.3654 99.0412 52.3558 99.0412 51.4904C99.4737 50.625 99.1854 49.7596 99.0412 48.8943C99.0412 48.0289 98.7529 47.1635 99.0412 46.4423C99.0412 45.5769 99.3295 44.8558 99.0412 44.1346C99.0412 43.4135 99.6178 42.6923 99.0412 41.9712C99.0412 41.8269 99.0412 41.6827 99.0412 41.3943C99.0412 41.25 99.0412 41.25 99.0412 41.1058V40.9616C99.0412 40.9616 99.0412 40.9616 99.0412 40.8173C99.1854 40.6731 99.1854 40.3846 98.897 40.3846H98.7529C99.9062 40.6731 100.05 40.3846 99.4737 40.3846C98.897 40.3846 98.3204 40.3846 97.7437 40.3846C92.6979 40.2404 89.8146 39.9519 89.8146 39.8077C89.8146 39.5193 93.4188 39.2308 99.6178 39.0866H99.762C99.9062 39.0866 99.9062 39.0866 100.05 39.0866C100.195 39.0866 100.483 39.0866 100.627 39.0866C101.06 39.0866 101.492 38.9423 101.924 39.0866C101.924 39.2308 101.924 39.375 101.78 39.6635C101.78 40.2404 101.78 40.6731 101.924 41.25V41.5385C101.924 41.6827 101.924 41.6827 101.924 41.8269C101.924 41.9712 101.924 42.1154 101.924 42.4039C102.357 43.125 102.069 43.8462 101.924 44.5673C101.924 45.2885 101.78 46.1539 101.924 46.875C102.213 47.7404 101.78 48.4616 101.924 49.3269C101.636 50.1923 101.78 51.0577 101.924 51.9231C101.636 52.7885 101.924 53.6539 101.924 54.6635C101.492 55.5289 101.78 56.5385 101.924 57.5481C102.069 58.5577 101.924 59.4231 101.924 60.4327C101.924 61.4423 102.069 62.4519 101.924 63.4616C102.069 64.4712 102.213 65.4808 101.924 66.6346C102.069 67.6443 101.924 68.7981 101.924 69.8077C102.069 70.9616 101.924 71.9712 101.924 73.125C102.069 74.2789 101.492 75.2885 101.924 76.4423C101.924 77.5962 101.924 78.75 101.924 79.9039C101.924 81.0577 101.78 82.2116 101.924 83.3654C101.78 83.9423 101.636 84.5193 101.78 85.0962C101.78 86.1058 101.924 87.1154 101.924 88.125C101.348 88.125 100.771 88.125 100.195 88.125H99.3295H98.7529C98.1762 88.125 97.5996 88.125 97.0229 88.125C95.8696 88.125 94.7163 88.125 93.5629 88.125C92.9863 88.125 92.4096 88.125 91.833 88.125C91.2563 88.125 90.968 88.125 89.6705 88.125C89.0938 88.125 88.5172 88.125 87.9405 88.125C87.9405 87.2596 87.9405 86.5385 88.0847 85.6731V85.2404C88.0847 85.0962 88.0847 85.0962 88.0847 84.952C88.0847 84.8077 88.0847 84.5193 88.0847 84.375C87.9405 83.2212 87.9405 82.2116 88.0847 81.0577C88.0847 79.9039 88.5172 78.8943 88.0847 77.8846C87.9405 76.875 87.508 75.7212 88.0847 74.7116C87.9405 73.7019 88.373 72.6923 88.0847 71.6827C88.5172 70.6731 88.0847 69.6635 88.0847 68.7981C88.2288 67.7885 88.2288 66.9231 88.0847 65.9135C87.9405 65.0481 88.2288 64.0385 88.0847 63.1731C87.7963 62.3077 88.373 61.4423 88.0847 60.5769C88.0847 59.7116 88.0847 58.8462 88.0847 58.125C87.508 57.2596 88.0847 56.5385 88.0847 55.8173C88.2288 55.0962 87.6522 54.375 88.0847 53.6539C87.6522 52.9327 88.0847 52.2116 88.0847 51.6346C88.2288 50.9135 87.9405 50.3366 88.0847 49.7596C87.7963 49.1827 88.2288 48.6058 88.0847 48.0289C88.2288 47.4519 88.0847 46.875 88.0847 46.4423C88.0847 45.8654 88.0847 45.4327 88.0847 45C88.0847 44.5673 88.0847 44.1346 88.0847 43.7019C89.5263 41.1058 89.6705 39.8077 89.8146 39.8077Z" fill="#212529"/>
<path d="M25.8055 39.8077C25.9497 39.8077 26.0938 41.1058 26.238 43.4135C26.238 43.8462 26.238 44.2789 26.238 44.7116C26.238 45.1443 26.3822 45.5769 26.238 46.1539C26.0938 46.7308 26.6705 47.1635 26.238 47.7404C26.0938 48.3173 26.238 48.8943 26.238 49.4712C26.238 50.0481 26.0938 50.7693 26.238 51.3462C26.6705 52.0673 25.8055 52.6443 26.238 53.3654C26.3822 54.0866 26.3822 54.8077 26.238 55.5289C25.9497 56.25 26.238 57.1154 26.238 57.8366C25.8055 58.7019 26.0938 59.4231 26.238 60.2885C25.8055 61.1539 25.8055 62.0193 26.238 62.8846C26.238 63.75 26.0938 64.6154 26.238 65.625C26.238 66.4904 26.3822 67.5 26.238 68.5096C26.5263 69.5193 26.5263 70.3846 26.238 71.3943C26.5263 72.4039 26.3822 73.4135 26.238 74.4231C26.0938 75.4327 26.5263 76.4423 26.238 77.5962C26.238 78.6058 26.3822 79.7596 26.238 80.7693C26.0938 81.9231 25.9497 82.9327 26.238 84.0866C26.238 84.2308 26.238 84.5193 26.238 84.6635V84.952V85.0962C26.238 85.0962 26.238 85.0962 26.238 85.2404C26.238 85.2404 26.238 85.2404 26.238 85.3846C26.3822 85.2404 26.238 85.2404 26.6705 85.2404C26.9588 85.2404 27.2471 85.2404 27.5355 85.2404C28.1121 85.2404 28.6888 85.3846 29.2655 85.3846C30.4188 85.3846 31.5721 85.5289 32.7254 85.3846C33.3021 85.3846 33.8787 85.3846 34.4554 85.3846H34.7437H34.8879C34.8879 85.3846 34.8879 85.3846 35.032 85.3846C35.032 85.3846 35.032 85.3846 35.1762 85.2404C35.1762 85.2404 35.1762 85.2404 35.1762 85.0962V84.952V84.6635C35.1762 84.0866 35.1762 83.5096 35.032 82.9327C34.7437 81.7789 35.1762 80.625 35.032 79.4712C35.3204 78.3173 34.8879 77.1635 35.032 76.0096C35.032 74.8558 35.1762 73.702 35.032 72.6923C35.032 71.5385 34.8879 70.5289 35.032 69.375C34.4554 68.2212 35.1762 67.2116 35.032 66.202C35.3204 65.1923 35.032 64.0385 35.032 63.0289C34.8879 62.0193 35.3204 61.0096 35.032 60C35.032 58.9904 34.8879 57.9808 35.032 57.1154C34.7437 56.1058 35.3204 55.2404 35.032 54.2308C35.032 53.3654 35.032 52.3558 35.032 51.4904C35.4645 50.625 35.1762 49.7596 35.032 48.8943C35.032 48.0289 34.7437 47.1635 35.032 46.4423C35.032 45.5769 35.3204 44.8558 35.032 44.1346C35.032 43.4135 35.6087 42.6923 35.032 41.9712C35.032 41.8269 35.032 41.6827 35.032 41.3943C35.032 41.25 35.032 41.25 35.032 41.1058V40.9616C35.032 40.9616 35.032 40.9616 35.032 40.8173C35.1762 40.6731 35.1762 40.3846 34.8879 40.3846H34.7437C35.897 40.6731 36.0412 40.3846 35.4645 40.3846C34.8879 40.3846 34.3112 40.3846 33.7346 40.3846C28.6888 40.2404 25.8055 39.9519 25.8055 39.8077C25.8055 39.5193 29.4096 39.2308 35.6087 39.0866H35.7529C35.897 39.0866 35.897 39.0866 36.0412 39.0866C36.1854 39.0866 36.4737 39.0866 36.6179 39.0866C37.0503 39.0866 37.4828 38.9423 37.9153 39.0866C37.9153 39.2308 37.9153 39.375 37.7712 39.6635C37.7712 40.2404 37.7712 40.6731 37.9153 41.25V41.5385C37.9153 41.6827 37.9153 41.6827 37.9153 41.8269C37.9153 41.9712 37.9153 42.1154 37.9153 42.4039C38.3478 43.125 38.0595 43.8462 37.9153 44.5673C37.9153 45.2885 37.7712 46.1539 37.9153 46.875C38.2037 47.7404 37.7712 48.4616 37.9153 49.3269C37.627 50.1923 37.7712 51.0577 37.9153 51.9231C37.627 52.7885 37.9153 53.6539 37.9153 54.6635C37.4828 55.5289 37.7712 56.5385 37.9153 57.5481C38.0595 58.5577 37.9153 59.4231 37.9153 60.4327C37.9153 61.4423 38.0595 62.4519 37.9153 63.4616C38.0595 64.4712 38.2037 65.4808 37.9153 66.6346C38.0595 67.6443 37.9153 68.7981 37.9153 69.8077C38.0595 70.9616 37.9153 71.9712 37.9153 73.125C38.0595 74.2789 37.4828 75.2885 37.9153 76.4423C37.9153 77.5962 37.9153 78.75 37.9153 79.9039C37.9153 81.0577 37.7712 82.2116 37.9153 83.3654C37.7712 83.9423 37.627 84.5193 37.7712 85.0962C37.7712 86.1058 37.9153 87.1154 37.9153 88.125C37.3387 88.125 36.762 88.125 36.1854 88.125H35.3204H34.7437C34.1671 88.125 33.5904 88.125 33.0137 88.125C31.8604 88.125 30.7071 88.125 29.5538 88.125C28.9771 88.125 28.4005 88.125 27.8238 88.125C27.5355 88.125 27.2471 88.125 26.9588 88.125C26.8147 88.125 26.0938 88.125 25.6613 88.125C25.0847 88.125 24.508 88.125 23.9314 88.125C23.9314 87.2596 23.9314 86.5385 24.0755 85.6731V85.2404C24.0755 85.0962 24.0755 85.0962 24.0755 84.952C24.0755 84.8077 24.0755 84.5193 24.0755 84.375C23.9314 83.2212 23.9314 82.2116 24.0755 81.0577C24.0755 79.9039 24.508 78.8943 24.0755 77.8846C23.9314 76.875 23.4989 75.7212 24.0755 74.7116C23.9314 73.7019 24.3639 72.6923 24.0755 71.6827C24.508 70.6731 24.0755 69.6635 24.0755 68.7981C24.2197 67.7885 24.2197 66.9231 24.0755 65.9135C23.9314 65.0481 24.2197 64.0385 24.0755 63.1731C23.7872 62.3077 24.3639 61.4423 24.0755 60.5769C24.0755 59.7116 24.0755 58.8462 24.0755 58.125C23.4989 57.2596 24.0755 56.5385 24.0755 55.8173C24.2197 55.0962 23.643 54.375 24.0755 53.6539C23.643 52.9327 24.0755 52.2116 24.0755 51.6346C24.2197 50.9135 23.9314 50.3366 24.0755 49.7596C23.7872 49.1827 24.2197 48.6058 24.0755 48.0289C24.2197 47.4519 24.0755 46.875 24.0755 46.4423C24.0755 45.8654 24.0755 45.4327 24.0755 45C24.0755 44.5673 24.0755 44.1346 24.0755 43.7019C25.5172 41.1058 25.6613 39.8077 25.8055 39.8077Z" fill="#212529"/>
<path d="M21.7689 92.3077C21.6247 92.3077 21.4805 91.7308 21.3364 90.7212C21.3364 90.5769 21.3364 90.4327 21.3364 90.1443C21.3364 90 21.1922 89.7116 21.3364 89.5673C21.4805 89.2789 20.9039 89.1346 21.3364 88.8462C21.4805 88.5577 21.3364 88.4135 21.3364 88.125C21.3364 87.9808 21.3364 87.6923 21.3364 87.5481C21.3364 87.4039 21.3364 87.1154 21.1922 86.8269C21.048 86.5385 21.048 86.3943 21.048 86.3943C21.048 86.25 21.1922 86.25 21.1922 86.1058C21.3364 86.1058 21.4805 86.1058 21.4805 85.9616C21.913 85.8173 22.4897 85.8173 22.9222 85.9616C22.9222 85.9616 23.0664 85.9616 23.0664 86.1058H23.2105C23.3547 86.1058 23.3547 86.1058 23.4988 86.1058C23.643 86.1058 23.7872 85.9616 24.0755 85.9616C24.3638 86.3943 24.7963 86.1058 25.0847 85.9616C25.373 86.3943 25.8055 86.3943 26.238 85.9616C26.6705 85.9616 26.9588 86.1058 27.3913 85.9616C27.8238 85.9616 28.2563 85.8173 28.5446 85.9616C28.9771 85.6731 29.4096 85.6731 29.8421 85.9616C30.2746 85.6731 30.7071 85.8173 31.1396 85.9616C31.5721 86.1058 32.0046 85.6731 32.4371 85.9616C32.8696 85.9616 33.3021 85.8173 33.7345 85.9616C34.167 86.1058 34.5995 86.25 35.1762 85.9616C35.6087 85.8173 36.1853 85.8173 36.6178 85.9616C37.0503 85.5289 37.627 85.8173 38.0595 85.9616C38.492 85.9616 39.0686 86.1058 39.5011 85.9616C40.222 85.9616 41.3753 85.8173 42.2403 85.9616C42.2403 86.5385 42.0961 86.9712 42.0961 87.4039C42.0961 87.6923 42.0961 87.8366 42.0961 88.125C42.0961 88.2693 42.0961 88.4135 42.0961 88.4135V88.5577C42.0961 88.5577 42.0961 88.5577 42.0961 88.7019C42.3844 89.1346 41.9519 89.7116 42.0961 90.1443C41.9519 90.4327 41.9519 90.5769 41.9519 90.8654C41.9519 91.0096 41.9519 91.1539 42.0961 91.2981C42.0961 91.4423 42.0961 91.7308 42.0961 92.0193C42.0961 92.3077 42.0961 92.7404 42.0961 93.0289C42.0961 93.3173 42.0961 93.6058 42.0961 93.8943C41.9519 93.8943 41.6636 93.8942 41.5194 94.0385C41.0869 94.0385 40.6545 94.0385 40.222 94.1827C39.9336 94.1827 39.7895 94.1827 39.5011 94.1827H39.357H39.2128H39.0686C38.6362 94.7596 38.2037 94.0385 37.7712 94.1827C37.3387 93.8943 36.9062 94.1827 36.4737 94.1827C36.0412 94.327 35.6087 93.8943 35.1762 94.1827C34.7437 94.1827 34.3112 94.327 33.8787 94.1827C33.4462 94.4712 33.0137 93.8943 32.7254 94.1827C32.2929 94.1827 32.0046 94.1827 31.5721 94.1827C31.1396 93.75 30.8513 94.0385 30.4188 94.1827C29.9863 94.1827 29.6979 94.4712 29.4096 94.1827C29.1213 94.1827 28.6888 93.8943 28.4005 94.1827C28.1121 94.1827 27.8238 93.6058 27.3913 94.1827C27.103 94.327 26.8146 93.75 26.5263 94.1827C26.238 94.4712 25.9496 94.1827 25.6613 94.1827C25.373 94.1827 25.0847 94.1827 24.9405 94.1827C23.0664 92.7404 21.7689 92.4519 21.7689 92.3077C21.7689 92.0193 23.2105 91.7308 25.9497 91.5866C26.238 91.5866 26.5263 91.2981 26.8146 91.5866C27.103 91.5866 27.3913 91.2981 27.6796 91.5866C27.968 91.1539 28.2563 91.4423 28.6888 91.5866C28.9771 91.5866 29.4096 91.7308 29.6979 91.5866C29.9863 91.2981 30.4188 91.7308 30.7071 91.5866C31.1396 91.875 31.4279 91.7308 31.8604 91.5866C32.2929 91.875 32.5812 91.5866 33.0137 91.5866C33.4462 92.0193 33.8787 91.7308 34.167 91.5866C34.5995 91.4423 35.032 91.5866 35.4645 91.5866C35.897 91.5866 36.3295 91.4423 36.762 91.5866C37.1945 91.4423 37.627 91.2981 38.0595 91.5866C38.492 91.4423 38.9245 91.5866 39.357 91.5866H39.5011H39.6453H39.7895H39.9336C39.9336 91.5866 39.9336 91.4423 39.7895 91.4423C39.7895 91.2981 39.7895 91.1539 39.7895 91.0096C39.7895 90.7212 39.7895 90.5769 39.7895 90.2885C39.7895 89.8558 39.9336 89.2789 39.7895 88.8462C40.222 88.5577 39.9336 88.4135 39.7895 88.5577C39.6453 88.5577 39.6453 88.5577 39.6453 88.5577C39.6453 88.5577 39.6453 88.5577 39.5011 88.5577C39.0686 88.5577 38.492 88.5577 38.0595 88.5577C37.627 88.7019 37.0503 88.4135 36.6178 88.5577C36.1853 88.7019 35.6087 88.4135 35.1762 88.5577C34.7437 88.7019 34.167 88.7019 33.7345 88.5577C33.3021 88.5577 32.8696 88.125 32.4371 88.5577C32.0046 88.7019 31.5721 89.1346 31.1396 88.5577C30.7071 88.7019 30.2746 88.2693 29.8421 88.5577C29.4096 88.125 28.9771 88.5577 28.5446 88.5577C28.1121 88.4135 27.6796 88.4135 27.3913 88.5577C26.9588 88.7019 26.6705 88.4135 26.238 88.5577C25.8055 88.8462 25.5172 88.2693 25.0847 88.5577C24.6522 88.5577 24.3638 88.5577 24.0755 88.5577C23.9313 88.8462 23.7872 88.8462 23.4988 88.7019C23.3547 88.7019 23.3547 88.5577 23.2105 88.5577C23.2105 88.5577 23.2105 88.5577 23.0664 88.5577C22.9222 88.5577 22.9222 88.5577 22.9222 88.7019C22.9222 88.7019 22.9222 88.7019 22.6339 88.5577C22.6339 88.7019 22.778 88.7019 22.6339 88.7019C22.6339 88.7019 22.4897 88.7019 22.3455 88.7019V88.8462C22.3455 88.9904 22.3455 88.9904 22.3455 88.9904C22.6339 89.2789 22.2014 89.5673 22.3455 89.7116C22.2014 90 22.3455 90.1443 22.3455 90.4327C22.3455 90.7212 22.3455 90.8654 22.3455 91.0096C22.3455 91.1539 22.3455 91.4423 22.3455 91.5866C22.0572 91.7308 21.913 92.3077 21.7689 92.3077Z" fill="#212529"/>
<path d="M53.7735 92.3077C53.6293 92.3077 53.4851 91.7308 53.341 90.7212C53.341 90.5769 53.341 90.4327 53.341 90.1443C53.341 90 53.1968 89.7116 53.341 89.5673C53.4851 89.2789 52.9085 89.1346 53.341 88.8462C53.4851 88.5577 53.341 88.4135 53.341 88.125C53.341 87.9808 53.341 87.6923 53.341 87.5481C53.341 87.4039 53.341 87.1154 53.1968 86.8269C53.0526 86.5385 53.0526 86.3943 53.0526 86.3943C53.0526 86.25 53.1968 86.25 53.1968 86.1058C53.341 86.1058 53.4851 86.1058 53.4851 85.9616C53.9176 85.8173 54.4943 85.8173 54.9268 85.9616C54.9268 85.9616 55.0709 85.9616 55.0709 86.1058H55.2151C55.3593 86.1058 55.3593 86.1058 55.5034 86.1058C55.6476 86.1058 55.7918 85.9616 56.0801 85.9616C56.3684 86.3943 56.8009 86.1058 57.0892 85.9616C57.5217 86.3943 57.8101 86.3943 58.2426 85.9616C58.6751 85.9616 58.9634 86.1058 59.3959 85.9616C59.8284 85.9616 60.2609 85.8173 60.5492 85.9616C60.9817 85.6731 61.4142 85.6731 61.8467 85.9616C62.2792 85.6731 62.7117 85.8173 63.1442 85.9616C63.5767 86.1058 64.0092 85.6731 64.4416 85.9616C64.8741 85.9616 65.3066 85.8173 65.7391 85.9616C66.1716 86.1058 66.6041 86.25 67.1808 85.9616C67.6133 85.8173 68.1899 85.8173 68.6224 85.9616C69.0549 85.5289 69.6316 85.8173 70.0641 85.9616C70.4966 85.9616 71.0732 86.1058 71.5057 85.9616C72.2265 85.9616 73.3799 85.8173 74.2448 85.9616C74.2448 86.5385 74.1007 86.9712 74.1007 87.4039C74.1007 87.6923 74.1007 87.8366 74.1007 88.125C74.1007 88.2693 74.1007 88.4135 74.1007 88.4135V88.5577C74.1007 88.5577 74.1007 88.5577 74.1007 88.7019C74.389 89.1346 73.9565 89.7116 74.1007 90.1443C73.9565 90.4327 73.9565 90.5769 73.9565 90.8654C73.9565 91.0096 73.9565 91.1539 74.1007 91.2981C74.1007 91.4423 74.1007 91.7308 74.1007 92.0193C74.1007 92.3077 74.1007 92.7404 74.1007 93.0289C74.1007 93.3173 74.1007 93.6058 74.1007 93.8943C73.9565 93.8943 73.6682 93.8942 73.524 94.0385C73.0915 94.0385 72.659 94.0385 72.2265 94.1827C71.9382 94.1827 71.794 94.1827 71.5057 94.1827H71.3616H71.2174H71.0732C70.6407 94.7596 70.2082 94.0385 69.7757 94.1827C69.3432 93.8943 68.9108 94.1827 68.4783 94.1827C68.0458 94.327 67.6133 93.8943 67.1808 94.1827C66.7483 94.1827 66.3158 94.327 65.8833 94.1827C65.4508 94.4712 65.0183 93.8943 64.73 94.1827C64.2975 94.1827 64.0091 94.1827 63.5767 94.1827C63.1442 93.75 62.8558 94.0385 62.4233 94.1827C62.135 94.1827 61.7025 94.4712 61.4142 94.1827C61.1259 94.1827 60.6934 93.8943 60.405 94.1827C60.1167 94.1827 59.8284 93.6058 59.3959 94.1827C59.1075 94.327 58.8192 93.75 58.5309 94.1827C58.2426 94.4712 57.9542 94.1827 57.6659 94.1827C57.3776 94.1827 57.0892 94.1827 56.9451 94.1827C55.0709 92.7404 53.7735 92.4519 53.7735 92.3077C53.7735 92.0193 55.2151 91.7308 57.9542 91.5866C58.2426 91.5866 58.5309 91.2981 58.8192 91.5866C59.1075 91.5866 59.3959 91.2981 59.6842 91.5866C59.9725 91.1539 60.2609 91.4423 60.6934 91.5866C60.9817 91.5866 61.4142 91.7308 61.7025 91.5866C61.9908 91.2981 62.4233 91.7308 62.7117 91.5866C63.1442 91.875 63.4325 91.7308 63.865 91.5866C64.2975 91.875 64.5858 91.5866 65.0183 91.5866C65.4508 92.0193 65.8833 91.7308 66.1716 91.5866C66.6041 91.4423 67.0366 91.5866 67.4691 91.5866C67.9016 91.5866 68.3341 91.4423 68.7666 91.5866C69.1991 91.4423 69.6316 91.2981 70.0641 91.5866C70.4966 91.4423 70.9291 91.5866 71.3616 91.5866H71.5057H71.6499H71.794H71.9382C71.9382 91.5866 71.9382 91.4423 71.794 91.4423C71.794 91.2981 71.794 91.1539 71.794 91.0096C71.794 90.7212 71.794 90.5769 71.794 90.2885C71.794 89.8558 71.9382 89.2789 71.794 88.8462C72.2265 88.5577 71.9382 88.4135 71.794 88.5577C71.6499 88.5577 71.6499 88.5577 71.6499 88.5577C71.6499 88.5577 71.6499 88.5577 71.5057 88.5577C71.0732 88.5577 70.4966 88.5577 70.0641 88.5577C69.6316 88.7019 69.0549 88.4135 68.6224 88.5577C68.1899 88.7019 67.6133 88.4135 67.1808 88.5577C66.7483 88.7019 66.1716 88.7019 65.7391 88.5577C65.3066 88.5577 64.8741 88.125 64.4416 88.5577C64.0092 88.7019 63.5767 89.1346 63.1442 88.5577C62.7117 88.7019 62.2792 88.2693 61.8467 88.5577C61.4142 88.125 60.9817 88.5577 60.5492 88.5577C60.1167 88.4135 59.6842 88.4135 59.3959 88.5577C58.9634 88.7019 58.6751 88.4135 58.2426 88.5577C57.8101 88.8462 57.5217 88.2693 57.0892 88.5577C56.8009 88.5577 56.3684 88.5577 56.0801 88.5577C55.9359 88.8462 55.7918 88.8462 55.5034 88.7019C55.3593 88.7019 55.3593 88.5577 55.2151 88.5577C55.2151 88.5577 55.2151 88.5577 55.0709 88.5577C54.9268 88.5577 54.9268 88.5577 54.9268 88.7019C54.9268 88.7019 54.9268 88.7019 54.6384 88.5577C54.6384 88.7019 54.7826 88.7019 54.6384 88.7019C54.6384 88.7019 54.4943 88.7019 54.3501 88.7019V88.8462C54.3501 88.9904 54.3501 88.9904 54.3501 88.9904C54.6384 89.2789 54.2059 89.5673 54.3501 89.7116C54.2059 90 54.3501 90.1443 54.3501 90.4327C54.3501 90.7212 54.3501 90.8654 54.3501 91.0096C54.3501 91.1539 54.3501 91.4423 54.3501 91.5866C54.0618 91.7308 53.9176 92.3077 53.7735 92.3077Z" fill="#212529"/>
<path d="M85.778 92.3077C85.6339 92.3077 85.4897 91.7308 85.3455 90.7212C85.3455 90.5769 85.3455 90.4327 85.3455 90.1443C85.3455 90 85.2014 89.7116 85.3455 89.5673C85.4897 89.2789 84.913 89.1346 85.3455 88.8462C85.4897 88.5577 85.3455 88.4135 85.3455 88.125C85.3455 87.9808 85.3455 87.6923 85.3455 87.5481C85.3455 87.4039 85.3455 87.1154 85.3455 86.8269C85.2014 86.5385 85.2014 86.3943 85.2014 86.3943C85.2014 86.25 85.3455 86.25 85.3455 86.1058C85.4897 86.1058 85.6339 86.1058 85.6339 85.9616C86.0664 85.8173 86.643 85.8173 87.0755 85.9616C87.0755 85.9616 87.2197 85.9616 87.2197 86.1058H87.3638C87.508 86.1058 87.508 86.1058 87.6522 86.1058C87.7963 86.1058 87.9405 85.9616 88.2288 85.9616C88.5172 86.3943 88.9497 86.1058 89.238 85.9616C89.5263 86.3943 89.9588 86.3943 90.3913 85.9616C90.8238 85.9616 91.1121 86.1058 91.5446 85.9616C91.9771 85.9616 92.4096 85.8173 92.6979 85.9616C93.1304 85.6731 93.5629 85.6731 93.9954 85.9616C94.4279 85.6731 94.8604 85.8173 95.2929 85.9616C95.7254 86.1058 96.1579 85.6731 96.5904 85.9616C97.0229 85.9616 97.4554 85.8173 97.8879 85.9616C98.3204 86.1058 98.7529 86.25 99.3295 85.9616C99.762 85.8173 100.339 85.8173 100.771 85.9616C101.204 85.5289 101.78 85.8173 102.213 85.9616C102.645 85.9616 103.222 86.1058 103.654 85.9616C104.375 85.9616 105.529 85.8173 106.394 85.9616C106.394 86.5385 106.249 86.9712 106.249 87.4039C106.249 87.6923 106.249 87.8366 106.249 88.125C106.249 88.2693 106.249 88.4135 106.249 88.4135V88.5577C106.249 88.5577 106.249 88.5577 106.249 88.7019C106.538 89.1346 106.105 89.7116 106.249 90.1443C106.105 90.4327 106.105 90.5769 106.105 90.8654C106.105 91.0096 106.105 91.1539 106.249 91.2981C106.249 91.4423 106.249 91.7308 106.249 92.0193C106.249 92.3077 106.249 92.7404 106.249 93.0289C106.249 93.3173 106.249 93.6058 106.249 93.8943C106.105 93.8943 105.817 93.8942 105.673 94.0385C105.24 94.0385 104.808 94.0385 104.375 94.1827C104.087 94.1827 103.943 94.1827 103.654 94.1827H103.51H103.366H103.222C102.789 94.7596 102.357 94.0385 101.924 94.1827C101.492 93.8943 101.059 94.1827 100.627 94.1827C100.195 94.327 99.762 93.8943 99.3295 94.1827C98.897 94.1827 98.4645 94.327 98.032 94.1827C97.5995 94.4712 97.167 93.8943 96.8787 94.1827C96.4462 94.1827 96.1579 94.1827 95.7254 94.1827C95.2929 93.75 95.0046 94.0385 94.5721 94.1827C94.1396 94.1827 93.8513 94.4712 93.5629 94.1827C93.2746 94.1827 92.8421 93.8943 92.5538 94.1827C92.2654 94.1827 91.9771 93.6058 91.5446 94.1827C91.2563 94.327 90.968 93.75 90.6796 94.1827C90.3913 94.4712 90.103 94.1827 89.8146 94.1827C89.5263 94.1827 89.238 94.1827 89.0938 94.1827C87.0755 92.7404 85.778 92.4519 85.778 92.3077C85.778 92.0193 87.2197 91.7308 89.9588 91.5866C90.2471 91.5866 90.5355 91.2981 90.8238 91.5866C91.1121 91.5866 91.4005 91.2981 91.6888 91.5866C91.9771 91.1539 92.2654 91.4423 92.6979 91.5866C92.9863 91.5866 93.4188 91.7308 93.7071 91.5866C93.9954 91.2981 94.4279 91.7308 94.7162 91.5866C95.1487 91.875 95.4371 91.7308 95.8696 91.5866C96.3021 91.875 96.5904 91.5866 97.0229 91.5866C97.4554 92.0193 97.8879 91.7308 98.1762 91.5866C98.6087 91.4423 99.0412 91.5866 99.4737 91.5866C99.9062 91.5866 100.339 91.4423 100.771 91.5866C101.204 91.4423 101.636 91.2981 102.069 91.5866C102.501 91.4423 102.934 91.5866 103.366 91.5866H103.51H103.654H103.799H103.943C103.943 91.5866 103.943 91.4423 103.799 91.4423C103.799 91.2981 103.799 91.1539 103.799 91.0096C103.799 90.7212 103.799 90.5769 103.799 90.2885C103.799 89.8558 103.943 89.2789 103.799 88.8462C104.231 88.5577 103.943 88.4135 103.799 88.5577C103.654 88.5577 103.654 88.5577 103.654 88.5577C103.654 88.5577 103.654 88.5577 103.51 88.5577C103.078 88.5577 102.501 88.5577 102.069 88.5577C101.636 88.7019 101.059 88.4135 100.627 88.5577C100.195 88.7019 99.6178 88.4135 99.1854 88.5577C98.7529 88.7019 98.1762 88.7019 97.7437 88.5577C97.3112 88.5577 96.8787 88.125 96.4462 88.5577C96.0137 88.7019 95.5812 89.1346 95.1487 88.5577C94.7162 88.7019 94.2837 88.2693 93.8513 88.5577C93.4188 88.125 92.9863 88.5577 92.5538 88.5577C92.1213 88.4135 91.6888 88.4135 91.4005 88.5577C90.968 88.7019 90.6796 88.4135 90.2471 88.5577C89.8146 88.8462 89.5263 88.2693 89.0938 88.5577C88.6613 88.5577 88.373 88.5577 88.0847 88.5577C87.9405 87.9808 87.6522 87.9808 87.508 87.8366C87.3638 87.8366 87.3638 87.6923 87.2197 87.6923C87.2197 87.6923 87.2197 87.6923 87.0755 87.6923C86.9313 87.6923 86.9313 87.6923 86.9313 87.8366C86.9313 87.8366 86.9313 87.8366 86.643 87.6923C86.643 87.8366 86.7872 87.8366 86.643 87.8366C86.643 87.8366 86.4989 87.8366 86.3547 87.8366V87.9808C86.3547 88.125 86.3547 88.125 86.3547 88.125C86.643 88.4135 86.2105 88.7019 86.3547 88.8462C86.2105 89.1346 86.3547 89.2789 86.3547 89.5673C86.3547 89.8558 86.3547 90 86.3547 90.1443C86.3547 90.2885 86.3547 90.5769 86.3547 90.7212C86.0664 91.7308 85.9222 92.3077 85.778 92.3077Z" fill="#212529"/>
<path d="M10.9565 92.3077C10.9565 92.3077 11.1007 92.7404 11.1007 93.75C11.1007 94.1827 11.1007 94.7596 11.2449 95.4808C11.2449 96.0577 11.2449 96.7789 11.389 97.5C11.6774 97.5 11.8215 97.5 12.1098 97.5C12.254 97.5 12.3982 97.5 12.5423 97.5C12.6865 97.5 12.9748 97.5 13.119 97.5C13.5515 97.5 13.8398 97.5 14.2723 97.5C15.1373 97.5 16.0023 97.3558 16.8673 97.5C17.7323 97.6442 18.7414 97.0673 19.7506 97.5C20.7597 97.6442 21.913 97.5 22.9222 97.5C24.0755 97.5 25.2288 97.6442 26.3822 97.5C27.5355 97.0673 28.833 97.9327 30.1304 97.5C31.4279 97.3558 32.7254 97.3558 34.1671 97.5C35.6087 97.7885 36.9062 97.5 38.492 97.5C39.9336 97.9327 41.5195 97.6442 42.9611 97.5C44.5469 97.9327 46.1327 97.9327 47.7185 97.5C49.3044 97.5 51.0343 97.6442 52.6201 97.5C54.3501 97.5 56.0801 97.3558 57.8101 97.5C59.54 97.2116 61.27 97.2116 63.1442 97.5C65.0183 97.2116 66.7483 97.3558 68.6224 97.5C70.4966 97.6442 72.3707 97.2116 74.2449 97.5C76.119 97.5 78.1373 97.3558 80.0114 97.5C82.0298 97.6442 83.9039 97.7885 85.9222 97.5C87.9405 97.3558 89.9588 97.3558 91.9771 97.5C93.9954 97.0673 96.1579 97.3558 98.1762 97.5C100.339 97.5 102.357 97.6442 104.519 97.5C105.529 97.5 106.682 97.5 107.691 97.5C108.268 97.5 108.7 97.5 109.277 97.5H109.421H109.565C109.565 97.5 109.565 97.3558 109.709 97.3558C109.709 96.9231 109.709 96.3462 109.709 95.9135C109.709 95.4808 109.709 94.9039 109.709 94.4712C109.709 94.3269 109.709 94.3269 109.709 94.1827H109.565H109.421C109.133 94.1827 108.844 94.1827 108.556 94.1827C107.979 94.1827 107.547 94.1827 106.97 94.1827C105.961 94.1827 104.808 94.0385 103.799 94.1827C101.636 93.8943 99.6178 94.3269 97.5995 94.1827C95.5812 94.1827 93.5629 94.0385 91.5446 94.1827C89.5263 94.1827 87.508 94.3269 85.6339 94.1827C83.6156 94.7596 81.7414 94.0385 79.8673 94.1827C77.9931 93.8943 76.119 94.1827 74.2449 94.1827C72.3707 94.3269 70.4966 93.8943 68.7666 94.1827C66.8925 94.1827 65.1625 94.3269 63.4325 94.1827C61.7025 94.4712 59.9725 93.8943 58.2426 94.1827C56.5126 94.1827 54.9268 94.1827 53.341 94.1827C51.7552 93.75 50.1693 94.0385 48.5835 94.1827C46.9977 94.1827 45.5561 94.4712 44.1144 94.1827C42.6728 94.1827 41.2311 93.8943 39.7895 94.1827C38.3478 94.1827 37.0503 93.6058 35.7529 94.1827C34.4554 94.3269 33.1579 93.75 32.0046 94.1827C30.8513 94.4712 29.6979 94.1827 28.5446 94.1827C27.3913 94.1827 26.3822 94.1827 25.373 94.1827C20.7597 94.0385 17.1556 94.0385 14.7048 93.8942C12.254 92.4519 10.9565 92.3077 10.9565 92.3077C10.9565 92.1635 12.5423 92.0193 15.5698 91.875C18.5973 91.7308 23.0664 91.5866 28.5446 91.5866C29.6979 91.5866 30.8513 91.2981 32.0046 91.5866C33.1579 91.5866 34.4554 91.2981 35.7529 91.5866C37.0503 91.1539 38.3478 91.4423 39.7895 91.5866C41.2311 91.5866 42.5286 91.7308 44.1144 91.5866C45.5561 91.2981 47.1419 91.7308 48.5835 91.5866C50.1693 91.875 51.7552 91.7308 53.341 91.5866C54.9268 91.875 56.6568 91.5866 58.2426 91.5866C59.9725 92.0193 61.7025 91.7308 63.4325 91.5866C65.1625 91.4423 66.8925 91.5866 68.7666 91.5866C70.6407 91.5866 72.3707 91.4423 74.2449 91.5866C76.119 91.4423 77.9931 91.2981 79.8673 91.5866C81.7414 91.4423 83.7597 91.5866 85.6339 91.5866C87.6522 91.4423 89.5263 91.5866 91.5446 91.5866C93.5629 91.4423 95.5812 92.0193 97.5995 91.5866C99.6178 91.5866 101.78 91.5866 103.799 91.5866C104.808 91.5866 105.961 91.5866 106.97 91.5866C107.547 91.5866 107.979 91.5866 108.556 91.5866C109.277 91.5866 109.998 91.5866 110.719 91.5866C111.151 91.5866 111.584 91.7308 112.016 91.7308C112.016 92.5962 111.872 93.4616 111.872 94.3269C111.872 94.7596 111.872 95.3366 111.872 95.7693C111.872 96.2019 111.872 96.7789 112.016 97.2116C112.016 98.0769 112.16 98.9423 112.16 99.9519C111.584 99.9519 111.151 99.9519 110.574 99.9519C110.142 99.9519 109.709 99.9519 109.133 99.9519C108.556 99.9519 108.124 99.9519 107.547 99.9519C106.538 99.9519 105.384 99.9519 104.375 99.9519C102.213 99.9519 100.05 99.9519 98.032 99.9519C95.8696 100.096 93.8513 99.8077 91.833 99.9519C89.8147 100.096 87.7963 99.8077 85.778 99.9519C83.7597 100.096 81.7414 100.096 79.8673 99.9519C77.849 99.9519 75.9748 99.5193 74.1007 99.9519C72.2266 100.096 70.3524 100.529 68.4783 99.9519C66.6041 100.096 64.73 99.6635 63 99.9519C61.1259 99.5193 59.3959 99.9519 57.6659 99.9519C55.9359 99.8077 54.206 99.8077 52.476 99.9519C50.746 100.096 49.1602 99.8077 47.5744 99.9519C45.9886 100.24 44.4028 99.6635 42.8169 99.9519C41.2311 99.9519 39.7895 99.9519 38.3478 99.9519C36.9062 100.529 35.4645 99.9519 34.0229 99.9519C32.5812 99.8077 31.2838 100.385 29.9863 99.9519C28.6888 100.385 27.3913 99.9519 26.238 99.9519C25.0847 99.8077 23.9314 100.096 22.778 99.9519C21.6247 100.24 20.6156 99.8077 19.6064 99.9519C18.5973 99.8077 17.5881 99.9519 16.7231 99.9519C15.8581 99.9519 14.9931 99.9519 14.1282 99.9519C13.2632 99.9519 12.3982 99.9519 11.6774 99.9519C11.2449 99.9519 10.8124 99.9519 10.524 99.9519C10.524 99.375 10.524 98.7981 10.524 98.2212C10.524 97.7885 10.524 97.3558 10.524 97.0673C10.524 96.3462 10.524 95.7692 10.6682 95.3366C10.8124 92.7404 10.8124 92.3077 10.9565 92.3077Z" fill="#212529"/>
<path d="M0.432495 103.702C0.432495 103.702 0.28833 103.269 0.28833 102.26C0.28833 101.827 0.28833 101.25 0.144165 100.529C0.144165 100.096 0.144165 99.8077 0.144165 99.375C0.144165 98.7981 0.144165 98.3654 0.144165 97.7885C1.00915 97.7885 1.87414 97.7885 2.73913 97.7885C3.60412 97.7885 4.46911 97.7885 5.47826 97.7885C6.48741 97.7885 7.49657 97.6442 8.64989 97.7885C9.8032 97.9327 10.9565 97.3558 12.1098 97.7885C13.4073 97.9327 14.5606 97.7885 16.0023 97.7885C17.2998 97.7885 18.7414 97.9327 20.1831 97.7885C21.6247 97.3558 23.0664 98.2212 24.6522 97.7885C26.238 97.6442 27.8238 97.6442 29.4096 97.7885C30.9954 98.0769 32.7254 97.7885 34.4554 97.7885C36.1854 98.2212 38.0595 97.9327 39.7895 97.7885C41.6636 98.2212 43.5378 98.2212 45.4119 97.7885C47.286 97.7885 49.3043 97.9327 51.3227 97.7885C53.341 97.7885 55.3593 97.6442 57.5217 97.7885C59.6842 97.5 61.7025 97.5 63.865 97.7885C66.0275 97.5 68.1899 97.6442 70.4966 97.7885C72.8032 97.9327 74.9657 97.5 77.2723 97.7885C79.5789 97.7885 81.8856 97.6442 84.3364 97.7885C86.643 97.9327 89.0938 98.0769 91.5446 97.7885C93.9954 97.6442 96.4462 97.6442 98.897 97.7885C101.348 97.3558 103.799 97.6442 106.394 97.7885C108.844 97.7885 111.439 97.9327 114.034 97.7885C115.332 97.7885 116.629 97.7885 117.927 97.7885C118.503 97.7885 119.224 97.7885 119.801 97.7885C120.233 97.7885 120.666 97.7885 121.243 97.7885C121.819 97.7885 122.396 97.7885 122.973 97.7885C122.973 98.6538 122.973 99.5192 122.973 100.385C122.973 100.817 122.973 101.394 122.973 101.827C122.973 102.26 122.973 102.692 122.973 103.269C122.973 104.135 122.973 105 122.973 105.721C122.396 105.721 121.819 105.721 121.098 105.721H120.666H120.378H120.233H119.657C117.062 106.01 114.611 105.577 112.016 105.721C109.565 105.433 106.97 105.865 104.519 105.721C102.069 105.721 99.6179 105.577 97.1671 105.721C94.7163 105.721 92.4096 105.865 89.9588 105.721C87.6522 106.298 85.2014 105.577 82.8947 105.721C80.5881 105.433 78.2815 105.721 76.119 105.721C73.8124 105.865 71.6499 105.433 69.4874 105.721C67.325 105.721 65.1625 105.865 63.1442 105.721C60.9817 106.01 58.9634 105.433 56.9451 105.721C54.9268 105.721 52.9085 105.721 51.0343 105.721C49.1602 105.288 47.1419 105.577 45.4119 105.721C43.5378 105.721 41.8078 106.01 40.0778 105.721C38.3478 105.721 36.6178 105.433 35.032 105.721C33.4462 105.721 31.7162 105.144 30.2746 105.721C28.6888 105.865 27.2471 105.288 25.8055 105.721C24.3638 106.01 22.9222 105.721 21.6247 105.721C20.3272 105.721 19.0297 105.721 17.7323 105.721C12.254 105.577 7.92906 105.577 4.9016 105.433C1.87414 103.846 0.28833 103.702 0.432495 103.702C0.432495 103.558 2.30664 103.413 6.05492 103.269C9.65904 103.125 14.9931 102.981 21.6247 102.981C22.9222 102.981 24.3638 102.692 25.8055 102.981C27.2471 102.981 28.6888 102.692 30.2746 102.981C31.8604 102.548 33.4462 102.837 35.032 102.981C36.762 102.981 38.3478 103.125 40.0778 102.981C41.8078 102.692 43.6819 103.125 45.4119 102.981C47.286 103.269 49.1602 103.125 51.0343 102.981C52.9085 103.269 54.9268 102.981 56.9451 102.981C58.9634 103.413 60.9817 103.125 63.1442 102.981C65.3066 102.837 67.325 102.981 69.4874 102.981C71.6499 102.981 73.8124 102.837 76.119 102.981C78.4256 102.837 80.5881 102.692 82.8947 102.981C85.2014 102.837 87.508 102.981 89.9588 102.981C92.2655 102.837 94.7163 102.981 97.1671 102.981C99.6179 102.837 102.069 103.413 104.519 102.981C106.97 102.981 109.421 102.981 112.016 102.981C114.467 102.981 117.062 103.125 119.657 102.981C119.801 102.981 119.945 102.981 120.233 102.981H120.378C120.522 102.981 120.522 102.981 120.666 102.981C120.666 102.837 120.666 102.692 120.666 102.548C120.666 102.115 120.666 101.538 120.666 101.106C120.666 100.673 120.666 100.096 120.522 99.6635C120.522 99.5192 120.522 99.5192 120.378 99.5192H120.233H119.801C119.224 99.5192 118.503 99.5192 117.927 99.5192C116.629 99.5192 115.332 99.5192 114.034 99.5192C111.439 99.5192 108.989 99.5192 106.394 99.5192C103.943 99.6635 101.348 99.375 98.897 99.5192C96.4462 99.6635 93.9954 99.375 91.5446 99.5192C89.0938 99.6635 86.7872 99.6635 84.3364 99.5192C82.0298 99.5192 79.5789 99.0865 77.2723 99.5192C74.9657 99.6635 72.659 100.096 70.4966 99.5192C68.1899 99.6635 66.0275 99.2308 63.865 99.5192C61.7025 99.0865 59.5401 99.5192 57.5217 99.5192C55.3593 99.375 53.341 99.375 51.3227 99.5192C49.3043 99.6635 47.286 99.375 45.4119 99.5192C43.5378 99.8077 41.5195 99.2308 39.7895 99.5192C37.9153 99.5192 36.1854 99.5192 34.4554 99.5192C32.7254 100.096 30.9954 99.5192 29.4096 99.5192C27.8238 99.375 26.0938 99.9519 24.6522 99.5192C23.0664 99.9519 21.6247 99.5192 20.1831 99.5192C18.7414 99.375 17.2998 99.6635 16.0023 99.5192C14.7048 99.8077 13.4073 99.375 12.1098 99.5192C10.8124 99.375 9.65904 99.5192 8.64989 99.5192C7.49657 99.5192 6.48741 99.5192 5.47826 99.5192C4.46911 99.5192 3.60412 99.5192 2.73913 99.5192C2.59497 99.5192 2.30664 99.5192 2.16247 99.5192C2.01831 99.5192 1.87414 99.5192 1.72998 99.5192C1.44165 99.5192 1.15332 99.5192 0.864989 99.5192C0.864989 100.24 0.864989 100.962 0.720824 101.538C0.720824 102.26 0.720824 102.837 0.576659 103.269C0.432495 103.125 0.432495 103.702 0.432495 103.702Z" fill="#212529"/>
<path d="M63.4325 12.5481C63.4325 12.6923 63.2883 12.6923 63.1442 12.8366C63 12.8366 62.8558 12.9808 62.7117 12.9808C62.5675 12.9808 62.4233 13.125 62.135 13.125C61.9908 13.125 61.8467 13.2693 61.7025 13.2693L61.5584 13.4135C61.5584 13.4135 61.4142 13.5577 61.27 13.5577C60.9817 13.4135 61.1259 13.9904 60.8375 13.8462C60.6934 13.8462 60.405 13.9904 60.405 14.1346C60.2609 14.2789 59.9725 14.2789 59.9725 14.5673C59.9725 14.8558 59.8284 14.7116 59.6842 14.7116C59.5401 14.7116 59.3959 14.7116 59.3959 15C59.3959 15.1443 59.2517 15.1443 59.2517 15.2885C59.1076 15.4327 59.1076 15.4327 58.9634 15.577C58.8192 15.577 58.6751 15.7212 58.6751 15.8654C58.6751 16.0096 58.6751 16.1539 58.5309 16.2981C58.0984 16.2981 58.0984 16.5866 58.2426 17.0193C57.9542 17.0193 57.8101 17.1635 57.8101 17.3077C57.8101 17.452 57.8101 17.5962 57.9542 17.8846C57.9542 18.0289 57.8101 18.1731 57.8101 18.3173V18.4616C57.8101 18.6058 57.8101 18.6058 57.8101 18.75C57.8101 18.8943 57.8101 19.0385 57.8101 19.1827C57.8101 19.327 57.8101 19.4712 57.8101 19.6154C57.9542 19.7596 58.0984 19.9039 58.0984 20.0481C58.0984 20.1923 58.0984 20.1923 58.0984 20.3366C58.0984 20.4808 58.0984 20.4808 57.9542 20.625C58.3867 20.9135 58.2426 21.202 58.2426 21.4904C58.2426 21.6346 58.3867 21.7789 58.3867 21.9231C58.5309 22.0673 58.6751 22.2116 58.5309 22.3558C58.5309 22.5 58.6751 22.6443 58.8192 22.7885C58.9634 22.9327 58.9634 23.077 59.1076 23.2212C59.1076 23.3654 59.1076 23.3654 59.1076 23.5096C59.1076 23.6539 59.2517 23.6539 59.2517 23.7981L59.3959 23.9423C59.54 23.9423 59.5401 23.9423 59.6842 23.9423C59.8284 24.0866 59.9725 24.0866 60.1167 24.2308C60.2609 24.375 60.405 24.375 60.5492 24.6635C60.9817 24.5193 61.27 24.8077 61.4142 25.0962C61.5584 25.0962 61.7025 25.2404 61.8467 25.3846C61.9909 25.3846 62.135 25.5289 62.4233 25.3846C62.5675 25.3846 62.7117 25.3846 63 25.3846C63.1442 25.3846 63.2883 25.3846 63.5767 25.3846C63.7208 25.3846 64.0092 25.5289 64.1533 25.5289C64.2975 25.5289 64.5858 25.5289 64.73 25.3846C64.8741 25.2404 65.0183 25.2404 65.1625 25.2404C65.3066 25.2404 65.595 25.2404 65.7391 25.0962C66.0275 25.2404 66.1716 25.0962 66.3158 24.952C66.46 24.8077 66.6041 24.6635 66.7483 24.6635C66.8925 24.5193 67.0366 24.5193 67.1808 24.375C67.3249 24.375 67.4691 24.2308 67.4691 23.9423L67.6133 23.7981C67.6133 23.6539 67.7574 23.6539 67.7574 23.6539L67.9016 23.5096L68.0458 23.3654C67.9016 23.077 68.0458 22.9327 68.1899 22.9327C68.3341 22.7885 68.6224 22.7885 68.6224 22.6443C68.7666 22.5 68.9108 22.3558 68.9108 22.2116C68.9108 22.0673 68.9108 21.9231 69.0549 21.7789C69.0549 21.6346 69.1991 21.4904 69.1991 21.3462C69.3433 21.202 69.3433 21.0577 69.1991 20.9135C69.1991 20.7693 69.1991 20.7693 69.1991 20.625C69.1991 20.4808 69.1991 20.4808 69.1991 20.3366C69.1991 20.1923 69.1991 20.0481 69.3433 19.9039C69.1991 19.7596 69.1991 19.6154 69.3433 19.4712C69.3433 19.327 69.4874 19.1827 69.3433 19.0385V18.8943V18.75C69.3433 18.6058 69.3433 18.4616 69.3433 18.3173C69.4874 18.1731 69.4874 18.0289 69.3433 17.8846C69.1991 17.7404 69.0549 17.7404 69.0549 17.5962C69.0549 17.3077 68.6224 17.3077 68.7666 16.875C68.7666 16.7308 68.6224 16.5866 68.6224 16.4423C68.6224 16.2981 68.4783 16.1539 68.3341 16.1539C68.1899 16.1539 68.3341 15.8654 68.1899 15.7212C68.1899 15.577 68.0458 15.4327 67.7574 15.577C67.6133 15.577 67.6133 15.4327 67.6133 15.2885C67.6133 15.1443 67.4691 15 67.3249 15.1443C66.8925 15.2885 67.0366 14.8558 66.8925 14.7116C66.7483 14.5673 66.6041 14.4231 66.46 14.4231C65.7391 13.9904 65.0183 13.702 64.5858 13.5577C63.7208 12.6923 63.4325 12.6923 63.4325 12.5481C63.4325 12.5481 63.5767 12.4039 63.7208 12.4039C63.865 12.4039 64.1533 12.2596 64.4417 12.2596C65.1625 12.2596 66.0275 12.2596 67.1808 12.8366C67.4691 12.9808 67.7574 12.8366 67.9016 13.2693C68.0458 13.4135 68.1899 13.4135 68.3341 13.4135C68.4783 13.4135 68.6224 13.5577 68.6224 13.702C68.9108 13.702 69.0549 13.702 69.0549 13.8462C69.1991 13.9904 69.1991 14.2789 69.3433 14.2789C69.4874 14.4231 69.4874 14.5673 69.6316 14.7116C69.7757 14.8558 69.7757 15 69.9199 15C70.3524 15.1443 70.2082 15.577 70.4966 15.8654C70.4966 16.2981 70.6407 16.5866 70.9291 16.875C70.9291 17.0193 70.9291 17.3077 71.0732 17.452C71.0732 17.5962 71.2174 17.5962 71.2174 17.7404C71.2174 17.8846 71.2174 17.8846 71.3616 18.0289C71.2174 18.3173 71.2174 18.4616 71.2174 18.6058C71.2174 18.75 71.3616 19.0385 71.5057 19.1827C71.6499 19.327 71.5057 19.6154 71.5057 19.7596C71.5057 19.9039 71.5057 19.9039 71.5057 20.0481C71.5057 20.1923 71.5057 20.1923 71.5057 20.3366C71.3616 20.7693 71.3616 21.202 71.2174 21.6346C71.2174 21.9231 71.2174 22.0673 71.0732 22.3558C70.9291 22.5 70.7849 22.7885 70.6407 22.9327C70.6407 23.2212 70.4966 23.3654 70.3524 23.5096C70.2082 23.6539 70.0641 23.9423 69.9199 24.0866C69.9199 24.2308 69.7757 24.375 69.7757 24.375C69.6316 24.5193 69.6316 24.5193 69.4874 24.6635L69.1991 25.0962C69.0549 25.2404 69.0549 25.2404 68.9108 25.3846C68.7666 25.5289 68.4783 25.6731 68.3341 25.8173C68.0458 25.9616 67.9016 26.1058 67.7574 26.3943C67.3249 26.6827 66.8924 26.827 66.46 27.1154C66.1716 27.1154 66.0275 27.2596 65.7391 27.2596C65.4508 27.2596 65.3066 27.4039 65.0183 27.5481C64.73 27.4039 64.4416 27.4039 64.2975 27.4039C64.0092 27.4039 63.865 27.5481 63.5767 27.6923C63.2883 27.6923 63 27.6923 62.8558 27.6923C62.5675 27.6923 62.2792 27.5481 62.135 27.5481C61.8467 27.5481 61.5584 27.4039 61.4142 27.4039C61.1259 27.4039 60.9817 27.2596 60.6934 27.1154C60.405 27.1154 60.2609 26.9712 59.9725 26.827C59.8284 26.6827 59.54 26.5385 59.2517 26.3943C58.9634 26.3943 58.8192 26.1058 58.6751 25.9616C58.5309 25.8173 58.3867 25.5289 58.0984 25.5289C57.9542 25.5289 57.8101 25.3846 57.8101 25.3846C57.6659 25.2404 57.6659 25.2404 57.5217 25.0962C57.3776 24.952 57.3776 24.952 57.2334 24.8077C57.2334 24.6635 57.0892 24.5193 57.0892 24.5193C56.9451 24.375 56.9451 24.0866 56.8009 23.7981C56.6568 23.5096 56.6568 23.3654 56.3684 23.2212C56.2243 23.077 55.9359 22.9327 55.9359 22.6443C55.7918 22.5 55.7918 22.2116 55.9359 21.9231C55.7918 21.7789 55.7918 21.4904 55.7918 21.202C55.7918 20.9135 55.7918 20.7693 55.6476 20.625C55.7918 20.4808 55.7918 20.3366 55.7918 20.3366C55.7918 20.1923 55.7918 20.1923 55.7918 20.0481C55.7918 19.9039 55.6476 19.6154 55.6476 19.4712C55.6476 19.327 55.7918 19.0385 55.7918 18.8943C55.7918 18.75 55.7918 18.4616 55.7918 18.3173C55.7918 18.1731 55.7918 18.1731 55.7918 18.0289C55.7918 17.8846 55.7918 17.8846 55.9359 17.7404C56.0801 17.5962 56.0801 17.452 56.2243 17.1635C56.2243 17.0193 56.3684 16.7308 56.5126 16.5866C56.6568 16.4423 56.8009 16.2981 56.8009 16.1539C56.9451 15.8654 57.0892 15.577 57.3776 15.2885C57.2334 15 57.3776 14.8558 57.5217 14.7116C57.2334 14.4231 57.5217 14.4231 57.6659 14.2789C57.8101 14.1346 57.8101 13.9904 57.9542 13.8462C57.9542 13.702 58.0984 13.5577 58.3867 13.702C58.3867 13.4135 58.5309 13.2693 58.6751 13.2693C58.8192 13.2693 58.9634 13.2693 59.1076 13.125C59.3959 13.125 59.3959 12.6923 59.8284 12.6923C59.8284 12.5481 59.9725 12.4039 60.1167 12.5481C60.2609 12.5481 60.405 12.5481 60.405 12.5481C60.6934 12.5481 60.8375 12.4039 60.9817 12.4039C61.1259 12.4039 61.1259 12.2596 61.27 12.2596C61.4142 12.2596 61.4142 12.2596 61.5584 12.2596C61.7025 12.2596 61.8467 12.2596 61.9908 12.2596C62.2792 12.2596 62.4233 12.2596 62.5675 12.2596C62.7117 12.2596 62.8558 12.2596 63 12.4039C63.2883 12.4039 63.4325 12.4039 63.4325 12.5481Z" fill="#212529"/>
</g>
<defs>
<clipPath id="clip0_17_95">
<rect width="126" height="105" fill="white"/>
</clipPath>
</defs>
</svg>
