<svg width="105" height="116" viewBox="0 0 105 116" fill="none" xmlns="http://www.w3.org/2000/svg">
<g clip-path="url(#clip0_17_378)">
<path d="M81.332 48.3452C81.1885 48.3452 81.1885 47.7731 80.9017 46.6288C80.6148 45.4846 80.3279 43.7682 79.4672 41.7657C79.4672 41.6227 79.3238 41.4796 79.3238 41.1936C79.1803 41.0505 79.1803 40.9075 79.0369 40.6214C78.8935 40.1923 78.75 39.9063 78.6066 39.4772C78.1762 38.762 77.7459 37.9038 77.3156 37.0456C77.1721 36.6165 76.8853 36.1874 76.4549 35.7583C76.3115 35.6153 76.168 35.3292 76.0246 35.1862C75.8812 35.0431 75.7377 34.7571 75.5943 34.471C75.3074 34.0419 75.0205 33.6128 74.5902 33.1837C74.4467 33.0407 74.1598 32.7546 74.0164 32.6116C73.873 32.4685 73.5861 32.1825 73.4426 32.0394C73.2992 31.8964 73.0123 31.6103 72.8689 31.4673C72.7254 31.3243 72.4385 31.0382 72.2951 30.8952C72.1517 30.7521 72.1517 30.7521 72.0082 30.6091C71.8648 30.4661 71.7213 30.4661 71.7213 30.323C71.4344 30.18 71.291 29.8939 71.0041 29.7509C70.7172 29.6079 70.4303 29.4648 70.1435 29.3218C69.8566 29.1788 69.7131 28.8927 69.4262 28.7497C69.2828 28.6066 69.1394 28.4636 68.9959 28.4636C68.8525 28.3206 68.709 28.3206 68.5656 28.1775C68.2787 28.0345 67.9918 27.8915 67.7049 27.7484C66.5574 27.1763 65.2664 26.4611 63.9754 26.032C62.8279 25.1738 61.25 25.0308 59.8156 24.7447C58.3812 24.0296 56.8033 23.8865 55.2254 24.0296C53.6476 23.4574 52.0697 23.4574 50.3484 24.0296C48.7705 24.1726 47.0492 24.1726 45.3279 24.7447C43.6066 25.1738 42.0287 25.746 40.4508 26.4611C39.0164 27.4624 37.4385 28.3206 35.7172 29.0357C35.5738 29.1788 35.4303 29.3218 35.2869 29.4648C35.1435 29.6079 35 29.7509 34.7131 29.8939C34.4262 30.18 33.9959 30.4661 33.709 30.7521C33.4221 31.0382 32.9918 31.3243 32.7049 31.6103C32.5615 31.7534 32.418 31.8964 32.1312 32.0394L31.8443 32.3255L31.5574 32.6116C31.2705 32.8976 30.8402 33.3267 30.5533 33.6128C30.4099 33.7558 30.2664 34.0419 30.123 34.1849C29.9795 34.328 29.8361 34.614 29.6926 34.7571C29.4058 35.1862 29.2623 35.6153 28.9754 35.9013C28.6885 36.3304 28.4017 36.7595 28.1148 37.0456C27.1107 38.762 26.3935 40.6214 25.8197 42.4809C25.1025 44.3403 24.5287 46.3428 24.6721 48.3452C24.5287 50.3477 24.6721 52.3502 24.6721 54.4957C25.2459 56.4981 25.6762 58.5006 26.3935 60.5031C27.2541 62.3625 28.1148 64.508 29.4058 66.2244C30.5533 68.2269 31.8443 69.9433 32.8484 72.0888C33.8525 74.0912 34.8566 76.2367 35.8607 78.2392C37.0082 80.2417 37.4385 82.5302 38.0123 84.6757C38.0123 84.9618 38.1558 85.2478 38.1558 85.5339C38.1558 85.82 38.2992 86.106 38.2992 86.3921C38.4426 86.9642 38.5861 87.5363 38.7295 87.9654C38.873 88.5376 39.0164 89.1097 39.1599 89.5388C39.1599 89.8249 39.3033 90.1109 39.3033 90.397C39.3033 90.6831 39.3033 90.9691 39.4467 91.2552C39.5902 92.3995 39.7336 93.4007 39.7336 94.545V94.9741V95.4032C39.7336 95.6892 39.7336 95.9753 39.7336 96.2614C39.7336 96.8335 39.8771 97.4056 39.8771 97.8347V98.6929V99.122V99.2651V99.4081C39.8771 99.4081 39.8771 99.4081 40.0205 99.4081H40.7377C41.3115 99.4081 41.7418 99.4081 42.3156 99.5511C44.3238 98.979 46.4754 99.6942 48.4836 99.5511C50.4918 99.8372 52.5 99.5511 54.5082 99.5511C56.5164 99.4081 58.3812 99.8372 60.2459 99.5511C61.25 99.5511 62.1107 99.5511 63.1148 99.5511C63.4017 99.5511 63.5451 99.5511 63.832 99.5511H64.5492H64.6926H64.8361H64.9795C64.9795 99.4081 64.9795 99.4081 64.9795 99.4081V99.122C64.9795 98.6929 64.9795 98.2638 65.123 97.6917C65.2664 96.8335 65.4099 95.8323 65.2664 94.9741C65.4099 94.1159 65.4099 93.2577 65.5533 92.3995C65.5533 91.9704 65.6967 91.5413 65.6967 91.1122C65.6967 90.6831 65.8402 90.254 65.9836 89.8249C66.2705 88.9667 66.4139 88.2515 66.7008 87.3933C66.7008 86.9642 66.8443 86.5351 66.8443 86.106C66.8443 85.6769 66.9877 85.2478 67.1312 84.9617C67.5615 83.3884 67.8484 81.815 68.5656 80.3847C69.1394 78.9544 69.8566 77.6671 70.4303 76.2367C70.7172 75.5216 71.1476 74.9494 71.5779 74.3773C72.0082 73.8051 72.2951 73.233 72.4385 72.5179C73.0123 71.2306 74.1599 70.3724 74.4467 69.0851C74.8771 67.7978 75.7377 66.9396 76.4549 65.9383C77.0287 64.9371 77.6025 63.9359 78.1762 63.0777C79.3238 60.9322 80.041 59.0727 80.4713 57.2133C80.4713 56.9272 80.6148 56.7842 80.6148 56.4981C80.6148 56.2121 80.7582 56.069 80.7582 55.926C80.9017 55.4969 80.9017 55.0678 81.0451 54.7817C81.0451 54.3526 81.1885 54.0666 81.1885 53.6375C81.1885 53.3514 81.1885 52.9223 81.332 52.6362C81.332 52.4932 81.332 52.3502 81.332 52.2071C81.332 52.0641 81.332 51.9211 81.332 51.778C81.332 51.492 81.332 51.2059 81.332 50.9198C81.332 50.4907 81.332 50.0616 81.332 49.6325C81.1885 48.6313 81.1885 48.3452 81.332 48.3452C81.332 48.3452 81.4754 48.7743 81.6189 49.6325C81.6189 49.7756 81.6189 50.0616 81.7623 50.3477C81.7623 50.6338 81.7623 50.9198 81.7623 51.2059C81.7623 51.778 81.7623 52.4932 81.7623 53.3514C81.7623 54.9248 81.4754 56.9272 80.7582 59.2158C80.041 61.5043 78.8935 63.9359 77.459 66.5105C76.8853 67.5117 76.4549 68.656 75.5943 69.6572C74.8771 70.8015 74.4467 71.9457 73.5861 73.09C73.2992 74.3773 72.2951 75.5216 71.7213 76.8089C71.1476 78.0962 70.4303 79.3834 70 80.8138C69.7131 82.2441 68.8525 83.6744 68.709 85.2478C68.5656 85.6769 68.4221 85.963 68.2787 86.3921C68.1353 86.8212 68.1353 87.1073 67.9918 87.5364C67.8484 88.3946 67.7049 89.1097 67.7049 89.9679C67.5615 90.397 67.5615 90.8261 67.418 91.2552C67.418 91.6843 67.2746 92.1134 67.2746 92.5425C67.2746 93.4007 67.2746 94.2589 67.1312 95.1171C66.8443 95.9753 66.8443 96.8335 66.8443 97.6917C66.8443 98.1208 66.8443 98.5499 66.8443 98.979V99.2651V99.8372C66.8443 100.266 66.8443 100.695 66.8443 101.125V101.411V101.554V101.697H66.2705C65.8402 101.697 65.4098 101.697 64.9795 101.697C64.6926 101.697 64.4058 101.697 64.1189 101.697C63.832 101.697 63.6885 101.697 63.4017 101.697C62.541 101.697 61.5369 101.697 60.5328 101.697C58.668 101.697 56.6599 101.84 54.7951 101.697C52.7869 101.84 50.9221 101.983 48.7705 101.697C46.7623 101.84 44.7541 101.697 42.6025 101.697C42.0287 101.697 41.5984 101.697 41.0246 101.697C40.7377 101.697 40.4508 101.697 40.1639 101.697C39.7336 101.697 39.1599 101.697 38.7295 101.697H38.0123H37.8689V101.554V101.125C37.8689 100.695 37.8689 100.123 37.8689 99.6942C37.8689 99.4081 37.8689 98.979 37.8689 98.6929V97.9778C37.8689 97.4056 37.8689 96.9765 37.8689 96.4044C37.8689 96.1183 37.8689 95.8323 37.8689 95.6892V95.2601V94.831C37.8689 93.8298 37.7254 92.6855 37.4385 91.6843L37.2951 90.6831C37.2951 90.397 37.1517 90.1109 37.1517 89.9679C37.0082 89.3958 37.0082 88.9667 36.8648 88.3945C36.7213 87.8224 36.7213 87.3933 36.5779 86.8212C36.5779 86.5351 36.4344 86.2491 36.4344 86.106L36.1476 85.3909C35.7172 83.2454 35 81.2429 33.9959 79.2404C33.5656 77.0949 32.2746 75.2355 31.1271 73.3761C29.9795 71.5166 28.832 69.5142 27.6844 67.6547C26.5369 65.7953 25.3894 63.7928 24.5287 61.6473C24.2418 61.0752 24.0984 60.6461 23.9549 60.074C23.8115 59.7879 23.8115 59.5018 23.668 59.2158L23.5246 58.3576C23.2377 57.2133 23.0943 56.069 22.8074 55.0678C22.664 54.4957 22.664 53.9235 22.5205 53.3514C22.5205 52.7793 22.5205 52.2071 22.5205 51.635C22.5205 51.0629 22.664 50.4907 22.664 49.9186C22.664 49.6325 22.664 49.3465 22.664 49.0604C22.664 48.7743 22.664 48.4883 22.664 48.2022C22.8074 46.0567 23.0943 43.9112 23.9549 41.9087C24.0984 41.3366 24.3853 40.9075 24.5287 40.4784C24.6721 40.0493 24.959 39.4772 25.2459 39.0481C25.5328 38.619 25.6762 38.0468 25.9631 37.6177C26.25 37.1886 26.3935 36.6165 26.5369 36.1874C26.8238 35.7583 26.9672 35.1862 27.2541 34.7571C27.541 34.328 27.6844 33.8989 28.1148 33.4698C28.2582 33.1837 28.4017 33.0407 28.5451 32.8976C28.6885 32.7546 28.832 32.4685 29.1189 32.3255C29.4058 31.8964 29.8361 31.6103 30.2664 31.3243L30.5533 31.0382L30.8402 30.7521C30.9836 30.6091 31.1271 30.323 31.4139 30.18C31.8443 29.8939 32.1312 29.4648 32.5615 29.1788C32.9918 28.8927 33.4221 28.6066 33.709 28.3206C33.8525 28.1775 34.1394 28.0345 34.2828 27.8915L34.8566 27.4624C35.2869 27.3193 35.7172 27.0333 36.1476 26.7472C36.291 26.6042 36.5779 26.4611 36.7213 26.3181L37.2951 25.889L37.8689 25.4599C38.0123 25.3169 38.2992 25.1738 38.4426 25.1738C38.873 24.8878 39.3033 24.7447 39.7336 24.6017C41.4549 23.8865 43.3197 23.4574 45.041 22.8853C46.7623 22.3132 48.6271 22.3132 50.3484 22.1701C50.7787 22.0271 51.209 22.0271 51.6394 22.0271C52.0697 22.0271 52.5 22.0271 52.9303 22.1701C53.3607 22.1701 53.791 22.3132 54.2213 22.3132C54.6517 22.3132 55.082 22.3132 55.5123 22.3132C57.0902 22.4562 58.8115 22.7423 60.2459 23.1714C61.1066 23.1714 61.8238 23.3144 62.541 23.6005C62.8279 23.7435 63.2582 23.8865 63.5451 24.1726C63.6885 24.3156 63.832 24.3156 64.1189 24.4587C64.2623 24.6017 64.4058 24.6017 64.6926 24.7447C65.4098 25.0308 66.1271 25.3169 66.7008 25.6029C66.9877 25.746 67.418 25.889 67.7049 26.032C67.9918 26.1751 68.2787 26.4611 68.5656 26.7472C70 27.1763 70.8607 28.1775 71.8648 29.0357C72.1516 29.3218 72.2951 29.4648 72.582 29.7509C72.7254 29.8939 72.8689 29.8939 73.0123 30.037C73.1558 30.18 73.2992 30.18 73.2992 30.323C73.5861 30.4661 73.7295 30.7521 74.0164 30.8952C74.1598 31.1812 74.4467 31.3243 74.5902 31.6103C74.8771 31.7534 75.0205 32.0394 75.3074 32.1825C75.4508 32.4685 75.7377 32.6116 75.8812 32.8976C76.168 33.3267 76.4549 33.8989 76.8853 34.328C77.0287 34.614 77.1721 34.7571 77.3156 35.0431C77.459 35.3292 77.6025 35.4722 77.7459 35.7583C78.0328 36.1874 78.3197 36.6165 78.6066 37.0456C79.1803 37.9038 79.4672 38.762 79.7541 39.6202C79.8976 40.0493 80.041 40.4784 80.1844 40.7645C80.1844 40.9075 80.3279 41.1936 80.3279 41.3366C80.3279 41.4796 80.4713 41.7657 80.4713 41.9087C81.1885 44.0542 81.332 45.7706 81.4754 47.0579C81.332 47.6301 81.332 48.3452 81.332 48.3452Z" fill="#212529"/>
<path d="M39.1599 100.409C39.3033 100.409 39.4467 101.125 39.5902 102.412C39.5902 102.555 39.5902 102.841 39.5902 103.127C39.5902 103.27 39.5902 103.413 39.5902 103.556V103.699V103.842C39.4467 103.985 39.5902 103.985 39.5902 104.128C39.7336 104.128 39.7336 104.271 39.5902 104.414C39.5902 104.557 39.5902 104.557 39.5902 104.7C39.7336 104.7 39.8771 104.7 40.0205 104.557C40.164 104.557 40.164 104.557 40.3074 104.557H40.4508C40.4508 104.557 40.4508 104.557 40.5943 104.557H40.7377C41.0246 104.128 41.4549 104.986 41.8853 104.557C42.3156 104.414 42.6025 104.414 43.0328 104.557C43.4631 104.843 43.8935 104.557 44.3238 104.557C44.7541 104.843 45.1844 104.7 45.6148 104.557C46.0451 104.986 46.4754 104.986 47.0492 104.557C47.4795 104.557 48.0533 104.7 48.4836 104.557C48.914 104.557 49.4877 104.414 50.0615 104.557C50.6353 104.271 51.0656 104.271 51.6394 104.557C52.2131 104.271 52.7869 104.414 53.2172 104.557C53.791 104.7 54.3648 104.271 54.9385 104.557C55.5123 104.557 56.0861 104.414 56.6599 104.557C57.2336 104.7 57.8074 104.843 58.3812 104.557C58.9549 104.414 59.5287 104.414 60.2459 104.557C60.8197 104.128 61.5369 104.414 62.1107 104.557C62.6845 104.557 63.4017 104.7 63.9754 104.557C64.1189 104.557 64.2623 104.557 64.4058 104.557C64.4058 104.557 64.4058 104.557 64.5492 104.557C64.5492 104.557 64.6926 104.557 64.6926 104.414C64.6926 104.271 64.6926 104.128 64.5492 103.985C64.4058 103.699 64.4058 103.413 64.5492 102.984C64.5492 102.841 64.5492 102.698 64.5492 102.555C64.6926 102.412 64.6926 102.269 64.6926 102.269C64.5492 102.269 64.5492 102.412 64.4058 102.412C64.2623 102.412 64.1189 102.412 63.9754 102.412C63.6885 102.412 63.4017 102.412 63.1148 102.412C62.541 102.412 61.9672 102.555 61.3935 102.412C60.8197 102.984 60.2459 102.269 59.6722 102.412C59.0984 102.126 58.5246 102.412 57.9508 102.412C57.3771 102.555 56.8033 102.126 56.373 102.412C55.7992 102.412 55.3689 102.555 54.7951 102.412C54.2213 102.698 53.791 102.126 53.2172 102.412C52.7869 102.412 52.2131 102.412 51.7828 102.412C51.3525 101.983 50.7787 102.412 50.3484 102.412C49.9181 102.412 49.4877 102.698 49.0574 102.412C48.6271 102.412 48.1967 102.269 47.7664 102.412C47.3361 102.412 46.9058 101.84 46.6189 102.412C46.1885 102.555 45.9017 101.983 45.4713 102.412C45.041 102.698 44.7541 102.412 44.4672 102.412C44.1804 102.412 43.75 102.412 43.4631 102.412C40.7377 100.695 39.1599 100.552 39.1599 100.409C39.1599 100.123 41.1681 99.9803 44.4672 99.6943C44.7541 99.6943 45.1845 99.4082 45.4713 99.6943C45.7582 99.6943 46.1885 99.4082 46.6189 99.6943C47.0492 99.2652 47.3361 99.6943 47.7664 99.6943C48.1967 99.6943 48.6271 99.8373 49.0574 99.6943C49.4877 99.4082 49.9181 99.8373 50.3484 99.6943C50.7787 99.9803 51.209 99.8373 51.7828 99.6943C52.2131 99.9803 52.7869 99.6943 53.2172 99.6943C53.6476 99.9803 54.2213 99.8373 54.7951 99.6943C55.3689 99.5512 55.7992 99.6943 56.373 99.6943C56.9467 99.6943 57.5205 99.5512 57.9508 99.6943C58.5246 99.5512 59.0984 99.4082 59.6722 99.6943C60.2459 99.5512 60.8197 99.6943 61.3935 99.6943C61.9672 99.5512 62.541 99.6943 63.1148 99.6943C63.4017 99.6943 63.6885 99.6943 63.9754 99.8373C64.1189 99.8373 64.2623 99.8373 64.4058 99.8373H64.5492H64.6926C64.8361 99.8373 64.9795 99.8373 65.123 99.6943C65.6967 99.6943 66.2705 99.6943 66.8443 99.6943C66.8443 100.266 66.8443 100.839 66.8443 101.411C66.8443 101.84 66.8443 102.269 66.8443 102.698C66.8443 102.984 66.8443 103.27 66.8443 103.699C66.7008 103.842 66.7008 103.985 66.7008 104.128V104.271V104.414C66.7008 104.557 66.7008 104.7 66.7008 104.843C66.7008 105.416 66.8443 105.988 66.8443 106.703C66.2705 106.703 65.6967 106.703 64.9795 106.703H64.5492H64.2623H64.1189H63.6886C63.1148 106.703 62.3976 106.703 61.8238 106.703C61.25 106.846 60.5328 106.56 59.959 106.703C59.3853 106.846 58.8115 106.56 58.0943 106.703C57.5205 106.846 56.9467 106.846 56.373 106.703C55.7992 106.703 55.2254 106.417 54.6517 106.703C54.0779 106.846 53.5041 107.275 52.9304 106.703C52.3566 106.846 51.7828 106.417 51.3525 106.703C50.7787 106.274 50.3484 106.703 49.7746 106.703C49.2008 106.56 48.7705 106.56 48.1967 106.703C47.7664 106.846 47.1926 106.56 46.7623 106.703C46.332 106.989 45.7582 106.417 45.3279 106.703C44.8976 106.703 44.4672 106.703 44.0369 106.703C43.6066 107.275 43.1763 106.703 42.7459 106.703C42.3156 106.56 41.8853 106.989 41.5984 106.703C41.1681 107.132 40.8812 106.703 40.4508 106.703H40.3074H40.164C40.0205 106.703 39.8771 106.703 39.7336 106.703C39.4467 106.703 39.1599 106.703 39.0164 106.703C38.5861 106.846 38.4426 106.846 38.1558 106.703C38.1558 106.417 38.2992 106.131 38.2992 105.988C38.7295 104.843 38.7295 104.557 38.7295 104.414C38.7295 104.271 38.7295 103.985 38.7295 103.842C38.7295 103.699 38.7295 103.699 38.7295 103.556V103.413C38.7295 103.27 38.7295 103.127 38.873 102.984C38.873 102.698 38.873 102.555 38.873 102.269C38.873 101.125 39.0164 100.409 39.1599 100.409Z" fill="#212529"/>
<path d="M43.3197 105.13C43.4631 105.13 43.6066 105.702 43.75 106.56C43.75 106.703 43.75 106.846 43.75 107.132C43.75 107.275 43.8935 107.561 43.75 107.704C43.6066 107.847 44.0369 108.133 43.75 108.276V108.419C43.75 108.419 43.75 108.419 43.75 108.562C43.75 108.562 43.75 108.705 43.8935 108.705V108.848C43.8935 108.991 43.8935 108.991 43.8935 108.991C43.8935 108.991 43.8935 108.991 44.0369 108.991C44.1803 108.848 44.0369 108.991 44.1803 109.134C44.1803 109.277 44.3238 109.277 44.4672 108.991C44.6107 108.991 44.6107 108.991 44.6107 108.848C44.7541 108.848 44.7541 108.848 44.8975 108.848C45.1844 109.134 45.4713 108.848 45.9016 108.848C46.1885 109.134 46.6189 108.991 46.9057 108.848C47.1926 109.277 47.623 109.277 47.9098 108.848C48.1967 108.848 48.6271 108.991 49.0574 108.848C49.4877 108.848 49.7746 108.705 50.2049 108.848C50.6353 108.562 50.9221 108.562 51.3525 108.848C51.7828 108.562 52.2131 108.705 52.5 108.848C52.9303 108.991 53.3607 108.562 53.791 108.848C54.2213 108.848 54.6517 108.705 55.082 108.848C55.5123 108.991 55.9426 109.134 56.373 108.848C56.8033 108.705 57.2336 108.705 57.6639 108.848C58.0943 108.419 58.5246 108.705 59.0984 108.848C59.5287 108.848 59.959 108.991 60.5328 108.848C60.8197 108.848 60.5328 108.705 60.8197 108.848C60.9631 108.848 60.9631 108.705 60.8197 108.562C60.5328 108.133 60.9631 107.704 60.8197 107.132C60.9631 106.989 60.9631 106.846 60.9631 106.846V106.703C60.9631 106.703 60.8197 106.703 60.8197 106.56C60.8197 106.56 60.8197 106.56 60.8197 106.417C60.8197 106.417 60.8197 106.274 60.6762 106.417C60.6762 106.417 60.6762 106.417 60.5328 106.417C60.2459 106.417 60.1025 106.417 59.8156 106.274C59.3853 106.846 58.9549 106.131 58.5246 106.274C58.0943 105.988 57.6639 106.274 57.2336 106.274C56.8033 106.417 56.373 105.988 56.0861 106.274C55.6557 106.274 55.3689 106.417 54.9385 106.274C54.5082 106.56 54.2213 105.988 53.791 106.274C53.3607 106.274 53.0738 106.274 52.6435 106.274C52.3566 105.845 51.9262 106.274 51.6394 106.274C51.3525 106.274 50.9221 106.56 50.6353 106.274C50.3484 106.274 50.0615 106.131 49.6312 106.274C49.3443 106.274 49.0574 105.702 48.7705 106.274C48.4836 106.417 48.1967 105.845 47.9098 106.274C47.623 106.56 47.3361 106.274 47.1926 106.274C46.9058 106.274 46.7623 106.274 46.4754 106.274C44.4672 105.559 43.3197 105.416 43.3197 105.13C43.3197 104.843 44.7541 104.7 47.1926 104.414C47.4795 104.414 47.623 104.128 47.9098 104.414C48.1967 104.414 48.4836 104.128 48.7705 104.414C49.0574 103.985 49.3443 104.414 49.6312 104.414C49.918 104.414 50.2049 104.557 50.6353 104.414C50.9221 104.128 51.3525 104.557 51.6394 104.414C51.9262 104.7 52.3566 104.557 52.6435 104.414C52.9303 104.7 53.3607 104.414 53.791 104.414C54.2213 104.7 54.5082 104.557 54.9385 104.414C55.3689 104.271 55.6557 104.414 56.0861 104.414C56.5164 104.414 56.9467 104.271 57.2336 104.414C57.6639 104.271 58.0943 104.128 58.5246 104.414C58.9549 104.271 59.3853 104.414 59.8156 104.414C60.1025 104.414 60.2459 104.414 60.5328 104.414C60.5328 104.414 60.8197 104.414 61.1066 104.414C61.25 104.414 61.5369 104.414 61.6803 104.414C61.9672 104.414 62.1107 104.414 62.3976 104.414C62.6844 104.414 62.8279 104.557 63.1148 104.557C63.1148 104.843 63.1148 105.13 63.2582 105.416C63.2582 105.845 63.2582 106.274 63.2582 106.703V106.989V107.132C63.2582 107.275 63.2582 107.418 63.2582 107.418C63.2582 107.847 63.1148 108.276 63.2582 108.848V108.991V109.134C63.2582 109.277 63.2582 109.277 63.2582 109.421C63.2582 109.564 63.2582 109.85 63.2582 109.993C63.2582 110.422 63.4017 110.851 63.4017 111.423C62.9713 111.423 62.541 111.423 62.1107 111.423C61.8238 111.423 61.6803 111.423 61.3935 111.423H61.1066H60.9631C60.9631 111.423 60.9631 111.423 60.8197 111.423C60.3894 111.423 59.959 111.423 59.3853 111.423C58.9549 111.566 58.5246 111.28 57.9508 111.423C57.5205 111.566 57.0902 111.28 56.6598 111.423C56.2295 111.566 55.7992 111.566 55.3689 111.423C54.9385 111.423 54.5082 111.137 54.0779 111.423C53.6476 111.566 53.2172 111.995 52.7869 111.423C52.3566 111.566 51.9262 111.137 51.6394 111.423C51.209 110.994 50.9221 111.423 50.4918 111.423C50.0615 111.28 49.7746 111.28 49.3443 111.423C48.9139 111.566 48.6271 111.28 48.1967 111.423C47.9098 111.709 47.4795 111.137 47.1926 111.423C46.9058 111.423 46.4754 111.423 46.1885 111.423C45.9017 111.995 45.6148 111.423 45.1844 111.423C45.041 111.28 44.1803 111.709 43.8935 111.423C43.6066 111.566 43.3197 111.566 43.1762 111.566C43.0328 111.566 42.8894 111.423 42.7459 111.423V111.28C42.7459 110.994 42.7459 110.851 42.7459 110.708C42.7459 110.565 42.7459 110.279 42.7459 110.136C42.459 109.85 42.8894 109.277 42.7459 109.134C42.8894 108.848 42.7459 108.705 42.7459 108.562C42.7459 108.419 42.7459 108.133 42.7459 107.99C42.7459 107.847 42.7459 107.704 42.7459 107.418C43.0328 105.702 43.1762 105.13 43.3197 105.13Z" fill="#212529"/>
<path d="M46.6189 109.993C46.7623 109.993 46.9057 110.422 47.0492 110.994C47.0492 111.137 47.0492 111.28 47.0492 111.28C47.0492 111.423 47.1926 111.566 47.0492 111.709C46.9057 111.852 47.3361 111.995 47.0492 112.138C46.9057 112.281 47.0492 112.424 47.0492 112.567C47.0492 112.71 46.9057 112.853 47.0492 113.139H47.1926C47.1926 113.139 47.1926 113.139 47.0492 113.282C46.9057 113.282 46.9057 113.425 47.0492 113.425C47.1926 113.425 47.1926 113.568 47.0492 113.711C47.3361 113.854 47.3361 113.854 47.3361 113.997C47.4795 113.997 47.623 113.854 47.623 113.854C47.623 113.997 47.623 114.141 47.623 113.997C47.7664 113.997 47.7664 113.854 47.9098 113.711C47.9098 113.854 47.9098 113.854 47.9098 113.997C47.9098 113.997 47.9098 113.997 48.0533 113.997C48.1967 113.997 48.3402 113.854 48.4836 113.568C48.7705 113.568 49.0574 113.711 49.2008 113.568C49.4877 113.568 49.7746 113.425 50.0615 113.568C50.3484 113.282 50.6353 113.282 50.9221 113.568C51.209 113.282 51.4959 113.425 51.7828 113.568C52.0697 113.711 52.3566 113.282 52.6434 113.568C52.9303 113.568 53.2172 113.425 53.5041 113.568C53.791 113.711 54.0779 113.854 54.3648 113.568C54.6516 113.425 54.9385 113.425 55.3689 113.568C55.6557 113.139 55.9426 113.425 56.373 113.568C56.6598 113.568 57.2336 113.711 57.0902 113.568C57.0902 113.568 57.0902 113.568 57.2336 113.568H57.3771C57.3771 113.568 57.3771 113.425 57.2336 113.425H57.0902V113.282C57.0902 113.139 57.2336 112.996 57.0902 112.853C57.3771 112.567 56.9467 112.138 57.0902 111.852C57.0902 111.709 57.0902 111.709 57.0902 111.566V111.423V111.28C57.0902 111.28 56.9467 111.28 57.0902 111.137C56.8033 111.423 56.9467 111.423 56.9467 111.28C56.9467 111.137 56.9467 110.994 56.9467 111.137V110.994H56.8033C56.6598 110.994 56.5164 111.137 56.373 110.994C56.0861 111.137 55.7992 110.708 55.5123 110.994C55.2254 110.994 54.9385 111.137 54.6516 110.994C54.3648 111.28 54.0779 110.708 53.791 110.994C53.5041 110.994 53.2172 110.994 53.0738 110.994C52.7869 110.565 52.6434 110.994 52.3566 110.994C52.0697 110.994 51.9262 111.28 51.6393 110.994C51.3525 110.994 51.209 110.851 50.9221 110.994C50.7787 110.994 50.4918 110.422 50.3484 110.994C50.2049 111.137 49.918 110.565 49.7746 110.994C49.6312 111.28 49.3443 110.994 49.2008 110.994C49.0574 110.994 48.9139 110.994 48.7705 110.994C47.4795 110.279 46.7623 110.136 46.6189 109.993C46.6189 109.706 47.623 109.563 49.3443 109.277C49.4877 109.277 49.6312 108.991 49.918 109.277C50.0615 109.277 50.3484 108.991 50.4918 109.277C50.6353 108.848 50.9221 109.277 51.0656 109.277C51.209 109.277 51.4959 109.42 51.7828 109.277C52.0697 108.991 52.2131 109.42 52.5 109.277C52.7869 109.563 52.9303 109.42 53.2172 109.277C53.5041 109.563 53.791 109.277 53.9344 109.277C54.2213 109.563 54.5082 109.42 54.7951 109.277C55.082 109.134 55.3689 109.277 55.6557 109.277C55.9426 109.277 56.2295 109.134 56.5164 109.277C56.6598 109.134 56.8033 109.134 56.9467 109.134H57.0902H57.2336H57.3771C57.5205 109.134 57.6639 109.134 57.8074 109.277C58.0943 109.277 58.3812 109.277 58.668 109.277C58.9549 109.277 59.2418 109.277 59.5287 109.277C59.6721 109.277 59.6721 109.277 59.8156 109.277C59.8156 109.563 59.8156 109.706 59.8156 109.993C59.8156 110.279 59.8156 110.565 59.8156 110.708C59.8156 110.994 59.8156 111.28 59.6721 111.566V111.709V111.852V111.995C59.6721 112.138 59.6721 112.138 59.8156 112.281C59.8156 112.567 59.8156 112.853 59.8156 113.282C59.8156 113.425 59.8156 113.568 59.8156 113.711V113.854C59.8156 113.997 59.8156 113.997 59.8156 114.141C59.8156 114.284 59.8156 114.427 59.8156 114.57C59.6721 114.856 59.5287 114.999 59.6721 115.428C59.6721 115.714 59.8156 116.143 59.8156 116.429C59.2418 116.572 58.5246 116.429 57.9508 116.429C57.2336 116.429 57.0902 116.429 56.6598 116.429C56.373 116.572 55.9426 116.286 55.6557 116.429C55.3689 116.572 55.082 116.286 54.6516 116.429C54.3648 116.572 54.0779 116.572 53.791 116.429C53.5041 116.429 53.2172 116.143 52.9303 116.429C52.6435 116.572 52.3566 117.001 52.0697 116.429C51.7828 116.572 51.4959 116.143 51.209 116.429C50.9221 116 50.6352 116.429 50.3484 116.429C50.0615 116.286 49.7746 116.286 49.4877 116.429C49.2008 116.572 48.9139 116.286 48.7705 116.429C48.6271 116.572 48.4836 116.429 48.3402 116.429C48.3402 116.429 48.3402 116.429 48.1967 116.429C48.1967 116.429 48.1967 116.429 48.0533 116.429C47.9098 116.429 47.9098 116.429 47.7664 116.429C47.3361 116.429 46.9057 116.429 46.6189 116.429C46.1885 116.715 45.9016 116.715 45.7582 116.572C45.7582 116.429 45.9016 116.143 45.9016 116C45.9016 115.857 45.9016 115.714 45.7582 115.571C45.7582 115.428 45.7582 115.285 45.9016 114.999C45.4713 114.856 45.9016 114.284 45.9016 114.141C46.0451 113.997 45.7582 113.711 45.9016 113.568C45.6148 113.425 46.0451 113.282 45.9016 113.139C46.0451 112.996 45.9016 112.853 45.9016 112.71C45.9016 112.567 45.9016 112.424 45.9016 112.281C45.9016 112.138 45.9016 111.995 45.9016 111.995C46.332 110.279 46.4754 109.993 46.6189 109.993Z" fill="#212529"/>
<path d="M52.5 17.164C52.3566 17.164 52.2131 17.021 52.0697 16.5919V16.4488C52.0697 16.4488 51.9262 16.3058 52.0697 16.3058C52.2131 16.1628 51.7828 16.1628 52.0697 16.0197C52.2131 15.8767 52.0697 15.8767 52.0697 15.7337C52.0697 15.5906 52.2131 15.5906 52.0697 15.4476C51.6393 15.3046 52.5 15.3046 52.0697 15.1615C51.9262 15.0185 51.9262 15.0185 52.0697 14.8755C52.3566 14.7324 52.0697 14.5894 52.0697 14.5894C52.3566 14.4464 52.2131 14.3033 52.0697 14.1603C52.5 14.0173 52.5 13.8742 52.0697 13.7312C52.0697 13.5882 52.2131 13.4451 52.0697 13.3021C52.0697 13.1591 51.9262 13.016 52.0697 12.873C51.7828 12.73 51.7828 12.5869 52.0697 12.4439C51.7828 12.3009 51.9262 12.1578 52.0697 12.0148C52.2131 11.8718 51.7828 11.7287 52.0697 11.5857C52.0697 11.4427 51.9262 11.2996 52.0697 11.1566C52.2131 11.0136 52.3566 10.8705 52.0697 10.7275C51.9262 10.5845 51.9262 10.4414 52.0697 10.2984C51.6393 10.1554 51.9262 10.0123 52.0697 9.72626C52.0697 9.58323 52.2131 9.4402 52.0697 9.15413C52.0697 9.0111 51.9262 8.86806 52.0697 8.582C52.2131 8.43896 52.2131 8.29593 52.0697 8.00986C51.7828 7.86683 52.2131 7.7238 52.0697 7.43773C52.3566 7.2947 51.9262 7.15167 52.0697 6.8656C52.0697 6.72257 52.2131 6.57953 52.0697 6.4365C52.0697 6.29347 51.9262 6.15043 52.0697 6.0074C51.4959 5.86437 52.2131 5.72133 52.0697 5.5783C52.3566 5.43527 52.0697 5.29223 52.0697 5.1492C51.9262 5.00617 52.3566 4.86313 52.0697 4.7201C52.0697 4.57707 51.9262 4.43403 52.0697 4.291C51.7828 4.14797 52.3566 4.00493 52.0697 3.8619C52.0697 3.71887 52.0697 3.57583 52.0697 3.4328C52.5 3.28977 52.0697 3.14673 52.0697 3.0037C51.6393 2.86067 51.3525 2.86067 51.6393 2.71763C51.6393 2.5746 51.7828 2.43157 51.6393 2.43157C51.6393 2.28853 52.2131 2.1455 51.6393 2.1455C51.4959 2.00247 52.0697 2.00247 51.6393 1.85943C51.3525 1.7164 51.6393 1.7164 51.6393 1.57337C51.6393 1.43033 51.6393 1.43033 51.6393 1.2873C52.0697 0.4291 52.3566 0 52.5 0C52.7869 0 52.9303 0.572133 53.2172 1.43033C53.2172 1.57337 53.5041 1.57337 53.2172 1.7164C53.2172 1.85943 53.5041 1.85943 53.2172 2.00247C53.6475 2.1455 53.2172 2.1455 53.2172 2.28853C53.2172 2.43157 53.0738 2.5746 53.2172 2.5746C53.5041 2.71763 53.0738 2.86067 53.2172 3.0037C52.9303 3.14673 53.0738 3.28977 53.2172 3.4328C52.9303 3.57583 53.2172 3.71887 53.2172 3.8619C52.9303 4.00493 53.0738 4.14797 53.2172 4.291C53.3607 4.43403 53.2172 4.57707 53.2172 4.7201C53.2172 4.86313 53.3607 5.00617 53.2172 5.1492C53.3607 5.29223 53.5041 5.43527 53.2172 5.5783C53.3607 5.72133 53.2172 5.86437 53.2172 6.0074C53.3607 6.15043 53.2172 6.29347 53.2172 6.4365C53.3607 6.57953 52.7869 6.72257 53.2172 6.8656C53.2172 7.00863 53.2172 7.15166 53.2172 7.43773C53.2172 7.58076 53.0738 7.7238 53.2172 8.00986C52.7869 8.1529 53.0738 8.29593 53.2172 8.582C53.3607 8.72503 53.2172 8.86806 53.2172 9.15413C53.2172 9.29716 53.2172 9.4402 53.2172 9.72626C53.3607 9.8693 53.0738 10.0123 53.2172 10.2984C53.3607 10.4414 53.0738 10.5845 53.2172 10.7275C53.3607 10.8705 53.3607 11.0136 53.2172 11.1566C53.2172 11.2996 52.9303 11.4427 53.2172 11.5857C53.3607 11.7287 53.791 11.8718 53.2172 12.0148C53.3607 12.1578 52.9303 12.3009 53.2172 12.4439C52.7869 12.5869 53.2172 12.73 53.2172 12.873C53.0738 13.016 53.0738 13.1591 53.2172 13.3021C53.3607 13.4451 53.0738 13.5882 53.2172 13.7312C53.5041 13.8742 52.9303 14.0173 53.2172 14.1603C53.2172 14.3033 53.2172 14.4464 53.2172 14.5894C53.791 14.7324 53.2172 14.8755 53.2172 14.8755C53.0738 15.0185 53.5041 15.1615 53.2172 15.1615C53.6475 15.3046 53.2172 15.3046 53.2172 15.4476C53.0738 15.5906 53.3607 15.5906 53.2172 15.7337C53.5041 15.8767 53.0738 15.8767 53.2172 16.0197C53.0738 16.1628 53.2172 16.1628 53.2172 16.3058C53.2172 16.4488 53.2172 16.4488 53.2172 16.4488V16.5919C52.7869 17.021 52.6434 17.164 52.5 17.164Z" fill="#212529"/>
<path d="M70.1434 21.8841C70 21.741 70 21.598 70 21.1689V21.0259C70 20.8828 70 20.8828 70 20.8828C70.1434 20.8828 69.7131 20.5968 70 20.5968C70.1434 20.5968 70.1434 20.4537 70.1434 20.3107C70.1434 20.1677 70.2869 20.1677 70.2869 20.0246C70 19.7386 70.7172 20.0246 70.4303 19.7386C70.4303 19.5955 70.4303 19.4525 70.5738 19.4525C70.8607 19.4525 70.7172 19.3095 70.7172 19.1664C71.0041 19.1664 71.0041 19.0234 70.8607 18.8804C71.291 19.0234 71.291 18.8804 71.0041 18.5943C71.0041 18.4513 71.291 18.4513 71.1475 18.1652C71.1475 18.0222 71.1475 17.8791 71.291 17.7361C71.1475 17.45 71.1475 17.307 71.4344 17.307C71.1475 17.0209 71.4344 17.0209 71.5779 16.8779C71.8648 16.8779 71.4344 16.4488 71.7213 16.4488C71.8648 16.3058 71.8648 16.1627 72.0082 16.0197C72.1516 16.0197 72.4385 15.8767 72.2951 15.5906C72.2951 15.4476 72.2951 15.1615 72.582 15.1615C72.2951 14.8754 72.582 14.7324 72.8689 14.7324C72.8689 14.5894 73.1557 14.5894 73.1557 14.3033C73.2992 14.1603 73.1557 13.8742 73.4426 13.8742C73.5861 13.7312 73.873 13.7312 73.7295 13.4451C73.5861 13.159 74.0164 13.159 74.0164 13.016C74.4467 13.016 74.1598 12.7299 74.3033 12.5869C74.3033 12.4439 74.5902 12.4439 74.5902 12.1578C74.5902 12.0148 74.5902 11.8717 74.8771 11.7287C74.4467 11.2996 75.1639 11.5857 75.1639 11.2996C75.4508 11.2996 75.3074 11.0135 75.4508 10.8705C75.4508 10.7275 75.7377 10.7275 75.7377 10.4414C75.8811 10.2984 75.7377 10.1553 76.0246 10.1553C75.5943 9.86928 76.0246 10.0123 76.0246 9.86928C76.0246 9.72625 76.168 9.58322 76.3115 9.58322C76.7418 9.72625 76.4549 9.44018 76.5984 9.29715C76.7418 9.15412 76.4549 9.01108 76.8852 9.01108C77.0287 8.86805 77.1721 8.86805 77.0287 8.72502C77.0287 8.58198 77.6025 8.86805 77.1721 8.43895C77.1721 8.29592 77.6025 8.43895 77.3156 8.15288C77.0287 7.86682 77.459 8.00985 77.459 7.86682L77.6025 7.72378C78.1762 7.15165 78.4631 6.86558 78.75 7.00862C79.0369 7.15165 78.8934 7.72378 78.6066 8.58198C78.6066 8.72502 78.75 8.86805 78.4631 8.86805C78.4631 9.01108 78.6066 9.15412 78.3197 9.15412C78.6066 9.44018 78.3197 9.44018 78.1762 9.44018C78.1762 9.58322 78.0328 9.58322 78.0328 9.72625C78.1762 9.86928 77.8893 9.86928 77.8893 10.0123C77.6025 10.0123 77.6025 10.1553 77.7459 10.2984C77.459 10.2984 77.6025 10.5844 77.6025 10.7275C77.1721 10.7275 77.3156 10.8705 77.459 11.1566C77.459 11.2996 77.3156 11.4426 77.3156 11.5857C77.1721 11.7287 77.3156 11.8717 77.1721 12.0148C77.1721 12.1578 77.1721 12.4439 77.0287 12.4439C77.0287 12.5869 76.8852 12.7299 76.7418 12.873C76.7418 13.016 76.5984 13.159 76.4549 13.3021C76.4549 13.4451 76.0246 13.4451 76.168 13.7312C76.168 13.8742 75.8812 14.0172 75.8812 14.1603C75.7377 14.3033 75.5943 14.4463 75.5943 14.5894C75.1639 14.5894 75.3074 14.8754 75.3074 15.0185C75.3074 15.1615 75.1639 15.3045 75.0205 15.4476C75.0205 15.5906 74.877 15.7336 74.7336 15.8767C74.7336 16.0197 74.4467 16.0197 74.4467 16.3058C74.4467 16.5918 74.1598 16.4488 74.1598 16.7349C74.1598 16.8779 74.1598 17.164 73.873 17.164C73.7295 17.307 73.4426 17.307 73.5861 17.5931C73.5861 17.7361 73.8729 18.1652 73.2992 18.0222C73.2992 18.1652 72.8689 18.1652 73.0123 18.4513C72.582 18.4513 72.8689 18.7373 72.7254 18.7373C72.582 18.8804 72.4385 18.8804 72.4385 19.0234C72.582 19.1664 72.1516 19.1664 72.1516 19.3095C72.2951 19.5955 71.7213 19.4525 71.8648 19.5955C71.7213 19.7386 71.7213 19.8816 71.5779 19.8816C72.0082 20.3107 71.4344 20.0246 71.4344 20.1677C71.291 20.1677 71.5779 20.5968 71.291 20.4537C71.5779 20.7398 71.291 20.5968 71.1475 20.7398C71.0041 20.7398 71.1475 21.0259 71.0041 21.0259C71.1475 21.3119 70.7172 21.1689 70.8607 21.1689C70.7172 21.1689 70.7172 21.3119 70.7172 21.3119C70.7172 21.455 70.7172 21.455 70.5738 21.455L70.4303 21.598C70.5738 21.8841 70.2869 21.8841 70.1434 21.8841Z" fill="#212529"/>
<path d="M83.0533 34.7571C82.9098 34.614 83.0533 34.471 83.3402 34.1849L83.4836 34.0419L83.6271 33.8989C83.7705 34.0419 83.6271 33.4698 83.7705 33.7558C83.9139 33.7558 83.9139 33.6128 83.9139 33.6128C83.9139 33.4698 84.2008 33.6128 84.2008 33.4698C84.0574 33.0407 84.6312 33.7558 84.4877 33.3267C84.4877 33.1837 84.6311 33.1837 84.7746 33.1837C85.0615 33.3267 84.918 33.0407 85.0615 33.0407C85.3484 33.3267 85.3484 33.0407 85.3484 32.7546C85.6352 33.0407 85.7787 33.0407 85.6352 32.4685C85.7787 32.3255 85.9221 32.4685 85.9221 32.1825C86.0656 32.0394 86.0656 31.8964 86.209 31.8964C86.209 31.6103 86.3525 31.4673 86.4959 31.6103C86.4959 31.1812 86.6393 31.3243 86.9262 31.3243C87.2131 31.4673 87.0697 30.8952 87.3566 31.0382C87.5 31.0382 87.6434 30.7521 87.7869 30.7521C87.9303 30.7521 88.2172 30.8952 88.2172 30.4661C88.3607 30.323 88.3607 30.18 88.6475 30.18C88.6475 29.7509 88.791 29.8939 89.0779 29.8939C89.2213 29.7509 89.5082 29.8939 89.5082 29.6079C89.6516 29.6079 89.7951 29.3218 89.9385 29.3218C90.082 29.3218 90.3689 29.3218 90.3689 29.0357C90.3689 28.7497 90.6557 28.8927 90.7992 28.7497C91.0861 28.8927 91.0861 28.4636 91.2295 28.4636C91.373 28.3206 91.6598 28.4636 91.6598 28.1775C91.8033 28.0345 91.9467 27.8915 92.0902 27.8915C91.9467 27.3193 92.3771 27.8915 92.5205 27.6054C92.8074 27.7484 92.8074 27.4624 92.9508 27.4624C93.0943 27.3193 93.3811 27.4624 93.3811 27.3193C93.5246 27.3193 93.5246 27.0333 93.8115 27.1763C93.8115 26.8902 94.0984 27.1763 94.2418 27.0333C94.3852 27.0333 94.5287 26.8902 94.6721 26.8902C94.959 27.1763 94.959 26.8902 94.959 26.7472C95.1025 26.7472 95.1025 26.4611 95.2459 26.6042C95.3893 26.6042 95.5328 26.6042 95.5328 26.4611C95.5328 26.3181 95.9631 26.8902 95.8197 26.3181C95.8197 26.1751 96.25 26.6042 96.1066 26.1751C95.9631 25.889 96.25 26.1751 96.3934 26.032C96.5369 26.032 96.5369 26.032 96.6803 25.889C97.3975 25.6029 97.8279 25.6029 97.9713 25.889C98.1148 26.032 97.6844 26.6042 97.1107 27.1763C97.1107 27.1763 97.1107 27.4624 96.8238 27.3193C96.6803 27.3193 96.8238 27.6054 96.5369 27.4624C96.6803 27.8915 96.3934 27.6054 96.25 27.6054C96.1066 27.6054 95.9631 27.6054 95.9631 27.7484C95.9631 28.0345 95.6762 27.7484 95.6762 28.0345C95.3893 27.8915 95.3893 28.0345 95.3893 28.3206C95.1025 28.1775 95.2459 28.4636 95.1025 28.6066C94.8156 28.3206 94.8156 28.6066 94.8156 28.8927C94.8156 29.0357 94.5287 29.0357 94.3853 29.1788C94.2418 29.1788 94.2418 29.4648 93.9549 29.4648C93.9549 29.7509 93.8115 29.7509 93.5246 29.7509C93.3811 29.8939 93.2377 29.8939 93.0943 30.037C93.0943 30.18 92.8074 30.18 92.6639 30.323C92.5205 30.4661 92.2336 30.18 92.2336 30.6091C92.0902 30.7521 91.9467 30.7521 91.8033 30.8952C91.6598 30.8952 91.5164 31.0382 91.373 31.1812C91.0861 30.8952 90.9426 31.1812 90.9426 31.4673C90.7992 31.6103 90.6557 31.7534 90.5123 31.7534C90.3689 31.8964 90.2254 31.8964 90.082 32.0394C89.9385 32.1825 89.6516 32.0394 89.6516 32.3255C89.6516 32.6116 89.2213 32.3255 89.2213 32.6116C89.0779 32.7546 89.0779 32.8976 88.791 32.8976C88.6475 33.0407 88.3607 32.7546 88.3607 33.1837C88.2172 33.3267 88.3607 33.7558 87.9303 33.3267C87.9303 33.4698 87.5 33.3267 87.5 33.4698C87.2131 33.1837 87.2131 33.6128 87.0697 33.6128C86.9262 33.6128 86.7828 33.6128 86.6393 33.7558C86.6393 34.0419 86.3525 33.7558 86.209 33.8989C86.209 34.1849 85.7787 33.7558 85.9221 34.0419C85.7787 34.0419 85.7787 34.1849 85.6352 34.1849C85.7787 34.7571 85.4918 34.328 85.3484 34.328C85.2049 34.328 85.3484 34.7571 85.0615 34.471C85.2049 34.9001 84.918 34.614 84.7746 34.614C84.6311 34.614 84.6312 34.9001 84.4877 34.7571C84.4877 35.0431 84.2008 34.7571 84.2008 34.9001C84.0574 34.7571 84.0574 34.9001 83.9139 34.9001C83.9139 35.0431 83.7705 35.0431 83.6271 34.9001H83.4836C83.3402 34.9001 83.1967 34.9001 83.0533 34.7571Z" fill="#212529"/>
<path d="M87.7869 52.3502C87.7869 52.2072 87.9303 52.0641 88.3606 51.9211H88.5041C88.5041 51.9211 88.6475 51.7781 88.6475 51.9211C88.791 52.0641 88.791 51.635 88.9344 51.9211C89.0778 52.0641 89.0778 51.9211 89.2213 51.9211C89.3647 51.9211 89.3647 52.0641 89.5082 51.9211C89.6516 51.492 89.6516 52.3502 89.7951 51.9211C89.9385 51.7781 89.9385 51.7781 90.0819 51.9211C90.2254 52.2072 90.3688 51.9211 90.3688 51.9211C90.5123 52.2072 90.6557 52.0641 90.7992 51.9211C90.9426 52.3502 91.086 52.3502 91.2295 51.9211C91.3729 51.9211 91.5164 52.0641 91.6598 51.9211C91.8033 51.9211 91.9467 51.7781 92.0901 51.9211C92.2336 51.635 92.377 51.635 92.5205 51.9211C92.6639 51.635 92.8074 51.7781 92.9508 51.9211C93.0942 52.0641 93.2377 51.635 93.3811 51.9211C93.5246 51.9211 93.668 51.7781 93.8115 51.9211C93.9549 52.0641 94.0983 52.2072 94.2418 51.9211C94.3852 51.7781 94.5287 51.7781 94.6721 51.9211C94.8156 51.492 94.959 51.7781 95.2459 51.9211C95.3893 51.9211 95.5328 52.0641 95.8197 51.9211C95.9631 51.9211 96.1065 51.7781 96.3934 51.9211C96.5369 52.0641 96.6803 52.0641 96.9672 51.9211C97.1106 51.635 97.2541 52.0641 97.541 51.9211C97.6844 52.2072 97.8279 51.7781 98.1147 51.9211C98.2582 51.9211 98.4016 52.0641 98.5451 51.9211C98.6885 51.9211 98.8319 51.7781 98.9754 51.9211C99.1188 51.349 99.2623 52.0641 99.4057 51.9211C99.5492 52.2072 99.6926 51.9211 99.836 51.9211C99.9795 51.7781 100.123 52.2072 100.266 51.9211C100.41 51.9211 100.553 51.7781 100.697 51.9211C100.84 51.635 100.984 52.2072 101.127 51.9211C101.27 51.9211 101.414 51.9211 101.557 51.9211C101.701 52.3502 101.844 51.9211 101.988 51.9211C102.131 51.9211 102.275 51.635 102.418 51.9211C102.561 51.9211 102.705 52.0641 102.705 51.9211C102.848 51.9211 102.992 52.4932 102.992 51.9211C103.135 51.7781 103.135 52.3502 103.279 51.9211C103.422 51.635 103.422 51.9211 103.566 51.9211C103.709 51.9211 103.709 51.9211 103.852 51.9211C104.57 52.0641 105 52.3502 105 52.4932C105 52.7793 104.426 52.9223 103.566 53.2084C103.422 53.2084 103.422 53.4945 103.279 53.2084C103.135 53.2084 103.135 53.4945 102.992 53.2084C102.848 53.6375 102.848 53.2084 102.705 53.2084C102.561 53.2084 102.418 53.0654 102.418 53.2084C102.275 53.4945 102.131 53.0654 101.988 53.2084C101.844 52.9223 101.701 53.0654 101.557 53.2084C101.414 52.9223 101.27 53.2084 101.127 53.2084C100.984 52.9223 100.84 53.0654 100.697 53.2084C100.553 53.3514 100.41 53.2084 100.266 53.2084C100.123 53.2084 99.9795 53.3514 99.836 53.2084C99.6926 53.3514 99.5492 53.4945 99.4057 53.2084C99.2623 53.3514 99.1188 53.2084 98.9754 53.2084C98.8319 53.3514 98.6885 53.2084 98.5451 53.2084C98.4016 53.2084 98.2582 52.7793 98.1147 53.2084C97.9713 53.2084 97.8278 53.2084 97.541 53.2084C97.3975 53.2084 97.2541 53.0654 96.9672 53.2084C96.8237 52.7793 96.6803 53.0654 96.3934 53.2084C96.25 53.3514 96.1065 53.2084 95.8197 53.2084C95.6762 53.2084 95.5328 53.2084 95.2459 53.2084C95.1024 53.3514 94.959 53.0654 94.6721 53.2084C94.5287 53.3514 94.3852 53.0654 94.2418 53.2084C94.0983 53.3514 93.9549 53.3514 93.8115 53.2084C93.668 53.2084 93.5246 52.9223 93.3811 53.2084C93.2377 53.3514 93.0942 53.7805 92.9508 53.2084C92.8074 53.3514 92.6639 52.9223 92.5205 53.2084C92.377 52.7793 92.2336 53.2084 92.0901 53.2084C91.9467 53.0654 91.8033 53.0654 91.6598 53.2084C91.5164 53.3514 91.3729 53.0654 91.2295 53.2084C91.086 53.4945 90.9426 52.9223 90.7992 53.2084C90.6557 53.2084 90.5123 53.2084 90.3688 53.2084C90.2254 53.7805 90.0819 53.2084 90.0819 53.2084C89.9385 53.0654 89.7951 53.4945 89.7951 53.2084C89.6516 53.6375 89.6516 53.2084 89.5082 53.2084C89.3647 53.0654 89.3647 53.3514 89.2213 53.2084C89.0778 53.4945 89.0778 53.0654 88.9344 53.2084C88.791 53.0654 88.791 53.2084 88.6475 53.2084C88.5041 53.2084 88.5041 53.2084 88.5041 53.2084H88.3606C87.9303 52.6363 87.7869 52.4932 87.7869 52.3502Z" fill="#212529"/>
<path d="M17.2131 52.3502C17.2131 52.4932 17.0697 52.6363 16.6393 52.7793H16.4959C16.4959 52.7793 16.3525 52.9223 16.3525 52.7793C16.209 52.6363 16.209 53.0654 16.0656 52.7793C15.9221 52.6363 15.9221 52.7793 15.7787 52.7793C15.6352 52.7793 15.6352 52.6363 15.4918 52.7793C15.3484 53.2084 15.3484 52.3502 15.2049 52.7793C15.0615 52.9223 15.0615 52.9223 14.918 52.7793C14.7746 52.4932 14.6311 52.7793 14.6311 52.7793C14.4877 52.4932 14.3443 52.6363 14.2008 52.7793C14.0574 52.3502 13.9139 52.3502 13.7705 52.7793C13.6271 52.7793 13.4836 52.6363 13.3402 52.7793C13.1967 52.7793 13.0533 52.9223 12.9098 52.7793C12.7664 53.0654 12.623 53.0654 12.4795 52.7793C12.3361 53.0654 12.1926 52.9223 12.0492 52.7793C11.9057 52.6363 11.7623 53.0654 11.6189 52.7793C11.4754 52.7793 11.332 52.9223 11.1885 52.7793C11.0451 52.6363 10.9016 52.4932 10.7582 52.7793C10.6148 52.9223 10.4713 52.9223 10.3279 52.7793C10.1844 53.2084 10.041 52.9223 9.7541 52.7793C9.61066 52.7793 9.46721 52.6363 9.18033 52.7793C9.03689 52.7793 8.89344 52.9223 8.60656 52.7793C8.46311 52.6363 8.31967 52.6363 8.03279 52.7793C7.88934 53.0654 7.7459 52.6363 7.45902 52.7793C7.31557 52.4932 7.17213 52.9223 6.88525 52.7793C6.7418 52.7793 6.59836 52.6363 6.45492 52.7793C6.31148 52.7793 6.16803 52.9223 6.02459 52.7793C5.88115 53.3514 5.73771 52.6363 5.59426 52.7793C5.45082 52.4932 5.30738 52.7793 5.16393 52.7793C5.02049 52.9223 4.87705 52.4932 4.73361 52.7793C4.59016 52.7793 4.44672 52.9223 4.30328 52.7793C4.15984 53.0654 4.01639 52.4932 3.87295 52.7793C3.72951 52.7793 3.58607 52.7793 3.44262 52.7793C3.29918 52.3502 3.15574 52.7793 3.0123 52.7793C2.86885 52.7793 2.72541 53.0654 2.58197 52.7793C2.43852 52.7793 2.29508 52.6363 2.29508 52.7793C2.15164 52.7793 2.0082 52.2072 2.0082 52.7793C1.86475 52.9223 1.86475 52.3502 1.72131 52.7793C1.57787 53.0654 1.57787 52.7793 1.43443 52.7793C1.29098 52.7793 1.29098 52.7793 1.14754 52.7793C0.430328 52.7793 0 52.4932 0 52.3502C0 52.0641 0.57377 51.9211 1.43443 51.635C1.57787 51.635 1.57787 51.349 1.72131 51.635C1.86475 51.635 1.86475 51.349 2.0082 51.635C2.15164 51.2059 2.15164 51.635 2.29508 51.635C2.43852 51.635 2.58197 51.7781 2.58197 51.635C2.72541 51.349 2.86885 51.7781 3.0123 51.635C3.15574 51.9211 3.29918 51.7781 3.44262 51.635C3.58607 51.9211 3.72951 51.635 3.87295 51.635C4.01639 51.9211 4.15984 51.7781 4.30328 51.635C4.44672 51.492 4.59016 51.635 4.73361 51.635C4.87705 51.635 5.02049 51.492 5.16393 51.635C5.30738 51.492 5.45082 51.349 5.59426 51.635C5.73771 51.492 5.88115 51.635 6.02459 51.635C6.16803 51.492 6.31148 51.635 6.45492 51.635C6.59836 51.492 6.7418 52.0641 6.88525 51.635C7.02869 51.635 7.17213 51.635 7.45902 51.635C7.60246 51.635 7.7459 51.7781 8.03279 51.635C8.17623 52.0641 8.31967 51.7781 8.60656 51.635C8.75 51.492 8.89344 51.635 9.18033 51.635C9.32377 51.635 9.46721 51.635 9.7541 51.635C9.89754 51.492 10.041 51.7781 10.3279 51.635C10.4713 51.492 10.6148 51.7781 10.7582 51.635C10.9016 51.492 11.0451 51.492 11.1885 51.635C11.332 51.635 11.4754 51.9211 11.6189 51.635C11.7623 51.492 11.9057 51.2059 12.0492 51.635C12.1926 51.492 12.3361 51.9211 12.4795 51.635C12.623 52.0641 12.7664 51.635 12.9098 51.635C13.0533 51.7781 13.1967 51.7781 13.3402 51.635C13.4836 51.492 13.6271 51.7781 13.7705 51.635C13.9139 51.349 14.0574 51.9211 14.2008 51.635C14.3443 51.635 14.4877 51.635 14.6311 51.635C14.7746 51.0629 14.918 51.635 14.918 51.635C15.0615 51.7781 15.2049 51.349 15.2049 51.635C15.3484 51.2059 15.3484 51.635 15.4918 51.635C15.6352 51.7781 15.6352 51.492 15.7787 51.635C15.9221 51.349 15.9221 51.7781 16.0656 51.635C16.209 51.7781 16.209 51.635 16.3525 51.635C16.4959 51.635 16.4959 51.635 16.4959 51.635H16.6393C17.0697 52.0641 17.2131 52.2072 17.2131 52.3502Z" fill="#212529"/>
<path d="M21.9467 34.7571C21.8033 34.9001 21.6598 34.9001 21.2295 34.9001H21.0861C20.9426 34.9001 20.9426 34.9001 20.7992 34.9001C20.7992 34.7571 20.5123 35.1862 20.5123 34.9001C20.5123 34.7571 20.3689 34.7571 20.2254 34.7571C20.082 34.7571 20.082 34.6141 19.9385 34.6141C19.6516 34.9001 19.9385 34.185 19.6516 34.471C19.5082 34.471 19.3648 34.471 19.3648 34.328C19.3648 34.0419 19.2213 34.185 19.0779 34.185C19.0779 33.8989 18.9344 33.8989 18.791 34.0419C18.9344 33.6128 18.791 33.6128 18.5041 33.8989C18.3607 33.8989 18.3607 33.6128 18.0738 33.7559C17.9303 33.7559 17.7869 33.7559 17.6434 33.6128C17.3566 33.7559 17.2131 33.7559 17.2131 33.4698C16.9262 33.7559 16.7828 33.4698 16.7828 33.3268C16.7828 33.0407 16.3525 33.4698 16.3525 33.1837C16.209 33.0407 16.0656 33.0407 15.9221 32.8977C15.9221 32.7546 15.7787 32.4686 15.4918 32.6116C15.3484 32.6116 15.0615 32.6116 15.0615 32.3255C14.7746 32.6116 14.6311 32.3255 14.6311 32.0395C14.4877 32.0395 14.4877 31.7534 14.2008 31.7534C14.0574 31.6104 13.7705 31.7534 13.7705 31.4673C13.6271 31.3243 13.6271 31.0382 13.3402 31.1813C13.0533 31.3243 13.0533 30.8952 12.9098 30.8952C12.9098 30.4661 12.623 30.7522 12.4795 30.6091C12.3361 30.6091 12.3361 30.3231 12.0492 30.3231C11.9057 30.3231 11.7623 30.3231 11.6189 30.037C11.1885 30.4661 11.4754 29.7509 11.1885 29.7509C11.1885 29.4649 10.9016 29.6079 10.7582 29.4649C10.6148 29.4649 10.6148 29.0358 10.3279 29.1788C10.1844 29.0358 10.041 29.1788 10.041 28.8927C9.7541 29.0358 9.89754 28.6067 9.7541 28.6067C9.61066 28.6067 9.46721 28.4636 9.46721 28.3206C9.61066 27.8915 9.32377 28.1776 9.18033 28.0345C9.03689 27.8915 8.89344 28.1776 8.89344 27.7485C8.75 27.6054 8.75 27.4624 8.60656 27.6054C8.46312 27.6054 8.75 27.0333 8.31967 27.4624C8.17623 27.4624 8.31967 27.0333 8.03279 27.3194C7.7459 27.6054 7.88935 27.1763 7.7459 27.1763L7.60246 27.0333C7.02869 26.4612 6.74181 26.1751 6.88525 25.889C7.17213 25.889 7.7459 26.0321 8.60656 26.3181C8.75 26.3181 8.89344 26.1751 8.89344 26.4612C9.03689 26.4612 9.18033 26.3181 9.18033 26.6042C9.46722 26.3181 9.46721 26.6042 9.46721 26.7472C9.61066 26.7472 9.61066 26.8903 9.7541 26.8903C9.89754 26.7472 9.89754 27.0333 10.041 27.0333C10.041 27.3194 10.1844 27.3194 10.3279 27.1763C10.3279 27.4624 10.6148 27.3194 10.7582 27.3194C10.7582 27.7485 10.9016 27.6054 11.1885 27.4624C11.332 27.4624 11.4754 27.6054 11.6189 27.6054C11.7623 27.7485 11.9057 27.7485 12.0492 27.7485C12.1926 27.7485 12.4795 27.7485 12.4795 27.8915C12.623 27.8915 12.7664 28.0345 12.9098 28.1776C13.0533 28.1776 13.1967 28.3206 13.3402 28.4636C13.4836 28.4636 13.4836 28.8927 13.7705 28.7497C13.9139 28.7497 14.0574 29.0358 14.2008 29.0358C14.3443 29.1788 14.4877 29.3218 14.6311 29.3218C14.6311 29.7509 14.918 29.6079 15.0615 29.6079C15.2049 29.6079 15.3484 29.7509 15.4918 29.894C15.6352 29.894 15.7787 30.037 15.9221 30.18C16.0656 30.18 16.0656 30.4661 16.3525 30.4661C16.6393 30.4661 16.4959 30.7522 16.7828 30.7522C16.9262 30.7522 17.2131 30.7522 17.2131 31.0382C17.3566 31.1813 17.3566 31.4673 17.6434 31.3243C17.7869 31.3243 18.2172 31.0382 18.0738 31.6104C18.2172 31.6104 18.2172 32.0395 18.5041 31.8964C18.5041 32.3255 18.791 32.0395 18.791 32.1825C18.9344 32.3255 18.9344 32.4686 19.0779 32.4686C19.2213 32.3255 19.2213 32.7546 19.3648 32.7546C19.6516 32.6116 19.5082 33.1837 19.6516 33.0407C19.7951 33.1837 19.9385 33.1837 19.9385 33.3268C20.3689 32.8977 20.082 33.4698 20.2254 33.4698C20.2254 33.6128 20.6557 33.3268 20.5123 33.6128C20.7992 33.3268 20.6557 33.6128 20.7992 33.7559C20.7992 33.8989 21.0861 33.7559 21.0861 33.8989C21.373 33.7559 21.2295 34.185 21.2295 34.0419C21.2295 34.185 21.373 34.185 21.373 34.185C21.5164 34.185 21.5164 34.185 21.5164 34.328L21.6598 34.471C21.9467 34.328 21.9467 34.6141 21.9467 34.7571Z" fill="#212529"/>
<path d="M34.8565 21.8841C34.7131 21.8841 34.5696 21.8841 34.2828 21.5981L34.1393 21.455L33.9959 21.312C34.1393 21.169 33.5655 21.312 33.8524 21.169C33.8524 21.0259 33.709 21.0259 33.709 21.0259C33.5655 21.0259 33.709 20.7399 33.5655 20.7399C33.1352 20.8829 33.8524 20.3108 33.4221 20.4538C33.2787 20.4538 33.2787 20.3108 33.2787 20.1677C33.4221 19.8817 33.1352 20.0247 33.1352 19.8817C33.4221 19.5956 33.1352 19.5956 32.8483 19.5956C33.1352 19.3095 33.1352 19.1665 32.5615 19.3095C32.418 19.1665 32.5614 19.0235 32.2746 19.0235C32.1311 18.8804 31.9877 18.8804 31.9877 18.7374C31.7008 18.7374 31.5574 18.5944 31.7008 18.4513C31.2705 18.4513 31.4139 18.3083 31.4139 18.0222C31.5574 17.7362 30.9836 17.8792 31.127 17.5931C31.127 17.4501 30.8401 17.3071 30.8401 17.164C30.8401 17.021 30.9836 16.7349 30.5533 16.7349C30.4098 16.5919 30.2664 16.5919 30.2664 16.3058C29.836 16.3058 29.9795 16.1628 29.9795 15.8767C29.836 15.7337 29.9795 15.4476 29.6926 15.4476C29.6926 15.3046 29.4057 15.1616 29.4057 15.0185C29.4057 14.8755 29.4057 14.5894 29.1188 14.5894C28.8319 14.5894 28.9754 14.3034 28.8319 14.1603C28.9754 13.8743 28.5451 13.8743 28.5451 13.7312C28.4016 13.5882 28.5451 13.3021 28.2582 13.3021C28.1147 13.1591 27.9713 13.0161 27.9713 12.873C27.3975 13.0161 27.9713 12.587 27.6844 12.4439C27.8278 12.1579 27.541 12.1579 27.541 12.0148C27.3975 11.8718 27.541 11.5857 27.3975 11.5857C27.3975 11.4427 27.1106 11.4427 27.2541 11.1566C26.9672 11.1566 27.2541 10.8706 27.1106 10.7275C27.1106 10.5845 26.9672 10.4415 26.9672 10.2984C27.2541 10.0124 26.9672 10.0124 26.8237 10.0124C26.8237 9.86934 26.5369 9.86935 26.6803 9.72631C26.6803 9.58328 26.6803 9.44024 26.5369 9.44024C26.3934 9.44024 26.9672 9.01115 26.3934 9.15418C26.25 9.15418 26.6803 8.72508 26.25 8.86811C25.9631 9.01114 26.25 8.72508 26.1065 8.58205C26.1065 8.43901 26.1065 8.43901 25.9631 8.29598C25.6762 7.58081 25.6762 7.15171 25.9631 7.00868C26.1065 6.86565 26.6803 7.29475 27.2541 7.86688C27.2541 7.86688 27.541 7.86688 27.3975 8.15295C27.3975 8.29598 27.6844 8.15295 27.541 8.43901C28.2582 8.29598 28.1147 8.58205 28.1147 8.58205C28.2582 8.72508 28.1147 8.86811 28.2582 8.86811C28.5451 8.86811 28.2582 9.15418 28.5451 9.15418C28.4016 9.44025 28.5451 9.44024 28.8319 9.44024C28.6885 9.72631 28.9754 9.58328 29.1188 9.72631C28.8319 10.0124 29.1188 10.0124 29.4057 10.0124C29.5492 10.0124 29.5492 10.2984 29.6926 10.2984C29.6926 10.4415 29.9795 10.4415 29.9795 10.7275C30.2664 10.7275 30.2664 10.8706 30.2664 11.1566C30.4098 11.2997 30.4098 11.4427 30.5533 11.5857C30.6967 11.5857 30.6967 11.8718 30.8401 12.0148C30.9836 12.1579 30.6967 12.4439 31.127 12.4439C30.9836 12.587 30.9836 12.873 31.127 12.873C31.127 13.0161 31.2705 13.1591 31.4139 13.3021C31.127 13.5882 31.4139 13.7312 31.7008 13.7312C31.8442 13.8743 31.9877 14.0173 31.9877 14.1603C32.1311 14.3034 32.1311 14.4464 32.2746 14.5894C32.418 14.7325 32.2746 15.0185 32.5615 15.0185C32.8483 15.0185 32.5614 15.4476 32.8483 15.4476C32.9918 15.5907 33.1352 15.5907 33.1352 15.8767C33.2787 16.0198 32.9918 16.3058 33.4221 16.3058C33.5655 16.4489 33.9959 16.3058 33.5655 16.7349C33.709 16.7349 33.5655 17.164 33.709 17.164C33.4221 17.4501 33.8524 17.4501 33.8524 17.5931C33.8524 17.7362 33.8524 17.8792 33.9959 18.0222C34.2828 18.0222 33.9959 18.3083 34.1393 18.4513C34.4262 18.4513 33.9959 18.8804 34.2828 18.7374C34.2828 18.8804 34.4262 18.8804 34.4262 19.0235C35 18.8804 34.5696 19.1665 34.5696 19.3095C34.5696 19.4526 35 19.3095 34.7131 19.5956C35.1434 19.4526 34.8565 19.7386 34.8565 19.8817C34.8565 20.0247 35.1434 20.0247 35 20.1677C35.2869 20.1677 35 20.4538 35.1434 20.4538C35 20.5968 35.2869 20.5968 35.1434 20.7399C35.2869 20.7399 35.2869 20.8829 35.1434 21.0259V21.169C35 21.5981 35 21.7411 34.8565 21.8841Z" fill="#212529"/>
<path d="M54.0778 65.2232C55.0819 65.0802 56.086 64.6511 56.6598 63.7929C57.377 62.9347 57.6639 62.0765 57.6639 60.9322C57.6639 59.931 57.377 59.2158 56.9467 58.5007C56.5164 57.9285 55.5123 57.3564 54.0778 57.0703V65.2232ZM52.5 46.3428C51.4959 46.4859 50.6352 46.915 49.918 47.6301C49.3442 48.3453 49.0574 49.2035 49.0574 50.0617C49.0574 51.0629 49.3442 51.7781 49.7746 52.3502C50.3483 52.9224 51.209 53.4945 52.5 53.7806V46.3428ZM52.5 70.2294V67.5118C51.0655 67.3687 50.0614 67.0827 49.2008 66.6536C48.3401 66.2245 47.6229 65.5093 47.0492 64.5081C46.4754 63.5068 46.0451 62.3626 45.9016 60.9322L48.627 60.3601C48.9139 61.7904 49.2008 62.9347 49.7746 63.6499C50.4918 64.6511 51.4959 65.2232 52.5 65.2232V56.6412C51.3524 56.3552 50.2049 55.9261 49.0574 55.2109C48.1967 54.7818 47.4795 54.0666 47.0492 53.2084C46.6188 52.3502 46.3319 51.349 46.3319 50.3478C46.3319 48.3453 47.0492 46.7719 48.3401 45.6277C49.2008 44.7695 50.6352 44.3404 52.5 44.1973V42.91H54.0778V44.1973C55.6557 44.3404 56.9467 44.7695 57.8073 45.6277C58.9549 46.6289 59.6721 48.0592 59.959 49.7756L57.0901 50.2047C56.9467 49.0605 56.6598 48.3453 56.086 47.7732C55.5123 47.201 54.9385 46.7719 53.9344 46.6289V54.4957C55.3688 54.7818 56.2295 55.0679 56.6598 55.3539C57.5205 55.783 58.2377 56.2121 58.8114 56.7843C59.3852 57.3564 59.8155 57.9285 60.1024 58.6437C60.3893 59.3589 60.5328 60.2171 60.5328 61.0753C60.5328 62.9347 59.959 64.5081 58.668 65.7954C57.5205 67.0827 55.9426 67.7978 53.9344 67.7978V70.5155H52.5V70.2294Z" fill="#212529"/>
</g>
<defs>
<clipPath id="clip0_17_378">
<rect width="105" height="116" fill="white"/>
</clipPath>
</defs>
</svg>
