<svg width="106" height="106" viewBox="0 0 106 106" fill="none" xmlns="http://www.w3.org/2000/svg">
<g clip-path="url(#clip0_17_309)">
<path d="M52.9281 11.249C52.9281 11.249 52.209 11.3932 50.9145 11.5374C49.6201 11.6816 47.6065 11.8258 45.0176 12.4027C44.5862 12.5469 44.1547 12.5469 43.7232 12.6911C43.2917 12.8353 42.8602 12.9796 42.2849 13.1238C41.8535 13.268 41.2782 13.4122 40.8467 13.5564C40.4152 13.7007 39.8399 13.8449 39.2646 14.1333C38.9769 14.1333 38.6893 14.2775 38.4016 14.4217C38.114 14.566 37.8263 14.7102 37.6825 14.8544C37.1072 15.1428 36.6757 15.4313 35.9566 15.5755C35.6689 15.7197 35.3813 15.8639 35.0936 16.0081C34.806 16.1524 34.5183 16.2966 34.2307 16.4408C33.943 16.585 33.6554 16.7292 33.3677 16.8734C33.0801 17.0177 32.7924 17.1619 32.5048 17.4503C32.2171 17.5945 31.9294 17.7387 31.6418 18.0272C31.3541 18.1714 31.0665 18.4598 30.7788 18.6041C30.2035 18.8925 29.6282 19.3251 29.0529 19.902C28.9091 20.0462 28.7653 20.1905 28.6214 20.3347C28.4776 20.4789 28.3338 20.6231 28.19 20.6231C27.9023 20.9115 27.6147 21.0558 27.1832 21.2C26.8955 21.3442 26.6079 21.6326 26.3202 21.9211C26.0326 22.2095 25.7449 22.4979 25.6011 22.7864C24.5943 23.9401 23.2999 25.0939 22.2931 26.2476C22.1493 26.3918 22.0054 26.536 21.8616 26.6802C21.7178 26.8245 21.5739 26.9687 21.4301 27.1129C21.1425 27.4013 20.8548 27.834 20.711 28.1224C20.4233 28.4109 20.2795 28.8435 19.9919 29.2762C19.7042 29.7088 19.5604 29.9973 19.2727 30.4299C18.6974 31.151 18.1221 31.8721 17.6906 32.5932C17.2592 33.3143 16.9715 34.1796 16.54 35.1891C16.2524 35.6217 15.9647 35.9102 15.6771 36.3428C15.5332 36.487 15.3894 36.7755 15.3894 36.9197C15.2456 37.0639 15.2456 37.3524 15.1018 37.6408C14.9579 38.0734 14.8141 38.5061 14.6703 39.083C14.5265 39.5156 14.5265 40.0925 14.3826 40.5251C14.2388 40.9578 14.095 41.3905 13.9512 41.9673C13.8073 42.4 13.6635 42.8326 13.5197 43.4095C13.3758 43.8422 13.232 44.419 13.232 44.8517C13.0882 45.2843 13.0882 45.8612 13.0882 46.2938C12.9444 46.4381 12.9444 47.0149 12.9444 47.4476C12.9444 48.0245 12.8005 48.4571 12.8005 49.034C12.8005 49.6109 12.8005 50.0435 12.6567 50.6204C12.6567 51.1973 12.6567 51.6299 12.5129 52.2068C12.5129 52.7836 12.6567 53.2163 12.6567 53.7932C12.6567 54.37 12.6567 54.8027 12.8005 55.3796C12.8005 55.9564 12.8005 56.3891 12.9444 56.966C12.9444 57.5428 12.9444 57.9755 12.9444 58.5523C13.5197 60.7156 13.9512 62.7347 14.3826 65.0421C14.5265 65.619 14.6703 66.0517 14.9579 66.6285C15.1018 67.2054 15.3894 67.6381 15.6771 68.2149L15.8209 68.6476L15.9647 69.0802C16.1086 69.3687 16.2524 69.6571 16.3962 69.8013C16.6839 70.3782 16.8277 70.8109 17.1153 71.3877C18.1221 73.4068 19.4166 75.4258 20.8548 77.3007C22.1493 79.3197 23.7313 81.1945 25.6011 82.6367C27.4708 84.2231 29.3406 85.6653 31.3541 87.1075C33.6554 88.117 35.6689 89.4149 37.9702 90.5687C40.2714 91.434 42.7164 92.4435 45.3053 92.7319C47.7503 93.3088 50.3392 93.3088 52.9281 93.453C55.517 93.5973 58.1058 93.453 60.5509 92.7319C61.8453 92.4435 62.9959 92.1551 64.2904 91.7224C64.8657 91.5782 65.441 91.434 66.1601 91.1456C66.4478 91.0013 66.7354 91.0013 67.0231 90.8571C67.3107 90.7129 67.5984 90.5687 67.886 90.5687C68.1737 90.4245 68.4613 90.4245 68.749 90.2802C69.0366 90.136 69.3243 89.9918 69.6119 89.9918C69.8996 89.8476 70.1873 89.7034 70.4749 89.5592L71.3379 89.1265L72.2008 88.6938C72.4885 88.5496 72.7761 88.4054 72.92 88.2612C73.4953 87.9728 73.9267 87.6843 74.502 87.2517C76.5156 85.9537 78.673 84.5115 80.2551 82.7809C81.981 81.0503 83.5631 79.3197 85.0014 77.4449C85.5767 76.2911 86.152 75.4258 86.8711 74.4163C87.1588 73.9836 87.5902 73.4068 87.8779 72.9741C88.0217 72.6857 88.1655 72.5415 88.3094 72.253C88.4532 71.9646 88.597 71.6762 88.7408 71.5319C89.0285 71.0993 89.3162 70.5224 89.6038 70.0898C89.7476 69.8013 89.8915 69.5129 89.8915 69.3687L90.0353 68.936C90.0353 68.7918 90.1791 68.6476 90.1791 68.5034C90.3229 67.9265 90.6106 67.4939 90.7544 66.917C90.8982 66.3401 91.0421 65.9075 91.3297 65.3306C91.6174 64.1768 91.905 63.1673 92.1927 62.1578C92.1927 61.8694 92.3365 61.5809 92.3365 61.2925C92.3365 61.0041 92.4803 60.7156 92.4803 60.4272C92.4803 60.1387 92.6242 59.8503 92.6242 59.5619V59.1292C92.6242 58.985 92.6242 58.8408 92.6242 58.6966C92.768 58.1197 92.768 57.687 92.768 57.1102C92.768 56.5333 92.768 56.1007 92.9118 55.5238C92.9118 54.9469 92.9118 54.5143 92.9118 53.9374C92.9118 53.3605 92.9118 52.9279 93.0556 52.351C92.9118 51.7741 92.9118 51.3415 92.9118 50.7646C92.9118 50.1877 92.9118 49.7551 92.9118 49.1782C92.9118 48.6013 92.9118 48.1687 92.768 47.5918C92.768 47.0149 92.6242 46.5823 92.4803 46.1496C92.3365 45.717 92.3365 45.1401 92.1927 44.7075C92.0489 44.2748 91.905 43.6979 91.905 43.2653C91.7612 42.8326 91.6174 42.2558 91.4735 41.8231C91.3297 41.3904 91.1859 40.8136 91.0421 40.3809C91.0421 39.9483 90.8982 39.3714 90.7544 38.9387C90.6106 38.5061 90.4668 38.0734 90.1791 37.6408C90.0353 37.3524 90.0353 37.2081 89.8915 37.0639C89.7476 36.9197 89.6038 36.6313 89.6038 36.487C89.3162 36.0544 89.1723 35.6217 89.0285 35.1891C88.597 34.3238 88.1655 33.6027 87.7341 32.7374C87.3026 32.0163 86.7273 31.151 86.4396 30.4299C85.4328 28.9877 84.5699 27.4013 83.4193 26.2476C83.1316 25.9592 82.844 25.6707 82.7001 25.2381C82.4125 24.9496 82.2687 24.517 81.981 24.2285C81.6934 23.9401 81.4057 23.6517 81.1181 23.3632C80.8304 23.0748 80.5427 22.9306 80.1113 22.6422C79.8236 22.3537 79.536 22.0653 79.2483 21.9211C78.9607 21.6326 78.673 21.3442 78.3854 21.0558C78.0977 20.7673 77.8101 20.4789 77.5224 20.3347C77.3786 20.1905 77.2347 20.0462 77.0909 20.0462C76.9471 19.902 76.8033 19.902 76.6594 19.7578C75.9403 19.4694 75.365 19.0367 74.7897 18.6041C74.502 18.4598 74.2144 18.1714 73.9267 18.0272C73.6391 17.883 73.3514 17.5945 73.0638 17.4503C72.7761 17.3061 72.4885 17.1619 72.2008 16.8734C71.9132 16.7292 71.6255 16.585 71.3379 16.4408C71.0502 16.2966 70.7626 16.1524 70.4749 16.0081C70.1873 15.8639 69.8996 15.7197 69.6119 15.5755C67.1669 14.4217 64.7218 13.5564 62.7083 12.9796C62.133 12.8353 61.7015 12.6911 61.1262 12.5469C60.6947 12.4027 60.1194 12.4027 59.6879 12.2585C58.825 12.1143 57.962 11.97 57.2429 11.8258C55.8046 11.6816 54.654 11.5374 53.791 11.3932C53.3596 11.3932 52.9281 11.249 52.9281 11.249C52.9281 11.249 53.3596 11.1047 54.3664 11.1047C54.654 11.1047 54.9417 11.1047 55.2293 11.1047C55.517 11.1047 55.8046 11.1047 56.2361 11.1047C56.5237 11.1047 56.9552 11.1047 57.3867 11.1047C57.8182 11.1047 58.2497 11.249 58.6811 11.249C60.5509 11.3932 62.8521 11.8258 65.441 12.5469C68.0299 13.268 70.9064 14.4217 73.9267 16.1524C74.2144 16.2966 74.502 16.4408 74.7897 16.585C75.0773 16.7292 75.365 16.8734 75.7965 17.1619C76.3718 17.4503 77.0909 17.883 77.5224 18.4598C77.6662 18.6041 77.8101 18.6041 77.9539 18.7483C78.0977 18.8925 78.2415 19.0367 78.3854 19.0367C78.673 19.3251 78.9607 19.4694 79.3921 19.7578C79.6798 20.0462 79.9674 20.1905 80.2551 20.4789C80.5427 20.7673 80.8304 21.0558 81.1181 21.3442C82.5563 22.2095 83.5631 23.6517 84.5699 24.9496C85.7205 26.2476 86.7273 27.6898 87.8779 29.1319C88.4532 29.853 88.8847 30.5741 89.3161 31.4394C89.7476 32.3047 90.1791 33.17 90.6106 33.8911C90.7544 34.3238 90.8982 34.7564 91.1859 35.1891C91.3297 35.4775 91.3297 35.6217 91.4735 35.9102C91.6174 36.1986 91.6174 36.3428 91.7612 36.6313C91.905 37.0639 92.1927 37.4966 92.3365 37.9292C92.4803 38.3619 92.768 38.7945 92.9118 39.3714C93.0556 39.8041 93.1995 40.3809 93.3433 40.8136C93.4871 41.2462 93.6309 41.8231 93.7748 42.2558C93.9186 42.6884 94.0624 43.2653 94.2062 43.6979C94.3501 44.2748 94.4939 44.7075 94.4939 45.2843C94.4939 45.8612 94.4939 46.2938 94.6377 46.8707C94.6377 47.4476 94.7816 47.8802 94.7816 48.4571C94.7816 49.034 94.9254 49.4666 94.9254 50.0435C94.9254 50.6204 95.0692 51.1973 95.0692 51.6299C95.0692 52.2068 95.0692 52.7836 95.0692 53.2163C95.0692 53.7932 95.0692 54.37 94.9254 54.9469C94.9254 55.5238 94.7816 56.1007 94.7816 56.6775C94.9254 57.687 94.9254 58.1197 94.9254 58.6966C94.4939 60.8598 94.2062 63.1673 93.4871 65.4748C92.9118 67.7823 92.0489 69.9455 90.7544 72.1088C89.7476 74.2721 88.3094 76.2911 86.8711 78.3102C85.4328 80.3292 83.7069 82.2041 81.8372 83.9347C80.9742 84.8 79.9674 85.5211 78.8168 86.3864C78.2415 86.819 77.8101 87.1075 77.2347 87.5401C76.6594 87.9728 76.228 88.2612 75.6526 88.6938C73.4953 90.136 71.0502 91.2898 68.749 92.2993C66.3039 93.3088 63.7151 93.8857 61.1262 94.6068C58.3935 94.751 55.8046 95.1836 53.0719 95.3279C50.3392 95.4721 47.6065 95.0394 45.0176 94.6068C42.4288 94.1741 39.8399 93.3088 37.3948 92.2993C34.9498 91.434 32.6486 89.9918 30.4912 88.6938C29.9159 88.4054 29.3406 87.9728 28.9091 87.6843C28.3338 87.2517 27.9023 86.9632 27.327 86.5306C26.3202 85.6653 25.4573 84.8 24.4505 84.0789C22.5807 82.4925 20.711 80.6177 19.4166 78.4544C18.6974 77.4449 17.9783 76.4353 17.403 75.2816C17.1153 74.7047 16.8277 74.2721 16.54 73.6952C16.3962 73.4068 16.2524 73.1183 16.1086 72.9741C15.9647 72.6857 15.8209 72.3972 15.6771 72.253C15.3894 71.6762 15.1018 71.2435 14.8141 70.6666C14.6703 70.3782 14.5265 70.0898 14.3826 69.8013L14.2388 69.3687C14.2388 69.2245 14.095 69.0802 14.095 68.936C13.3759 68.3592 13.0882 67.7823 12.9444 67.2054C12.8005 66.6285 12.6567 66.0517 12.5129 65.4748C12.0814 64.3211 11.7938 63.1673 11.6499 62.1578C11.6499 61.8694 11.5061 61.5809 11.5061 61.2925C11.5061 61.0041 11.5061 60.7156 11.5061 60.4272C11.5061 60.1387 11.3623 59.8503 11.3623 59.5619L11.2185 59.1292L11.0746 58.6966C11.0746 58.1197 11.0746 57.5428 11.0746 56.966C11.0746 56.3891 10.9308 55.8122 10.9308 55.2353C10.787 54.6585 10.787 54.0816 10.787 53.649C10.787 53.0721 10.6431 52.4952 10.787 52.0626C10.787 51.4857 10.787 50.9088 10.9308 50.4762C10.9308 49.8993 11.0746 49.4666 11.0746 48.8898C11.0746 48.3129 11.2185 47.8802 11.2185 47.3034C11.2185 46.7265 11.3623 46.2938 11.3623 45.717C11.3623 45.1401 11.5061 44.7075 11.6499 44.1306C11.7938 43.5537 11.9376 43.1211 12.0814 42.6884C12.2252 42.2558 12.3691 41.6789 12.5129 41.2462C12.6567 40.8136 12.8005 40.2367 12.9444 39.8041C13.0882 39.3714 13.232 38.7945 13.3758 38.3619C13.5197 37.9292 13.8073 37.4966 13.9512 37.0639C14.095 36.7755 14.095 36.6313 14.2388 36.3428C14.3826 36.0544 14.5265 35.9102 14.5265 35.6217C14.6703 35.1891 14.9579 34.7564 15.1018 34.3238C15.5332 33.4585 15.9647 32.5932 16.3962 31.8721C16.8277 31.0068 17.403 30.2857 17.8345 29.5646C17.9783 29.1319 18.2659 28.6993 18.4098 28.2666C18.6974 27.834 18.9851 27.5456 19.2727 27.2571C19.5604 26.9687 19.848 26.536 20.1357 26.2476C20.2795 26.1034 20.4233 25.9592 20.5672 25.8149C20.711 25.6707 20.8548 25.5265 20.9986 25.3823C22.1493 24.0843 23.156 22.6422 24.4505 21.7768C24.7381 21.4884 25.0258 21.2 25.3134 20.9115C25.6011 20.6231 25.8887 20.3347 26.1764 20.1905C26.464 19.902 26.8955 19.7578 27.1832 19.6136C27.327 19.4694 27.4708 19.4694 27.6147 19.3251C27.7585 19.1809 27.9023 19.1809 28.0461 19.0367C28.6214 18.6041 29.1967 18.1714 29.9159 17.7388C30.2035 17.5945 30.4912 17.3061 30.7788 17.1619C31.0665 17.0177 31.3541 16.8734 31.7856 16.7292C32.0733 16.4408 32.3609 16.2966 32.6486 16.1524C32.9362 16.0081 33.2239 15.8639 33.5115 15.7197C33.7992 15.5755 34.0868 15.4313 34.3745 15.287C34.6621 15.1428 34.9498 14.9986 35.2375 14.8544C35.8128 14.7102 36.3881 14.4217 36.9634 14.1333C37.251 13.9891 37.5387 13.8449 37.8263 13.8449C38.114 13.7007 38.4016 13.5564 38.6893 13.5564C39.2646 13.4122 39.6961 13.1238 40.2714 12.9796C40.8467 12.8353 41.2782 12.6911 41.8535 12.6911C42.2849 12.5469 42.8602 12.4027 43.2917 12.4027C43.7232 12.2585 44.1547 12.2585 44.5862 12.1143C47.175 11.6816 49.1886 11.5374 50.6269 11.5374C52.209 11.1047 52.9281 11.1047 52.9281 11.249Z" fill="#212529"/>
<path d="M37.6825 66.3401C37.6825 66.3401 37.8263 66.6285 37.9701 67.3496C38.114 68.0707 38.2578 69.0802 38.6893 70.234C38.8331 70.6666 38.9769 71.0993 39.2646 71.5319C39.2646 71.6761 39.4084 71.8204 39.4084 71.8204C39.4084 71.9646 39.5522 72.1088 39.5522 72.1088C39.6961 72.3972 39.8399 72.5415 39.9837 72.8299C39.9837 73.1183 40.2714 73.2625 40.4152 73.551C40.7028 73.6952 40.8467 73.9836 40.9905 74.2721C41.1343 74.4163 41.1343 74.5605 41.2782 74.7047C41.422 74.8489 41.422 74.9932 41.5658 75.1374C41.7096 75.4258 41.9973 75.57 42.2849 75.8585C42.4288 76.0027 42.5726 76.1469 42.7164 76.1469C42.8602 76.2911 43.0041 76.4353 43.1479 76.4353C43.2917 76.5796 43.4355 76.7238 43.5794 76.7238C43.7232 76.868 43.867 76.868 44.0109 77.0122C44.1547 77.0122 44.1547 77.0122 44.2985 77.1564C44.4423 77.1564 44.4423 77.3006 44.5862 77.3006C44.73 77.4449 44.8738 77.5891 45.0176 77.5891C45.1615 77.7333 45.3053 77.8775 45.4491 77.8775C45.5929 78.0217 45.8806 78.0217 46.0244 78.0217C46.7436 78.1659 47.4627 78.4544 48.3256 78.7428C49.0448 79.1755 50.0516 79.1755 50.9145 79.1755C51.7775 79.6081 52.6404 79.4639 53.6472 79.3197C54.654 79.7523 55.517 79.6081 56.5237 79.0312C57.5305 78.887 58.5373 78.7428 59.4003 78.1659C60.2632 77.7333 61.1262 77.3006 62.133 76.7238C62.2768 76.5796 62.4206 76.2911 62.7083 76.1469C62.8521 76.0027 63.1398 75.8585 63.2836 75.57C63.4274 75.4258 63.4274 75.4258 63.5712 75.2816C63.7151 75.1374 63.7151 75.1374 63.8589 74.9932C64.0027 74.8489 64.2904 74.7047 64.4342 74.5605C64.8657 73.551 65.5848 72.8299 66.1601 71.8204C66.4478 71.3877 66.5916 70.8108 66.7354 70.234C66.8792 69.6571 66.8792 69.0802 67.1669 68.6476C67.4545 67.4938 67.4545 66.3401 67.4545 65.1864C67.5984 64.0326 67.4545 62.7346 66.8792 61.7251C66.7354 61.4367 66.7354 61.1483 66.5916 60.8598H66.1601L65.8725 60.5714C65.5848 59.9945 65.2971 59.5619 65.0095 58.985C64.578 58.5523 64.1465 58.2639 63.7151 57.8312C63.2836 57.3986 62.8521 56.9659 62.4206 56.5333C61.8453 56.2449 61.4138 55.8122 60.8385 55.5238C60.5509 55.3796 60.2632 55.2353 59.9756 55.0911C59.6879 54.9469 59.4003 54.8027 59.1126 54.8027C57.962 54.2258 56.6676 54.0816 55.3731 53.5047C54.0787 53.0721 52.7843 52.6394 51.4898 52.4952C50.0516 52.351 48.9009 51.6299 47.6065 51.1972C47.0312 50.7646 46.4559 50.6204 45.7368 50.3319C45.4491 50.1877 45.1615 50.0435 44.73 49.8993C44.4423 49.7551 44.1547 49.6108 43.867 49.4666C43.5794 49.3224 43.2917 49.1782 43.0041 48.8898C42.8602 48.7455 42.7164 48.7455 42.5726 48.6013C42.4288 48.4571 42.2849 48.4571 42.1411 48.3129L41.7096 48.0244L41.5658 47.8802L41.422 47.736C41.2781 47.5918 41.1343 47.4476 40.9905 47.4476C40.8467 47.3034 40.7028 47.1591 40.559 47.1591C39.5522 46.1496 38.8331 44.9959 38.4016 43.6979C37.9701 43.121 37.6825 42.5442 37.6825 41.8231C37.6825 41.5347 37.6825 41.102 37.5387 40.8136C37.5387 40.6693 37.5387 40.5251 37.5387 40.3809C37.5387 40.2367 37.5387 40.2367 37.5387 40.0925C37.5387 39.9483 37.5387 39.9483 37.5387 39.804C37.5387 39.5156 37.5387 39.2272 37.5387 38.7945C37.5387 38.5061 37.5387 38.2176 37.5387 37.785C37.5387 37.2081 37.5387 36.487 37.6825 35.9102C37.6825 35.3333 37.9701 34.6122 38.114 34.0353C38.2578 33.4585 38.5454 32.8816 38.6893 32.3047C38.9769 31.7278 39.2646 31.151 39.5522 30.7183C39.8399 30.1415 40.2714 29.7088 40.7028 29.2761C40.8467 28.9877 40.9905 28.8435 41.2782 28.5551C41.422 28.4108 41.7096 28.1224 41.9973 27.9782C42.4288 27.6898 43.0041 27.2571 43.2917 26.9687C44.2985 26.2476 45.1615 25.8149 46.3121 25.5265C46.8874 25.5265 47.3189 25.3823 47.8942 25.2381C48.1818 25.0938 48.3256 25.0938 48.6133 24.9496C48.9009 24.8054 49.0448 24.8054 49.3324 24.8054C50.3392 24.6612 51.346 24.3727 52.209 24.517C53.2157 24.517 54.0787 24.6612 54.9417 24.6612C55.2293 24.6612 55.3731 24.6612 55.6608 24.8054C55.8046 24.8054 56.0923 24.9496 56.2361 25.0938C56.6676 25.2381 57.099 25.3823 57.5305 25.2381C57.6744 25.2381 57.962 25.3823 58.1058 25.3823C58.2497 25.5265 58.5373 25.5265 58.6811 25.6707C58.825 25.8149 59.1126 25.8149 59.2564 25.9591C59.4003 25.9591 59.6879 26.1034 59.8317 26.1034C60.2632 26.1034 60.5509 26.2476 60.9824 26.536C61.1262 26.6802 61.27 26.8245 61.4138 26.8245C61.5577 26.9687 61.7015 27.1129 61.8453 27.1129C62.133 27.2571 62.4206 27.5455 62.7083 27.834L62.8521 27.9782L62.9959 28.1224C63.1398 28.2666 63.2836 28.4108 63.4274 28.4108C64.4342 29.4204 65.2971 30.5741 65.7286 31.5836C65.8725 31.7278 65.8725 31.8721 65.8725 32.0163C65.8725 32.1605 66.0163 32.3047 66.0163 32.4489C66.0163 32.5932 66.1601 32.7374 66.1601 32.8816V33.0258V33.17C66.1601 33.4585 66.3039 33.6027 66.3039 33.8911C66.3039 34.0353 66.4478 34.3238 66.4478 34.468C66.5916 34.9006 66.5916 35.1891 66.5916 35.4775C66.5916 35.7659 66.5916 36.0544 66.5916 36.1986C66.5916 36.6313 66.5916 36.7755 66.5916 36.7755C66.5916 36.7755 66.4478 36.487 66.3039 36.0544C66.1601 35.7659 66.1601 35.4775 66.0163 35.1891C66.0163 35.0449 65.8725 34.9006 65.8725 34.6122C65.8725 34.468 65.8725 34.468 65.7286 34.3238C65.7286 34.1796 65.5848 34.1796 65.5848 34.0353C65.441 33.8911 65.441 33.6027 65.2971 33.3142C65.2971 33.3142 65.2971 33.17 65.1533 33.17C65.1533 33.17 65.1533 33.0258 65.0095 33.0258C65.0095 32.8816 64.8657 32.7374 64.8657 32.5932C64.7218 32.3047 64.578 32.0163 64.4342 31.8721C64.7218 31.7279 64.7218 31.5836 64.578 31.4394C64.4342 31.2952 64.4342 31.151 64.2904 31.0068C64.1465 30.7183 63.8589 30.4299 63.7151 30.1415C63.4274 29.853 63.2836 29.5646 62.9959 29.4204C62.7083 29.1319 62.4206 28.9877 62.133 28.6993C61.9891 28.5551 61.8453 28.4108 61.7015 28.4108C61.5577 28.2666 61.4138 28.1224 61.1262 28.1224C60.5509 27.834 59.8317 27.6898 59.2564 27.2571C58.5373 26.9687 57.8182 26.9687 57.099 26.6802C56.2361 26.8244 55.517 26.3918 54.654 26.3918C53.791 26.3918 52.9281 26.2476 52.0651 26.3918C51.2022 26.6802 50.3392 26.3918 49.3324 26.6802C48.3256 26.6802 47.4627 26.9687 46.5997 27.4013C46.3121 27.4013 46.1682 27.5455 45.8806 27.5455C45.7368 27.5455 45.5929 27.6898 45.5929 27.6898C45.4491 27.6898 45.4491 27.834 45.3053 27.834C45.1615 27.9782 44.8738 28.1224 44.73 28.2666C44.5862 28.4108 44.2985 28.5551 44.1547 28.6993C43.7232 28.8435 43.2917 29.1319 42.8602 29.5646C42.7164 29.7088 42.5726 29.9972 42.4288 30.1415C42.2849 30.2857 42.1411 30.5741 41.9973 30.7183C41.7096 31.151 41.422 31.5836 41.1343 32.0163C40.8467 32.4489 40.559 32.8816 40.4152 33.4585C39.9837 34.468 39.8399 35.4775 39.5522 36.487C39.5522 37.6408 39.5522 38.6503 39.5522 39.804V39.9483V40.0925C39.5522 40.2367 39.5522 40.3809 39.6961 40.5251C39.6961 40.8136 39.8399 41.102 39.8399 41.3904C39.9837 41.9673 40.1275 42.5442 40.2714 42.9768C40.2714 43.121 40.4152 43.2653 40.4152 43.4095C40.4152 43.5537 40.559 43.6979 40.559 43.8421C40.7028 44.1306 40.8467 44.2748 40.9905 44.5632C40.9905 44.7074 41.1343 44.8517 41.2782 44.8517C41.422 44.9959 41.422 45.1401 41.5658 45.1401C41.7096 45.4285 41.8535 45.5727 42.1411 45.8612C42.2849 46.0054 42.2849 46.0054 42.4288 46.1496C42.5726 46.2938 42.5726 46.2938 42.7164 46.4381L42.8602 46.5823L43.0041 46.7265L43.2917 47.0149C43.4355 47.1591 43.5794 47.1591 43.5794 47.3034C43.7232 47.4476 43.867 47.4476 44.0109 47.5918C44.2985 47.736 44.5862 47.8802 44.8738 47.8802C46.0244 48.4571 47.0312 49.034 48.3256 49.4666C49.4762 49.8993 50.7707 50.3319 52.0651 50.6204C53.2157 51.3415 54.654 51.4857 55.9484 51.6299C57.2429 51.9183 58.6811 52.351 59.8317 52.9279C60.1194 53.0721 60.5509 53.2163 60.8385 53.3605C61.1262 53.5047 61.5577 53.6489 61.8453 53.7932C62.4206 54.0816 63.1398 54.5142 63.7151 54.9469C64.2904 55.3795 64.8657 55.8122 65.2971 56.3891C65.7286 56.9659 66.1601 57.3986 66.7354 57.9755C67.1669 58.5523 67.5984 59.1292 67.886 59.8503L68.0298 60.283C68.0298 60.4272 68.1737 60.5714 68.1737 60.7156C68.3175 61.004 68.4613 61.2925 68.6052 61.7251C69.0366 63.0231 69.4681 64.321 69.1805 65.7632C69.1805 65.9074 69.1805 66.0517 69.1805 66.1959C69.1805 66.3401 69.1805 66.4843 69.1805 66.6285C69.1805 66.917 69.0366 67.2054 69.0366 67.6381C68.8928 68.2149 68.8928 68.936 68.8928 69.5129C68.749 70.0898 68.749 70.8108 68.6052 71.3877C68.4613 71.9646 68.1737 72.6857 67.7422 73.1183C67.4545 73.6952 67.1669 74.2721 66.7354 74.7047C66.3039 75.1374 66.0163 75.7142 65.5848 76.1469C65.2971 76.2911 65.1533 76.5796 64.8657 76.7238C64.7218 76.868 64.578 76.868 64.578 77.0122C64.4342 77.1564 64.2904 77.1564 64.2904 77.3006C64.1465 77.5891 63.8589 77.7333 63.7151 77.8775C63.4274 78.0217 63.2836 78.3102 62.9959 78.4544C61.9891 79.0313 60.9824 79.4639 59.9756 80.0408C58.9688 80.6176 57.8182 80.6176 56.8114 80.9061C56.2361 81.0503 55.8046 81.0503 55.2293 81.0503C54.9417 81.0503 54.654 81.0503 54.5102 81.0503C54.2225 81.0503 53.9349 81.0503 53.791 81.1945C52.7843 81.1945 51.7775 81.1945 50.9145 81.0503C50.483 81.1945 49.9077 81.1945 49.4763 81.0503C49.0448 80.9061 48.6133 80.6176 48.1818 80.4734C48.038 80.3292 47.7503 80.3292 47.4627 80.3292C47.175 80.3292 47.0312 80.185 46.7436 80.185C46.5997 80.185 46.3121 80.0408 46.1682 80.0408C46.0244 79.8966 45.7368 79.8966 45.5929 79.6081C45.3053 79.6081 45.1615 79.6081 45.0176 79.4639C44.8738 79.4639 44.5862 79.3197 44.4423 79.1755C44.2985 79.0313 44.1547 78.887 43.867 78.7428C43.7232 78.7428 43.7232 78.5986 43.5794 78.5986C43.4355 78.5986 43.4355 78.4544 43.2917 78.4544C43.1479 78.3102 43.0041 78.1659 42.8602 78.1659C42.7164 78.0217 42.5726 77.8775 42.4288 77.8775C42.2849 77.7333 42.1411 77.5891 41.9973 77.4449C41.8535 77.3006 41.7096 77.1564 41.7096 77.0122C41.422 76.868 41.1343 76.5796 40.9905 76.2911C40.8467 76.1469 40.8467 76.0027 40.7028 75.8585C40.559 75.7142 40.559 75.57 40.4152 75.4258C40.1275 74.8489 39.6961 74.4163 39.4084 73.8394C39.2646 73.551 39.1208 73.2625 38.9769 73.1183C38.9769 72.9741 38.8331 72.8299 38.8331 72.6857C38.8331 72.5415 38.6893 72.3972 38.6893 72.253C38.5454 71.8204 38.4016 71.2435 38.2578 70.8108C37.9701 69.5129 37.8263 68.3591 37.8263 67.6381C37.5387 66.6285 37.6825 66.3401 37.6825 66.3401Z" fill="#212529"/>
<path d="M52.9281 85.9538C52.7842 85.9538 52.6404 85.2327 52.4966 83.9347C52.4966 83.6463 52.4966 83.5021 52.4966 83.2136C52.4966 82.9252 52.3528 82.6368 52.4966 82.3483C52.6404 82.0599 52.2089 81.7715 52.4966 81.483C52.6404 81.1946 52.4966 80.7619 52.4966 80.4735C52.4966 80.1851 52.6404 79.7524 52.4966 79.3197C52.2089 78.8871 52.9281 78.5987 52.4966 78.166C52.3528 77.7334 52.4966 77.3007 52.4966 76.8681C52.7842 76.4354 52.4966 76.0027 52.4966 75.5701C52.7842 75.1374 52.6404 74.7048 52.4966 74.1279C52.9281 73.6953 52.9281 73.1184 52.4966 72.6857C52.4966 72.2531 52.6404 71.6762 52.4966 71.0993C52.4966 70.5225 52.3528 70.0898 52.4966 69.513C52.2089 68.9361 52.2089 68.3592 52.4966 67.7823C52.2089 67.2055 52.3528 66.6286 52.4966 66.0517C52.6404 65.4749 52.2089 64.898 52.4966 64.3211C52.4966 63.7442 52.4966 63.1674 52.4966 62.4463C52.6404 61.8694 52.7842 61.1483 52.4966 60.5715C52.3528 59.9946 52.3528 59.2735 52.4966 58.6966C52.2089 58.1198 52.3528 57.3987 52.4966 56.6776C52.4966 55.9565 52.6404 55.3796 52.4966 54.6585C52.4966 53.9374 52.3528 53.3606 52.4966 52.6395C52.6404 51.9184 52.6404 51.3415 52.4966 50.6204C52.3528 49.8993 52.6404 49.3225 52.4966 48.6014C52.7842 47.8803 52.3528 47.3034 52.4966 46.5823C52.4966 46.0055 52.6404 45.2844 52.4966 44.7075C52.4966 44.1306 52.3528 43.4095 52.4966 42.8327C52.0651 42.2558 52.6404 41.6789 52.4966 40.9578C52.6404 40.381 52.4966 39.8041 52.4966 39.2272C52.3528 38.6504 52.7842 38.0735 52.4966 37.4966C52.4966 36.9198 52.3528 36.3429 52.4966 35.766C52.2089 35.1891 52.6404 34.7565 52.4966 34.1796C52.4966 33.6027 52.4966 33.1701 52.4966 32.5932C52.9281 32.1606 52.4966 31.5837 52.4966 31.151C52.4966 30.7184 52.3528 30.1415 52.4966 29.7089C52.4966 29.2762 52.6404 28.8436 52.4966 28.4109C52.4966 27.9783 53.0719 27.5456 52.4966 27.1129C52.3528 26.6803 52.9281 26.2476 52.4966 25.9592C52.2089 25.5266 52.4966 25.2381 52.4966 24.8055C52.4966 24.517 52.4966 24.0844 52.4966 23.7959C52.6404 20.9116 52.7842 19.3252 53.0719 19.3252C53.3596 19.3252 53.5034 21.3442 53.6472 24.8055C53.6472 25.0939 53.9349 25.5266 53.6472 25.9592C53.6472 26.3919 53.791 26.6803 53.6472 27.1129C53.9349 27.5456 53.6472 27.9783 53.6472 28.4109C53.6472 28.8436 53.5034 29.2762 53.6472 29.7089C53.791 30.1415 53.5034 30.5742 53.6472 31.151C53.5034 31.5837 53.5034 32.1606 53.6472 32.5932C53.5034 33.0259 53.6472 33.6027 53.6472 34.1796C53.3595 34.7565 53.5034 35.1891 53.6472 35.766C53.791 36.3429 53.6472 36.9198 53.6472 37.4966C53.6472 38.0735 53.791 38.6504 53.6472 39.2272C53.791 39.8041 53.791 40.381 53.6472 40.9578C53.791 41.5347 53.6472 42.1116 53.6472 42.8327C53.791 43.4095 53.6472 44.1306 53.6472 44.7075C53.6472 45.2844 53.3595 46.0055 53.6472 46.5823C53.6472 47.1592 53.6472 47.8803 53.6472 48.6014C53.6472 49.3225 53.5034 49.8993 53.6472 50.6204C53.3595 51.3415 53.5034 51.9184 53.6472 52.6395C53.791 53.3606 53.6472 53.9374 53.6472 54.6585C53.6472 55.3796 53.6472 55.9565 53.6472 56.6776C53.791 57.3987 53.5034 57.9755 53.6472 58.6966C53.791 59.2735 53.5034 59.9946 53.6472 60.5715C53.791 61.1483 53.791 61.8694 53.6472 62.4463C53.6472 63.0232 53.3595 63.6 53.6472 64.3211C53.6472 64.898 54.0787 65.4749 53.6472 66.0517C53.791 66.6286 53.3595 67.2055 53.6472 67.7823C53.3595 68.3592 53.6472 68.9361 53.6472 69.513C53.6472 70.0898 53.5034 70.6667 53.6472 71.0993C53.791 71.6762 53.5034 72.1089 53.6472 72.6857C53.791 73.1184 53.3595 73.6953 53.6472 74.1279C53.6472 74.5606 53.6472 75.1374 53.6472 75.5701C54.0787 76.0027 53.6472 76.4354 53.6472 76.8681C53.6472 77.3007 53.9349 77.7334 53.6472 78.166C53.9349 78.5987 53.6472 79.0313 53.6472 79.3197C53.5034 79.7524 53.791 80.0408 53.6472 80.4735C53.9349 80.7619 53.5034 81.1946 53.6472 81.483C53.5034 81.7715 53.6472 82.0599 53.6472 82.3483C53.6472 82.6368 53.6472 82.9252 53.6472 83.2136C53.6472 83.5021 53.6472 83.6463 53.6472 83.9347C53.2157 85.2327 53.0719 85.9538 52.9281 85.9538Z" fill="#212529"/>
<path d="M52.9281 0.43267C52.9281 0.43267 52.0651 0.576888 50.3392 0.721105C48.6133 0.865323 46.0244 1.15376 42.8602 1.87485C42.5726 1.87485 42.2849 2.01906 41.9973 2.01906C41.7096 2.01906 41.422 2.16328 41.1343 2.16328C40.559 2.3075 39.9837 2.45172 39.4084 2.59594C38.8331 2.88437 38.2578 3.17281 37.6825 3.31702C37.1072 3.60546 36.3881 3.74968 35.6689 4.03811C35.3813 4.03811 34.9498 4.18233 34.6621 4.32655C34.3745 4.47077 33.943 4.61498 33.6554 4.7592C32.9362 5.04764 32.3609 5.48029 31.498 5.62451C31.0665 5.76872 30.7788 5.91294 30.3474 6.05716C30.0597 6.20138 29.6282 6.48981 29.3406 6.63403C29.0529 6.77825 28.6214 7.06668 28.19 7.2109C27.9023 7.49934 27.4708 7.64355 27.1832 7.93199C26.8955 8.22043 26.464 8.36464 26.0326 8.65308C25.6011 8.94151 25.3134 9.08573 24.882 9.37417C24.1628 9.80682 23.4437 10.3837 22.7246 10.9606C22.5807 11.1048 22.4369 11.249 22.1493 11.3932C22.0054 11.5374 21.8616 11.6817 21.5739 11.8259C21.1425 12.1143 20.8548 12.4027 20.4233 12.6912L20.1357 12.8354L19.848 12.9796C19.7042 13.1238 19.4166 13.268 19.2727 13.4123C18.8412 13.7007 18.5536 14.1334 18.2659 14.4218C16.8277 15.864 15.3894 17.3061 14.095 18.8925C13.9512 19.0368 13.6635 19.3252 13.5197 19.4694L13.232 19.7578C13.0882 19.9021 13.0882 19.9021 12.9444 20.0463C12.6567 20.4789 12.2252 20.9116 11.9376 21.3442C11.6499 21.7769 11.3623 22.2095 11.0746 22.6422C10.9308 22.9306 10.787 23.0748 10.6431 23.3633C10.4993 23.6517 10.3555 23.7959 10.2117 24.0844C9.78019 24.517 9.49253 24.9497 9.20488 25.3823L9.06106 25.9592C8.91723 26.1034 8.91723 26.2476 8.7734 26.3919C8.62958 26.6803 8.48575 26.8245 8.34192 27.1129C7.76662 28.1225 7.33514 29.132 6.90366 30.2857C6.47218 30.7184 6.18453 31.2953 5.89688 31.7279C5.75305 32.0163 5.60922 32.3048 5.4654 32.5932C5.32157 32.8816 5.17774 33.1701 5.17774 33.4585C5.03392 34.0354 4.74627 34.6123 4.60244 35.1891C4.45861 35.6218 4.31479 36.1987 4.31479 36.9197C4.17096 37.4966 3.88331 38.0735 3.73948 38.6504C3.59565 39.2272 3.308 39.8041 3.16418 40.381C3.02035 40.9578 2.87652 41.5347 2.7327 42.2558C2.58887 42.8327 2.58887 43.5538 2.44504 44.1306C2.44504 44.4191 2.30122 44.7075 2.30122 45.1402C2.30122 45.4286 2.30122 45.717 2.15739 46.1497C2.15739 46.4381 2.15739 46.7266 2.01357 47.1592C2.01357 47.3034 2.01357 47.4476 2.01357 47.5919V48.0245C2.01357 48.6014 1.86974 49.3225 1.86974 50.0436C1.86974 50.7646 1.86974 51.3415 1.72591 52.0626C1.72591 52.351 1.72591 52.7837 1.86974 53.0721C1.86974 53.3606 1.86974 53.7932 2.01357 54.0816C2.01357 54.8027 2.01357 55.3796 2.15739 56.1007C2.15739 56.8218 2.30122 57.3987 2.30122 58.1197C2.30122 58.8408 2.44504 59.4177 2.44504 60.1388C3.16418 62.7347 3.59566 65.4748 4.31479 68.215C4.45861 68.9361 4.74627 69.5129 5.03392 70.234C5.17774 70.8109 5.4654 71.532 5.75305 72.1089L6.0407 72.5415L6.32836 72.9742C6.47218 73.2626 6.61601 73.551 6.75983 73.9837C6.90366 74.2721 7.04749 74.7048 7.19131 74.9932C7.33514 75.2817 7.47897 75.7143 7.62279 76.0027C8.91723 78.5987 10.6431 81.0504 12.3691 83.5021C14.095 85.9538 15.9647 88.2612 18.4098 90.1361C20.711 92.1551 23.156 94.03 25.7449 95.7606C28.4776 97.2028 31.2103 98.6449 34.0868 100.087C37.1072 101.241 40.1275 102.395 43.2917 102.827C46.4559 103.548 49.7639 103.548 52.9281 103.693C56.2361 103.837 59.5441 103.548 62.5644 102.827L63.1398 102.683L63.7151 102.539C64.1465 102.395 64.4342 102.395 64.8657 102.25L65.441 102.106C65.5848 102.106 65.8725 101.962 66.0163 101.962C66.4478 101.818 66.7354 101.818 67.1669 101.673C67.886 101.529 68.749 101.241 69.4681 100.952L70.0434 100.808C70.1872 100.808 70.4749 100.664 70.6187 100.664C71.0502 100.52 71.3379 100.376 71.7693 100.231C72.2008 100.087 72.4885 99.9429 72.9199 99.7987C73.3514 99.6544 73.6391 99.5102 74.0706 99.366C74.502 99.2218 74.7897 99.0776 75.0773 98.9334L76.0841 98.3565C76.3718 98.2123 76.8033 97.9238 77.0909 97.7796C77.3786 97.6354 77.81 97.347 78.0977 97.2028C78.3853 97.0585 78.8168 96.7701 79.1045 96.6259C79.3921 96.4817 79.8236 96.1932 80.1113 96.049C82.7001 94.3184 85.289 92.5878 87.4464 90.4245C89.6038 88.2612 91.6174 86.098 93.4871 83.7905C93.6309 83.5021 93.7748 83.0694 94.0624 82.781C94.2062 82.4925 94.4939 82.2041 94.6377 81.9157L94.9254 81.483L95.213 81.0504C95.3568 80.7619 95.6445 80.4735 95.7883 80.1851C96.2198 79.6082 96.6513 79.0313 97.0828 78.3102C97.2266 78.0218 97.5143 77.7334 97.6581 77.4449C97.8019 77.1565 97.9457 76.868 98.0895 76.4354C98.2334 76.147 98.521 75.8585 98.6649 75.4259C98.8087 75.1374 98.9525 74.849 99.0963 74.4163C99.2402 74.1279 99.384 73.6953 99.5278 73.4068L99.8155 72.9742L99.9593 72.5415C100.247 71.8204 100.535 71.2436 100.678 70.5225C100.966 69.8014 101.11 69.2245 101.398 68.5034C101.829 67.2055 102.261 65.7633 102.548 64.4653C102.692 64.1769 102.692 63.7442 102.836 63.4558C102.836 63.1674 102.98 62.7347 102.98 62.4463C102.98 62.1578 103.123 61.7252 103.123 61.4368V60.8599C103.123 60.7157 103.123 60.5714 103.123 60.283C103.267 59.5619 103.267 58.9851 103.411 58.264C103.411 57.5429 103.555 56.966 103.555 56.2449C103.555 55.5238 103.555 54.947 103.699 54.2259C103.699 53.9374 103.699 53.5048 103.699 53.2163C103.699 52.9279 103.699 52.4953 103.699 52.2068C103.555 51.4857 103.555 50.9089 103.555 50.1878C103.555 49.4667 103.555 48.8898 103.411 48.1687V47.7361C103.411 47.5919 103.411 47.4476 103.411 47.3034C103.411 47.015 103.411 46.7265 103.267 46.2939C103.267 46.0055 103.267 45.717 103.123 45.2844C103.123 44.9959 102.98 44.7075 102.98 44.2748C102.836 43.698 102.692 42.9769 102.692 42.4C102.548 41.8231 102.404 41.1021 102.261 40.5252C102.117 39.9483 101.973 39.3714 101.829 38.6504C101.685 38.0735 101.541 37.4966 101.254 36.9197C101.11 36.3429 100.966 35.766 100.822 35.1891C100.678 34.6123 100.391 34.0354 100.103 33.4585C99.9593 33.1701 99.8155 32.8816 99.6716 32.5932C99.5278 32.3048 99.384 32.0163 99.2402 31.7279C98.9525 31.151 98.6649 30.7184 98.521 30.1415C97.9457 29.132 97.5143 28.1225 96.7951 27.1129C96.6513 26.8245 96.5075 26.6803 96.3636 26.3919L96.2198 25.9592L95.9322 25.6708C95.6445 25.2381 95.3568 24.6612 95.0692 24.2286C94.9254 23.9402 94.7815 23.7959 94.6377 23.5075C94.4939 23.2191 94.3501 23.0748 94.2062 22.7864C93.9186 22.3538 93.6309 21.9211 93.3433 21.4885C93.0556 21.0558 92.6241 20.6231 92.3365 20.1905L92.0488 19.9021L91.7612 19.6136C91.6174 19.4694 91.3297 19.181 91.1859 19.0368C91.0421 18.8925 90.8982 18.6041 90.6106 18.4599C90.4668 18.3157 90.3229 18.0272 90.1791 17.883C89.8914 17.4504 89.6038 17.0177 89.1723 16.7293C89.0285 16.5851 88.8847 16.2966 88.7408 16.1524C88.597 16.0082 88.4532 15.864 88.1655 15.5755C87.7341 15.2871 87.4464 14.9987 87.0149 14.7102C86.5834 14.4218 86.2958 14.1334 85.8643 13.7007C85.7205 13.5565 85.5767 13.4123 85.289 13.1238L85.0014 12.8354L84.7137 12.547C84.4261 12.2585 83.9946 11.9701 83.5631 11.6817C83.4193 11.5374 83.1316 11.3932 82.9878 11.249C82.844 11.1048 82.5563 10.9606 82.4125 10.9606C81.5495 10.5279 80.8304 9.95104 80.1113 9.51838C80.5427 9.22995 80.1113 8.94151 79.8236 8.65308C79.536 8.36464 79.1045 8.22043 78.673 7.93199C78.2415 7.64355 77.9539 7.49934 77.5224 7.35512C77.0909 7.2109 76.8033 6.92247 76.3718 6.77825C75.9403 6.63403 75.6526 6.3456 75.365 6.20138C75.0773 6.05716 74.7897 5.91294 74.3582 5.76872C71.194 4.32655 68.1737 3.31702 65.5848 2.59594C64.8657 2.45172 64.2904 2.3075 63.7151 2.16328C63.4274 2.01906 63.1398 2.01906 62.8521 2.01906C62.5644 2.01906 62.2768 1.87485 61.9891 1.87485C60.8385 1.58641 59.8317 1.44219 58.825 1.29798C56.9552 1.00954 55.517 0.865323 54.5102 0.865323C53.5034 0.576888 52.9281 0.576888 52.9281 0.43267C52.9281 0.43267 53.5034 0.288452 54.7978 0.288452C55.0855 0.288452 55.3731 0.288452 55.8046 0.288452C56.2361 0.288452 56.5237 0.288452 57.099 0.288452C57.5305 0.288452 57.962 0.288452 58.5373 0.43267C59.1126 0.43267 59.5441 0.576888 60.1194 0.576888C62.4206 0.865323 65.2971 1.29798 68.6052 2.3075C71.9132 3.31702 75.5088 4.7592 79.2483 6.92247C79.6798 7.2109 80.1113 7.35512 80.5427 7.64356C80.9742 7.93199 81.2619 8.07621 81.6934 8.36464C82.5563 8.7973 83.2754 9.37417 83.9946 9.95104C84.1384 10.0953 84.426 10.2395 84.5699 10.3837C84.7137 10.5279 85.0014 10.6721 85.1452 10.8163C85.5767 11.1048 85.8643 11.3932 86.2958 11.6817L86.5834 11.9701L86.8711 12.2585C87.0149 12.4027 87.3026 12.547 87.4464 12.6912C87.8779 12.9796 88.1655 13.4123 88.597 13.7007C90.3229 14.8544 91.6174 16.5851 93.0556 18.1714C93.1995 18.3157 93.3433 18.6041 93.6309 18.7483L93.9186 19.0368L94.2062 19.3252C94.4939 19.7578 94.9254 20.1905 95.213 20.6231C95.5007 21.0558 95.9322 21.4885 96.2198 21.9211C96.3636 22.2095 96.5075 22.3538 96.7951 22.6422C96.9389 22.9306 97.0828 23.0748 97.3704 23.3633C97.6581 23.7959 98.0896 24.2286 98.3772 24.8055L98.6649 25.2381C98.8087 25.3823 98.8087 25.5265 98.8087 25.6708C98.9525 25.9592 99.0963 26.2476 99.2402 26.3919C99.8155 27.4014 100.247 28.5551 100.966 29.5646C101.254 30.1415 101.398 30.7184 101.685 31.2953C101.829 31.5837 101.973 31.8721 101.973 32.1606C102.117 32.449 102.261 32.7374 102.261 33.0259C102.548 33.6027 102.692 34.1796 102.98 34.7565C103.267 35.3334 103.411 35.9102 103.699 36.4871C103.843 37.064 103.986 37.7851 104.13 38.3619C104.274 38.9388 104.562 39.6599 104.706 40.2368C104.849 40.8136 104.993 41.5347 105.137 42.1116C105.281 42.6885 105.425 43.4095 105.569 43.9864C105.569 44.2748 105.569 44.7075 105.569 44.9959C105.569 45.2844 105.569 45.717 105.712 46.0055C105.712 46.2939 105.712 46.7265 105.856 47.015C105.856 47.1592 105.856 47.3034 105.856 47.4476V47.8803C105.856 48.6014 106 49.1782 106.144 49.8993C106.144 50.6204 106.288 51.1973 106.288 51.9184C106.288 52.2068 106.288 52.6395 106.288 52.9279C106.288 53.2163 106.288 53.649 106.288 53.9374C106.288 54.6585 106.288 55.3796 106.144 55.9565C106.144 56.6776 106 57.3987 106 58.1197C105.856 58.8408 105.856 59.5619 105.712 60.283C105.281 63.0231 104.706 65.9075 103.843 68.7919C103.123 71.6762 101.973 74.4164 100.391 77.0123C99.0963 79.7524 97.3704 82.3483 95.5007 84.8C93.7748 87.3959 91.4735 89.5592 89.1723 91.7225C88.0217 92.8762 86.7273 93.7415 85.4328 94.751C84.8575 95.1837 84.1384 95.6163 83.4193 96.1932L82.844 96.6259L82.5563 96.7701L82.2687 96.9143C81.981 97.2027 81.5495 97.347 81.2619 97.6354C78.5292 99.366 75.5088 100.808 72.4885 102.106C69.4681 103.26 66.1601 104.269 62.8521 104.991C59.5441 105.279 56.2361 105.856 52.7843 106C49.3324 106.144 46.0244 105.712 42.7164 104.991C39.4084 104.414 36.2442 103.404 33.0801 102.106C29.9159 100.952 27.1832 99.2218 24.3066 97.6354C24.019 97.4912 23.5875 97.2028 23.2999 97.0585L23.0122 96.9143V96.7701L22.5807 96.4817C21.8616 96.049 21.2863 95.4721 20.711 95.0395C19.4166 94.03 18.2659 93.0204 17.1153 92.0109C14.6703 89.9919 12.5129 87.5402 10.787 85.0885C10.4993 84.8 10.3555 84.5116 10.0678 84.0789C9.78019 83.7905 9.63636 83.5021 9.49253 83.0694L9.20488 82.6368L8.91723 82.2041C8.7734 81.9157 8.48575 81.483 8.34192 81.1946C7.91045 80.6177 7.62279 79.8966 7.19131 79.1755C7.04749 78.8871 6.75983 78.5987 6.61601 78.166C6.47218 77.8776 6.18453 77.4449 6.0407 77.1565C5.89688 76.868 5.60922 76.4354 5.4654 76.147C5.32157 75.8585 5.17774 75.4259 4.89009 75.1374C4.74627 74.849 4.60244 74.4164 4.31479 74.1279L3.88331 73.551C3.73948 73.4068 3.73948 73.2626 3.59566 72.9742C3.308 72.2531 3.02035 71.532 2.7327 70.9551C2.58887 70.234 2.30122 69.5129 2.15739 68.7919C1.72591 67.3497 1.29443 66.0517 1.00678 64.6095C1.00678 64.3211 0.862955 63.8885 0.862955 63.6C0.862955 63.3116 0.719129 62.8789 0.719129 62.5905C0.719129 62.3021 0.575302 61.8694 0.575302 61.581L0.431476 61.0041L0.28765 60.4272C0.28765 59.7061 0.28765 58.9851 0.143823 58.264C0.143823 57.5429 -3.01003e-06 56.8218 -3.01003e-06 56.1007C-0.143829 55.3796 -0.143829 54.6585 -0.143829 54.0816C-0.143829 53.7932 -0.143829 53.3606 -0.143829 53.0721C-0.143829 52.7837 -0.143829 52.351 -0.143829 52.0626C-0.143829 51.3415 -0.143829 50.7646 -3.01003e-06 50.0436C-3.01003e-06 49.3225 0.143823 48.7456 0.143823 48.0245V47.5919C0.143823 47.4476 0.143823 47.3034 0.143823 47.1592C0.143823 46.8708 0.28765 46.4381 0.28765 46.1497C0.28765 45.8612 0.431476 45.4286 0.431476 45.1402C0.431476 44.8517 0.575302 44.4191 0.575302 44.1306C0.719129 43.4095 0.719129 42.8327 0.862955 42.1116C1.00678 41.5347 1.15061 40.8136 1.29443 40.2368C1.43826 39.6599 1.72591 38.9388 1.86974 38.3619C2.01357 37.7851 2.15739 37.064 2.44504 36.4871C2.58887 35.9102 2.7327 35.3334 3.02035 34.6123C3.308 34.0354 3.45183 33.4585 3.73948 32.8816C3.88331 32.5932 4.02713 32.3048 4.17096 32.0163C4.31479 31.7279 4.45861 31.4395 4.60244 31.151C4.89009 30.5742 5.03392 29.9973 5.32157 29.4204C6.0407 28.4109 6.47218 27.4014 7.19131 26.3919C7.33514 26.1034 7.47897 25.815 7.62279 25.6708L7.91045 25.2381L8.1981 24.8055C8.48575 24.3728 8.7734 23.7959 9.20488 23.3633C9.34871 23.0748 9.49253 22.7864 9.63636 22.6422C9.78019 22.3538 9.92401 22.2095 10.0678 21.9211C10.3555 21.4885 10.6431 21.0558 11.0746 20.6231C11.5061 20.1905 11.7938 19.7578 12.2252 19.3252L12.5129 19.0368V18.7483C12.6567 18.6041 12.9444 18.3157 13.0882 18.1714C14.5265 16.5851 15.8209 14.8544 17.5468 13.7007C17.8345 13.268 18.2659 12.9796 18.5536 12.547C18.6974 12.4027 18.9851 12.2585 19.1289 12.1143L19.4166 11.8259L19.5604 11.5374C19.9919 11.249 20.4233 10.9606 20.711 10.6721C20.8548 10.5279 21.1425 10.3837 21.2863 10.2395C21.5739 10.2395 21.8616 10.0953 22.0054 9.95104C22.8684 9.37417 23.5875 8.7973 24.3066 8.36464C24.7381 8.07621 25.0258 7.78777 25.4573 7.64356C25.8887 7.35512 26.1764 7.2109 26.6079 6.92247C26.8955 6.63403 27.327 6.3456 27.7585 6.20138C28.19 6.05716 28.4776 5.76872 28.9091 5.62451C29.3406 5.48029 29.6282 5.33607 30.0597 5.19185C30.4912 5.04764 30.7788 4.90342 31.2103 4.7592C31.9294 4.47077 32.6486 4.18233 33.3677 3.89389C33.6554 3.74968 34.0868 3.60546 34.3745 3.46124C34.6621 3.31702 35.0936 3.17281 35.3813 3.02859C36.1004 2.74015 36.6757 2.59594 37.3948 2.3075C38.114 2.16328 38.6893 2.01906 39.2646 1.87485C39.8399 1.73063 40.559 1.58641 41.1343 1.44219C41.422 1.44219 41.7096 1.29798 41.9973 1.29798C42.2849 1.29798 42.5726 1.15376 42.8602 1.15376C46.0244 0.576888 48.6133 0.43267 50.3392 0.43267C52.0651 0.43267 52.9281 0.43267 52.9281 0.43267Z" fill="#212529"/>
<path d="M52.9281 0.432644C52.9281 0.576862 52.3528 0.72108 51.2022 0.865298C51.0583 0.865298 50.7707 0.865298 50.6269 0.865298C50.483 0.865298 50.1954 1.00952 49.9077 1.00952C49.6201 0.865298 49.4763 1.29795 49.1886 1.15373C48.901 1.15373 48.6133 1.15373 48.3256 1.29795C48.038 1.44217 47.7503 1.29795 47.4627 1.44217C47.175 1.87482 46.7436 1.15373 46.4559 1.58639C46.3121 1.58639 46.1683 1.7306 46.0244 1.7306C45.8806 1.7306 45.7368 1.7306 45.4491 1.7306C45.3053 1.7306 45.3053 1.7306 45.1615 1.7306C45.0176 1.7306 45.0176 1.7306 45.0176 1.7306C44.8738 1.7306 44.8738 1.87482 44.8738 1.87482C44.73 1.7306 44.5862 1.7306 44.5862 1.7306C44.5862 1.87482 44.73 2.01904 44.8738 2.16326C44.5862 2.16326 44.5862 2.30747 44.5862 2.45169V2.59591C44.5862 2.59591 44.5862 2.74013 44.73 2.74013C44.73 2.88435 44.8738 2.88435 45.0176 3.02856C45.1615 3.46122 45.0176 3.89387 45.3053 4.32652C45.4491 4.75918 45.5929 5.19183 45.5929 5.62448C45.8806 6.05713 46.0244 6.48979 45.8806 6.92244C46.3121 7.35509 46.1682 7.78775 46.1682 8.36462C46.0244 8.79727 46.5997 9.22992 46.4559 9.8068C46.4559 10.0952 46.5997 10.2394 46.5997 10.5279C46.5997 10.6721 46.5997 10.5279 46.5997 10.6721C46.5997 10.6721 46.5997 10.6721 46.5997 10.8163V10.9605C46.5997 10.9605 46.5997 10.9605 46.5997 11.1048C46.5997 11.1048 46.7436 11.1048 46.8874 10.9605H47.0312C47.175 10.9605 47.3189 10.8163 47.4627 10.8163C47.7503 10.8163 48.038 10.8163 48.3256 10.8163C48.9009 10.3837 49.3324 10.5279 49.9077 10.6721C50.483 10.5279 51.0583 10.8163 51.6337 10.5279C52.209 10.5279 52.7843 10.3837 53.3596 10.5279C53.9349 10.6721 54.5102 10.8163 55.0855 10.5279C55.6608 10.3837 56.2361 10.6721 56.8114 10.6721C57.3867 10.9605 57.962 10.6721 58.3935 10.8163C58.6811 10.8163 58.9688 10.9605 59.2564 10.9605C59.4003 10.9605 59.5441 10.9605 59.6879 11.1048H59.8318H59.9756C59.9756 11.1048 59.9756 11.1048 60.1194 11.1048C59.9756 10.9605 59.9756 10.9605 59.9756 10.9605C60.1194 10.6721 60.2632 10.5279 60.2632 10.2394C60.5509 9.80679 60.4071 9.22992 60.5509 8.79727C60.5509 8.36462 60.9824 7.93196 60.8385 7.35509C60.9824 6.92244 60.8385 6.34557 61.1262 6.05713C60.9824 5.62448 61.4138 5.19183 61.4138 4.75918C61.4138 4.32652 61.5577 3.89387 61.7015 3.46122C61.8453 3.317 61.8453 3.317 61.8453 3.17278V3.02856C61.8453 3.02856 61.8453 3.02856 61.8453 2.88435C61.8453 2.74013 61.7015 2.74013 61.7015 2.59591C61.7015 2.45169 61.7015 2.45169 61.7015 2.45169C61.5577 2.45169 61.5577 2.45169 61.5577 2.30747L61.4138 2.16326H61.27C61.1262 2.16326 61.1262 2.16326 60.9824 2.16326C60.8385 2.16326 60.6947 2.01904 60.5509 1.87482C60.4071 1.7306 60.2632 1.7306 59.9756 2.01904C59.6879 2.01904 59.4003 1.58639 58.9688 1.87482C58.6811 2.16326 58.3935 1.7306 58.1058 1.7306C57.8182 1.7306 57.5305 1.7306 57.2429 1.58639C56.6676 1.44217 56.0923 1.44217 55.6608 1.29795C55.2293 1.29795 54.7978 1.15373 54.5102 1.15373C53.3596 0.72108 52.9281 0.576862 52.9281 0.432644C52.9281 0.288427 53.3596 0.288427 54.0787 0.144209C54.2225 0.144209 54.5102 0.144209 54.7978 0.144209C55.0855 0.144209 55.3731 0.144209 55.517 0.144209C56.0923 0.144209 56.8114 0.144209 57.5305 0.144209C57.8182 0.144209 58.1058 -8.62777e-06 58.3935 0.144209C58.6811 0.144209 59.1126 -8.62777e-06 59.4003 0.144209C59.6879 -8.62777e-06 59.8318 -8.62777e-06 59.9756 0.144209C60.1194 0.144209 60.2632 0.288427 60.5509 0.288427C60.6947 0.288427 60.6947 0.288427 60.8385 0.288427H60.9824H61.1262H61.27C61.5577 0.288427 61.8453 0.432644 62.133 0.432644C62.5645 0.432644 62.8521 0.432644 63.1398 0.576862C62.9959 0.865298 62.9959 1.29795 62.9959 1.58639C62.8521 2.01904 62.7083 2.30747 62.7083 2.59591V2.74013V2.88435C62.7083 3.02856 62.7083 3.02856 62.7083 3.17278C62.4206 3.60543 62.5645 4.03809 62.5645 4.47074C62.133 4.90339 62.2768 5.33605 62.4206 5.7687C62.4206 6.20135 62.2768 6.63401 62.2768 7.06666C62.133 7.49931 62.2768 8.07618 62.133 8.50884C62.2768 8.94149 62.133 9.51836 61.9891 9.95101C61.9891 10.2394 61.9891 10.3837 61.9891 10.6721C61.9891 10.8163 61.8453 11.1048 61.8453 11.249C61.8453 11.5374 61.7015 11.6816 61.7015 11.9701C61.7015 12.2585 61.7015 12.5469 61.7015 12.6911V12.8354V12.9796H61.27C60.8385 12.8354 60.2632 12.8354 59.8318 12.6911C59.6879 12.6911 59.5441 12.6911 59.5441 12.6911C59.4003 12.6911 59.4003 12.6911 59.4003 12.6911H59.2564C59.1126 12.6911 58.9688 12.5469 58.825 12.5469C58.5373 12.4027 58.2497 12.4027 58.1058 12.5469C57.5305 12.5469 57.0991 12.4027 56.5237 12.4027C55.9484 12.2585 55.517 12.2585 54.9417 12.2585C54.3664 11.9701 53.791 12.1143 53.3596 12.2585C52.7843 12.4027 52.209 12.4027 51.7775 12.2585C51.2022 12.2585 50.7707 12.4027 50.1954 12.4027C49.6201 12.5469 49.1886 12.4027 48.6133 12.5469C48.3256 12.6911 48.038 12.6911 47.8942 12.6911C47.7503 12.6911 47.6065 12.6911 47.4627 12.6911C47.4627 12.6911 47.4627 12.6911 47.3189 12.6911H47.175C47.0312 12.6911 46.8874 12.6911 46.8874 12.8354C46.4559 12.9796 45.8806 13.1238 45.4491 13.1238C45.3053 13.1238 45.1615 13.1238 45.0176 13.1238V12.9796H44.5862C44.5862 12.6911 44.5862 12.4027 44.5862 12.2585C44.5862 11.9701 44.5862 11.8258 44.5862 11.5374V11.249C44.5862 11.1048 44.5862 10.9605 44.5862 10.9605C44.5862 10.6721 44.5862 10.5279 44.4423 10.2394C44.2985 9.80679 43.867 9.37414 44.2985 8.79727C44.1547 8.36462 44.4423 7.78775 44.1547 7.35509C44.4423 6.77822 44.0109 6.48979 44.0109 6.05713C44.0109 5.62448 44.0109 5.19183 43.867 4.75918C43.5794 4.32652 43.867 3.89387 43.7232 3.46122C43.2917 3.17278 43.1479 3.02856 43.1479 2.88435V2.74013V2.59591C43.1479 2.30747 43.1479 2.01904 43.0041 1.58639C43.0041 1.29795 42.8602 1.00952 42.8602 0.576862C43.1479 0.576862 43.4356 0.432644 43.867 0.432644C44.0109 0.144209 44.4423 0.144209 44.73 0.144209H44.8738H45.0176C45.1615 0.144209 45.1615 0.144209 45.3053 0.144209C45.4491 0.144209 45.5929 -8.61287e-06 45.8806 -8.61287e-06C46.0244 -8.61287e-06 46.1683 -0.144226 46.4559 -8.61287e-06C46.7436 -0.432662 47.175 -0.144226 47.4627 -8.61287e-06C47.7503 -8.61287e-06 48.038 -0.288444 48.3256 -8.61287e-06C48.6133 -0.288444 48.901 0.144209 49.1886 -8.61287e-06C49.4763 0.144209 49.7639 -8.61287e-06 49.9077 -8.61287e-06C50.1954 -8.61287e-06 50.3392 -8.61287e-06 50.6269 -8.61287e-06C50.7707 -8.61287e-06 51.0583 -8.61287e-06 51.2022 -8.61287e-06C52.3528 0.288427 52.9281 0.432644 52.9281 0.432644Z" fill="#212529"/>
<path d="M82.844 9.95105C82.9878 10.0953 82.7001 10.5279 82.1248 11.5374C81.981 11.6817 81.981 11.8259 81.8372 12.1143C81.6933 12.2585 81.6933 12.547 81.5495 12.6912C81.2619 12.8354 81.5495 13.2681 81.118 13.2681C80.8304 13.4123 80.8304 13.7007 80.6866 13.9891C80.5427 14.2776 80.2551 14.4218 80.2551 14.7102C80.3989 15.1429 79.536 14.9987 79.6798 15.5755C79.536 15.864 79.3921 16.1524 79.1045 16.4408C78.673 16.5851 78.673 17.0177 78.5292 17.3062C78.2415 17.3062 78.0977 17.4504 78.0977 17.5946C78.0977 17.7388 77.9539 17.7388 77.9539 17.883V18.0272C77.9539 18.0272 77.9539 18.0272 77.9539 18.1715C77.5224 18.1715 77.3786 18.4599 77.5224 18.4599C77.6662 18.4599 77.6662 18.4599 77.81 18.4599L77.9539 18.6041C77.9539 18.6041 77.9539 18.6041 78.0977 18.6041H78.2415H78.3853C78.8168 18.8925 79.1045 19.0368 79.536 19.4694C80.1113 19.4694 80.3989 19.9021 80.6866 20.3347C81.2619 20.4789 81.5495 20.7674 81.8372 21.3443C82.1248 21.7769 82.7001 21.7769 82.9878 22.3538C83.1316 22.498 83.1316 22.498 83.2754 22.6422L83.5631 22.9306C83.7069 23.0749 83.9946 23.2191 84.1384 23.5075C84.2822 23.7959 84.426 23.9402 84.5699 24.2286C84.7137 24.3728 85.0014 24.6613 85.1452 24.6613C85.5767 24.9497 86.0081 25.3823 86.152 25.9592C86.7273 26.2477 87.0149 26.6803 87.1587 27.2572C87.3026 27.4014 87.3026 27.5456 87.4464 27.5456C87.4464 27.5456 87.4464 27.5456 87.4464 27.6898C87.4464 27.6898 87.4464 27.834 87.5902 27.6898C87.5902 27.6898 87.5902 27.6898 87.7341 27.5456C87.8779 27.5456 88.0217 27.4014 88.1655 27.4014C88.7408 27.113 89.1723 26.9687 89.46 26.3919C89.7476 25.9592 90.4668 25.815 90.7544 25.3823C91.3297 25.2381 91.6174 24.6613 92.0488 24.3728C92.4803 24.0844 93.0556 23.9402 93.3433 23.5075C93.4871 23.3633 93.7748 23.2191 93.9186 22.9306C94.0624 22.7864 94.0624 22.7864 94.2062 22.6422H94.3501C94.2062 22.498 94.2062 22.498 94.2062 22.498H94.3501C94.4939 22.498 94.3501 22.3538 94.3501 22.3538C94.2062 22.2096 94.0624 22.0653 93.9186 21.7769C93.6309 21.7769 93.6309 21.6327 93.4871 21.6327C93.4871 21.4885 93.3433 21.4885 93.3433 21.3443C93.1995 21.2 93.0556 20.9116 92.9118 20.7674C92.6241 20.3347 92.1927 20.1905 92.0488 19.7579C91.6174 19.6136 91.6174 19.0368 91.1859 18.7483C90.8982 18.4599 90.6106 18.1715 90.3229 17.7388C90.3229 17.1619 89.7476 17.1619 89.46 16.8735C89.3161 16.7293 89.1723 16.5851 89.0285 16.4408C88.8847 16.2966 88.7408 16.1524 88.7408 16.0082C88.4532 15.7198 88.3094 15.4313 88.0217 15.2871C87.7341 15.1429 87.8779 14.4218 87.3026 14.566C87.0149 14.4218 87.0149 13.8449 86.5834 13.8449C86.152 13.8449 86.152 13.4123 86.0081 13.2681C85.8643 13.1238 85.5767 12.8354 85.4328 12.6912C85.0014 12.2585 84.5699 11.9701 84.2822 11.5374C83.9946 11.249 83.7069 10.9606 83.4193 10.6721C82.9878 10.2395 82.844 10.0953 82.844 9.95105C82.9878 9.80684 83.2754 9.95105 83.9946 10.3837C84.1384 10.5279 84.426 10.5279 84.5699 10.6721C84.7137 10.8164 85.0014 10.9606 85.289 11.1048C85.7205 11.5374 86.2958 11.8259 86.8711 12.2585C87.1587 12.4028 87.4464 12.4028 87.5902 12.8354C87.8779 12.9796 88.1655 13.1238 88.3094 13.4123C88.7408 13.4123 88.8847 13.8449 89.1723 14.1334C89.46 14.4218 89.6038 14.7102 90.0353 14.8545C90.1791 14.8545 90.3229 14.9987 90.4668 15.2871C90.6106 15.4313 90.7544 15.5755 90.8982 15.7198C91.0421 16.1524 91.3297 16.4408 91.7612 16.5851C91.905 17.0177 92.3365 17.1619 92.6241 17.5946C92.6241 18.1715 93.1995 18.3157 93.4871 18.6041C93.9186 18.8925 94.0624 19.3252 94.3501 19.6136C94.4939 19.7579 94.6377 20.0463 94.7815 20.1905C94.9254 20.3347 94.9254 20.3347 95.0692 20.4789C95.213 20.6232 95.213 20.6232 95.213 20.7674C95.3568 20.9116 95.6445 21.0558 95.7883 21.3443C96.076 21.7769 96.3636 22.0653 96.5075 22.498C96.6513 22.7864 96.9389 22.9306 97.0828 23.2191C96.5075 23.6517 96.076 23.9402 95.5007 24.3728C95.3568 24.517 95.3568 24.517 95.213 24.6613V24.517H95.0692C94.9254 24.6613 94.9254 24.6613 94.7815 24.8055C94.4939 24.9497 94.3501 25.0939 94.2062 25.2381C93.7748 25.5266 93.1995 25.5266 92.9118 26.2477C92.4803 26.5361 92.0488 26.8245 91.6174 27.2572C91.1859 27.5456 90.7544 27.834 90.3229 28.2667C89.6038 28.2667 89.3161 28.8436 89.0285 29.2762C88.8847 29.4204 88.8847 29.4204 88.7408 29.5647C88.597 29.7089 88.3094 29.8531 88.1655 29.9973C87.8779 30.1415 87.7341 30.2857 87.5902 30.43L87.3026 30.5742L87.1587 30.7184H87.0149C86.7273 30.2857 86.4396 29.8531 86.152 29.4204C86.0081 29.2762 85.8643 28.9878 85.7205 28.8436L85.4328 28.5551C85.0014 28.1225 84.8575 27.6898 84.426 27.2572C83.9946 26.9687 83.8507 26.3919 83.4193 26.1034C83.2754 25.9592 82.9878 25.815 82.844 25.5266C82.7001 25.3823 82.5563 25.0939 82.4125 24.9497C82.2687 24.8055 82.1248 24.517 81.981 24.3728C81.981 24.2286 81.8372 24.2286 81.6933 24.0844C81.5495 23.9402 81.5495 23.9402 81.4057 23.9402C80.9742 23.6517 80.3989 23.6517 80.3989 22.9306C79.9674 22.6422 79.8236 22.2096 79.3921 22.0653C79.2483 21.4885 78.673 21.4885 78.3853 21.2C78.0977 20.9116 77.81 20.4789 77.3786 20.3347H77.2347C77.2347 20.3347 77.0909 20.3347 77.0909 20.1905C76.9471 20.0463 76.8033 19.9021 76.6594 19.9021C76.3718 19.6136 76.2279 19.4694 75.7965 19.181C75.6526 19.181 75.5088 19.0368 75.365 18.8926C75.5088 18.6041 75.7965 18.4599 75.9403 18.1715C76.0841 17.883 76.3718 17.7388 76.3718 17.4504L76.5156 17.3062L76.6594 17.1619C76.6594 17.0177 76.8033 17.0177 76.8033 16.8735C76.9471 16.7293 77.0909 16.5851 77.2347 16.4408C76.9471 15.864 77.6662 15.864 77.81 15.5755C78.0977 15.2871 77.9539 14.8545 78.3853 14.7102C78.2415 14.2776 78.673 14.1334 78.9606 13.9891C79.2483 13.8449 79.2483 13.4123 79.536 13.2681C79.536 12.8354 79.9674 12.8354 80.1113 12.6912C80.5427 12.547 80.5427 12.2585 80.6866 12.1143C80.8304 11.8259 80.9742 11.6817 81.118 11.5374C81.2619 11.3932 81.4057 11.249 81.5495 11.1048C82.2687 10.2395 82.7001 9.80684 82.844 9.95105Z" fill="#212529"/>
<path d="M104.274 43.698C104.274 43.8422 103.699 43.9864 102.692 44.2749C102.548 44.2749 102.261 44.4191 102.117 44.4191C101.973 44.4191 101.685 44.5633 101.398 44.5633C101.11 44.4191 100.966 44.996 100.678 44.7075C100.391 44.7075 100.103 44.8518 99.8155 44.8518C99.5278 44.996 99.2402 44.8518 98.9525 44.996C98.6649 45.4286 98.2334 44.7075 97.9457 45.1402C97.6581 45.2844 97.2266 45.2844 96.9389 45.2844C96.5075 45.1402 96.2198 45.4286 95.9322 45.4286C95.7883 45.2844 95.5007 45.2844 95.3569 45.2844C95.213 45.2844 95.213 45.2844 95.0692 45.4286C95.0692 45.4286 95.0692 45.4286 94.9254 45.5728C94.9254 45.5728 94.9254 45.5728 94.9254 45.7171C94.6377 45.4286 94.3501 45.4286 94.3501 45.7171C94.3501 45.8613 94.4939 45.8613 94.6377 46.0055V46.1497V46.2939C94.6377 46.2939 94.6377 46.2939 94.6377 46.4381C94.6377 46.4381 94.6377 46.5824 94.7816 46.5824C94.7816 46.7266 94.7816 46.8708 94.9254 46.8708C94.9254 47.015 94.9254 47.1592 94.9254 47.1592C94.9254 47.4477 94.9254 47.5919 94.9254 47.8803C95.213 48.313 95.3569 48.7456 95.0692 49.3225C95.3569 49.7552 95.3569 50.332 95.213 50.7647C95.0692 51.1973 95.5007 51.7742 95.213 52.2069C95.213 52.7837 95.213 53.2164 95.213 53.7932C95.213 54.0817 95.0692 54.3701 95.0692 54.5143C95.0692 54.8028 95.0692 55.0912 95.213 55.3796C95.213 55.9565 95.3569 56.5334 95.0692 56.966C95.3569 57.5429 95.0692 58.1198 94.9254 58.5524C94.9254 58.6966 94.9254 58.8409 94.9254 58.9851C94.9254 58.9851 94.9254 58.9851 94.9254 59.1293V59.2735H95.0692C95.213 59.2735 95.3569 59.2735 95.5007 59.4177C96.076 59.562 96.5075 59.8504 97.0828 59.7062C97.6581 59.562 98.0896 59.9946 98.6649 59.9946C99.0963 60.4273 99.8155 59.9946 100.247 60.283C100.822 60.283 101.254 60.5715 101.829 60.5715C102.117 60.5715 102.404 60.5715 102.548 60.5715C102.692 60.5715 102.836 60.5715 102.98 60.7157H103.123C103.123 60.5715 103.123 60.5715 103.123 60.5715C103.123 60.5715 103.123 60.7157 103.267 60.7157C103.411 60.7157 103.411 60.7157 103.411 60.5715V60.4273V60.283C103.411 60.1388 103.411 59.9946 103.411 59.9946C103.411 59.8504 103.411 59.7062 103.411 59.7062C103.411 59.562 103.411 59.4177 103.555 59.4177C103.555 59.1293 103.699 58.9851 103.555 58.6966C103.699 58.264 103.555 57.8313 103.699 57.3987C103.555 56.966 103.986 56.5334 103.843 56.1007C103.843 55.6681 103.843 55.2354 103.986 54.8028C104.418 54.3701 104.13 53.9375 103.986 53.649C103.986 53.2164 103.843 52.9279 103.986 52.4953C103.986 52.0626 104.13 51.7742 103.986 51.3415C103.986 51.0531 104.562 50.6205 103.986 50.332C103.843 50.0436 104.274 49.6109 103.986 49.3225C103.699 49.0341 103.986 48.7456 103.986 48.4572C103.986 48.1688 103.986 47.8803 103.986 47.5919C103.986 47.015 103.986 46.4381 103.986 46.0055C103.986 45.5728 103.986 45.1402 103.986 44.8518C104.13 44.1307 104.13 43.698 104.274 43.698C104.418 43.698 104.562 44.1307 104.849 44.8518C104.849 44.996 104.993 45.2844 104.993 45.4286C104.993 45.5728 104.993 45.7171 105.137 45.8613C105.137 46.0055 105.137 46.1497 105.281 46.2939C105.425 46.8708 105.569 47.4477 105.569 48.1688C105.569 48.4572 105.856 48.7456 105.712 49.0341C105.712 49.3225 106 49.6109 105.856 50.0436C106.288 50.332 106 50.7647 106 51.0531C106 51.4858 105.856 51.7742 106 52.2069C106.144 52.6395 105.856 52.9279 106 53.3606C105.712 53.7932 105.856 54.2259 106 54.6586C105.856 55.0912 106 55.5239 106 55.9565C105.712 56.3892 105.856 56.8218 106 57.2545C106.144 57.6871 105.856 58.1198 105.856 58.6966C105.856 58.9851 105.856 59.1293 105.856 59.4177C105.856 59.562 105.856 59.7062 105.856 59.8504C105.856 59.9946 105.856 60.1388 105.856 60.283C105.856 60.4273 105.856 60.5715 105.856 60.7157V60.8599V61.0041C105.856 61.0041 105.856 61.0041 105.856 61.1483C105.856 61.581 105.712 62.0137 105.569 62.4463C105.569 62.7347 105.569 63.0232 105.425 63.3116C104.849 63.1674 104.13 63.0232 103.555 63.0232C103.411 63.0232 103.267 63.0232 103.267 63.0232C103.123 63.0232 103.123 63.0232 103.123 63.0232C102.98 63.0232 102.836 63.0232 102.692 63.0232C102.404 63.0232 102.117 62.879 101.973 62.879C101.398 62.879 100.966 62.4463 100.391 62.5905C99.8155 62.5905 99.384 62.3021 98.8087 62.3021C98.2334 62.1579 97.8019 62.0137 97.2266 62.0137C96.7951 61.581 96.2198 61.7252 95.6445 61.7252C95.5007 61.7252 95.3569 61.7252 95.213 61.7252C94.9254 61.7252 94.6377 61.7252 94.3501 61.581C94.0624 61.581 93.7748 61.4368 93.6309 61.4368L93.1995 61.2926H93.0556H92.9118C92.9118 60.8599 93.0556 60.283 93.1995 59.7062C93.1995 59.4177 93.3433 59.1293 93.3433 58.9851L93.4871 58.5524C93.4871 57.9756 93.7748 57.5429 93.6309 56.966C93.4871 56.3892 93.9186 55.9565 93.7748 55.3796C93.7748 55.0912 93.7748 54.8028 93.7748 54.6586C93.7748 54.3701 93.7748 54.2259 93.9186 53.9375C93.9186 53.649 94.0624 53.5048 94.0624 53.2164C94.0624 52.9279 94.0624 52.7837 93.9186 52.4953C93.7748 52.0626 93.4871 51.4858 93.9186 51.0531C93.7748 50.6205 94.0624 50.0436 93.9186 49.6109C94.2063 49.1783 93.9186 48.7456 93.7748 48.313C93.7748 48.0245 93.7748 47.8803 93.7748 47.5919C93.7748 47.4477 93.7748 47.4477 93.7748 47.3034C93.7748 47.1592 93.7748 47.1592 93.6309 47.015V46.8708C93.6309 46.8708 93.6309 46.8708 93.6309 46.7266V46.5824C93.6309 46.4381 93.6309 46.1497 93.6309 46.0055C93.6309 45.5728 93.6309 45.2844 93.4871 44.996C93.4871 44.8518 93.3433 44.7075 93.3433 44.5633C93.6309 44.5633 94.0624 44.5633 94.3501 44.5633C94.6377 44.5633 94.9254 44.5633 95.213 44.4191C95.3569 44.4191 95.3569 44.4191 95.5007 44.4191H95.6445C95.7883 44.4191 95.7883 44.4191 95.9322 44.4191C96.076 44.4191 96.3636 44.4191 96.5075 44.4191C96.7951 43.8422 97.2266 44.2749 97.6581 44.2749C98.0896 44.2749 98.2334 43.8422 98.6649 44.1307C98.9525 43.698 99.2402 43.9864 99.6717 43.9864C99.9593 43.9864 100.247 43.698 100.535 43.8422C100.822 43.5538 101.11 43.8422 101.398 43.698C101.685 43.8422 101.973 43.698 102.117 43.698C102.404 43.5538 102.548 43.5538 102.836 43.698C102.98 43.698 103.267 43.698 103.411 43.698C103.555 43.5538 104.274 43.5538 104.274 43.698Z" fill="#212529"/>
<path d="M95.6445 82.6368C95.5007 82.781 95.0692 82.4926 94.0624 81.9157C93.9186 81.7715 93.7748 81.7715 93.4871 81.6272C93.3433 81.483 93.0556 81.483 92.9118 81.3388C92.768 81.0504 92.3365 81.3388 92.3365 80.9062C92.1927 80.6177 91.905 80.6177 91.6174 80.4735C91.3297 80.3293 91.1859 80.0409 90.8982 80.0409C90.4668 80.1851 90.6106 79.3198 90.0353 79.464C89.7476 79.3198 89.46 79.1755 89.1723 78.8871C89.0285 78.4545 88.597 78.4545 88.3094 78.3102C88.3094 78.0218 88.1655 77.8776 88.0217 77.8776C87.8779 77.8776 87.8779 77.7334 87.7341 77.7334C87.7341 77.7334 87.7341 77.7334 87.5902 77.7334C87.5902 77.7334 87.5902 77.7334 87.4464 77.7334C87.4464 77.3007 87.1587 77.1565 87.1587 77.3007C87.1587 77.4449 87.1587 77.4449 87.1587 77.5892L87.0149 77.7334C87.0149 77.7334 87.0149 77.7334 87.0149 77.8776C87.0149 77.8776 87.0149 77.8776 87.0149 78.0218V78.166C86.7273 78.5987 86.5834 78.8871 86.152 79.3198C86.152 79.8966 85.7205 80.1851 85.289 80.4735C85.1452 81.0504 84.8575 81.3388 84.2822 81.6272C83.8507 81.9157 83.8507 82.4926 83.2754 82.781C82.9878 83.0694 82.5563 83.5021 82.1248 83.9347C81.8372 84.079 81.6933 84.2232 81.4057 84.3674C81.2619 84.5116 80.9742 84.6558 80.9742 84.9443C80.6866 85.3769 80.2551 85.8096 79.6798 85.9538C79.3921 86.5306 78.9606 86.8191 78.3853 86.9633C78.2415 87.1075 78.0977 87.1075 78.0977 87.2517C78.0977 87.2517 78.0977 87.2517 77.9539 87.2517C77.9539 87.2517 77.81 87.2517 77.9539 87.396C77.9539 87.396 77.9539 87.396 78.0977 87.5402C78.0977 87.6844 78.2415 87.8286 78.2415 87.8286C78.5292 88.4055 78.673 88.8381 79.2483 89.1266C79.6798 89.415 79.8236 90.1361 80.2551 90.4245C80.3989 91.0014 80.9742 91.2898 81.2619 91.7225C81.5495 92.1551 81.6933 92.732 82.1248 93.0204C82.2687 93.1647 82.4125 93.4531 82.7001 93.5973C82.844 93.7415 82.844 93.7415 82.9878 93.8857C82.9878 93.8857 82.9878 94.03 83.1316 94.03C83.2754 93.8857 83.2754 93.8857 83.2754 93.8857C83.2754 93.8857 83.2754 94.03 83.2754 94.1742C83.2754 94.3184 83.4193 94.1742 83.4193 94.1742L83.5631 94.03C83.7069 93.8857 83.7069 93.8857 83.8507 93.8857C83.9946 93.7415 83.9946 93.7415 84.1384 93.7415C84.2822 93.7415 84.2822 93.5973 84.426 93.5973C84.5699 93.4531 84.8575 93.3089 85.0014 93.1647C85.4328 92.8762 85.5767 92.4436 86.0081 92.2994C86.152 91.8667 86.7273 91.8667 87.0149 91.4341C87.3026 91.1456 87.5902 90.8572 88.0217 90.5687C88.597 90.5687 88.597 89.9919 88.8847 89.7034C89.0285 89.5592 89.1723 89.415 89.3161 89.2708C89.46 89.1266 89.6038 88.9824 89.7476 88.9824C90.0353 88.6939 90.3229 88.5497 90.4668 88.2613C90.6106 87.9728 91.3297 88.117 91.1859 87.5402C91.3297 87.2517 91.905 87.2517 91.905 86.8191C91.905 86.3864 92.3365 86.3864 92.4803 86.2422C92.6242 86.098 92.9118 85.8096 93.0556 85.6653C93.4871 85.2327 93.7748 84.8 94.0624 84.5116C94.3501 84.2232 94.6377 83.9347 94.9254 83.6463C95.213 82.9252 95.5007 82.6368 95.6445 82.6368C95.7883 82.781 95.6445 83.0694 95.213 83.7905C95.0692 83.9347 95.0692 84.2232 94.9254 84.3674C94.7815 84.5116 94.6377 84.8 94.4939 85.0885C94.2062 85.5211 93.7748 86.098 93.3433 86.6749C93.1995 86.9633 93.1995 87.2517 92.768 87.396C92.6241 87.6844 92.4803 87.9728 92.1927 88.117C92.1927 88.5497 91.7612 88.6939 91.4735 88.9824C91.1859 89.2708 90.8982 89.415 90.7544 89.8477C90.7544 89.9919 90.6106 90.1361 90.3229 90.2803C90.1791 90.4245 90.0353 90.5687 89.8914 90.713C89.46 90.8572 89.1723 91.1456 89.0285 91.5783C88.597 91.7225 88.4532 92.1551 88.0217 92.4436C87.4464 92.4436 87.3026 93.0204 87.0149 93.3089C86.7273 93.7415 86.2958 93.8858 86.0081 94.1742C85.8643 94.3184 85.5767 94.4626 85.4328 94.6068C85.289 94.7511 85.289 94.7511 85.1452 94.8953C85.1452 95.0395 85.0014 95.1837 84.8575 95.1837C84.7137 95.3279 84.7137 95.3279 84.5699 95.4721L84.426 95.6164C84.426 95.6164 84.426 95.6164 84.2822 95.7606C83.8507 96.049 83.5631 96.3375 83.1316 96.4817C82.844 96.6259 82.7001 96.9143 82.4125 97.0585C81.981 96.4817 81.6933 96.049 81.2619 95.4721C81.118 95.3279 81.118 95.3279 80.9742 95.1837L80.8304 95.0395C80.6866 94.8953 80.6866 94.8953 80.5427 94.7511C80.3989 94.4626 80.2551 94.3184 80.1113 94.1742C79.6798 93.7415 79.8236 93.1647 79.1045 92.8762C78.8168 92.4436 78.5292 92.0109 78.0977 91.5783C77.81 91.1456 77.5224 90.713 77.0909 90.2803C77.0909 89.7034 76.5156 89.2708 76.0841 88.9824C75.9403 88.8381 75.9403 88.8381 75.7965 88.6939C75.6526 88.5497 75.5088 88.2613 75.365 88.117C75.0773 87.6844 74.7897 87.2517 74.502 86.8191C74.9335 86.5307 75.365 86.2422 75.7965 85.9538C75.9403 85.8096 76.2279 85.6653 76.3718 85.5211L76.6594 85.2327C77.0909 84.8 77.5224 84.6558 77.9539 84.2232C78.2415 83.7905 78.8168 83.6463 79.1045 83.2136C79.2483 83.0694 79.3921 82.781 79.6798 82.6368C79.8236 82.4926 80.1113 82.3483 80.2551 82.2041C80.5427 81.9157 81.2619 81.7715 81.2619 81.1946C81.5495 80.7619 81.5495 80.1851 82.2687 80.1851C82.5563 79.7524 82.9878 79.6082 83.1316 79.1756C83.7069 79.0313 83.7069 78.4545 83.9946 78.166C84.2822 77.8776 84.7137 77.5892 84.8575 77.1565V77.0123L85.0014 76.8681C85.1452 76.7238 85.289 76.5796 85.289 76.4354C85.5767 76.147 85.7205 76.0028 86.0081 75.5701C86.0081 75.4259 86.152 75.2817 86.152 75.1375C86.4396 75.2817 86.5834 75.5701 86.8711 75.8585C87.1587 76.147 87.3026 76.2912 87.5902 76.2912L87.7341 76.4354L87.8779 76.5796C88.0217 76.5796 88.0217 76.7238 88.1655 76.7238C88.3094 76.8681 88.4532 77.0123 88.597 77.1565C89.1723 77.0123 89.1723 77.5892 89.46 77.8776C89.7476 78.166 90.1791 78.0218 90.3229 78.4545C90.7544 78.3102 90.8982 78.7429 91.0421 79.0313C91.1859 79.3198 91.6174 79.3198 91.7612 79.6082C92.1927 79.6082 92.1927 80.0409 92.3365 80.1851C92.4803 80.4735 92.768 80.4735 92.9118 80.6177C93.1995 80.7619 93.3433 80.9062 93.4871 81.0504C93.6309 81.1946 93.7748 81.3388 93.9186 81.483C95.213 82.0599 95.6445 82.6368 95.6445 82.6368Z" fill="#212529"/>
<path d="M61.9892 104.125C61.8453 104.125 61.7015 103.548 61.4139 102.539C61.4139 102.395 61.27 102.106 61.27 101.962C61.27 101.818 61.1262 101.529 61.1262 101.241C61.27 100.952 60.6947 100.808 60.9824 100.52C60.9824 100.231 60.8385 99.9429 60.8385 99.6544C60.6947 99.366 60.8385 99.0776 60.6947 98.7891C60.2632 98.5007 60.9824 98.068 60.5509 97.7796C60.4071 97.4912 60.4071 97.0585 60.4071 96.7701C60.5509 96.3374 60.2632 96.049 60.2632 95.6163C60.4071 95.4721 60.4071 95.1837 60.4071 95.0395C60.4071 94.8953 60.4071 94.8953 60.2632 94.751C60.2632 94.751 60.2632 94.751 60.1194 94.751C60.2632 94.6068 60.4071 94.4626 60.4071 94.3184C60.4071 94.3184 60.4071 94.1742 60.2632 94.1742C60.2632 94.1742 60.1194 94.3184 59.9756 94.4626H59.8318H59.6879H59.5441C59.5441 94.4626 59.4003 94.4626 59.4003 94.6068C58.9688 94.751 58.5373 94.8953 58.1058 94.751C57.6744 95.0395 57.2429 95.1837 56.6676 94.8953C56.2361 95.1837 55.6608 95.1837 55.2293 95.0395C54.7978 94.8953 54.2225 95.3279 53.7911 95.0395C53.6472 95.0395 53.5034 95.0395 53.3596 95.0395C53.2157 95.0395 53.0719 95.0395 52.9281 95.0395C52.6404 95.0395 52.3528 95.0395 52.209 95.0395C51.9213 95.0395 51.6337 94.8953 51.4898 94.8953C51.2022 94.8953 50.9145 94.8953 50.6269 95.0395C50.0516 95.0395 49.4763 95.1837 49.0448 94.8953C48.4695 95.1837 47.8942 94.8953 47.4627 94.751C47.3189 94.751 47.175 94.751 47.0312 94.751C47.0312 94.751 47.0312 94.751 46.8874 94.751H46.7436V94.8953C46.7436 95.0395 46.7436 95.1837 46.5997 95.3279C46.4559 95.9048 46.1683 96.3374 46.3121 96.9143C46.4559 97.4912 46.0244 97.9238 46.0244 98.5007C45.593 98.9334 46.0244 99.6544 45.7368 100.087C45.7368 100.664 45.4491 101.097 45.4491 101.673C45.4491 101.962 45.4491 102.25 45.4491 102.395C45.4491 102.539 45.4491 102.683 45.4491 102.827V102.971C45.593 102.971 45.593 102.971 45.593 102.971C45.593 102.971 45.4491 102.971 45.4491 103.116C45.4491 103.26 45.4491 103.26 45.593 103.26H45.7368H45.8806C46.0244 103.26 46.1683 103.26 46.1683 103.26C46.4559 103.26 46.5997 103.404 46.8874 103.404C47.175 103.404 47.3189 103.548 47.6065 103.404C48.038 103.548 48.4695 103.404 48.901 103.548C49.3324 103.404 49.7639 103.837 50.1954 103.693C50.6269 103.693 51.0584 103.693 51.4898 103.837C51.9213 104.269 52.3528 103.981 52.6404 103.837C52.7843 103.837 53.0719 103.837 53.2157 103.837C53.3596 103.837 53.6472 103.837 53.7911 103.981C54.2225 103.981 54.5102 104.125 54.9417 103.981C55.2293 103.981 55.6608 104.558 55.9485 103.981C56.2361 103.837 56.6676 104.269 56.9552 103.981C57.2429 103.693 57.5305 103.981 57.8182 103.981C58.1058 103.981 58.3935 103.981 58.6811 103.981C59.2565 103.981 59.8318 103.981 60.2632 103.981C60.6947 103.981 61.1262 103.981 61.4139 103.981C61.7015 103.981 61.9892 103.981 61.9892 104.125C61.9892 104.269 61.5577 104.414 60.8385 104.702C60.6947 104.702 60.4071 104.846 60.2632 104.846C60.1194 104.846 59.9756 104.846 59.8318 104.99C59.6879 104.99 59.5441 104.99 59.4003 105.135C58.9688 105.135 58.2497 105.135 57.5305 105.279C57.2429 105.279 56.9552 105.567 56.6676 105.423C56.3799 105.423 56.0923 105.712 55.6608 105.567C55.3731 106 54.9417 105.712 54.654 105.712C54.2225 105.712 53.9349 105.567 53.5034 105.712C53.3596 105.856 53.0719 105.856 52.9281 105.712C52.7843 105.712 52.4966 105.567 52.3528 105.712C51.9213 105.423 51.4898 105.567 51.0584 105.712C50.6269 105.567 50.1954 105.712 49.7639 105.712C49.3324 105.423 48.901 105.567 48.4695 105.712C48.038 105.856 47.6065 105.567 47.0312 105.567C46.7436 105.567 46.5997 105.567 46.3121 105.567C46.0244 105.567 45.8806 105.567 45.593 105.423C45.4491 105.423 45.3053 105.423 45.1615 105.423H45.0176H44.8738H44.73C44.2985 105.423 43.867 105.279 43.4356 105.135C43.1479 105.135 42.8603 105.135 42.5726 104.99C42.7164 104.414 42.8603 103.693 42.8603 103.116C42.8603 102.971 42.8603 102.827 42.8603 102.827V102.683C42.8603 102.539 42.8603 102.395 42.8603 102.25C42.8603 101.962 43.0041 101.818 43.0041 101.529C43.0041 100.952 43.4356 100.52 43.2917 99.9429C43.2917 99.366 43.5794 98.9333 43.5794 98.3565C43.7232 97.7796 43.867 97.347 43.867 96.7701C44.2985 96.3374 44.1547 95.7606 44.1547 95.1837C44.1547 95.0395 44.1547 94.8953 44.1547 94.751C44.1547 94.4626 44.1547 94.1742 44.2985 94.0299C44.4423 93.4531 44.4423 93.0204 44.5862 92.5878C45.0176 92.5878 45.593 92.732 46.1683 92.8762C46.4559 92.8762 46.7436 93.0204 46.8874 93.0204L47.3189 93.1646C47.8942 93.1646 48.3257 93.4531 48.901 93.3089C49.4763 93.1646 49.9077 93.5973 50.483 93.4531C50.7707 93.4531 51.0584 93.4531 51.2022 93.4531C51.4898 93.4531 51.6337 93.4531 51.9213 93.5973C52.209 93.5973 52.3528 93.7415 52.6404 93.7415C52.7843 93.7415 52.9281 93.7415 53.0719 93.7415C53.2158 93.7415 53.3596 93.7415 53.5034 93.5973C53.9349 93.4531 54.5102 93.1646 54.9417 93.5973C55.3731 93.4531 55.9485 93.7415 56.3799 93.5973C56.8114 93.8857 57.2429 93.5973 57.6744 93.4531C58.1058 93.4531 58.5373 93.5973 58.9688 93.3089H59.1126C59.1126 93.3089 59.1126 93.3089 59.2565 93.3089H59.4003C59.5441 93.3089 59.8318 93.3089 59.9756 93.3089C60.4071 93.3089 60.6947 93.3089 60.9824 93.1646C61.5577 92.8762 61.4139 93.4531 61.4139 93.8857C61.4139 94.3184 61.4138 94.6068 61.5577 94.8953C61.5577 95.0395 61.5577 95.0395 61.5577 95.1837V95.3279C61.5577 95.4721 61.5577 95.4721 61.5577 95.6163C61.5577 95.7606 61.5577 96.049 61.5577 96.1932C62.133 96.4816 61.7015 96.9143 61.7015 97.347C61.7015 97.7796 62.133 97.9238 61.8453 98.3565C62.2768 98.6449 61.9892 98.9334 61.9892 99.366C61.9892 99.6544 62.2768 99.9429 62.133 100.231C62.4206 100.52 62.133 100.808 62.2768 101.097C62.133 101.385 62.2768 101.673 62.2768 101.818C62.4206 102.106 62.4206 102.25 62.2768 102.539C62.2768 102.683 62.2768 102.971 62.2768 103.116C62.2768 103.404 62.133 104.125 61.9892 104.125Z" fill="#212529"/>
<path d="M23.156 95.4721C23.0122 95.3279 23.2999 94.8953 23.8752 93.8857C24.019 93.7415 24.019 93.5973 24.1628 93.3089C24.3066 93.1646 24.3066 92.8762 24.4505 92.732C24.7381 92.5878 24.4505 92.1551 24.8819 92.1551C25.1696 92.0109 25.1696 91.7225 25.3134 91.434C25.4573 91.1456 25.7449 91.0014 25.7449 90.7129C25.6011 90.2803 26.464 90.4245 26.3202 89.8476C26.464 89.5592 26.6079 89.2708 26.8955 88.9823C27.327 88.8381 27.327 88.4055 27.4708 88.117C27.7585 88.117 27.9023 87.9728 27.9023 87.8286C27.9023 87.6844 28.0461 87.6844 28.0461 87.5402C28.0461 87.5402 28.0461 87.5402 28.0461 87.3959C28.0461 87.3959 28.0461 87.3959 28.0461 87.2517C28.4776 87.2517 28.6214 86.9633 28.4776 86.9633C28.3338 86.9633 28.3338 86.9633 28.19 86.9633L28.0461 86.8191C28.0461 86.8191 28.0461 86.8191 27.9023 86.8191H27.7585H27.6146C27.1832 86.5306 26.8955 86.3864 26.464 85.9538C25.8887 85.9538 25.6011 85.6653 25.3134 85.0885C24.7381 84.9442 24.4505 84.6558 24.1628 84.2231C23.8752 83.7905 23.2999 83.7905 23.0122 83.2136C22.7246 82.9252 22.2931 82.4925 21.8616 82.0599C21.7178 81.7714 21.5739 81.6272 21.4301 81.3388C21.2863 81.1946 20.9986 80.9061 20.8548 80.9061C20.4233 80.6177 19.9919 80.1851 19.848 79.7524C19.2727 79.464 18.9851 79.0313 18.8412 78.4544C18.6974 78.3102 18.6974 78.166 18.5536 78.166C18.5536 78.166 18.5536 78.166 18.5536 78.0218C18.5536 78.0218 18.5536 77.8776 18.4098 78.0218C18.4098 78.0218 18.4098 78.0218 18.2659 78.166C18.1221 78.3102 17.9783 78.3102 17.8345 78.3102C17.2592 78.5987 16.8277 78.7429 16.54 79.3197C16.2524 79.7524 15.5332 79.8966 15.2456 80.3293C14.6703 80.3293 14.3826 81.0504 13.9511 81.3388C13.5197 81.6272 12.9444 81.7714 12.6567 82.2041C12.5129 82.3483 12.2252 82.4925 12.0814 82.781C11.9376 82.9252 11.9376 82.9252 11.7938 83.0694C11.7938 83.0694 11.6499 83.0694 11.6499 83.2136C11.7938 83.3578 11.7938 83.3578 11.7938 83.3578C11.7938 83.3578 11.6499 83.3578 11.5061 83.3578C11.3623 83.3578 11.5061 83.5021 11.5061 83.5021L11.6499 83.6463C11.7938 83.7905 11.7938 83.7905 11.7938 83.9347C11.9376 84.0789 11.9376 84.0789 11.9376 84.2231C11.9376 84.3674 12.0814 84.3674 12.0814 84.5116C12.2252 84.6558 12.3691 84.9442 12.5129 85.0885C12.8005 85.5211 13.232 85.6653 13.3758 86.098C13.8073 86.2422 13.8073 86.8191 14.2388 87.1075C14.5265 87.3959 14.8141 87.6844 15.1018 88.117C15.1018 88.6939 15.6771 88.6939 15.9647 88.9823C16.1085 89.1265 16.2524 89.2708 16.3962 89.415C16.54 89.5592 16.6838 89.7034 16.6838 89.8476C16.9715 90.1361 17.1153 90.4245 17.403 90.5687C17.6906 90.7129 17.5468 91.434 18.1221 91.2898C18.4098 91.434 18.4098 92.0109 18.8412 92.0109C19.2727 92.0109 19.2727 92.4436 19.4165 92.5878C19.5604 92.732 19.848 93.0204 19.9919 93.1646C20.4233 93.5973 20.8548 93.8857 21.1425 94.1742C21.4301 94.4626 21.7178 94.751 22.0054 95.0395C23.0122 95.1837 23.2999 95.4721 23.156 95.4721C23.0122 95.6163 22.7246 95.4721 22.0054 95.0395C21.8616 94.8953 21.5739 94.8953 21.4301 94.751C21.2863 94.6068 20.9986 94.4626 20.711 94.3184C20.2795 94.03 19.7042 93.5973 19.1289 93.1646C18.8412 93.0204 18.5536 93.0204 18.4098 92.5878C18.1221 92.4436 17.8345 92.2993 17.6906 92.0109C17.2592 92.0109 17.1153 91.5782 16.8277 91.2898C16.54 91.0014 16.3962 90.7129 15.9647 90.5687C15.8209 90.5687 15.6771 90.4245 15.5332 90.1361C15.3894 89.9919 15.2456 89.8476 15.1018 89.7034C14.9579 89.2708 14.6703 88.9823 14.2388 88.8381C14.095 88.4055 13.6635 88.2612 13.3758 87.9728C13.3758 87.3959 12.8005 87.2517 12.5129 86.9633C12.0814 86.6748 11.9376 86.2422 11.6499 85.9538C11.5061 85.8095 11.3623 85.5211 11.2184 85.3769C11.0746 85.2327 11.0746 85.2327 10.9308 85.0885C10.787 84.9442 10.787 84.9442 10.787 84.8C10.6431 84.6558 10.6431 84.6558 10.4993 84.5116L10.3555 84.3674C10.0678 83.9347 9.78018 83.6463 9.63636 83.2136C9.49253 82.9252 9.20488 82.781 9.06105 82.4925C9.63636 82.0599 10.0678 81.7714 10.6431 81.3388C10.787 81.1946 10.787 81.1946 10.9308 81.0504L11.0746 80.9061C10.9308 80.9061 11.0746 80.7619 11.2184 80.7619C11.3623 80.6177 11.6499 80.4735 11.7938 80.3293C12.2252 79.8966 12.8005 80.0408 13.0882 79.3197C13.5197 79.0313 13.9511 78.7429 14.3826 78.3102C14.8141 78.0218 15.2456 77.7333 15.6771 77.3007C16.2524 77.3007 16.6838 76.7238 16.9715 76.2912C17.1153 76.147 17.1153 76.147 17.2592 76.0027C17.403 75.8585 17.6906 75.7143 17.8345 75.5701C18.1221 75.4259 18.2659 75.2816 18.4098 75.1374L18.6974 74.9932L18.8412 74.849H18.9851C19.2727 75.2817 19.5604 75.7143 19.848 76.147C19.9919 76.2912 20.1357 76.5796 20.2795 76.7238L20.5672 77.0123C20.9986 77.4449 21.1425 77.8776 21.5739 78.3102C22.0054 78.5987 22.1492 79.1755 22.5807 79.464C22.7246 79.6082 23.0122 79.7524 23.156 80.0408C23.2999 80.1851 23.4437 80.4735 23.5875 80.6177C23.8752 80.9061 24.019 81.6272 24.5943 81.6272C25.0258 81.9157 25.6011 81.9157 25.6011 82.6368C26.0326 82.9252 26.1764 83.3578 26.6079 83.5021C26.7517 84.0789 27.327 84.0789 27.6146 84.3674C27.9023 84.6558 28.19 85.0885 28.6214 85.2327H28.7653L28.9091 85.3769C29.0529 85.5211 29.1967 85.6653 29.3406 85.6653C29.6282 85.9538 29.772 86.098 30.2035 86.3864C30.3473 86.3864 30.4912 86.5306 30.635 86.5306C30.4912 86.8191 30.2035 86.9633 29.9159 87.2517C29.6282 87.5402 29.4844 87.6844 29.4844 87.9728L29.3406 88.117L29.1967 88.2612C29.1967 88.4055 29.0529 88.4055 29.0529 88.5497C28.9091 88.6939 28.7653 88.8381 28.6214 88.9823C28.7653 89.5592 28.19 89.5592 27.9023 89.8476C27.6146 90.1361 27.7585 90.5687 27.327 90.7129C27.4708 91.1456 27.0393 91.2898 26.7517 91.434C26.464 91.5783 26.464 92.0109 26.1764 92.1551C26.1764 92.5878 25.7449 92.5878 25.6011 92.732C25.3134 92.8762 25.3134 93.1646 25.1696 93.3089C25.0258 93.5973 24.8819 93.7415 24.7381 93.8857C24.5943 94.0299 24.4505 94.1742 24.3066 94.3184C23.7313 95.1837 23.2999 95.6163 23.156 95.4721Z" fill="#212529"/>
<path d="M1.72592 61.8694C1.72592 61.7252 2.30122 61.581 3.30801 61.2925C3.45183 61.2925 3.73949 61.1483 3.88331 61.1483C4.02714 61.1483 4.31479 61.0041 4.60245 61.0041C4.8901 61.1483 5.03392 60.5715 5.32158 60.8599C5.60923 60.8599 5.89688 60.7157 6.18454 60.7157C6.47219 60.5715 6.75984 60.7157 7.04749 60.5715C7.33515 60.1388 7.76662 60.8599 8.05428 60.4272C8.34193 60.283 8.77341 60.283 9.06106 60.283C9.49254 60.4272 9.78019 60.1388 10.0678 60.1388C10.2117 60.283 10.4993 60.283 10.6432 60.283C10.787 60.283 10.787 60.283 10.9308 60.1388C10.9308 60.1388 10.9308 60.1388 11.0746 59.9946C11.0746 59.9946 11.0746 59.9946 11.0746 59.8504C11.2185 59.9946 11.3623 60.1388 11.5061 60.1388C11.5061 60.1388 11.6499 60.1388 11.6499 59.9946C11.6499 59.9946 11.6499 59.9946 11.6499 59.8504L11.5061 59.7061V59.5619V59.4177C11.5061 59.4177 11.5061 59.4177 11.5061 59.2735C11.5061 59.2735 11.5061 59.1293 11.3623 59.1293C11.2185 58.6966 11.0746 58.264 11.2185 57.8313C10.9308 57.3987 10.787 56.966 11.0746 56.3891C10.787 55.9565 10.787 55.3796 10.9308 54.947C11.0746 54.5143 10.6432 53.9374 10.9308 53.5048C10.9308 52.9279 10.9308 52.4953 10.9308 51.9184C10.9308 51.63 11.0746 51.3415 11.0746 51.1973C11.0746 50.9089 11.0746 50.6204 10.9308 50.332C10.9308 50.0436 10.9308 49.7551 10.9308 49.4667C10.9308 49.3225 10.9308 49.1783 10.9308 49.034C10.9308 48.8898 10.9308 48.7456 11.0746 48.6014C10.787 48.0245 11.0746 47.4476 11.2185 47.015C11.2185 46.8708 11.2185 46.7266 11.2185 46.5823C11.2185 46.5823 11.2185 46.5823 11.2185 46.4381V46.2939H11.0746C10.9308 46.2939 10.787 46.2939 10.6432 46.1497C10.0678 46.0055 9.63637 45.717 9.06106 45.8612C8.48576 46.0055 8.05428 45.5728 7.47897 45.5728C7.04749 45.1402 6.32836 45.5728 5.89688 45.2844C5.32158 45.2844 4.8901 44.9959 4.31479 44.9959C4.02714 44.9959 3.73949 44.9959 3.59566 44.9959C3.45183 44.9959 3.30801 44.9959 3.16418 44.9959H3.02036C3.02036 45.2844 3.02036 45.1402 3.02036 45.1402C2.87653 45.1402 2.87653 45.1402 2.87653 45.2844V45.4286V45.5728C2.87653 45.717 2.87653 45.8612 2.87653 45.8612C2.87653 46.1497 2.7327 46.2939 2.7327 46.5823C2.7327 46.8708 2.58888 47.015 2.7327 47.3034C2.58888 47.7361 2.7327 48.1687 2.58888 48.6014C2.7327 49.034 2.30122 49.4667 2.44505 49.8993C2.44505 50.0436 2.44505 50.332 2.44505 50.4762C2.44505 50.6204 2.44505 50.9089 2.44505 51.0531C2.01357 51.4857 2.30122 51.9184 2.44505 52.2068C2.44505 52.351 2.44505 52.6395 2.44505 52.7837C2.44505 52.9279 2.44505 53.2164 2.30122 53.3606C2.30122 53.7932 2.1574 54.0817 2.30122 54.5143C2.30122 54.6585 2.1574 54.8027 2.1574 55.0912C2.1574 55.2354 2.01357 55.3796 2.30122 55.5238C2.44505 55.8123 2.01357 56.2449 2.30122 56.5334C2.58888 56.8218 2.30122 57.1102 2.30122 57.3987C2.30122 57.6871 2.30122 57.9755 2.30122 58.264C2.30122 58.8408 2.30122 59.4177 2.30122 59.8504C2.30122 60.283 2.30122 60.7157 2.30122 61.0041C1.86975 61.581 1.86975 61.8694 1.72592 61.8694C1.58209 61.8694 1.43827 61.4368 1.15061 60.7157C1.15061 60.5715 1.00679 60.283 1.00679 60.1388C1.00679 59.8504 0.862961 59.7061 0.862961 59.4177C0.719135 58.8408 0.575308 58.264 0.575308 57.5429C0.575308 57.2544 0.287656 56.966 0.431482 56.6776C0.431482 56.3891 0.143829 56.1007 0.287656 55.668C0.143829 55.5238 0.143829 55.3796 0.143829 55.0912C0.143829 54.947 0.287656 54.8027 0.287656 54.5143C0.287656 54.0817 0.431482 53.7932 0.287656 53.3606C0.143829 53.2164 0.143829 52.9279 0.287656 52.7837C0.287656 52.6395 0.431482 52.351 0.287656 52.2068C0.575308 51.7742 0.431482 51.3415 0.287656 50.9089C0.431482 50.7646 0.431482 50.4762 0.431482 50.332C0.431482 50.0436 0.431482 49.8993 0.431482 49.6109C0.719135 49.1783 0.575308 48.7456 0.431482 48.313C0.287656 47.8803 0.575308 47.4476 0.575308 46.8708C0.575308 46.5823 0.575308 46.4381 0.575308 46.1497C0.575308 45.8612 0.575308 45.717 0.719135 45.4286C0.719135 45.2844 0.719135 45.1402 0.719135 44.9959V44.8517V44.7075V44.5633C0.719135 44.1306 0.862961 43.698 1.00679 43.2653C1.00679 42.9769 1.00679 42.8327 1.00679 42.5442V42.4H1.15061H1.43827C1.86975 42.5442 2.44505 42.5442 2.87653 42.6885C3.02036 42.6885 3.16418 42.6885 3.16418 42.6885H3.30801C3.45183 42.6885 3.59566 42.6885 3.73949 42.6885C4.02714 42.6885 4.31479 42.8327 4.45862 42.8327C5.03392 42.8327 5.4654 43.2653 6.04071 43.1211C6.61601 43.1211 7.04749 43.4095 7.6228 43.4095C8.1981 43.5538 8.62958 43.698 9.20489 43.698C9.63637 44.1306 10.2117 43.9864 10.787 43.9864C10.9308 43.9864 11.0746 43.9864 11.2185 43.9864C11.5061 43.9864 11.7938 43.9864 11.9376 44.1306C12.5129 44.2749 12.9444 44.2749 13.3759 44.4191C13.3759 44.8517 13.232 45.4286 13.0882 46.0055C13.0882 46.2939 12.9444 46.4381 12.9444 46.7266L12.8005 47.1592C12.8005 47.7361 12.5129 48.1687 12.6567 48.7456C12.6567 48.8898 12.6567 49.034 12.6567 49.1783C12.6567 49.3225 12.6567 49.4667 12.6567 49.6109C12.6567 49.8993 12.5129 50.1878 12.6567 50.332C12.6567 50.6204 12.6567 50.9089 12.6567 51.0531C12.6567 51.3415 12.6567 51.4857 12.5129 51.7742C12.5129 52.2068 12.2252 52.7837 12.5129 53.2164C12.6567 53.649 12.9444 54.2259 12.5129 54.6585C12.6567 55.0912 12.3691 55.6681 12.5129 56.1007C12.2252 56.5334 12.5129 56.966 12.6567 57.3987C12.6567 57.8313 12.5129 58.264 12.8005 58.6966V58.8408C12.8005 58.8408 12.8005 58.8408 12.8005 58.9851V59.1293C12.8005 59.2735 12.8005 59.5619 12.8005 59.7061C12.8005 60.1388 12.8005 60.4272 12.9444 60.7157C12.9444 60.8599 13.0882 60.8599 13.0882 61.0041H12.9444C12.8005 61.0041 12.5129 61.0041 12.3691 61.0041C11.9376 61.0041 11.6499 61.0041 11.3623 61.1483C11.2185 61.1483 11.2185 61.1483 11.0746 61.1483H10.9308C10.787 61.1483 10.787 61.1483 10.6432 61.1483C10.4993 61.1483 10.2117 61.1483 10.0678 61.1483C9.78019 61.7252 9.34871 61.2925 8.91723 61.2925C8.48576 61.2925 8.34193 61.7252 7.91045 61.4368C7.91045 62.0136 7.6228 61.7252 7.19132 61.7252C6.90367 61.7252 6.61601 62.0136 6.32836 61.8694C6.04071 62.1579 5.75306 61.8694 5.4654 62.0136C5.17775 61.8694 4.8901 62.0136 4.74627 62.0136C4.45862 62.0136 4.31479 62.0136 4.02714 62.0136C3.88331 62.0136 3.59566 62.0136 3.45183 62.0136C2.44505 62.0136 1.72592 62.0136 1.72592 61.8694Z" fill="#212529"/>
<path d="M10.2117 22.9306C10.3555 22.7864 10.787 23.0748 11.7938 23.6517C11.9376 23.7959 12.0814 23.7959 12.3691 23.9401C12.5129 24.0843 12.8005 24.0843 12.9444 24.2285C13.0882 24.517 13.5197 24.2285 13.5197 24.6612C13.6635 24.9496 13.9511 24.9496 14.2388 25.0938C14.5265 25.2381 14.6703 25.5265 14.9579 25.5265C15.3894 25.3823 15.2456 26.2476 15.8209 26.1034C16.1085 26.2476 16.3962 26.3918 16.6839 26.6802C16.8277 27.1129 17.2592 27.1129 17.5468 27.2571C17.5468 27.5455 17.6906 27.6898 17.8345 27.6898C17.9783 27.6898 17.9783 27.834 18.1221 27.834H18.2659C18.2659 27.834 18.2659 27.834 18.4098 27.834C18.4098 28.2666 18.6974 28.4108 18.6974 28.2666C18.6974 28.1224 18.6974 28.1224 18.6974 27.9782L18.8412 27.834C18.8412 27.834 18.8412 27.834 18.8412 27.6898C18.8412 27.6898 18.8412 27.6898 18.8412 27.5455V27.4013C19.1289 26.9687 19.2727 26.6802 19.7042 26.2476C19.7042 25.6707 20.1357 25.3823 20.5672 25.0938C20.711 24.517 20.9986 24.2285 21.4301 23.9401C21.8616 23.6517 21.8616 23.0748 22.4369 22.7864C22.7246 22.3537 23.156 22.0653 23.5875 21.6326C23.8752 21.4884 24.019 21.3442 24.3066 21.2C24.4505 21.0557 24.7381 20.7673 24.7381 20.6231C25.0258 20.1904 25.4573 19.7578 25.8887 19.6136C26.1764 19.0367 26.6079 18.7483 27.1832 18.604C27.327 18.4598 27.4708 18.4598 27.4708 18.3156C27.4708 18.3156 27.4708 18.3156 27.6147 18.3156C27.6147 18.3156 27.7585 18.3156 27.6147 18.1714C27.6147 18.1714 27.6147 18.1714 27.4708 18.0272C27.327 17.883 27.327 17.7387 27.327 17.5945C27.0393 17.0176 26.8955 16.585 26.3202 16.2966C25.8887 16.0081 25.7449 15.287 25.3134 14.9986C25.3134 14.4217 24.5943 14.1333 24.3066 13.7006C24.4505 13.5564 24.3066 12.9796 23.8752 12.6911C23.7313 12.5469 23.5875 12.2585 23.2999 12.1142C23.156 11.97 23.156 11.97 23.0122 11.8258V11.6816C22.8684 11.8258 22.8684 11.8258 22.8684 11.8258V11.6816C22.8684 11.5374 22.7246 11.6816 22.7246 11.6816L22.5807 11.8258C22.4369 11.97 22.4369 11.97 22.2931 11.97C22.1493 12.1142 22.1493 12.1142 22.0054 12.1142C21.8616 12.1142 21.8616 12.2585 21.7178 12.2585C21.5739 12.4027 21.2863 12.5469 21.1425 12.6911C20.711 12.9796 20.5672 13.4122 20.1357 13.5564C19.9919 13.9891 19.4166 13.9891 19.1289 14.4217C18.8412 14.7102 18.5536 14.9986 18.1221 15.287C17.5468 15.287 17.5468 15.8639 17.2592 16.1523C17.1153 16.2966 16.9715 16.4408 16.8277 16.585C16.6838 16.7292 16.54 16.8734 16.3962 16.8734C16.1085 17.1619 15.8209 17.3061 15.6771 17.5945C15.5332 17.883 14.8141 17.7387 14.9579 18.3156C14.8141 18.604 14.2388 18.604 14.2388 19.0367C14.2388 19.4694 13.8073 19.4694 13.6635 19.6136C13.232 19.7578 13.0882 20.0462 12.9444 20.1904C12.5129 20.6231 12.2252 21.0557 11.9376 21.3442C11.6499 21.6326 11.3623 21.9211 11.0746 22.2095C10.6431 22.6421 10.3555 22.9306 10.2117 22.9306C10.0678 22.7864 10.2117 22.4979 10.6431 21.7768C10.787 21.6326 10.787 21.3442 10.9308 21.2C11.0746 21.0557 11.2184 20.7673 11.3623 20.4789C11.6499 20.0462 12.0814 19.4694 12.5129 18.8925C12.6567 18.604 12.6567 18.3156 13.0882 18.1714C13.232 17.883 13.3758 17.5945 13.6635 17.4503C13.6635 17.0177 14.095 16.8734 14.3826 16.585C14.6703 16.2966 14.9579 16.1523 15.1018 15.7197C15.1018 15.5755 15.2456 15.4313 15.5332 15.287C15.6771 15.1428 15.8209 14.9986 15.9647 14.8544C16.3962 14.7102 16.6838 14.4217 16.8277 13.9891C17.2592 13.8449 17.403 13.4122 17.6906 13.1238C18.2659 13.1238 18.4098 12.5469 18.6974 12.2585C18.9851 11.8258 19.4165 11.6816 19.7042 11.3932C19.848 11.2489 20.1357 11.1047 20.2795 10.9605C20.4233 10.8163 20.4233 10.8163 20.5672 10.6721C20.711 10.5279 20.711 10.5279 20.8548 10.5279C20.9986 10.3836 20.9986 10.3836 21.1425 10.2394L21.2863 10.0952C21.7178 9.80677 22.0054 9.51833 22.4369 9.37411C22.7246 9.22989 22.8684 8.94146 23.156 8.79724C23.7313 8.94146 24.019 9.51833 24.4505 10.0952C24.5943 10.2394 24.5943 10.2394 24.7381 10.3836L24.8819 10.5279V10.6721C25.0258 10.8163 25.0258 10.8163 25.1696 10.9605C25.3134 11.2489 25.4573 11.3932 25.6011 11.5374C25.8887 11.8258 25.8887 12.4027 26.464 12.6911C26.7517 13.1238 27.0393 13.5564 27.4708 13.9891C27.7585 14.4217 28.0461 14.8544 28.4776 15.287C28.4776 15.8639 29.0529 16.2966 29.4844 16.585C29.6282 16.7292 29.6282 16.7292 29.772 16.8734C29.9159 17.0176 30.0597 17.3061 30.2035 17.4503C30.4912 17.883 30.7788 18.3156 31.0665 18.7483C30.635 19.0367 30.2035 19.3251 29.772 19.6136C29.6282 19.7578 29.3406 19.902 29.1967 20.0462L28.7653 20.4789C28.3338 20.9115 27.9023 21.0557 27.4708 21.4884C27.1832 21.9211 26.6079 22.0653 26.3202 22.4979C26.1764 22.6421 26.0326 22.9306 25.7449 23.0748C25.6011 23.219 25.3134 23.3632 25.1696 23.5074C24.882 23.7959 24.1628 23.9401 24.1628 24.517C23.8752 24.9496 23.8752 25.5265 23.156 25.5265C22.8684 25.9591 22.4369 26.1034 22.2931 26.536C21.7178 26.6802 21.7178 27.2571 21.4301 27.5455C21.1425 27.834 20.711 28.1224 20.5672 28.5551V28.6993C20.4233 28.8435 20.2795 28.9877 20.2795 29.1319C19.9919 29.4204 19.848 29.5646 19.5604 29.9972C19.5604 30.1415 19.4165 30.2857 19.2727 30.4299C18.9851 30.2857 18.8412 29.9972 18.5536 29.853C18.2659 29.7088 18.1221 29.4204 17.8345 29.4204L17.6906 29.2762L17.5468 29.1319C17.403 29.1319 17.403 28.9877 17.2592 28.9877C17.1153 28.8435 16.9715 28.6993 16.8277 28.5551C16.2524 28.6993 16.2524 28.1224 15.9647 27.834C15.6771 27.5455 15.2456 27.6898 15.1018 27.1129C14.6703 27.2571 14.5265 26.8245 14.3826 26.536C14.2388 26.2476 13.8073 26.2476 13.6635 25.9591C13.232 25.9591 13.232 25.5265 13.0882 25.3823C12.9444 25.0938 12.6567 25.0938 12.5129 24.9496C12.2252 24.8054 12.0814 24.6612 11.9376 24.517C11.6499 24.517 11.5061 24.3728 11.3623 24.2285C10.6431 23.5074 10.2117 22.9306 10.2117 22.9306Z" fill="#212529"/>
</g>
<defs>
<clipPath id="clip0_17_309">
<rect width="106" height="106" fill="white"/>
</clipPath>
</defs>
</svg>
