<svg width="123" height="86" viewBox="0 0 123 86" fill="none" xmlns="http://www.w3.org/2000/svg">
<g clip-path="url(#clip0_17_338)">
<path d="M113.074 1.28782C113.074 1.43091 112.211 1.43091 110.34 1.57401C108.47 1.7171 105.881 1.7171 102.284 1.7171C101.133 1.7171 99.8386 1.7171 98.5439 1.7171C97.2491 1.7171 95.8105 1.8602 94.2281 1.7171C92.7895 1.57401 91.207 2.14639 89.4807 1.7171C87.7544 1.57401 86.0281 1.7171 84.3018 1.7171C82.4316 1.7171 80.5614 1.57401 78.6912 1.7171C76.6772 2.14639 74.6632 1.28782 72.6491 1.7171C70.4912 1.8602 68.3333 1.8602 66.1754 1.7171C63.8737 1.43091 61.5719 1.7171 59.2702 1.7171C56.8246 1.28782 54.5228 1.57401 51.9333 1.7171C49.4877 1.28782 46.8982 1.28782 44.3088 1.7171C41.7193 1.7171 38.986 1.57401 36.2526 1.7171C33.5193 1.7171 30.786 1.8602 27.9088 1.7171C25.0316 2.00329 22.1544 2.00329 19.2772 1.7171C17.8386 1.8602 16.4 2.00329 14.8175 1.8602C14.0982 1.8602 13.3789 1.8602 12.5158 1.8602C12.0842 1.8602 11.7965 1.8602 11.3649 1.8602H10.7895C10.6456 1.8602 10.6456 1.8602 10.5018 1.8602C10.5018 2.00329 10.5018 2.00329 10.5018 2.14639V2.28948V2.86186C10.5018 3.57733 10.5018 4.29281 10.6456 4.86519C10.6456 6.29614 10.7895 7.58399 10.6456 9.01494C10.6456 12.163 10.7895 15.3111 10.6456 18.4592C10.5018 21.6073 10.3579 24.8985 10.6456 28.1896C10.7895 31.4808 10.7895 34.772 10.6456 38.0632C11.0772 41.3544 10.7895 44.7887 10.6456 48.2229C10.6456 51.6572 10.5018 55.0915 10.6456 58.5258C10.6456 60.2429 10.6456 61.96 10.6456 63.6772C10.6456 64.5357 10.6456 65.3943 10.6456 66.2529V66.9684V67.2545V67.3976V67.5407H10.7895C10.7895 67.5407 10.9333 67.5407 11.0772 67.5407H11.3649H12.0842C12.9474 67.5407 13.8105 67.5407 14.6737 67.5407C16.4 67.5407 18.1263 67.5407 19.8526 67.3976C23.3053 67.1114 26.7579 67.5407 30.2105 67.3976C33.6632 67.6838 36.9719 67.2545 40.4246 67.3976C43.7333 67.3976 47.0421 67.5407 50.3509 67.3976C53.6596 67.3976 56.8246 67.2545 60.1333 67.3976C63.2982 66.8253 66.4632 67.5407 69.6281 67.3976C72.793 67.6838 75.814 67.3976 78.8351 67.3976C81.8561 67.2545 84.8772 67.6838 87.7544 67.3976C90.6316 67.3976 93.5088 67.2545 96.386 67.3976C99.2632 67.1114 101.996 67.6838 104.73 67.3976C106.025 67.3976 107.463 67.3976 108.758 67.3976C109.477 67.3976 110.053 67.3976 110.772 67.3976C111.06 67.3976 111.491 67.3976 111.779 67.3976C111.923 67.3976 111.923 67.3976 112.067 67.3976H112.211C112.354 67.3976 112.354 67.3976 112.498 67.5407C112.498 67.3976 112.498 67.3976 112.642 67.2545V67.1115V66.9684V66.6822C112.642 66.1098 112.642 65.5374 112.642 64.965C112.642 63.8203 112.498 62.6755 112.498 61.5307C112.498 59.0981 112.211 56.6655 112.498 54.2329C112.498 51.8003 112.786 49.5108 112.498 47.3644C112.498 45.0748 113.074 42.9284 112.498 40.9251C112.354 38.7787 112.93 36.7753 112.498 34.9151C112.211 32.9118 112.498 31.0515 112.498 29.3344C112.498 27.4742 112.498 25.757 112.498 24.183C112.642 16.7421 112.642 10.8752 112.786 6.86852C112.786 4.86519 112.93 3.29114 112.93 2.28948C112.93 1.8602 113.074 1.28782 113.074 1.28782C113.218 1.28782 113.218 2.00329 113.218 3.29114C113.218 4.579 113.361 6.43923 113.361 8.87184C113.505 13.7371 113.649 20.8918 113.649 29.9068C113.649 31.767 113.937 33.6273 113.649 35.4875C113.649 37.4908 113.937 39.4941 113.649 41.4975C114.081 43.6439 113.793 45.7903 113.649 47.9367C113.649 50.2263 113.505 52.5158 113.649 54.8053C113.937 57.2379 113.505 59.5274 113.649 62.1031C113.505 63.2479 113.505 64.3926 113.505 65.5374C113.505 66.1098 113.505 66.6822 113.505 67.2545C113.505 68.1131 113.505 69.1148 113.649 69.9733C113.361 69.9733 112.93 69.9733 112.642 69.9733C112.067 69.9733 111.635 69.9733 111.06 69.9733C110.772 69.9733 110.34 69.9733 110.053 69.9733C109.333 69.9733 108.758 69.9733 108.039 69.9733C106.744 69.9733 105.305 70.1164 104.011 70.1164C101.277 69.6872 98.5439 69.9733 95.6667 70.1164C92.7895 70.2595 89.9123 70.1164 87.0351 70.1164C84.1579 70.1164 81.1368 70.2595 78.1158 70.1164C75.0947 70.2595 72.0737 70.4026 68.9088 70.1164C65.7439 70.2595 62.5789 70.1164 59.414 70.1164C56.2491 70.2595 52.9403 70.1164 49.6316 70.1164C46.3228 70.2595 43.014 69.6872 39.7053 70.1164C36.3965 70.1164 32.9439 70.1164 29.4912 70.1164C26.0386 70.1164 22.586 69.9733 19.1333 70.1164C17.407 69.9733 15.6807 69.8303 13.9544 69.9733C13.0912 69.9733 12.2281 69.9733 11.3649 70.1164C10.9333 70.1164 10.3579 70.1164 9.92631 70.1164C9.06315 70.1164 8.2 70.1164 7.4807 70.1164C7.4807 68.8286 7.4807 67.5407 7.4807 66.2529C7.4807 65.3943 7.4807 64.5357 7.4807 63.6772C7.4807 61.96 7.4807 60.2429 7.4807 58.5258C7.4807 55.0915 7.4807 51.6572 7.4807 48.2229C7.33684 44.7887 7.62456 41.4975 7.4807 38.0632C7.33684 34.772 7.62456 31.4808 7.4807 28.1896C7.33684 24.8985 7.33684 21.7504 7.4807 18.4592C7.4807 15.3111 7.91228 12.163 7.4807 9.01494C7.4807 7.58399 7.33684 6.29614 7.33684 4.86519C7.33684 4.14971 7.33684 3.43424 7.33684 2.86186C7.33684 2.43258 7.33684 1.8602 7.33684 1.43091C7.33684 0.715437 7.33684 0.143058 7.4807 -0.429321C8.2 -0.429321 8.77543 -0.286226 9.35087 -0.286226C9.78245 -0.286226 10.3579 -0.286226 10.7895 -0.286226C11.221 -0.286226 11.5088 -0.286226 11.9403 -0.286226C12.6596 -0.286226 13.3789 -0.286226 14.2421 -0.143132C15.6807 -0.143132 17.2632 -3.67165e-05 18.7018 -0.143132C21.5789 0.286153 24.4561 -0.143132 27.3333 -0.143132C30.2105 -3.67165e-05 32.9439 -3.67165e-05 35.6772 -0.143132C38.4105 -0.286226 41.1439 -3.67165e-05 43.7333 -0.143132C46.3228 -0.429321 48.9123 0.143058 51.3579 -0.143132C53.8035 -0.143132 56.2491 -0.143132 58.6947 -0.143132C61.1404 -0.715511 63.4421 -0.143132 65.6 -0.143132C67.9018 -3.67165e-05 70.0597 -0.572416 72.0737 -0.143132C74.2316 -0.572416 76.2456 -0.143132 78.1158 -0.143132C80.1298 -3.67165e-05 82 -0.286226 83.7263 -0.143132C85.5965 -0.429321 87.3228 -3.67165e-05 88.9053 -0.143132C90.6316 -3.67165e-05 92.214 -0.143132 93.6526 -0.143132C95.0912 -0.143132 96.5298 -0.143132 97.9684 -0.143132C99.2632 -0.143132 100.558 -0.143132 101.709 -0.143132C105.161 -0.143132 107.895 -3.67165e-05 109.765 -3.67165e-05C112.211 1.14472 113.074 1.28782 113.074 1.28782Z" fill="#212529"/>
<path d="M1.72632 69.4009C1.58246 69.4009 1.4386 69.544 1.15088 69.6871C1.00702 69.8302 0.863157 70.1164 0.719298 70.4026C0.719298 70.5457 0.575438 70.6888 0.575438 70.8319V70.975V71.1181C0.575438 71.2612 0.575438 71.2612 0.575438 71.4043C0.575438 71.8336 0.575438 72.2628 0.575438 72.8352C0.575438 73.8369 0.575438 74.9816 0.719298 76.4126C0.719298 76.8419 0.719298 77.2712 0.719298 77.8435C0.719298 78.1297 0.719298 78.2728 0.719298 78.559C0.719298 78.8452 0.863158 78.9883 0.863158 79.2745C1.00702 79.7038 1.15088 80.1331 1.4386 80.5623C1.58246 80.8485 1.72632 80.9916 1.87017 81.2778C1.87017 81.4209 2.01403 81.4209 2.15789 81.564C2.30175 81.7071 2.30175 81.7071 2.44561 81.8502C2.44561 81.9933 2.58947 82.1364 2.73333 82.1364C2.87719 82.4226 2.87719 82.4226 3.02105 82.5657C3.16491 82.7088 3.30877 82.7088 3.30877 82.8519C3.45263 82.8519 3.59649 82.995 3.74035 82.995C4.31579 83.2811 4.74737 83.4242 5.32281 83.7104C5.46667 83.7104 5.61053 83.8535 5.75439 83.8535C5.89824 83.8535 6.0421 83.8535 6.18596 83.9966C6.32982 83.9966 6.47368 83.9966 6.61754 83.9966C6.7614 83.9966 6.90526 83.9966 7.04912 83.9966C7.76842 83.9966 8.34386 83.9966 9.06316 83.8535C10.5018 83.8535 11.9404 83.9966 13.3789 83.8535C14.9614 83.4242 16.4 84.2828 18.1263 83.8535C19.7088 83.7104 21.4351 83.7104 23.1614 83.8535C24.8877 84.1397 26.614 83.8535 28.4842 83.8535C30.3544 84.2828 32.2246 83.9966 34.0947 83.8535C35.9649 84.2828 37.9789 84.2828 39.993 83.8535C42.007 83.8535 44.021 83.9966 46.1789 83.8535C48.3368 83.8535 50.4947 83.7104 52.6526 83.8535C54.8105 83.5673 57.1123 83.5673 59.2702 83.8535C61.5719 83.5673 63.8737 83.7104 66.1754 83.8535C68.4772 83.9966 70.9228 83.5673 73.3684 83.8535C75.814 83.8535 78.2596 83.7104 80.7053 83.8535C83.1509 83.9966 85.7403 84.1397 88.186 83.8535C90.7754 83.7104 93.221 83.7104 95.8105 83.8535C98.4 83.4242 100.989 83.7104 103.579 83.8535C106.168 83.8535 108.902 83.9966 111.491 83.8535C112.211 83.8535 112.786 83.8535 113.505 83.8535H114.512H114.944H115.375C115.951 83.8535 116.382 83.7104 116.958 83.4242C117.389 83.138 117.965 82.995 118.396 82.5657C118.828 82.2795 119.26 81.8502 119.547 81.2778C119.835 80.8485 120.123 80.2762 120.267 79.7038C120.267 79.5607 120.267 79.4176 120.411 79.2745V79.1314V78.9883V78.8452C120.411 78.8452 120.411 78.7021 120.411 78.559V77.9866C120.411 77.2712 120.411 76.6988 120.267 75.9833C120.123 74.6954 120.123 73.2645 120.267 71.9766V71.5474V71.4043C120.267 71.2612 120.123 71.2612 120.123 71.1181C119.979 70.975 119.979 70.975 119.835 70.975C119.835 70.975 119.835 70.975 119.691 70.975C119.691 70.975 119.691 70.975 119.547 70.975H119.404H118.972C116.382 70.6888 113.793 71.1181 111.204 70.975C108.614 70.975 106.025 70.8319 103.579 70.975C100.989 70.975 98.5439 71.1181 96.0982 70.975C93.6526 71.5474 91.207 70.8319 88.7614 70.975C86.3158 70.6888 84.014 70.975 81.5684 70.975C79.2667 71.1181 76.9649 70.6888 74.6632 70.975C72.3614 70.975 70.2035 71.1181 68.0456 70.975C65.8877 71.2612 63.7298 70.6888 61.5719 70.975C59.414 70.975 57.4 70.975 55.386 70.975C53.3719 70.5457 51.3579 70.8319 49.4877 70.975C47.6175 70.975 45.7474 71.2612 43.8772 70.975C42.007 70.975 40.2807 70.6888 38.5544 70.975C36.8281 70.975 35.1018 70.4026 33.5193 70.975C31.9368 71.1181 30.3544 70.5457 28.7719 70.975C27.1895 71.2612 25.7509 70.975 24.4561 70.975C23.0175 70.975 21.7228 70.975 20.4281 70.975C14.6737 70.8319 10.0702 70.8319 7.04912 70.6888C4.02807 69.544 2.30175 69.4009 2.30175 69.2578C2.30175 69.1148 4.31579 68.9717 8.2 68.8286C11.9403 68.8286 17.5509 68.6855 24.4561 68.6855C25.8947 68.6855 27.3333 68.3993 28.7719 68.6855C30.3544 68.6855 31.793 68.3993 33.5193 68.6855C35.1018 68.2562 36.8281 68.5424 38.5544 68.6855C40.2807 68.6855 42.007 68.8286 43.8772 68.6855C45.7474 68.3993 47.6175 68.8286 49.4877 68.6855C51.3579 68.9717 53.3719 68.8286 55.386 68.6855C57.4 68.9717 59.414 68.6855 61.5719 68.6855C63.7298 69.1148 65.8877 68.8286 68.0456 68.6855C70.2035 68.5424 72.5053 68.6855 74.6632 68.6855C76.9649 68.6855 79.2667 68.5424 81.5684 68.6855C83.8702 68.5424 86.3158 68.3993 88.7614 68.6855C91.207 68.5424 93.6526 68.6855 96.0982 68.6855C98.5439 68.5424 101.133 68.6855 103.579 68.6855C106.168 68.5424 108.614 69.1148 111.204 68.6855C113.793 68.6855 116.382 68.6855 118.972 68.6855H119.404H119.547H119.691C119.835 68.6855 119.979 68.6855 120.123 68.6855C120.698 68.8286 121.13 68.9717 121.561 69.4009C121.993 69.6871 122.281 70.2595 122.425 70.6888C122.568 70.975 122.568 71.2612 122.568 71.5474C122.568 71.6905 122.568 71.8336 122.568 71.8336V71.5474C122.568 72.8352 122.568 74.2662 122.568 75.554C122.425 76.2695 122.425 76.8419 122.425 77.5574V78.1297C122.425 78.2728 122.425 78.2728 122.425 78.4159V78.7021V78.9883V79.2745C122.425 79.4176 122.425 79.7038 122.281 79.8469C122.137 80.5623 121.849 81.4209 121.418 81.9933C120.986 82.7088 120.554 83.2811 119.979 83.8535C119.404 84.4259 118.684 84.8552 117.965 85.1414C117.246 85.4276 116.382 85.7138 115.663 85.7138H115.088H114.512H113.505C112.786 85.7138 112.211 85.7138 111.491 85.7138C108.758 85.7138 106.168 85.7138 103.579 85.7138C100.989 85.8569 98.4 85.5707 95.8105 85.7138C93.221 85.8569 90.6316 85.5707 88.186 85.7138C85.5965 85.8569 83.1509 85.8569 80.7053 85.7138C78.2596 85.7138 75.814 85.2845 73.3684 85.7138C70.9228 85.8569 68.6211 86.2861 66.1754 85.7138C63.8737 85.8569 61.5719 85.4276 59.2702 85.7138C56.9684 85.2845 54.8105 85.7138 52.6526 85.7138C50.4947 85.5707 48.3368 85.5707 46.1789 85.7138C44.021 85.8569 42.007 85.5707 39.993 85.7138C37.9789 85.9999 35.9649 85.4276 34.0947 85.7138C32.2246 85.7138 30.3544 85.7138 28.4842 85.7138C26.614 86.2861 24.8877 85.7138 23.1614 85.7138C21.4351 85.5707 19.7088 86.143 18.1263 85.7138C16.5439 86.143 14.9614 85.7138 13.3789 85.7138C11.7965 85.5707 10.3579 85.8569 9.06316 85.7138C8.34386 85.8569 7.62456 85.8569 7.04912 85.7138C6.90526 85.7138 6.61754 85.7138 6.47368 85.7138C6.32982 85.7138 6.0421 85.7138 5.89824 85.5707C5.75438 85.5707 5.61053 85.4276 5.32281 85.4276C5.17895 85.4276 5.03509 85.2845 4.74737 85.2845C4.17193 84.9983 3.45263 84.7121 2.87719 84.4259C2.73333 84.2828 2.58947 84.2828 2.44561 84.1397C2.30175 83.9966 2.15789 83.9966 2.01403 83.8535C1.87018 83.7104 1.72632 83.7104 1.58246 83.5673C1.4386 83.4242 1.4386 83.2811 1.29474 83.138C0.431579 82.2795 -0.14386 81.1347 -0.28772 79.99C0.143859 79.2745 -4.17233e-07 78.9883 -4.17233e-07 78.7021C-4.17233e-07 78.4159 -4.17233e-07 78.1297 -4.17233e-07 77.9866C-4.17233e-07 77.5573 -4.17233e-07 76.985 -4.17233e-07 76.5557C-4.17233e-07 75.2678 0.143859 73.98 0.143859 72.9783C0.143859 72.4059 0.143859 71.9766 0.143859 71.5474C0.143859 71.4043 0.143859 71.4043 0.143859 71.2612V71.1181V70.975C0.143859 70.6888 0.287719 70.5457 0.287719 70.4026C0.431579 69.9733 0.719298 69.8302 1.00702 69.6871C1.29474 69.544 1.4386 69.4009 1.72632 69.4009Z" fill="#212529"/>
<path d="M61.1404 74.2661C61.1404 74.4092 60.9965 74.5523 60.7088 74.6954C60.7088 74.6954 60.5649 74.6954 60.5649 74.8385L60.4211 74.9816C60.2772 74.8385 60.4211 75.4109 60.2772 75.1247C60.1333 75.1247 60.1333 75.1247 60.1333 75.2678C60.1333 75.4109 59.9895 75.2678 59.9895 75.4109C60.1333 75.554 59.9895 75.554 59.8456 75.4109C59.7018 75.4109 59.7018 75.2678 59.8456 75.554C59.8456 75.6971 59.8456 75.6971 59.7018 75.6971C59.414 75.554 59.5579 75.8402 59.5579 75.8402C59.2702 75.6971 59.2702 75.8402 59.414 76.1264C58.9825 75.9833 58.9825 76.1264 59.414 76.4126C59.414 76.5556 59.1263 76.5556 59.414 76.6987C59.414 76.8418 59.5579 76.8418 59.414 76.9849C59.7018 77.128 59.7018 77.128 59.414 77.2711C59.8456 77.2711 59.7018 77.4142 59.5579 77.5573C59.414 77.5573 59.5579 77.7004 59.7018 77.7004C59.8456 77.7004 59.8456 77.7004 59.7018 77.8435C59.7018 77.9866 59.8456 77.9866 59.8456 77.9866C59.8456 78.1297 59.8456 78.1297 59.8456 78.1297C59.8456 78.1297 59.9895 78.1297 60.1333 78.1297C60.2772 78.1297 60.4211 78.1297 60.4211 78.2728C60.7088 77.9866 60.7088 78.1297 60.7088 78.4159C60.7088 78.4159 60.8526 78.4159 60.8526 78.559H60.9965H61.1404H61.2842L61.4281 78.7021C61.4281 78.7021 61.5719 78.7021 61.5719 78.559C61.5719 78.4159 61.5719 78.4159 61.7158 78.4159H61.8597C62.0035 78.559 62.0035 78.559 62.0035 78.4159C62.0035 78.4159 62.0035 78.2728 62.1474 78.2728C62.1474 78.2728 62.4351 78.2728 62.4351 78.1297V77.9866C62.4351 77.9866 62.4351 77.9866 62.579 77.9866C62.4351 77.8435 62.4351 77.8435 62.579 77.8435C62.7228 77.8435 62.8667 77.8435 62.7228 77.8435C62.8667 77.8435 62.8667 77.8435 62.8667 77.7004V77.5573C62.8667 77.5573 62.8667 77.4142 63.0105 77.4142C63.0105 77.4142 63.1544 77.2711 63.0105 77.2711V77.128C63.0105 77.128 63.0105 76.9849 63.1544 76.9849C63.0105 76.9849 63.0105 76.8418 63.1544 76.8418C63.1544 76.8418 63.2983 76.6987 63.1544 76.6987C63.1544 76.5556 63.1544 76.5556 63.1544 76.4126C63.2983 76.2695 63.2983 76.2695 63.2983 76.2695H63.1544C63.1544 76.1264 62.8667 76.2695 63.0105 75.9833C63.0105 75.8402 63.1544 75.6971 62.8667 75.8402C62.8667 75.8402 62.8667 75.6971 63.0105 75.554C63.0105 75.4109 63.0105 75.4109 62.8667 75.554V75.4109C62.8667 75.2678 62.8667 75.2678 62.7228 75.4109C62.4351 75.6971 62.579 75.2678 62.579 75.2678L62.4351 75.1247C61.5719 74.6954 61.1404 74.5523 61.1404 74.2661C61.1404 74.123 61.2842 73.9799 61.5719 73.9799C61.8597 73.8368 62.2912 73.8368 62.8667 74.123C63.0105 74.123 63.2983 73.9799 63.1544 74.2661C63.2983 74.2661 63.4421 74.2661 63.4421 74.4092C63.8737 74.2661 63.7298 74.5523 63.7298 74.6954C63.8737 74.8385 63.8737 74.9816 64.0175 74.9816C64.3053 74.9816 64.0175 75.2678 64.3053 75.4109C64.1614 75.6971 64.3053 75.8402 64.593 75.8402C64.4491 75.9833 64.593 75.9833 64.593 76.1264C64.593 76.2695 64.7368 76.2695 64.7368 76.4126C64.4491 76.6987 64.7368 76.8418 64.8807 76.9849C65.0246 77.128 64.8807 77.128 64.8807 77.2711C64.8807 77.4142 64.8807 77.4142 64.8807 77.5573C64.7368 77.7004 64.8807 77.9866 64.7368 78.1297C64.8807 78.4159 64.7368 78.7021 64.4491 78.7021C64.4491 78.9883 64.3053 79.1314 64.1614 79.2744C64.1614 79.4175 64.0175 79.5606 64.0175 79.5606C63.8737 79.7037 63.8737 79.7037 63.7298 79.8468C63.7298 79.9899 63.586 79.9899 63.4421 79.9899C63.2982 79.9899 63.1544 80.133 63.2983 80.2761C63.1544 80.4192 62.8667 80.4192 62.7228 80.5623C62.4351 80.5623 62.2912 80.5623 62.0035 80.8485C61.8597 80.7054 61.7158 80.7054 61.5719 80.7054C61.4281 80.7054 61.2842 80.8485 61.2842 80.9916C61.1404 80.9916 60.9965 80.9916 60.8526 80.9916C60.7088 80.9916 60.5649 80.9916 60.4211 80.8485C60.1333 80.8485 59.9895 80.7054 59.7018 80.5623C59.5579 80.5623 59.414 80.4192 59.414 80.4192C59.2702 80.2761 59.2702 80.2761 59.1263 80.2761C58.9825 80.2761 58.8386 80.133 58.8386 80.133C58.8386 79.9899 58.6947 79.8468 58.5509 79.8468C58.407 79.8468 58.2632 79.7037 58.2632 79.7037C58.1193 79.5606 58.1193 79.5606 58.1193 79.4175C58.1193 79.2744 58.1193 79.1313 57.9754 79.1313C57.9754 78.9883 57.9754 78.9883 57.6877 78.8452C57.5439 78.7021 57.4 78.7021 57.4 78.7021C57.2561 78.559 57.2561 78.559 57.5439 78.2728C57.4 78.1297 57.5439 78.1297 57.5439 77.9866C57.5439 77.8435 57.5439 77.8435 57.4 77.7004C57.5439 77.4142 57.5439 77.2711 57.5439 77.128C57.5439 76.9849 57.4 76.9849 57.4 76.8418C57.5439 76.6987 57.6877 76.5556 57.5439 76.2695C57.4 76.1264 57.5439 76.1264 57.5439 75.9833C57.5439 75.8402 57.6877 75.8402 57.6877 75.6971C57.5439 75.554 57.6877 75.554 57.8316 75.4109C57.9754 75.4109 57.9754 75.2678 57.9754 75.1247C58.1193 74.9816 58.1193 74.8385 58.2632 74.6954C58.1193 74.4092 58.1193 74.4092 58.2632 74.4092C58.407 74.4092 58.5509 74.4092 58.5509 74.4092C58.6947 74.4092 58.5509 74.2661 58.6947 74.123C58.6947 73.9799 58.6947 73.9799 58.9825 74.123C58.8386 73.6937 59.1263 73.8368 59.2702 73.9799C59.414 73.9799 59.414 73.6937 59.5579 73.8368C59.5579 73.5506 59.8456 73.8368 59.8456 73.6937C59.9895 73.8368 59.9895 73.6937 60.1333 73.6937C60.1333 73.5507 60.2772 73.5507 60.4211 73.6937C60.5649 73.6937 60.5649 73.6937 60.7088 73.6937C60.8526 73.6937 61.1404 73.8368 61.1404 73.8368C61.1404 74.123 61.1404 74.123 61.1404 74.2661Z" fill="#212529"/>
<path d="M43.7333 52.0865C43.5895 52.0865 43.4456 51.6572 43.3018 50.9417C43.3018 50.7986 43.3018 50.6555 43.3018 50.5124C43.3018 50.3693 43.1579 50.2262 43.3018 50.0831C43.4456 49.94 42.8702 49.7969 43.3018 49.6538C43.4456 49.5107 43.3018 49.2246 43.3018 49.0815C43.3018 48.9384 43.4456 48.6522 43.3018 48.5091C42.8702 48.366 43.7333 48.0798 43.3018 47.7936C43.1579 47.5074 43.1579 47.3643 43.3018 47.0781C43.5895 46.7919 43.3018 46.6488 43.3018 46.3627C43.7333 46.0765 43.4456 45.7903 43.3018 45.6472C43.7333 45.361 43.7333 45.0748 43.3018 44.7886C43.3018 44.5024 43.4456 44.2162 43.3018 43.93C43.3018 43.6439 43.1579 43.3577 43.3018 43.0715C43.014 42.7853 43.014 42.4991 43.3018 42.2129C43.014 41.9267 43.1579 41.6405 43.3018 41.2112C43.4456 40.9251 43.014 40.4958 43.3018 40.2096C43.3018 39.9234 43.1579 39.4941 43.3018 39.2079C43.4456 38.9217 43.5895 38.4924 43.3018 38.2063C43.1579 37.9201 43.1579 37.4908 43.3018 37.2046C42.8702 36.9184 43.1579 36.4891 43.3018 36.2029C43.3018 35.7736 43.4456 35.4874 43.3018 35.0582C43.3018 34.6289 43.1579 34.3427 43.3018 33.9134C43.4456 33.4841 43.5895 33.1979 43.3018 32.7686C43.014 32.3394 43.4456 32.0532 43.3018 31.6239C43.5895 31.1946 43.1579 30.9084 43.3018 30.6222C43.3018 30.336 43.4456 29.9067 43.3018 29.6206C43.3018 29.3344 43.1579 28.9051 43.3018 28.6189C42.7263 28.3327 43.4456 27.9034 43.3018 27.6172C43.5895 27.331 43.3018 26.9018 43.3018 26.6156C43.1579 26.3294 43.5895 26.0432 43.3018 25.6139C43.3018 25.3277 43.1579 25.0415 43.3018 24.7553C43.014 24.4691 43.5895 24.183 43.3018 23.8968C43.3018 23.6106 43.3018 23.3244 43.3018 23.0382C43.7333 22.752 43.3018 22.4658 43.3018 22.1796C43.3018 21.8934 43.014 21.6072 43.3018 21.4642C43.3018 21.178 43.5895 21.0349 43.3018 20.7487C43.3018 20.4625 43.8772 20.3194 43.3018 20.0332C43.1579 19.747 43.7333 19.6039 43.3018 19.3177C43.014 19.1746 43.3018 18.8884 43.3018 18.7453C43.3018 18.6023 43.3018 18.3161 43.3018 18.173C43.4456 16.5989 43.7333 15.7404 43.8772 15.7404C44.1649 15.7404 44.3088 16.8851 44.5965 18.7453C44.5965 18.8884 44.8842 19.1746 44.5965 19.3177C44.5965 19.4608 44.8842 19.747 44.5965 20.0332C45.0281 20.3194 44.5965 20.4625 44.5965 20.7487C44.5965 21.0349 44.4526 21.178 44.5965 21.4642C44.8842 21.7503 44.4526 22.0365 44.5965 22.1796C44.3088 22.4658 44.4526 22.752 44.5965 23.0382C44.3088 23.3244 44.5965 23.6106 44.5965 23.8968C44.1649 24.183 44.4526 24.4691 44.5965 24.7553C44.7404 25.0415 44.5965 25.3277 44.5965 25.6139C44.5965 25.9001 44.7404 26.1863 44.5965 26.6156C44.7404 26.9018 44.8842 27.331 44.5965 27.6172C44.7404 27.9034 44.5965 28.3327 44.5965 28.6189C44.7404 28.9051 44.5965 29.3344 44.5965 29.6206C44.7404 29.9067 44.1649 30.336 44.5965 30.6222C44.5965 30.9084 44.5965 31.3377 44.5965 31.6239C44.5965 32.0532 44.4526 32.3394 44.5965 32.7686C44.1649 33.1979 44.4526 33.4841 44.5965 33.9134C44.7404 34.3427 44.5965 34.6289 44.5965 35.0582C44.5965 35.4874 44.5965 35.7736 44.5965 36.2029C44.7404 36.6322 44.4526 36.9184 44.5965 37.2046C44.7404 37.4908 44.4526 37.9201 44.5965 38.2063C44.7404 38.4924 44.7404 38.9217 44.5965 39.2079C44.5965 39.4941 44.1649 39.9234 44.5965 40.2096C44.7404 40.4958 45.1719 40.9251 44.5965 41.2112C44.7404 41.4974 44.3088 41.7836 44.5965 42.2129C44.1649 42.4991 44.5965 42.7853 44.5965 43.0715C44.4526 43.3577 44.4526 43.6439 44.5965 43.93C44.7404 44.2162 44.4526 44.5024 44.5965 44.7886C44.8842 45.0748 44.3088 45.361 44.5965 45.6472C44.5965 45.9334 44.5965 46.2196 44.5965 46.3627C45.1719 46.6488 44.5965 46.7919 44.5965 47.0781C44.4526 47.3643 45.0281 47.5074 44.5965 47.7936C45.0281 48.0798 44.5965 48.2229 44.5965 48.5091C44.4526 48.6522 44.7404 48.9384 44.5965 49.0815C44.8842 49.2246 44.4526 49.5107 44.5965 49.6538C44.4526 49.7969 44.5965 49.94 44.5965 50.0831C44.5965 50.2262 44.5965 50.3693 44.5965 50.5124C44.5965 50.6555 44.5965 50.7986 44.5965 50.9417C44.0211 51.6572 43.8772 52.0865 43.7333 52.0865Z" fill="#212529"/>
<path d="M43.7333 52.0864C43.7333 51.9433 44.1649 51.8002 45.1719 51.6571C45.3158 51.6571 45.4597 51.6571 45.6035 51.6571C45.7474 51.6571 45.8912 51.5141 46.1789 51.6571C46.3228 51.8002 46.6105 51.2279 46.7544 51.6571C46.8983 51.8002 47.186 51.6571 47.4737 51.6571C47.7614 51.6571 47.9053 51.8002 48.193 51.6571C48.4807 51.2279 48.7684 52.0864 48.9123 51.6571C49.2 51.5141 49.4877 51.5141 49.7754 51.6571C50.0632 51.9433 50.3509 51.6571 50.6386 51.6571C50.9263 52.0864 51.214 51.8002 51.6456 51.6571C51.9333 52.0864 52.3649 52.0864 52.6526 51.6571C52.9404 51.6571 53.3719 51.8002 53.6597 51.6571C53.9474 51.6571 54.379 51.5141 54.6667 51.6571C55.0983 51.371 55.386 51.371 55.8175 51.6571C56.2491 51.371 56.5368 51.5141 56.9684 51.6571C57.4 51.8002 57.6877 51.371 58.1193 51.6571C58.5509 51.6571 58.9825 51.5141 59.2702 51.6571C59.7018 51.8002 60.1333 51.9433 60.5649 51.6571C60.9965 51.5141 61.4281 51.5141 61.8597 51.6571C62.2912 51.2279 62.7228 51.5141 63.1544 51.6571C63.586 51.6571 64.0175 51.8002 64.4491 51.6571C64.8807 51.6571 65.3123 51.5141 65.7439 51.6571C66.1754 51.8002 66.607 51.9433 67.0386 51.6571C67.4702 51.371 67.9018 51.8002 68.3333 51.6571C68.7649 51.9433 69.1965 51.5141 69.6281 51.6571C70.0597 51.6571 70.4912 51.8002 70.9228 51.6571C71.3544 51.6571 71.786 51.5141 72.2176 51.6571C72.6491 51.0848 73.0807 51.8002 73.5123 51.6571C73.9439 51.9433 74.3754 51.6571 74.6632 51.6571C75.0947 51.5141 75.3825 51.9433 75.814 51.6571C76.2456 51.6571 76.5333 51.5141 76.9649 51.6571C77.3965 51.371 77.6842 51.9433 78.1158 51.6571C78.4035 51.6571 78.8351 51.6571 79.1228 51.6571C79.4105 52.0864 79.8421 51.8002 80.1298 51.6571C80.4175 51.6571 80.7053 51.371 81.1368 51.6571C81.4246 51.6571 81.7123 51.9433 82 51.6571C82.2877 51.6571 82.5754 52.2295 82.8632 51.6571C83.1509 51.5141 83.4386 52.0864 83.5825 51.6571C83.8702 51.371 84.014 51.6571 84.3018 51.6571C84.5895 51.6571 84.7333 51.6571 85.0211 51.6571C86.8912 51.8002 88.0421 52.0864 88.0421 52.2295C88.0421 52.5157 86.7474 52.6588 84.3018 52.945C84.014 52.945 83.8702 53.2312 83.5825 52.945C83.2947 52.945 83.007 53.2312 82.8632 52.945C82.5754 53.3743 82.2877 53.0881 82 52.945C81.7123 52.945 81.4246 52.8019 81.1368 52.945C80.8491 53.2312 80.5614 52.8019 80.1298 52.945C79.8421 52.6588 79.4105 52.8019 79.1228 52.945C78.8351 52.6588 78.4035 52.945 78.1158 52.945C77.8281 52.5157 77.3965 52.8019 76.9649 52.945C76.5333 53.0881 76.2456 52.945 75.814 52.945C75.3825 52.945 75.0947 53.0881 74.6632 52.945C74.2316 53.0881 73.9439 53.2312 73.5123 52.945C73.0807 53.0881 72.6491 52.945 72.2176 52.945C71.786 53.0881 71.3544 52.945 70.9228 52.945C70.4912 53.0881 70.0597 52.5157 69.6281 52.945C69.1965 52.945 68.7649 52.945 68.3333 52.945C67.9018 52.945 67.4702 52.8019 67.0386 52.945C66.607 52.5157 66.1754 52.8019 65.7439 52.945C65.3123 53.0881 64.8807 52.945 64.4491 52.945C64.0175 52.945 63.586 52.945 63.1544 52.945C62.7228 53.0881 62.2912 52.8019 61.8597 52.945C61.4281 53.0881 60.9965 52.8019 60.5649 52.945C60.1333 53.0881 59.7018 53.0881 59.2702 52.945C58.8386 52.945 58.407 52.5157 58.1193 52.945C57.6877 53.0881 57.2561 53.5174 56.9684 52.945C56.5368 53.0881 56.2491 52.6588 55.8175 52.945C55.386 52.5157 55.0983 52.945 54.6667 52.945C54.2351 52.8019 53.9474 52.8019 53.6597 52.945C53.3719 53.0881 52.9404 52.8019 52.6526 52.945C52.3649 53.2312 51.9333 52.6588 51.6456 52.945C51.3579 52.945 51.0702 52.945 50.6386 52.945C50.3509 53.5174 50.0632 52.945 49.7754 52.945C49.4877 52.8019 49.2 53.3743 48.9123 52.945C48.6246 53.3743 48.3368 52.945 48.193 52.945C47.9053 52.8019 47.7614 53.0881 47.4737 52.945C47.186 53.2312 47.0421 52.8019 46.7544 52.945C46.6105 52.8019 46.3228 52.945 46.1789 52.945C46.0351 52.945 45.7474 52.945 45.6035 52.945C45.4597 52.945 45.3158 52.945 45.1719 52.945C44.1649 52.3726 43.7333 52.2295 43.7333 52.0864Z" fill="#212529"/>
<path d="M39.7053 21.178C39.7053 21.3211 39.7053 21.4642 39.5614 21.6073C39.5614 21.4642 39.5614 22.0366 39.4175 21.6073C39.4175 21.4642 39.4175 21.6073 39.2737 21.6073C39.2737 21.6073 39.2737 21.4642 39.1298 21.6073C39.1298 22.0366 39.1298 21.178 38.986 21.6073C38.986 21.7504 38.986 21.7504 38.8421 21.6073C38.8421 21.3211 38.6982 21.6073 38.6982 21.6073C38.6982 21.178 38.5544 21.4642 38.5544 21.6073C38.5544 21.178 38.4105 21.178 38.4105 21.6073C38.4105 21.6073 38.2667 21.4642 38.2667 21.6073C38.2667 21.6073 38.1228 21.7504 38.1228 21.6073C38.1228 21.8935 37.9789 21.8935 37.9789 21.6073C37.9789 21.8935 37.8351 21.7504 37.8351 21.6073C37.8351 21.4642 37.6912 21.8935 37.6912 21.6073C37.6912 21.6073 37.5474 21.7504 37.5474 21.6073C37.5474 21.4642 37.4035 21.3211 37.4035 21.6073C37.4035 21.7504 37.2596 21.7504 37.2596 21.6073C37.2596 22.0366 37.1158 21.7504 37.1158 21.6073C37.1158 21.6073 36.9719 21.4642 36.9719 21.6073C36.9719 21.6073 36.8281 21.7504 36.8281 21.6073C36.8281 21.4642 36.6842 21.3211 36.6842 21.6073C36.6842 21.8935 36.5403 21.4642 36.5403 21.6073C36.5403 21.3211 36.3965 21.7504 36.3965 21.6073C36.3965 21.6073 36.2526 21.4642 36.2526 21.6073C36.2526 21.6073 36.1088 21.7504 36.1088 21.6073C36.1088 22.1797 35.9649 21.4642 35.9649 21.6073C35.9649 21.3211 35.821 21.6073 35.821 21.6073C35.821 21.7504 35.6772 21.3211 35.6772 21.6073C35.6772 21.6073 35.5333 21.7504 35.5333 21.6073C35.5333 21.8935 35.3895 21.3211 35.3895 21.6073H35.2456C35.2456 21.178 35.1017 21.4642 35.1017 21.6073C35.1017 21.6073 34.9579 21.8935 34.9579 21.6073C34.9579 21.6073 34.814 21.3211 34.814 21.6073C34.814 21.6073 34.814 21.0349 34.6702 21.6073C34.6702 21.7504 34.6702 21.178 34.5263 21.6073C34.5263 21.8935 34.5263 21.6073 34.3824 21.6073C34.3824 21.6073 34.3824 21.6073 34.2386 21.6073C33.9509 21.4642 33.807 21.178 33.807 21.0349C33.807 20.7487 33.9509 20.6056 34.2386 20.3194C34.2386 20.3194 34.2386 20.0332 34.3824 20.3194C34.3824 20.3194 34.3824 20.0332 34.5263 20.3194C34.5263 19.8901 34.5263 20.1763 34.6702 20.3194C34.6702 20.3194 34.814 20.4625 34.814 20.3194C34.814 20.0332 34.9579 20.4625 34.9579 20.3194C34.9579 20.6056 35.1017 20.4625 35.1017 20.3194C35.1017 20.6056 35.2456 20.3194 35.2456 20.3194C35.2456 20.7487 35.3895 20.4625 35.3895 20.3194C35.3895 20.1763 35.5333 20.3194 35.5333 20.3194C35.5333 20.3194 35.6772 20.1763 35.6772 20.3194C35.6772 20.1763 35.821 20.0332 35.821 20.3194C35.821 20.1763 35.9649 20.3194 35.9649 20.3194C35.9649 20.1763 36.1088 20.3194 36.1088 20.3194C36.1088 20.1763 36.2526 20.7487 36.2526 20.3194H36.3965C36.3965 20.3194 36.5403 20.4625 36.5403 20.3194C36.5403 20.7487 36.6842 20.4625 36.6842 20.3194C36.6842 20.1763 36.8281 20.3194 36.8281 20.3194H36.9719C36.9719 20.1763 37.1158 20.4625 37.1158 20.3194C37.1158 20.1763 37.2596 20.4625 37.2596 20.3194C37.2596 20.1763 37.4035 20.1763 37.4035 20.3194C37.4035 20.3194 37.5474 20.7487 37.5474 20.3194C37.5474 20.1763 37.6912 19.747 37.6912 20.3194C37.6912 20.1763 37.8351 20.6056 37.8351 20.3194C37.8351 20.7487 37.9789 20.3194 37.9789 20.3194C37.9789 20.4625 38.1228 20.4625 38.1228 20.3194C38.1228 20.1763 38.2667 20.4625 38.2667 20.3194C38.2667 20.0332 38.4105 20.6056 38.4105 20.3194H38.5544C38.5544 19.747 38.6982 20.3194 38.6982 20.3194C38.6982 20.4625 38.6982 19.8901 38.8421 20.3194C38.8421 19.8901 38.8421 20.3194 38.986 20.3194C38.986 20.4625 38.986 20.1763 39.1298 20.3194C39.1298 20.0332 39.1298 20.4625 39.2737 20.3194C39.2737 20.4625 39.2737 20.3194 39.4175 20.3194C39.5614 20.8918 39.7053 21.0349 39.7053 21.178Z" fill="#212529"/>
<path d="M39.7053 27.4741C39.7053 27.6172 39.7053 27.7603 39.5614 27.9034C39.5614 27.7603 39.5614 28.3327 39.4175 27.9034C39.4175 27.7603 39.4175 27.9034 39.2737 27.9034C39.2737 27.9034 39.2737 27.7603 39.1298 27.9034C39.1298 28.3327 39.1298 27.4741 38.986 27.9034C38.986 28.0465 38.986 28.0465 38.8421 27.9034C38.8421 27.6172 38.6982 27.9034 38.6982 27.9034C38.6982 27.4741 38.5544 27.7603 38.5544 27.9034C38.5544 27.4741 38.4105 27.4741 38.4105 27.9034C38.4105 27.9034 38.2667 27.7603 38.2667 27.9034C38.2667 27.9034 38.1228 28.0465 38.1228 27.9034C38.1228 28.1896 37.9789 28.1896 37.9789 27.9034C37.9789 28.1896 37.8351 28.0465 37.8351 27.9034C37.8351 27.7603 37.6912 28.1896 37.6912 27.9034C37.6912 27.9034 37.5474 28.0465 37.5474 27.9034C37.5474 27.7603 37.4035 27.6172 37.4035 27.9034C37.4035 28.0465 37.2596 28.0465 37.2596 27.9034C37.2596 28.3327 37.1158 28.0465 37.1158 27.9034C37.1158 27.9034 36.9719 27.7603 36.9719 27.9034C36.9719 27.9034 36.8281 28.0465 36.8281 27.9034C36.8281 27.7603 36.6842 27.6172 36.6842 27.9034C36.6842 28.1896 36.5403 27.7603 36.5403 27.9034C36.5403 27.6172 36.3965 28.0465 36.3965 27.9034C36.3965 27.9034 36.2526 27.7603 36.2526 27.9034C36.2526 27.9034 36.1088 28.0465 36.1088 27.9034C36.1088 28.4758 35.9649 27.7603 35.9649 27.9034C35.9649 27.6172 35.821 27.9034 35.821 27.9034C35.821 28.0465 35.6772 27.6172 35.6772 27.9034C35.6772 27.9034 35.5333 28.0465 35.5333 27.9034C35.5333 28.1896 35.3895 27.6172 35.3895 27.9034H35.2456C35.2456 27.4741 35.1017 27.7603 35.1017 27.9034C35.1017 27.9034 34.9579 28.1896 34.9579 27.9034C34.9579 27.9034 34.814 27.6172 34.814 27.9034C34.814 27.9034 34.814 27.331 34.6702 27.9034C34.6702 28.0465 34.6702 27.4741 34.5263 27.9034C34.5263 28.1896 34.5263 27.9034 34.3824 27.9034C34.3824 27.9034 34.3824 27.9034 34.2386 27.9034C33.9509 27.7603 33.807 27.4741 33.807 27.331C33.807 27.0448 33.9509 26.9018 34.2386 26.6156C34.2386 26.6156 34.2386 26.3294 34.3824 26.6156C34.3824 26.6156 34.3824 26.3294 34.5263 26.6156C34.5263 26.1863 34.5263 26.4725 34.6702 26.6156C34.6702 26.6156 34.814 26.7587 34.814 26.6156C34.814 26.3294 34.9579 26.7587 34.9579 26.6156C34.9579 26.9018 35.1017 26.7587 35.1017 26.6156C35.1017 26.9018 35.2456 26.6156 35.2456 26.6156C35.2456 27.0448 35.3895 26.7587 35.3895 26.6156C35.3895 26.4725 35.5333 26.6156 35.5333 26.6156C35.5333 26.6156 35.6772 26.4725 35.6772 26.6156C35.6772 26.4725 35.821 26.3294 35.821 26.6156C35.821 26.4725 35.9649 26.6156 35.9649 26.6156C35.9649 26.4725 36.1088 26.6156 36.1088 26.6156C36.1088 26.4725 36.2526 27.0448 36.2526 26.6156H36.3965C36.3965 26.6156 36.5403 26.7587 36.5403 26.6156C36.5403 27.0448 36.6842 26.7587 36.6842 26.6156C36.6842 26.4725 36.8281 26.6156 36.8281 26.6156H36.9719C36.9719 26.4725 37.1158 26.7587 37.1158 26.6156C37.1158 26.4725 37.2596 26.7587 37.2596 26.6156C37.2596 26.4725 37.4035 26.4725 37.4035 26.6156C37.4035 26.6156 37.5474 27.0448 37.5474 26.6156C37.5474 26.4725 37.6912 26.0432 37.6912 26.6156C37.6912 26.4725 37.8351 26.9018 37.8351 26.6156C37.8351 27.0448 37.9789 26.6156 37.9789 26.6156C37.9789 26.7587 38.1228 26.7587 38.1228 26.6156C38.1228 26.4725 38.2667 26.7587 38.2667 26.6156C38.2667 26.3294 38.4105 26.9018 38.4105 26.6156H38.5544C38.5544 26.0432 38.6982 26.6156 38.6982 26.6156C38.6982 26.7587 38.6982 26.1863 38.8421 26.6156C38.8421 26.1863 38.8421 26.6156 38.986 26.6156C38.986 26.7587 38.986 26.4725 39.1298 26.6156C39.1298 26.3294 39.1298 26.7587 39.2737 26.6156C39.2737 26.7587 39.2737 26.6156 39.4175 26.6156C39.5614 27.1879 39.7053 27.331 39.7053 27.4741Z" fill="#212529"/>
<path d="M39.7053 33.9135C39.7053 34.0566 39.7053 34.1997 39.5614 34.3427C39.5614 34.1997 39.5614 34.772 39.4175 34.3427C39.4175 34.1997 39.4175 34.3427 39.2737 34.3427C39.2737 34.3427 39.2737 34.1997 39.1298 34.3427C39.1298 34.772 39.1298 33.9135 38.986 34.3427C38.986 34.4858 38.986 34.4858 38.8421 34.3427C38.8421 34.0566 38.6982 34.3427 38.6982 34.3427C38.6982 33.9135 38.5544 34.1997 38.5544 34.3427C38.5544 33.9135 38.4105 33.9135 38.4105 34.3427C38.4105 34.3427 38.2667 34.1997 38.2667 34.3427C38.2667 34.3427 38.1228 34.4858 38.1228 34.3427C38.1228 34.6289 37.9789 34.6289 37.9789 34.3427C37.9789 34.6289 37.8351 34.4858 37.8351 34.3427C37.8351 34.1997 37.6912 34.6289 37.6912 34.3427C37.6912 34.3427 37.5474 34.4858 37.5474 34.3427C37.5474 34.1997 37.4035 34.0566 37.4035 34.3427C37.4035 34.4858 37.2596 34.4858 37.2596 34.3427C37.2596 34.772 37.1158 34.4858 37.1158 34.3427C37.1158 34.3427 36.9719 34.1997 36.9719 34.3427C36.9719 34.3427 36.8281 34.4858 36.8281 34.3427C36.8281 34.1997 36.6842 34.0566 36.6842 34.3427C36.6842 34.6289 36.5403 34.1997 36.5403 34.3427C36.5403 34.0566 36.3965 34.4858 36.3965 34.3427C36.3965 34.3427 36.2526 34.1997 36.2526 34.3427C36.2526 34.3427 36.1088 34.4858 36.1088 34.3427C36.1088 34.9151 35.9649 34.1997 35.9649 34.3427C35.9649 34.0566 35.821 34.3427 35.821 34.3427C35.821 34.4858 35.6772 34.0566 35.6772 34.3427C35.6772 34.3427 35.5333 34.4858 35.5333 34.3427C35.5333 34.6289 35.3895 34.0566 35.3895 34.3427H35.2456C35.2456 33.9135 35.1017 34.1997 35.1017 34.3427C35.1017 34.3427 34.9579 34.6289 34.9579 34.3427C34.9579 34.3427 34.814 34.0566 34.814 34.3427C34.814 34.3427 34.814 33.7704 34.6702 34.3427C34.6702 34.4858 34.6702 33.9135 34.5263 34.3427C34.5263 34.6289 34.5263 34.3427 34.3824 34.3427C34.3824 34.3427 34.3824 34.3427 34.2386 34.3427C33.9509 34.1997 33.807 33.9135 33.807 33.7704C33.807 33.4842 33.9509 33.3411 34.2386 33.0549C34.2386 33.0549 34.2386 32.7687 34.3824 33.0549C34.3824 33.0549 34.3824 32.7687 34.5263 33.0549C34.5263 32.6256 34.5263 32.9118 34.6702 33.0549C34.6702 33.0549 34.814 33.198 34.814 33.0549C34.814 32.7687 34.9579 33.198 34.9579 33.0549C34.9579 33.3411 35.1017 33.198 35.1017 33.0549C35.1017 33.3411 35.2456 33.0549 35.2456 33.0549C35.2456 33.4842 35.3895 33.198 35.3895 33.0549C35.3895 32.9118 35.5333 33.0549 35.5333 33.0549C35.5333 33.0549 35.6772 32.9118 35.6772 33.0549C35.6772 32.9118 35.821 32.7687 35.821 33.0549C35.821 32.9118 35.9649 33.0549 35.9649 33.0549C35.9649 32.9118 36.1088 33.0549 36.1088 33.0549C36.1088 32.9118 36.2526 33.4842 36.2526 33.0549H36.3965C36.3965 33.0549 36.5403 33.198 36.5403 33.0549C36.5403 33.4842 36.6842 33.198 36.6842 33.0549C36.6842 32.9118 36.8281 33.0549 36.8281 33.0549H36.9719C36.9719 32.9118 37.1158 33.198 37.1158 33.0549C37.1158 32.9118 37.2596 33.198 37.2596 33.0549C37.2596 32.9118 37.4035 32.9118 37.4035 33.0549C37.4035 33.0549 37.5474 33.4842 37.5474 33.0549C37.5474 32.9118 37.6912 32.4825 37.6912 33.0549C37.6912 32.9118 37.8351 33.3411 37.8351 33.0549C37.8351 33.4842 37.9789 33.0549 37.9789 33.0549C37.9789 33.198 38.1228 33.198 38.1228 33.0549C38.1228 32.9118 38.2667 33.198 38.2667 33.0549C38.2667 32.7687 38.4105 33.3411 38.4105 33.0549H38.5544C38.5544 32.4825 38.6982 33.0549 38.6982 33.0549C38.6982 33.198 38.6982 32.6256 38.8421 33.0549C38.8421 32.6256 38.8421 33.0549 38.986 33.0549C38.986 33.198 38.986 32.9118 39.1298 33.0549C39.1298 32.7687 39.1298 33.198 39.2737 33.0549C39.2737 33.198 39.2737 33.0549 39.4175 33.0549C39.5614 33.6273 39.7053 33.7704 39.7053 33.9135Z" fill="#212529"/>
<path d="M39.7053 40.3527C39.7053 40.4958 39.7053 40.6389 39.5614 40.782C39.5614 40.6389 39.5614 41.2112 39.4175 40.782C39.4175 40.6389 39.4175 40.782 39.2737 40.782C39.2737 40.782 39.2737 40.6389 39.1298 40.782C39.1298 41.2112 39.1298 40.3527 38.986 40.782C38.986 40.9251 38.986 40.9251 38.8421 40.782C38.8421 40.4958 38.6982 40.782 38.6982 40.782C38.6982 40.3527 38.5544 40.6389 38.5544 40.782C38.5544 40.3527 38.4105 40.3527 38.4105 40.782C38.4105 40.782 38.2667 40.6389 38.2667 40.782C38.2667 40.782 38.1228 40.9251 38.1228 40.782C38.1228 41.0681 37.9789 41.0681 37.9789 40.782C37.9789 41.0681 37.8351 40.9251 37.8351 40.782C37.8351 40.6389 37.6912 41.0681 37.6912 40.782C37.6912 40.782 37.5474 40.9251 37.5474 40.782C37.5474 40.6389 37.4035 40.4958 37.4035 40.782C37.4035 40.9251 37.2596 40.9251 37.2596 40.782C37.2596 41.2112 37.1158 40.9251 37.1158 40.782C37.1158 40.782 36.9719 40.6389 36.9719 40.782C36.9719 40.782 36.8281 40.9251 36.8281 40.782C36.8281 40.6389 36.6842 40.4958 36.6842 40.782C36.6842 41.0681 36.5403 40.6389 36.5403 40.782C36.5403 40.4958 36.3965 40.9251 36.3965 40.782C36.3965 40.782 36.2526 40.6389 36.2526 40.782C36.2526 40.782 36.1088 40.9251 36.1088 40.782C36.1088 41.3543 35.9649 40.6389 35.9649 40.782C35.9649 40.4958 35.821 40.782 35.821 40.782C35.821 40.9251 35.6772 40.4958 35.6772 40.782C35.6772 40.782 35.5333 40.9251 35.5333 40.782C35.5333 41.0681 35.3895 40.4958 35.3895 40.782H35.2456C35.2456 40.3527 35.1017 40.782 35.1017 40.782C35.1017 40.782 34.9579 41.0681 34.9579 40.782C34.9579 40.782 34.814 40.4958 34.814 40.782C34.814 40.782 34.814 40.2096 34.6702 40.782C34.6702 40.9251 34.6702 40.3527 34.5263 40.782C34.5263 41.0681 34.5263 40.782 34.3824 40.782C34.3824 40.782 34.3824 40.782 34.2386 40.782C33.9509 40.6389 33.807 40.3527 33.807 40.2096C33.807 39.9234 33.9509 39.7803 34.2386 39.4941C34.2386 39.4941 34.2386 39.2079 34.3824 39.4941C34.3824 39.4941 34.3824 39.2079 34.5263 39.4941C34.5263 39.0648 34.5263 39.351 34.6702 39.4941C34.6702 39.4941 34.814 39.6372 34.814 39.4941C34.814 39.2079 34.9579 39.6372 34.9579 39.4941C34.9579 39.7803 35.1017 39.6372 35.1017 39.4941C35.1017 39.7803 35.2456 39.4941 35.2456 39.4941C35.2456 39.9234 35.3895 39.6372 35.3895 39.4941C35.3895 39.351 35.5333 39.4941 35.5333 39.4941C35.5333 39.4941 35.6772 39.351 35.6772 39.4941C35.6772 39.351 35.821 39.2079 35.821 39.4941C35.821 39.351 35.9649 39.4941 35.9649 39.4941C35.9649 39.351 36.1088 39.4941 36.1088 39.4941C36.1088 39.351 36.2526 39.9234 36.2526 39.4941H36.3965C36.3965 39.4941 36.5403 39.6372 36.5403 39.4941C36.5403 39.9234 36.6842 39.6372 36.6842 39.4941C36.6842 39.351 36.8281 39.4941 36.8281 39.4941H36.9719C36.9719 39.351 37.1158 39.6372 37.1158 39.4941C37.1158 39.351 37.2596 39.6372 37.2596 39.4941C37.2596 39.351 37.4035 39.351 37.4035 39.4941C37.4035 39.4941 37.5474 39.9234 37.5474 39.4941C37.5474 39.351 37.6912 38.9217 37.6912 39.4941C37.6912 39.351 37.8351 39.7803 37.8351 39.4941C37.8351 39.9234 37.9789 39.4941 37.9789 39.4941C37.9789 39.6372 38.1228 39.6372 38.1228 39.4941C38.1228 39.351 38.2667 39.6372 38.2667 39.4941C38.2667 39.2079 38.4105 39.7803 38.4105 39.4941H38.5544C38.5544 38.9217 38.6982 39.4941 38.6982 39.4941C38.6982 39.6372 38.6982 39.0648 38.8421 39.4941C38.8421 39.0648 38.8421 39.4941 38.986 39.4941C38.986 39.6372 38.986 39.351 39.1298 39.4941C39.1298 39.2079 39.1298 39.6372 39.2737 39.4941C39.2737 39.6372 39.2737 39.4941 39.4175 39.4941C39.5614 39.9234 39.7053 40.0665 39.7053 40.3527Z" fill="#212529"/>
<path d="M39.7053 46.6489C39.7053 46.792 39.7053 46.9351 39.5614 47.0782C39.5614 46.9351 39.5614 47.5075 39.4175 47.0782C39.4175 46.9351 39.4175 47.0782 39.2737 47.0782C39.2737 47.0782 39.2737 46.9351 39.1298 47.0782C39.1298 47.5075 39.1298 46.6489 38.986 47.0782C38.986 47.2213 38.986 47.2213 38.8421 47.0782C38.8421 46.792 38.6982 47.0782 38.6982 47.0782C38.6982 46.6489 38.5544 46.9351 38.5544 47.0782C38.5544 46.6489 38.4105 46.6489 38.4105 47.0782C38.4105 47.0782 38.2667 46.9351 38.2667 47.0782C38.2667 47.0782 38.1228 47.2213 38.1228 47.0782C38.1228 47.3644 37.9789 47.3644 37.9789 47.0782C37.9789 47.3644 37.8351 47.2213 37.8351 47.0782C37.8351 46.9351 37.6912 47.3644 37.6912 47.0782C37.6912 47.0782 37.5474 47.2213 37.5474 47.0782C37.5474 46.9351 37.4035 46.792 37.4035 47.0782C37.4035 47.2213 37.2596 47.2213 37.2596 47.0782C37.2596 47.5075 37.1158 47.2213 37.1158 47.0782C37.1158 47.0782 36.9719 46.9351 36.9719 47.0782C36.9719 47.0782 36.8281 47.2213 36.8281 47.0782C36.8281 46.9351 36.6842 46.792 36.6842 47.0782C36.6842 47.3644 36.5403 46.9351 36.5403 47.0782C36.5403 46.792 36.3965 47.2213 36.3965 47.0782C36.3965 47.0782 36.2526 46.9351 36.2526 47.0782C36.2526 47.0782 36.1088 47.2213 36.1088 47.0782C36.1088 47.6506 35.9649 46.9351 35.9649 47.0782C35.9649 46.792 35.821 47.0782 35.821 47.0782C35.821 47.2213 35.6772 46.792 35.6772 47.0782C35.6772 47.0782 35.5333 47.2213 35.5333 47.0782C35.5333 47.3644 35.3895 46.792 35.3895 47.0782H35.2456C35.2456 46.6489 35.1017 46.9351 35.1017 47.0782C35.1017 47.0782 34.9579 47.3644 34.9579 47.0782C34.9579 47.0782 34.814 46.792 34.814 47.0782C34.814 47.0782 34.814 46.5058 34.6702 47.0782C34.6702 47.2213 34.6702 46.6489 34.5263 47.0782C34.5263 47.3644 34.5263 47.0782 34.3824 47.0782C34.3824 47.0782 34.3824 47.0782 34.2386 47.0782C33.9509 46.9351 33.807 46.6489 33.807 46.5058C33.807 46.2197 33.9509 46.0766 34.2386 45.7904C34.2386 45.7904 34.2386 45.5042 34.3824 45.7904C34.3824 45.7904 34.3824 45.5042 34.5263 45.7904C34.5263 45.3611 34.5263 45.6473 34.6702 45.7904C34.6702 45.7904 34.814 45.9335 34.814 45.7904C34.814 45.5042 34.9579 45.9335 34.9579 45.7904C34.9579 46.0766 35.1017 45.9335 35.1017 45.7904C35.1017 46.0766 35.2456 45.7904 35.2456 45.7904C35.2456 46.2197 35.3895 45.9335 35.3895 45.7904C35.3895 45.6473 35.5333 45.7904 35.5333 45.7904C35.5333 45.7904 35.6772 45.6473 35.6772 45.7904C35.6772 45.6473 35.821 45.5042 35.821 45.7904C35.821 45.6473 35.9649 45.7904 35.9649 45.7904C35.9649 45.6473 36.1088 45.7904 36.1088 45.7904C36.1088 45.6473 36.2526 46.2197 36.2526 45.7904H36.3965C36.3965 45.7904 36.5403 45.9335 36.5403 45.7904C36.5403 46.2197 36.6842 45.9335 36.6842 45.7904C36.6842 45.6473 36.8281 45.7904 36.8281 45.7904H36.9719C36.9719 45.6473 37.1158 45.9335 37.1158 45.7904C37.1158 45.6473 37.2596 45.9335 37.2596 45.7904C37.2596 45.6473 37.4035 45.6473 37.4035 45.7904C37.4035 45.7904 37.5474 46.2197 37.5474 45.7904C37.5474 45.6473 37.6912 45.218 37.6912 45.7904C37.6912 45.6473 37.8351 46.0766 37.8351 45.7904C37.8351 46.2197 37.9789 45.7904 37.9789 45.7904C37.9789 45.9335 38.1228 45.9335 38.1228 45.7904C38.1228 45.6473 38.2667 45.9335 38.2667 45.7904C38.2667 45.5042 38.4105 46.0766 38.4105 45.7904H38.5544C38.5544 45.218 38.6982 45.7904 38.6982 45.7904C38.6982 45.9335 38.6982 45.3611 38.8421 45.7904C38.8421 45.3611 38.8421 45.7904 38.986 45.7904C38.986 45.9335 38.986 45.6473 39.1298 45.7904C39.1298 45.5042 39.1298 45.9335 39.2737 45.7904C39.2737 45.9335 39.2737 45.7904 39.4175 45.7904C39.5614 46.3627 39.7053 46.5058 39.7053 46.6489Z" fill="#212529"/>
<path d="M78.8351 61.1015C78.6912 61.1015 78.5474 61.1015 78.4035 60.9584C78.5474 60.9584 77.9719 60.9584 78.4035 60.8153C78.5474 60.8153 78.4035 60.8153 78.4035 60.6722C78.4035 60.6722 78.5474 60.6722 78.4035 60.5291C77.9719 60.5291 78.8351 60.5291 78.4035 60.386C78.2596 60.386 78.2596 60.386 78.4035 60.2429C78.6912 60.2429 78.4035 60.0998 78.4035 60.0998C78.8351 60.0998 78.5474 59.9568 78.4035 59.9568C78.8351 59.9568 78.8351 59.8137 78.4035 59.8137C78.4035 59.8137 78.5474 59.6706 78.4035 59.6706C78.4035 59.6706 78.2596 59.5275 78.4035 59.5275C78.1158 59.5275 78.1158 59.3844 78.4035 59.3844C78.1158 59.3844 78.2596 59.2413 78.4035 59.2413C78.5474 59.2413 78.1158 59.0982 78.4035 59.0982C78.4035 59.0982 78.2596 58.9551 78.4035 58.9551C78.5474 58.9551 78.6912 58.812 78.4035 58.812C78.2596 58.812 78.2596 58.6689 78.4035 58.6689C77.9719 58.6689 78.2596 58.5258 78.4035 58.5258C78.4035 58.5258 78.5474 58.3827 78.4035 58.3827C78.4035 58.3827 78.2596 58.2396 78.4035 58.2396C78.5474 58.2396 78.6912 58.0965 78.4035 58.0965C78.1158 58.0965 78.5474 57.9534 78.4035 57.9534C78.6912 57.9534 78.2596 57.8103 78.4035 57.8103C78.4035 57.8103 78.5474 57.6672 78.4035 57.6672C78.4035 57.6672 78.2596 57.5241 78.4035 57.5241C77.8281 57.5241 78.5474 57.381 78.4035 57.381C78.6912 57.381 78.4035 57.2379 78.4035 57.2379C78.2596 57.2379 78.6912 57.0949 78.4035 57.0949C78.4035 57.0949 78.2596 56.9518 78.4035 56.9518C78.1158 56.9518 78.6912 56.8087 78.4035 56.8087V56.6656C78.8351 56.6656 78.4035 56.5225 78.4035 56.5225C78.4035 56.5225 78.1158 56.3794 78.4035 56.3794C78.4035 56.3794 78.6912 56.2363 78.4035 56.2363C78.4035 56.2363 78.9789 56.2363 78.4035 56.0932C78.2596 56.0932 78.8351 56.0932 78.4035 55.9501C78.1158 55.9501 78.4035 55.9501 78.4035 55.807C78.4035 55.807 78.4035 55.807 78.4035 55.6639C78.5474 55.3777 78.8351 55.2346 78.9789 55.2346C79.2667 55.2346 79.4105 55.3777 79.6982 55.6639C79.6982 55.6639 79.986 55.6639 79.6982 55.807C79.6982 55.807 79.986 55.807 79.6982 55.9501C80.1298 55.9501 79.8421 55.9501 79.6982 56.0932C79.6982 56.0932 79.5544 56.2363 79.6982 56.2363C79.986 56.2363 79.5544 56.3794 79.6982 56.3794C79.4105 56.3794 79.5544 56.5225 79.6982 56.5225C79.4105 56.5225 79.6982 56.6656 79.6982 56.6656C79.2667 56.6656 79.5544 56.8087 79.6982 56.8087C79.8421 56.8087 79.6982 56.9518 79.6982 56.9518C79.6982 56.9518 79.8421 57.0949 79.6982 57.0949C79.8421 57.0949 79.986 57.2379 79.6982 57.2379C79.8421 57.2379 79.6982 57.381 79.6982 57.381C79.8421 57.381 79.6982 57.5241 79.6982 57.5241C79.8421 57.5241 79.2667 57.6672 79.6982 57.6672V57.8103C79.6982 57.8103 79.5544 57.9534 79.6982 57.9534C79.2667 57.9534 79.5544 58.0965 79.6982 58.0965C79.8421 58.0965 79.6982 58.2396 79.6982 58.2396V58.3827C79.8421 58.3827 79.5544 58.5258 79.6982 58.5258C79.8421 58.5258 79.5544 58.6689 79.6982 58.6689C79.8421 58.6689 79.8421 58.812 79.6982 58.812C79.6982 58.812 79.2667 58.9551 79.6982 58.9551C79.8421 58.9551 80.2737 59.0982 79.6982 59.0982C79.8421 59.0982 79.4105 59.2413 79.6982 59.2413C79.2667 59.2413 79.6982 59.3844 79.6982 59.3844C79.5544 59.3844 79.5544 59.5275 79.6982 59.5275C79.8421 59.5275 79.5544 59.6706 79.6982 59.6706C79.986 59.6706 79.4105 59.8137 79.6982 59.8137V59.9568C80.2737 59.9568 79.6982 60.0998 79.6982 60.0998C79.5544 60.0998 80.1298 60.0998 79.6982 60.2429C80.1298 60.2429 79.6982 60.2429 79.6982 60.386C79.5544 60.386 79.8421 60.386 79.6982 60.5291C79.986 60.5291 79.5544 60.5291 79.6982 60.6722C79.5544 60.6722 79.6982 60.6722 79.6982 60.8153C79.1228 61.1015 78.9789 61.1015 78.8351 61.1015Z" fill="#212529"/>
<path d="M72.3614 61.1015C72.2175 61.1015 72.0737 61.1015 71.9298 60.9584C72.0737 60.9584 71.4982 60.9584 71.9298 60.8153C72.0737 60.8153 71.9298 60.8153 71.9298 60.6722C71.9298 60.6722 72.0737 60.6722 71.9298 60.5291C71.4982 60.5291 72.3614 60.5291 71.9298 60.386C71.786 60.386 71.786 60.386 71.9298 60.2429C72.2175 60.2429 71.9298 60.0998 71.9298 60.0998C72.3614 60.0998 72.0737 59.9568 71.9298 59.9568C72.3614 59.9568 72.3614 59.8137 71.9298 59.8137C71.9298 59.8137 72.0737 59.6706 71.9298 59.6706C71.9298 59.6706 71.786 59.5275 71.9298 59.5275C71.6421 59.5275 71.6421 59.3844 71.9298 59.3844C71.6421 59.3844 71.786 59.2413 71.9298 59.2413C72.0737 59.2413 71.6421 59.0982 71.9298 59.0982C71.9298 59.0982 71.786 58.9551 71.9298 58.9551C72.0737 58.9551 72.2175 58.812 71.9298 58.812C71.786 58.812 71.786 58.6689 71.9298 58.6689C71.4982 58.6689 71.786 58.5258 71.9298 58.5258C71.9298 58.5258 72.0737 58.3827 71.9298 58.3827C71.9298 58.3827 71.786 58.2396 71.9298 58.2396C72.0737 58.2396 72.2175 58.0965 71.9298 58.0965C71.6421 58.0965 72.0737 57.9534 71.9298 57.9534C72.2175 57.9534 71.786 57.8103 71.9298 57.8103C71.9298 57.8103 72.0737 57.6672 71.9298 57.6672C71.9298 57.6672 71.786 57.5241 71.9298 57.5241C71.3544 57.5241 72.0737 57.381 71.9298 57.381C72.2175 57.381 71.9298 57.2379 71.9298 57.2379C71.786 57.2379 72.2175 57.0949 71.9298 57.0949C71.9298 57.0949 71.786 56.9518 71.9298 56.9518C71.6421 56.9518 72.2175 56.8087 71.9298 56.8087V56.6656C72.3614 56.6656 72.0737 56.5225 71.9298 56.5225C71.9298 56.5225 71.6421 56.3794 71.9298 56.3794C71.9298 56.3794 72.2175 56.2363 71.9298 56.2363C71.9298 56.2363 72.5053 56.2363 71.9298 56.0932C71.786 56.0932 72.3614 56.0932 71.9298 55.9501C71.6421 55.9501 71.9298 55.9501 71.9298 55.807C71.9298 55.807 71.9298 55.807 71.9298 55.6639C72.0737 55.3777 72.3614 55.2346 72.5053 55.2346C72.793 55.2346 72.9368 55.3777 73.2246 55.6639C73.2246 55.6639 73.5123 55.6639 73.2246 55.807C73.2246 55.807 73.5123 55.807 73.2246 55.9501C73.6561 55.9501 73.3684 55.9501 73.2246 56.0932C73.2246 56.0932 73.0807 56.2363 73.2246 56.2363C73.5123 56.2363 73.0807 56.3794 73.2246 56.3794C72.9368 56.3794 73.0807 56.5225 73.2246 56.5225C72.9368 56.5225 73.2246 56.6656 73.2246 56.6656C72.793 56.6656 73.0807 56.8087 73.2246 56.8087C73.3684 56.8087 73.2246 56.9518 73.2246 56.9518C73.2246 56.9518 73.3684 57.0949 73.2246 57.0949C73.3684 57.0949 73.5123 57.2379 73.2246 57.2379C73.3684 57.2379 73.2246 57.381 73.2246 57.381C73.3684 57.381 73.2246 57.5241 73.2246 57.5241C73.3684 57.5241 72.793 57.6672 73.2246 57.6672V57.8103C73.2246 57.8103 73.0807 57.9534 73.2246 57.9534C72.793 57.9534 73.0807 58.0965 73.2246 58.0965C73.3684 58.0965 73.2246 58.2396 73.2246 58.2396V58.3827C73.3684 58.3827 73.0807 58.5258 73.2246 58.5258C73.3684 58.5258 73.0807 58.6689 73.2246 58.6689C73.3684 58.6689 73.3684 58.812 73.2246 58.812C73.2246 58.812 72.793 58.9551 73.2246 58.9551C73.3684 58.9551 73.8 59.0982 73.2246 59.0982C73.3684 59.0982 72.9368 59.2413 73.2246 59.2413C72.793 59.2413 73.2246 59.3844 73.2246 59.3844C73.0807 59.3844 73.0807 59.5275 73.2246 59.5275C73.3684 59.5275 73.0807 59.6706 73.2246 59.6706C73.5123 59.6706 72.9368 59.8137 73.2246 59.8137V59.9568C73.8 59.9568 73.2246 60.0998 73.2246 60.0998C73.0807 60.0998 73.6561 60.0998 73.2246 60.2429C73.6561 60.2429 73.2246 60.2429 73.2246 60.386C73.0807 60.386 73.3684 60.386 73.2246 60.5291C73.5123 60.5291 73.0807 60.5291 73.2246 60.6722C73.0807 60.6722 73.2246 60.6722 73.2246 60.8153C72.6491 61.1015 72.5053 61.1015 72.3614 61.1015Z" fill="#212529"/>
<path d="M66.0316 61.1015C65.8877 61.1015 65.7439 61.1015 65.6 60.9584C65.7439 60.9584 65.1684 60.9584 65.6 60.8153C65.7439 60.8153 65.6 60.8153 65.6 60.6722C65.6 60.6722 65.7439 60.6722 65.6 60.5291C65.1684 60.5291 66.0316 60.5291 65.6 60.386C65.4562 60.386 65.4562 60.386 65.6 60.2429C65.8877 60.2429 65.6 60.0998 65.6 60.0998C66.0316 60.0998 65.7439 59.9568 65.6 59.9568C66.0316 59.9568 66.0316 59.8137 65.6 59.8137C65.6 59.8137 65.7439 59.6706 65.6 59.6706C65.6 59.6706 65.4562 59.5275 65.6 59.5275C65.3123 59.5275 65.3123 59.3844 65.6 59.3844C65.3123 59.3844 65.4562 59.2413 65.6 59.2413C65.7439 59.2413 65.3123 59.0982 65.6 59.0982C65.6 59.0982 65.4562 58.9551 65.6 58.9551C65.7439 58.9551 65.8877 58.812 65.6 58.812C65.4562 58.812 65.4562 58.6689 65.6 58.6689C65.1684 58.6689 65.4562 58.5258 65.6 58.5258C65.6 58.5258 65.7439 58.3827 65.6 58.3827C65.6 58.3827 65.4562 58.2396 65.6 58.2396C65.7439 58.2396 65.8877 58.0965 65.6 58.0965C65.3123 58.0965 65.7439 57.9534 65.6 57.9534C65.8877 57.9534 65.4562 57.8103 65.6 57.8103C65.6 57.8103 65.7439 57.6672 65.6 57.6672C65.6 57.6672 65.4562 57.5241 65.6 57.5241C65.0246 57.5241 65.7439 57.381 65.6 57.381C65.8877 57.381 65.6 57.2379 65.6 57.2379C65.4562 57.2379 65.8877 57.0949 65.6 57.0949C65.6 57.0949 65.4562 56.9518 65.6 56.9518C65.3123 56.9518 65.8877 56.8087 65.6 56.8087V56.6656C66.0316 56.6656 65.7439 56.5225 65.6 56.5225C65.6 56.5225 65.3123 56.3794 65.6 56.3794C65.6 56.3794 65.8877 56.2363 65.6 56.2363C65.6 56.2363 66.1754 56.2363 65.6 56.0932C65.4562 56.0932 66.0316 56.0932 65.6 55.9501C65.3123 55.9501 65.6 55.9501 65.6 55.807C65.6 55.807 65.6 55.807 65.6 55.6639C65.7439 55.3777 66.0316 55.2346 66.1755 55.2346C66.4632 55.2346 66.607 55.3777 66.8947 55.6639C66.8947 55.6639 67.1825 55.6639 66.8947 55.807C66.8947 55.807 67.1825 55.807 66.8947 55.9501C67.3263 55.9501 67.0386 55.9501 66.8947 56.0932C66.8947 56.0932 66.7509 56.2363 66.8947 56.2363C67.1825 56.2363 66.7509 56.3794 66.8947 56.3794C66.607 56.3794 66.7509 56.5225 66.8947 56.5225C66.607 56.5225 66.8947 56.6656 66.8947 56.6656C66.4632 56.6656 66.7509 56.8087 66.8947 56.8087C67.0386 56.8087 66.8947 56.9518 66.8947 56.9518C66.8947 56.9518 67.0386 57.0949 66.8947 57.0949C67.0386 57.0949 67.1825 57.2379 66.8947 57.2379C67.0386 57.2379 66.8947 57.381 66.8947 57.381C67.0386 57.381 66.8947 57.5241 66.8947 57.5241C67.0386 57.5241 66.4632 57.6672 66.8947 57.6672V57.8103C66.8947 57.8103 66.7509 57.9534 66.8947 57.9534C66.4632 57.9534 66.7509 58.0965 66.8947 58.0965C67.0386 58.0965 66.8947 58.2396 66.8947 58.2396V58.3827C67.0386 58.3827 66.7509 58.5258 66.8947 58.5258C67.0386 58.5258 66.7509 58.6689 66.8947 58.6689C67.0386 58.6689 67.0386 58.812 66.8947 58.812C66.8947 58.812 66.4632 58.9551 66.8947 58.9551C67.0386 58.9551 67.4702 59.0982 66.8947 59.0982C67.0386 59.0982 66.607 59.2413 66.8947 59.2413C66.4632 59.2413 66.8947 59.3844 66.8947 59.3844C66.7509 59.3844 66.7509 59.5275 66.8947 59.5275C67.0386 59.5275 66.7509 59.6706 66.8947 59.6706C67.1825 59.6706 66.607 59.8137 66.8947 59.8137V59.9568C67.4702 59.9568 66.8947 60.0998 66.8947 60.0998C66.7509 60.0998 67.3263 60.0998 66.8947 60.2429C67.3263 60.2429 66.8947 60.2429 66.8947 60.386C66.7509 60.386 67.0386 60.386 66.8947 60.5291C67.1825 60.5291 66.7509 60.5291 66.8947 60.6722C66.7509 60.6722 66.8947 60.6722 66.8947 60.8153C66.3193 61.1015 66.1755 61.1015 66.0316 61.1015Z" fill="#212529"/>
<path d="M59.5579 61.1015C59.414 61.1015 59.2702 61.1015 59.1263 60.9584C59.2702 60.9584 58.6947 60.9584 59.1263 60.8153C59.2702 60.8153 59.1263 60.8153 59.1263 60.6722C59.1263 60.6722 59.2702 60.6722 59.1263 60.5291C58.6947 60.5291 59.5579 60.5291 59.1263 60.386C58.9825 60.386 58.9825 60.386 59.1263 60.2429C59.414 60.2429 59.1263 60.0998 59.1263 60.0998C59.5579 60.0998 59.2702 59.9568 59.1263 59.9568C59.5579 59.9568 59.5579 59.8137 59.1263 59.8137C59.1263 59.8137 59.2702 59.6706 59.1263 59.6706C59.1263 59.6706 58.9825 59.5275 59.1263 59.5275C58.8386 59.5275 58.8386 59.3844 59.1263 59.3844C58.8386 59.3844 58.9825 59.2413 59.1263 59.2413C59.2702 59.2413 58.8386 59.0982 59.1263 59.0982C59.1263 59.0982 58.9825 58.9551 59.1263 58.9551C59.2702 58.9551 59.414 58.812 59.1263 58.812C58.9825 58.812 58.9825 58.6689 59.1263 58.6689C58.6947 58.6689 58.9825 58.5258 59.1263 58.5258C59.1263 58.5258 59.2702 58.3827 59.1263 58.3827C59.1263 58.3827 58.9825 58.2396 59.1263 58.2396C59.2702 58.2396 59.414 58.0965 59.1263 58.0965C58.8386 58.0965 59.2702 57.9534 59.1263 57.9534C59.414 57.9534 58.9825 57.8103 59.1263 57.8103C59.1263 57.8103 59.2702 57.6672 59.1263 57.6672C59.1263 57.6672 58.9825 57.5241 59.1263 57.5241C58.5509 57.5241 59.2702 57.381 59.1263 57.381C59.414 57.381 59.1263 57.2379 59.1263 57.2379C58.9825 57.2379 59.414 57.0949 59.1263 57.0949C59.1263 57.0949 58.9825 56.9518 59.1263 56.9518C58.8386 56.9518 59.414 56.8087 59.1263 56.8087V56.6656C59.5579 56.6656 59.2702 56.5225 59.1263 56.5225C59.1263 56.5225 58.8386 56.3794 59.1263 56.3794C59.1263 56.3794 59.414 56.2363 59.1263 56.2363C59.1263 56.2363 59.7018 56.2363 59.1263 56.0932C58.9825 56.0932 59.5579 56.0932 59.1263 55.9501C58.8386 55.9501 59.1263 55.9501 59.1263 55.807C59.1263 55.807 59.1263 55.807 59.1263 55.6639C59.2702 55.3777 59.5579 55.2346 59.7018 55.2346C59.9895 55.2346 60.1333 55.3777 60.4211 55.6639C60.4211 55.6639 60.7088 55.6639 60.4211 55.807C60.4211 55.807 60.7088 55.807 60.4211 55.9501C60.8526 55.9501 60.4211 55.9501 60.4211 56.0932C60.4211 56.0932 60.2772 56.2363 60.4211 56.2363C60.7088 56.2363 60.2772 56.3794 60.4211 56.3794C60.1333 56.3794 60.2772 56.5225 60.4211 56.5225C60.1333 56.5225 60.4211 56.6656 60.4211 56.6656C59.9895 56.6656 60.2772 56.8087 60.4211 56.8087C60.5649 56.8087 60.4211 56.9518 60.4211 56.9518C60.4211 56.9518 60.5649 57.0949 60.4211 57.0949C60.5649 57.0949 60.7088 57.2379 60.4211 57.2379C60.5649 57.2379 60.4211 57.381 60.4211 57.381C60.5649 57.381 60.4211 57.5241 60.4211 57.5241C60.5649 57.5241 59.9895 57.6672 60.4211 57.6672V57.8103C60.4211 57.8103 60.2772 57.9534 60.4211 57.9534C59.9895 57.9534 60.2772 58.0965 60.4211 58.0965C60.5649 58.0965 60.4211 58.2396 60.4211 58.2396V58.3827C60.5649 58.3827 60.2772 58.5258 60.4211 58.5258C60.5649 58.5258 60.2772 58.6689 60.4211 58.6689C60.5649 58.6689 60.5649 58.812 60.4211 58.812C60.4211 58.812 59.9895 58.9551 60.4211 58.9551C60.5649 58.9551 60.9965 59.0982 60.4211 59.0982C60.5649 59.0982 60.1333 59.2413 60.4211 59.2413C59.9895 59.2413 60.4211 59.3844 60.4211 59.3844C60.2772 59.3844 60.2772 59.5275 60.4211 59.5275C60.5649 59.5275 60.2772 59.6706 60.4211 59.6706C60.7088 59.6706 60.1333 59.8137 60.4211 59.8137V59.9568C60.9965 59.9568 60.4211 60.0998 60.4211 60.0998C60.2772 60.0998 60.8526 60.0998 60.4211 60.2429C60.8526 60.2429 60.4211 60.2429 60.4211 60.386C60.2772 60.386 60.5649 60.386 60.4211 60.5291C60.7088 60.5291 60.2772 60.5291 60.4211 60.6722C60.2772 60.6722 60.4211 60.6722 60.4211 60.8153C59.8456 61.1015 59.7018 61.1015 59.5579 61.1015Z" fill="#212529"/>
<path d="M53.2281 61.1015C53.0842 61.1015 52.9403 61.1015 52.7965 60.9584C52.9403 60.9584 52.3649 60.9584 52.7965 60.8153C52.9403 60.8153 52.7965 60.8153 52.7965 60.6722C52.7965 60.6722 52.9403 60.6722 52.7965 60.5291C52.3649 60.5291 53.2281 60.5291 52.7965 60.386C52.6526 60.386 52.6526 60.386 52.7965 60.2429C53.0842 60.2429 52.7965 60.0998 52.7965 60.0998C53.2281 60.0998 52.9403 59.9568 52.7965 59.9568C53.2281 59.9568 53.2281 59.8137 52.7965 59.8137C52.7965 59.8137 52.9403 59.6706 52.7965 59.6706C52.7965 59.6706 52.6526 59.5275 52.7965 59.5275C52.5088 59.5275 52.5088 59.3844 52.7965 59.3844C52.5088 59.3844 52.6526 59.2413 52.7965 59.2413C52.9403 59.2413 52.5088 59.0982 52.7965 59.0982C52.7965 59.0982 52.6526 58.9551 52.7965 58.9551C52.9403 58.9551 53.0842 58.812 52.7965 58.812C52.6526 58.812 52.6526 58.6689 52.7965 58.6689C52.3649 58.6689 52.6526 58.5258 52.7965 58.5258C52.7965 58.5258 52.9403 58.3827 52.7965 58.3827C52.7965 58.3827 52.6526 58.2396 52.7965 58.2396C52.9403 58.2396 53.0842 58.0965 52.7965 58.0965C52.5088 58.0965 52.9403 57.9534 52.7965 57.9534C53.0842 57.9534 52.6526 57.8103 52.7965 57.8103C52.7965 57.8103 52.9403 57.6672 52.7965 57.6672C52.7965 57.6672 52.6526 57.5241 52.7965 57.5241C52.221 57.5241 52.9403 57.381 52.7965 57.381C53.0842 57.381 52.7965 57.2379 52.7965 57.2379C52.6526 57.2379 53.0842 57.0949 52.7965 57.0949C52.7965 57.0949 52.6526 56.9518 52.7965 56.9518C52.5088 56.9518 53.0842 56.8087 52.7965 56.8087V56.6656C53.2281 56.6656 52.9403 56.5225 52.7965 56.5225C52.7965 56.5225 52.5088 56.3794 52.7965 56.3794C52.7965 56.3794 53.0842 56.2363 52.7965 56.2363C52.7965 56.2363 53.3719 56.2363 52.7965 56.0932C52.6526 56.0932 53.2281 56.0932 52.7965 55.9501C52.5088 55.9501 52.7965 55.9501 52.7965 55.807C52.7965 55.807 52.7965 55.807 52.7965 55.6639C52.9403 55.3777 53.2281 55.2346 53.3719 55.2346C53.6596 55.2346 53.8035 55.3777 54.0912 55.6639C54.0912 55.6639 54.3789 55.6639 54.0912 55.807C54.0912 55.807 54.3789 55.807 54.0912 55.9501C54.5228 55.9501 54.2351 55.9501 54.0912 56.0932C54.0912 56.0932 53.9474 56.2363 54.0912 56.2363C54.3789 56.2363 53.9474 56.3794 54.0912 56.3794C53.8035 56.3794 53.9474 56.5225 54.0912 56.5225C53.8035 56.5225 54.0912 56.6656 54.0912 56.6656C53.6596 56.6656 53.9474 56.8087 54.0912 56.8087C54.2351 56.8087 54.0912 56.9518 54.0912 56.9518C54.0912 56.9518 54.2351 57.0949 54.0912 57.0949C54.2351 57.0949 54.3789 57.2379 54.0912 57.2379C54.2351 57.2379 54.0912 57.381 54.0912 57.381C54.2351 57.381 54.0912 57.5241 54.0912 57.5241C54.2351 57.5241 53.6596 57.6672 54.0912 57.6672V57.8103C54.0912 57.8103 53.9474 57.9534 54.0912 57.9534C53.6596 57.9534 53.9474 58.0965 54.0912 58.0965C54.2351 58.0965 54.0912 58.2396 54.0912 58.2396V58.3827C54.2351 58.3827 53.9474 58.5258 54.0912 58.5258C54.2351 58.5258 53.9474 58.6689 54.0912 58.6689C54.2351 58.6689 54.2351 58.812 54.0912 58.812C54.0912 58.812 53.6596 58.9551 54.0912 58.9551C54.2351 58.9551 54.6667 59.0982 54.0912 59.0982C54.2351 59.0982 53.8035 59.2413 54.0912 59.2413C53.6596 59.2413 54.0912 59.3844 54.0912 59.3844C53.9474 59.3844 53.9474 59.5275 54.0912 59.5275C54.2351 59.5275 53.9474 59.6706 54.0912 59.6706C54.3789 59.6706 53.8035 59.8137 54.0912 59.8137V59.9568C54.6667 59.9568 54.0912 60.0998 54.0912 60.0998C53.9474 60.0998 54.5228 60.0998 54.0912 60.2429C54.5228 60.2429 54.0912 60.2429 54.0912 60.386C53.9474 60.386 54.2351 60.386 54.0912 60.5291C54.3789 60.5291 53.9474 60.5291 54.0912 60.6722C53.9474 60.6722 54.0912 60.6722 54.0912 60.8153C53.5158 61.1015 53.3719 61.1015 53.2281 61.1015Z" fill="#212529"/>
<path d="M49.3439 29.9068C49.4877 29.9068 49.6316 30.4792 49.7754 31.4808C49.7754 31.6239 49.7754 31.767 49.7754 32.0532C49.7754 32.1963 49.9193 32.4825 49.7754 32.6256C49.6316 32.7687 50.207 33.0549 49.7754 33.3411C49.6316 33.6273 49.7754 33.7703 49.7754 34.0565C49.7754 34.3427 49.6316 34.6289 49.7754 34.9151C50.207 35.2013 49.3439 35.4875 49.7754 35.7737C49.9193 36.0599 49.9193 36.3461 49.7754 36.6322C49.4877 36.9184 49.7754 37.2046 49.7754 37.6339C49.3439 37.9201 49.6316 38.3494 49.7754 38.6356C49.3439 38.9218 49.3439 39.351 49.7754 39.7803C49.7754 40.2096 49.6316 40.4958 49.7754 40.9251C49.7754 41.3544 49.9193 41.6406 49.7754 42.0698C50.0632 42.4991 50.0632 42.9284 49.7754 43.3577C50.0632 43.787 49.9193 44.2163 49.7754 44.6456C49.6316 45.0748 50.0632 45.5041 49.7754 45.9334C49.7754 46.0765 49.7754 46.2196 49.7754 46.2196V46.3627V46.5058C49.7754 46.5058 49.7754 46.5058 49.7754 46.6489C49.6316 46.792 49.6316 46.792 49.6316 46.9351C49.6316 46.9351 49.7754 46.9351 49.9193 46.792L50.0632 46.6489H50.207H50.3509C50.4947 46.6489 50.6386 46.6489 50.6386 46.792C51.0702 46.3627 51.6456 46.6489 52.0772 46.792C52.5088 46.792 53.0842 46.9351 53.5158 46.792C53.5158 46.792 53.5158 46.792 53.6596 46.792C53.8035 46.792 53.9474 46.6489 53.6596 46.5058C53.3719 46.0765 53.8035 45.5041 53.6596 45.0748C53.9474 44.6456 53.5158 44.0732 53.6596 43.6439C53.6596 43.2146 53.8035 42.6422 53.6596 42.2129C53.6596 41.7837 53.5158 41.3544 53.6596 40.782C53.0842 40.3527 53.8035 39.9234 53.6596 39.4941C53.9474 39.0649 53.6596 38.6356 53.6596 38.2063C53.5158 37.777 53.9474 37.3477 53.6596 36.9184C53.6596 36.4892 53.5158 36.0599 53.6596 35.6306C53.3719 35.2013 53.9474 34.772 53.6596 34.4858C53.6596 34.0565 53.6596 33.7703 53.6596 33.3411C54.0912 32.9118 53.6596 32.6256 53.6596 32.1963C53.6596 32.0532 53.6596 31.9101 53.6596 31.6239V31.4808C53.6596 31.4808 53.6596 31.4808 53.8035 31.3377C53.8035 31.3377 53.8035 31.1946 53.9474 31.0515C53.9474 30.9085 53.9474 30.9085 53.9474 30.9085C53.9474 30.9085 53.9474 30.9085 53.9474 30.7654C53.9474 30.7654 53.9474 30.6223 53.9474 30.4792C53.9474 30.4792 53.8035 30.4792 53.6596 30.6223C53.5158 30.7654 53.5158 30.193 53.2281 30.6223C52.9403 30.9085 52.6526 30.6223 52.3649 30.6223C52.0772 30.6223 51.7895 30.6223 51.6456 30.6223C50.6386 30.3361 49.3439 30.0499 49.3439 29.9068C49.3439 29.6206 50.9263 29.3344 53.3719 29.1913C53.6596 29.1913 53.9474 28.9051 54.2351 29.1913C54.3789 29.1913 54.3789 29.1913 54.5228 29.1913C54.6667 29.1913 54.8105 29.1913 54.8105 29.1913C55.0982 29.1913 55.2421 29.1913 55.5298 29.1913C55.8175 29.0482 56.1053 29.0482 56.2491 29.0482C56.393 29.0482 56.6807 29.0482 56.8246 29.1913C56.8246 29.3344 56.8246 29.3344 56.8246 29.4775C56.8246 29.7637 56.8246 30.0499 56.8246 30.193C56.8246 30.4792 56.8246 30.7654 56.9684 30.9085C56.9684 31.0515 57.1123 31.1946 57.1123 31.3377C57.1123 31.3377 57.1123 31.3377 57.1123 31.4808V31.6239C57.1123 31.767 56.9684 31.9101 57.1123 32.1963C56.8246 32.4825 56.9684 32.9118 57.1123 33.3411C56.8246 33.7703 57.1123 34.0565 57.1123 34.4858C56.6807 34.9151 56.9684 35.2013 57.1123 35.6306C57.2561 36.0599 57.1123 36.4892 57.1123 36.9184C57.1123 37.3477 57.2561 37.777 57.1123 38.2063C57.2561 38.6356 57.4 39.0649 57.1123 39.4941C57.2561 39.9234 57.1123 40.3527 57.1123 40.782C57.2561 41.2113 57.1123 41.6406 57.1123 42.2129C57.2561 42.6422 56.6807 43.0715 57.1123 43.6439C57.1123 44.0732 57.1123 44.6456 57.1123 45.0748C57.1123 45.5041 56.9684 46.0765 57.1123 46.5058C57.1123 46.5058 57.1123 46.5058 57.1123 46.6489V46.792C57.1123 46.9351 57.1123 46.9351 57.1123 47.0782C57.1123 47.2213 57.1123 47.5075 57.1123 47.6505C57.1123 48.0798 57.2561 48.6522 57.2561 49.0815C56.8246 49.0815 56.393 49.0815 55.8175 49.0815C55.5298 49.0815 55.386 49.0815 55.0982 49.0815H54.8105H54.6667H54.5228C54.0912 49.0815 53.5158 49.0815 53.0842 49.0815C52.6526 49.2246 52.0772 48.9384 51.6456 49.0815C51.5018 49.0815 51.3579 49.0815 51.3579 49.0815H51.214H51.0702C51.0702 49.0815 51.0702 49.0815 50.9263 49.0815C50.4947 49.0815 50.0632 48.9384 49.6316 49.0815C49.2 49.0815 48.6246 49.2246 48.193 49.2246C48.193 48.7953 48.193 48.366 48.3368 47.7936C48.3368 47.3644 48.4807 46.9351 48.4807 46.5058C48.4807 46.3627 48.4807 46.3627 48.4807 46.2196V46.0765C48.4807 45.9334 48.4807 45.7903 48.3368 45.7903C48.193 45.361 47.7614 44.9317 48.3368 44.5025C48.193 44.0732 48.6246 43.6439 48.3368 43.2146C48.7684 42.7853 48.3368 42.356 48.3368 41.9268C48.4807 41.4975 48.4807 41.0682 48.3368 40.782C48.193 40.3527 48.4807 40.0665 48.3368 39.6372C48.0491 39.208 48.6246 38.9218 48.3368 38.4925C48.3368 38.2063 48.3368 37.777 48.3368 37.4908C47.7614 37.2046 48.3368 36.7753 48.3368 36.4892C48.4807 36.203 47.9053 35.9168 48.3368 35.6306C47.9053 35.3444 48.3368 35.0582 48.3368 34.772C48.4807 34.4858 48.193 34.1996 48.3368 33.9134C48.0491 33.6273 48.4807 33.4842 48.3368 33.198C48.4807 32.9118 48.3368 32.7687 48.3368 32.4825C48.3368 32.3394 48.3368 32.0532 48.3368 31.9101C48.3368 31.767 48.3368 31.4808 48.3368 31.3377C49.0561 30.3361 49.2 29.9068 49.3439 29.9068Z" fill="#212529"/>
<path d="M63.7298 36.4892C63.8737 36.4892 64.0175 36.9185 64.1614 37.634C64.1614 37.7771 64.1614 37.9202 64.1614 38.0633C64.1614 38.2063 64.3053 38.3494 64.1614 38.4925C64.0175 38.6356 64.593 38.7787 64.1614 38.9218C64.0175 39.0649 64.1614 39.208 64.1614 39.4942C64.1614 39.6373 64.0175 39.9235 64.1614 40.0666C64.593 40.2097 63.7298 40.4959 64.1614 40.639C64.3053 40.7821 64.3053 41.0682 64.1614 41.3544C63.8737 41.6406 64.1614 41.7837 64.1614 42.0699C63.7298 42.3561 64.0175 42.4992 64.1614 42.7854C63.7298 43.0716 63.7298 43.3578 64.1614 43.5009C64.1614 43.787 64.0175 44.0732 64.1614 44.3594C64.1614 44.6456 64.3053 44.9318 64.1614 45.218C64.4491 45.5042 64.4491 45.7904 64.1614 46.0766L64.3053 46.2197C64.3053 46.2197 64.1614 46.2197 64.1614 46.3628V46.5058H64.3053C64.3053 46.5058 64.3053 46.5058 64.4491 46.5058C64.4491 46.5058 64.4491 46.5058 64.593 46.5058H64.7368C64.8807 46.5058 64.8807 46.5058 65.0246 46.5058C65.1684 46.5058 65.3123 46.5058 65.4561 46.3628C65.7439 46.2197 66.1754 46.2197 66.4632 46.3628C66.7509 45.9335 67.1825 46.2197 67.4702 46.3628C67.7579 46.3628 68.3333 46.5058 68.1895 46.3628C68.1895 46.3628 68.1895 46.3628 68.3333 46.3628H68.4772C68.4772 46.3628 68.4772 46.2197 68.3333 46.2197C68.1895 46.2197 68.1895 46.2197 68.3333 45.9335C68.3333 45.7904 68.4772 45.6473 68.3333 45.3611C68.6211 45.0749 68.1895 44.6456 68.3333 44.3594C68.3333 44.0732 68.4772 43.6439 68.3333 43.3578C68.3333 43.0716 68.1895 42.6423 68.3333 42.3561C67.7579 42.0699 68.4772 41.6406 68.3333 41.3544C68.6211 41.0682 68.3333 40.7821 68.3333 40.3528C68.1895 40.0666 68.6211 39.7804 68.3333 39.4942C68.3333 39.208 68.1895 38.9218 68.3333 38.6356C68.1895 38.4925 68.1895 38.3494 68.3333 38.2063C68.3333 38.2063 68.3333 38.0633 68.4772 38.0633C68.4772 38.0633 68.4772 38.0632 68.4772 37.9202V37.7771C68.4772 37.634 68.4772 37.634 68.4772 37.4909C68.6211 37.3478 68.6211 37.3478 68.6211 37.2047C68.6211 37.2047 68.6211 37.2047 68.4772 37.2047C68.4772 37.2047 68.3333 37.2047 68.3333 37.3478H68.1895C68.1895 37.3478 68.0456 37.3478 68.0456 37.2047L67.9018 37.0616C67.9018 37.0616 67.7579 37.0616 67.614 37.0616C67.3263 37.0616 67.1825 36.4892 66.8947 37.0616C66.7509 37.2047 66.4632 36.6323 66.3193 37.0616C66.1754 37.3478 65.8877 37.0616 65.7439 37.0616C65.6 37.0616 65.3123 37.0616 65.1684 37.0616C64.593 36.9185 63.7298 36.7754 63.7298 36.4892C63.7298 36.203 64.8807 35.9168 66.7509 35.7737C66.8947 35.7737 67.1825 35.4875 67.3263 35.7737C67.4702 35.7737 67.7579 35.4875 67.9018 35.7737C68.0456 35.3444 68.3333 35.6306 68.6211 35.7737C68.7649 35.7737 68.7649 35.7737 69.0526 35.7737C69.1965 35.7737 69.4842 35.7737 69.6281 35.6306C69.9158 35.4875 70.0597 35.4875 70.2035 35.6306C70.3474 35.6306 70.4912 35.7737 70.779 35.6306L70.9228 35.7737C70.9228 36.203 70.9228 36.3461 71.0667 36.6323C70.9228 36.9185 70.9228 37.0616 71.0667 37.3478C71.0667 37.4909 71.2105 37.7771 71.2105 38.0633C71.2105 38.2063 71.0667 38.2063 71.0667 38.2063C71.0667 38.2063 71.0667 38.2063 71.0667 38.3494V38.4925C71.0667 38.6356 71.2105 38.7787 71.2105 38.9218C71.3544 39.208 71.2105 39.4942 71.2105 39.7804C71.2105 40.0666 71.3544 40.3528 71.2105 40.639C71.3544 40.9251 71.4982 41.2113 71.2105 41.6406C71.3544 41.9268 71.2105 42.213 71.2105 42.6423C71.3544 42.9285 71.2105 43.3578 71.2105 43.6439C71.3544 43.9301 70.779 44.3594 71.2105 44.6456C71.2105 44.9318 71.2105 45.3611 71.2105 45.6473C71.2105 46.0766 71.0667 46.2197 71.2105 47.0782C71.0667 47.3644 70.9228 47.6506 71.0667 47.9368C71.0667 48.223 71.2105 48.6523 71.2105 49.0816C70.6351 49.2246 69.9158 49.0816 69.1965 49.0816C68.3333 49.0816 68.1895 49.0816 67.7579 49.0816C67.4702 49.2246 67.0386 48.9385 66.7509 49.0816C66.4632 49.2246 66.0316 48.9385 65.7439 49.0816C65.6 49.0816 65.4561 49.2246 65.3123 49.2246C65.1684 49.2246 65.1684 49.2246 65.0246 49.2246H64.8807C64.7368 49.2246 64.7368 49.2246 64.593 49.2246C64.3053 49.2246 64.0175 49.0816 63.7298 49.0816C63.4421 49.0816 63.1544 49.0816 62.8667 49.2246C62.579 49.2246 62.4351 49.3677 62.1474 49.3677C62.1474 49.2246 62.0035 49.0816 62.0035 48.7954C62.0035 48.6523 62.1474 48.3661 62.2912 48.0799C62.1474 47.6506 62.5789 46.792 62.2912 46.5058C62.7228 46.2197 62.2912 45.9335 62.2912 45.6473C62.4351 45.3611 62.4351 45.0749 62.2912 44.7887C62.1474 44.5025 62.4351 44.2163 62.2912 43.9301C62.0035 43.6439 62.5789 43.3578 62.2912 43.2147C62.2912 42.9285 62.2912 42.6423 62.2912 42.4992C61.7158 42.213 62.2912 42.0699 62.2912 41.7837C62.4351 41.4975 61.8597 41.3544 62.2912 41.0682C61.8597 40.9251 62.2912 40.639 62.2912 40.4959C62.4351 40.3528 62.1474 40.0666 62.2912 39.9235C62.0035 39.7804 62.4351 39.4942 62.2912 39.3511C62.4351 39.208 62.2912 39.0649 62.2912 38.9218C62.2912 38.7787 62.2912 38.6356 62.2912 38.4925C62.2912 38.3494 62.2912 38.2063 62.2912 38.0633C63.4421 36.9185 63.586 36.4892 63.7298 36.4892Z" fill="#212529"/>
<path d="M78.1158 25.4709C78.2597 25.4709 78.4035 26.0433 78.5474 27.3311C78.5474 27.4742 78.5474 27.7604 78.5474 27.9035C78.5474 28.1897 78.6912 28.3328 78.5474 28.619C78.4035 28.9051 78.979 29.1913 78.5474 29.4775C78.4035 29.7637 78.5474 30.0499 78.5474 30.3361C78.5474 30.6223 78.4035 30.9085 78.5474 31.3378C78.979 31.624 78.1158 32.0532 78.5474 32.3394C78.6912 32.6256 78.6912 33.0549 78.5474 33.4842C78.2597 33.9135 78.5474 34.1997 78.5474 34.6289C78.1158 35.0582 78.4035 35.4875 78.5474 35.7737C78.1158 36.203 78.1158 36.6323 78.5474 37.0616C78.5474 37.4908 78.4035 37.9201 78.5474 38.3494C78.5474 38.7787 78.6912 39.208 78.5474 39.7804C78.8351 40.2096 78.8351 40.782 78.5474 41.2113C78.8351 41.6406 78.6912 42.213 78.5474 42.6423C78.4035 43.2146 78.8351 43.6439 78.5474 44.2163C78.5474 44.7887 78.6912 45.218 78.5474 45.7903C78.5474 45.9334 78.4035 46.0765 78.4035 46.2196V46.3627C78.4035 46.5058 78.4035 46.5058 78.5474 46.5058C78.6912 46.5058 78.6912 46.3627 78.6912 46.5058C78.6912 46.5058 78.8351 46.5058 78.8351 46.3627C78.979 46.3627 79.1228 46.3627 79.2667 46.3627C79.5544 46.3627 79.8421 46.5058 80.1298 46.5058C80.7053 46.5058 81.2807 46.6489 81.8561 46.5058C82 46.5058 82 46.5058 82.1439 46.5058H82.2877C82.2877 46.5058 82.2877 46.5058 82.4316 46.5058C82.4316 46.5058 82.5754 46.5058 82.5754 46.3627C82.5754 46.3627 82.5754 46.3627 82.5754 46.2196V46.0765C82.5754 45.9334 82.5754 45.9334 82.5754 45.7903C82.2877 45.218 82.7193 44.6456 82.5754 44.0732C82.8632 43.5008 82.4316 42.9284 82.5754 42.3561C82.5754 41.7837 82.7193 41.2113 82.5754 40.6389C82.5754 40.0665 82.4316 39.4942 82.5754 39.0649C82 38.4925 82.7193 38.0632 82.5754 37.4908C82.8632 36.9185 82.5754 36.4892 82.5754 35.9168C82.4316 35.3444 82.8632 34.9151 82.5754 34.4858C82.5754 34.0566 82.4316 33.4842 82.5754 33.0549C82.2877 32.6256 82.8632 32.0532 82.5754 31.624C82.5754 31.1947 82.5754 30.7654 82.5754 30.3361C83.007 29.9068 82.7193 29.4775 82.5754 29.0482C82.5754 28.619 82.2877 28.1897 82.5754 27.9035C82.5754 27.7604 82.7193 27.4742 82.7193 27.3311C82.7193 27.188 82.7193 27.188 82.7193 27.0449V26.9018V26.7587C82.7193 26.7587 82.8632 26.6156 82.8632 26.4725C83.007 26.3294 83.007 26.1863 82.7193 26.3294V26.1863V26.0433C82.7193 26.0433 82.5754 26.0433 82.4316 26.1863C82.1439 26.4725 82.2877 26.1863 81.8561 26.1863C81.5684 26.1863 81.2807 26.1863 80.993 26.1863C79.5544 25.9002 78.1158 25.614 78.1158 25.4709C78.1158 25.1847 79.8421 24.8985 82.8632 24.7554C83.007 24.7554 83.007 24.7554 83.1509 24.7554C83.2947 24.7554 83.4386 24.7554 83.5825 24.6123C83.8702 24.6123 84.1579 24.6123 84.3018 24.7554C84.5895 24.7554 85.1649 24.6123 85.5965 24.6123C85.5965 24.7554 85.5965 24.8985 85.5965 25.1847C85.7404 25.3278 85.7404 25.614 85.7404 25.9002C85.7404 26.1863 85.5965 26.6156 85.5965 26.9018C85.5965 27.0449 85.5965 27.0449 85.5965 27.0449V27.188C85.5965 27.3311 85.5965 27.3311 85.5965 27.4742C85.5965 27.6173 85.5965 27.9035 85.7404 28.0466C86.0281 28.4759 85.5965 28.9051 85.7404 29.1913C85.4526 29.6206 85.5965 30.0499 85.7404 30.4792C85.4526 30.9085 85.7404 31.3378 85.7404 31.767C85.3088 32.1963 85.5965 32.6256 85.7404 33.198C85.8842 33.6273 85.7404 34.1997 85.7404 34.6289C85.7404 35.0582 85.8842 35.6306 85.7404 36.0599C85.8842 36.6323 86.0281 37.0616 85.7404 37.6339C85.8842 38.2063 85.7404 38.6356 85.7404 39.208C85.8842 39.7804 85.7404 40.2096 85.7404 40.782C85.8842 41.3544 85.3088 41.9268 85.7404 42.4992C85.7404 43.0715 85.7404 43.6439 85.7404 44.2163C85.7404 44.7887 85.5965 45.3611 85.7404 45.9334C85.7404 46.0765 85.5965 46.0765 85.5965 46.2196C85.5965 46.2196 85.5965 46.2196 85.5965 46.3627V46.5058C85.5965 46.792 85.5965 46.9351 85.5965 47.2213C85.5965 47.7937 85.7404 48.366 85.7404 48.9384C85.3088 48.9384 84.7333 48.9384 84.1579 48.9384C83.8702 48.9384 83.5825 48.9384 83.2947 48.9384H83.1509H83.007H82.7193C82.1439 48.9384 81.5684 48.9384 80.993 48.9384C80.7053 48.9384 80.4176 48.9384 80.1298 48.9384C79.986 48.9384 79.8421 48.9384 79.6983 48.9384H79.5544C79.4105 48.9384 79.4105 48.9384 79.2667 48.9384C78.8351 48.9384 78.4035 48.9384 77.9719 48.9384C77.5404 48.9384 77.2526 48.7953 76.8211 48.7953C76.8211 48.5091 76.8211 48.366 76.8211 48.223C76.8211 47.7937 76.6772 47.2213 76.6772 46.792C76.6772 46.6489 76.6772 46.5058 76.6772 46.3627V46.2196V46.0765C76.6772 45.9334 76.6772 45.7903 76.8211 45.6472C76.8211 45.0749 77.2526 44.6456 76.8211 44.0732C76.6772 43.5008 76.2456 43.0715 76.8211 42.4992C76.6772 41.9268 77.1088 41.4975 76.8211 41.0682C77.2526 40.6389 76.8211 40.0665 76.8211 39.6373C76.9649 39.208 76.9649 38.6356 76.8211 38.2063C76.6772 37.777 76.9649 37.3477 76.8211 36.9185C76.5333 36.4892 77.1088 36.0599 76.8211 35.6306C76.8211 35.2013 76.8211 34.772 76.8211 34.4858C76.2456 34.0566 76.8211 33.7704 76.8211 33.3411C76.9649 32.9118 76.3895 32.6256 76.8211 32.1963C76.3895 31.9101 76.8211 31.4809 76.8211 31.1947C76.9649 30.9085 76.6772 30.6223 76.8211 30.193C76.5333 29.9068 76.9649 29.6206 76.8211 29.3344C76.9649 29.0482 76.8211 28.7621 76.8211 28.4759C76.8211 28.1897 76.8211 28.0466 76.8211 27.7604C76.8211 27.4742 76.8211 27.3311 76.8211 27.188C77.8281 26.0433 77.9719 25.4709 78.1158 25.4709Z" fill="#212529"/>
</g>
<defs>
<clipPath id="clip0_17_338">
<rect width="123" height="86" fill="white"/>
</clipPath>
</defs>
</svg>
