<svg width="114" height="100" viewBox="0 0 114 100" fill="none" xmlns="http://www.w3.org/2000/svg">
<g clip-path="url(#clip0_17_279)">
<path d="M15.3627 2.57879C15.3627 2.57879 15.5063 3.43838 15.5063 5.15758C15.5063 6.87678 15.6499 9.31231 15.6499 12.4642C15.6499 13.467 15.6499 14.6132 15.6499 15.9026C15.6499 17.0487 15.7934 18.3381 15.6499 19.7708C15.5063 21.2034 15.937 22.6361 15.6499 24.0688C15.5063 25.6447 15.6499 27.2206 15.6499 28.7966C15.6499 30.5157 15.5063 32.2349 15.6499 33.9541C16.0806 35.6733 15.2191 37.5358 15.6499 39.5415C15.7934 41.404 15.6499 43.4097 15.6499 45.4155C15.3627 47.4212 15.6499 49.5702 15.6499 51.7192C15.3627 53.8682 15.5063 56.1604 15.6499 58.3094C15.2191 60.6017 15.2191 62.894 15.6499 65.3295C15.6499 67.765 15.5063 70.2006 15.6499 72.6361C15.6499 75.0716 15.7934 77.6504 15.6499 80.2292C15.7934 81.5186 15.937 82.6647 15.937 83.9541C15.937 84.5272 15.937 85.2435 15.937 85.8166V86.2464V86.3897C15.937 86.3897 15.937 86.5329 15.7934 86.6762C15.937 86.6762 15.937 86.5329 16.0806 86.5329C16.0806 86.5329 16.0806 86.5329 16.2242 86.5329H16.3678H16.6549H17.2292C17.9471 86.5329 18.5214 86.5329 19.2393 86.5329C20.5315 86.5329 21.9672 86.6762 23.403 86.6762C26.131 86.8195 29.0025 86.3897 31.8741 86.6762C34.7456 86.6762 37.6171 86.5329 40.4887 86.6762C43.3602 86.8195 46.3753 86.9627 49.3904 86.6762C52.4055 86.5329 55.4207 86.5329 58.4358 86.6762C61.4509 86.3897 64.6096 86.5329 67.6247 86.6762C70.7834 86.6762 73.9421 86.8195 77.1007 86.6762C78.1058 86.6762 79.1108 86.6762 80.2594 86.6762C80.8337 86.6762 81.2645 86.6762 81.8388 86.6762H81.9824H82.1259C82.1259 86.6762 82.1259 86.6762 82.1259 86.5329V86.1031C82.1259 85.5301 82.1259 84.957 82.1259 84.3839C82.2695 81.2321 82.2695 77.937 82.1259 74.7851C81.9824 73.2092 81.9824 71.6332 82.1259 70.0573C82.1259 69.341 82.1259 68.4814 82.1259 67.765C82.1259 67.6218 82.1259 67.4785 82.1259 67.4785V67.3352C82.1259 67.3352 81.9824 67.3352 81.8388 67.4785V67.765L81.4081 68.0516L80.5466 68.7679L79.6851 69.4842L79.2544 69.7708L78.9672 70.0573L78.5365 70.3438C77.3879 71.2034 76.2393 72.063 75.2342 72.7794C74.9471 72.9226 74.6599 73.2092 74.3728 73.3524C74.5164 72.063 74.6599 70.7736 74.8035 69.341C74.8035 68.7679 74.9471 68.1948 74.9471 67.6218C74.9471 67.3352 75.0907 66.9054 75.0907 66.6189C75.2342 65.1862 75.3778 63.7536 75.5214 62.4642C75.665 61.318 75.665 60.1719 75.8086 58.8825C75.8086 58.3094 75.9521 57.7364 75.9521 57.1633C76.0957 56.447 76.0957 55.8739 76.2393 55.1576L76.5264 54.5845L76.8136 54.1547L77.2443 53.4384C78.2494 50.7163 80.2594 48.4241 81.5516 45.9885C81.6952 45.702 81.8388 45.5587 81.9824 45.2722L82.2695 44.9857C82.2695 44.9857 82.2695 44.9857 82.2695 44.8424V44.4126C82.2695 44.1261 82.2695 43.8395 82.2695 43.553C82.2695 42.9799 82.2695 42.4069 82.2695 41.8338C82.2695 40.6877 82.2695 39.5415 82.2695 38.5387C82.1259 35.8166 82.5567 33.0945 82.2695 30.3725C82.2695 27.6504 82.1259 25.0716 82.2695 22.4928C82.2695 22.063 82.2695 21.7765 82.2695 21.3467C82.2695 21.2034 82.2695 20.9169 82.2695 20.7736L81.8388 20.3438C81.5516 20.0573 81.2645 19.6275 80.9773 19.341C80.403 18.6246 79.8287 18.0516 79.1108 17.4785C77.3879 15.7593 75.665 14.0401 73.9421 12.3209C72.5063 10.3152 70.6398 8.88251 69.0604 7.30658C68.4861 6.73351 67.9118 6.16045 67.3375 5.58738C67.0504 5.30085 66.7632 5.01432 66.4761 4.72778L66.0453 3.72492L65.9018 3.58165H65.7582H65.6146H65.471C65.1839 3.58165 64.8967 3.58165 64.6096 3.43838C62.4559 3.43838 60.3023 3.29512 58.2922 3.43838C56.2821 3.43838 54.272 2.86532 52.4055 3.43838C50.539 3.58165 48.6725 3.00858 46.806 3.43838C45.0831 3.72492 43.3602 3.43838 41.6373 3.43838C39.9144 3.43838 38.335 3.43838 36.8992 3.43838C30.1511 3.29512 24.6952 3.29512 21.1058 3.15185C19.2393 3.15185 17.9471 3.00858 16.9421 3.00858C15.937 2.72205 15.3627 2.72205 15.3627 2.57879C15.3627 2.43552 15.937 2.43552 17.0856 2.43552C18.2343 2.43552 19.9572 2.29225 22.2544 2.29225C26.7053 2.14899 33.3098 2.14899 41.4937 2.00572C43.2166 2.00572 44.9395 1.71919 46.6625 2.00572C48.3854 2.00572 50.2519 1.86245 52.262 2.00572C54.1285 1.57592 56.1385 2.00572 58.1486 2.00572C60.1587 2.00572 62.3123 2.14899 64.466 2.00572C64.7531 2.00572 65.0403 2.00572 65.3274 2.00572H65.471H65.7582C66.0453 2.00572 66.1889 2.00572 66.4761 2.00572C66.7632 2.29225 66.9068 2.43552 67.1939 2.72205L67.7683 2.86532C68.0554 3.15185 68.3426 3.43838 68.6297 3.72492C69.204 4.29798 69.7783 5.01432 70.3526 5.44411C71.7884 7.16331 73.5113 8.88251 75.3778 10.3152C76.9572 12.1776 78.8237 13.7536 80.5466 15.4728C81.1209 16.1891 81.6952 16.7622 82.2695 17.4785C82.5567 17.765 82.8438 18.0516 83.2745 18.3381C83.7053 18.7679 84.136 19.0544 84.5667 19.4842C84.5667 19.7708 84.5667 20.0573 84.5667 20.4871V21.0602C84.5667 21.49 84.5667 21.7765 84.5667 22.2063C84.7103 24.7851 84.5667 27.3639 84.5667 30.0859C84.5667 32.808 84.7103 35.5301 84.5667 38.2521C84.5667 39.3983 84.7103 40.5444 84.7103 41.5473C84.7103 42.1203 84.7103 42.6934 84.7103 43.2665C84.7103 43.553 84.7103 43.8395 84.7103 44.1261C84.7103 44.5559 84.7103 44.8424 84.7103 45.2722L84.2796 45.8453L83.9924 46.1318C83.8489 46.4183 83.7053 46.5616 83.5617 46.8481C82.2695 49.4269 80.6902 51.8625 79.2544 54.298L78.9672 55.3008L78.6801 55.7307V55.8739V56.0172V56.447L78.5365 57.3066C78.5365 57.8796 78.3929 58.4527 78.3929 59.0258C78.2494 60.1719 78.1058 61.318 77.9622 62.4642C77.8186 63.8968 77.6751 65.1862 77.3879 66.6189L77.2443 67.6218V67.9083V68.0516C77.2443 68.1948 77.2443 68.3381 77.2443 68.3381L77.3879 68.1948C77.5315 68.0516 77.5315 68.0516 77.675 68.0516C78.2494 67.6218 78.8237 67.192 79.398 66.9054C80.1159 66.4756 80.8337 65.9026 81.4081 65.4728C82.5567 64.6132 83.7053 63.7536 84.8539 62.894C84.8539 63.0372 84.8539 63.1805 84.8539 63.3238C84.8539 65.616 84.8539 67.765 84.8539 70.0573C84.8539 71.6332 84.8539 73.2092 84.8539 74.7851C84.4232 77.937 84.7103 81.0888 84.8539 84.3839C84.8539 84.957 84.8539 85.5301 84.8539 86.1031V87.3925C84.8539 87.9656 84.8539 88.5387 84.8539 88.9685C83.9924 88.9685 82.9874 88.9685 82.1259 88.9685C81.5516 88.9685 81.1209 88.9685 80.5466 88.9685C79.5415 88.9685 78.5365 88.9685 77.3879 88.9685C74.2292 88.9685 71.0705 88.9685 67.9118 88.9685C64.7531 89.1117 61.738 88.8252 58.7229 88.9685C55.7078 89.1117 52.6927 88.8252 49.6776 88.9685C46.6625 89.1117 43.7909 89.1117 40.7758 88.9685C37.9043 88.9685 35.0327 88.6819 32.1612 88.9685C29.2897 88.9685 26.5617 89.3983 23.6902 88.9685C22.2544 88.9685 20.9622 88.9685 19.5264 88.9685C18.8086 88.9685 18.2343 88.9685 17.5164 88.9685H16.9421H16.3678C15.7934 88.9685 15.2191 88.9685 14.5013 88.9685C14.3577 88.9685 14.2141 88.9685 14.0705 88.9685C14.0705 88.3954 14.0705 87.8223 14.2141 87.2493C14.2141 86.8195 14.2141 86.3897 14.2141 86.1031C14.2141 85.5301 14.2141 84.8137 14.2141 84.2407C14.2141 82.9513 14.0705 81.6619 14.0705 80.5157C14.2141 77.937 14.2141 75.3582 14.0705 72.9226C13.9269 70.4871 14.2141 68.0516 14.0705 65.616C13.9269 63.1805 14.3577 60.8882 14.0705 58.596C14.0705 56.3037 14.0705 54.1547 14.0705 52.0057C13.6398 49.8567 14.0705 47.7077 14.0705 45.702C14.0705 43.6963 13.7834 41.6905 14.0705 39.8281C13.6398 37.9656 14.0705 36.1031 14.0705 34.2407C14.2141 32.5215 13.9269 30.8023 14.0705 29.0831C13.7834 27.3639 14.2141 25.788 14.0705 24.3553C14.2141 22.7794 14.0705 21.3467 14.0705 20.0573C14.0705 18.6246 14.0705 17.3352 14.0705 16.1891C14.0705 15.043 14.0705 13.8968 14.0705 12.7507C14.0705 9.59884 14.2141 7.16331 14.2141 5.44411C15.2191 3.43838 15.2191 2.57879 15.3627 2.57879Z" fill="#212529"/>
<path d="M69.9219 31.5186C69.9219 31.6619 69.4912 31.8052 68.4862 31.9484C68.3426 31.9484 68.199 31.9484 68.0555 31.9484C67.9119 31.9484 67.7683 32.0917 67.4811 31.9484C67.3376 31.8052 67.0504 32.235 66.9068 31.9484C66.7633 31.8052 66.4761 31.9484 66.1889 31.9484C65.9018 31.9484 65.7582 31.8052 65.4711 31.9484C65.1839 32.3782 64.8968 31.5186 64.6096 31.9484C64.3224 32.0917 64.0353 31.9484 63.7481 31.9484C63.461 31.6619 63.1738 31.9484 62.8867 31.9484C62.5995 31.6619 62.3124 31.8052 61.8816 31.9484C61.5945 31.5186 61.1638 31.5186 60.8766 31.9484C60.5895 31.9484 60.1587 31.8052 59.8716 31.9484C59.5844 31.9484 59.1537 32.0917 58.723 31.9484C58.2922 32.235 58.0051 32.235 57.5743 31.9484C57.1436 32.235 56.8565 32.0917 56.4257 31.9484C55.995 31.8052 55.5643 32.235 55.2771 31.9484C54.8464 31.9484 54.4156 32.0917 53.9849 31.9484C53.5542 31.8052 53.1235 31.6619 52.6927 31.9484C52.262 32.0917 51.8313 32.0917 51.4005 31.9484C50.9698 32.235 50.5391 32.0917 50.1083 31.9484C49.6776 31.9484 49.2469 31.8052 48.8162 31.9484C48.3854 31.9484 47.9547 32.0917 47.524 31.9484C47.0932 31.8052 46.6625 31.8052 46.2318 31.9484C45.801 32.235 45.3703 31.8052 44.9396 31.9484C44.5088 31.6619 44.0781 32.0917 43.6474 31.9484C43.2167 31.9484 42.7859 31.8052 42.3552 31.9484C41.9245 31.9484 41.4937 32.0917 41.063 31.9484C40.6323 32.3782 40.2015 31.8052 39.7708 31.9484C39.3401 31.8052 38.9094 31.9484 38.6222 31.9484C38.1915 32.0917 37.9043 31.6619 37.4736 31.9484C37.0429 31.9484 36.7557 32.0917 36.325 31.9484C35.8942 32.235 35.6071 31.8052 35.1764 31.9484C34.8892 31.9484 34.4585 31.9484 34.1713 31.9484C33.8842 31.5186 33.4534 31.9484 33.1663 31.9484C32.8791 31.9484 32.592 32.235 32.1612 31.9484C31.8741 31.9484 31.5869 31.8052 31.2998 31.9484C31.0126 31.9484 30.7255 31.3754 30.4383 31.9484C30.1512 32.0917 29.864 31.5186 29.5769 31.9484C29.2897 32.235 29.1461 31.9484 28.859 31.9484C28.5718 31.9484 28.4282 31.9484 28.1411 31.9484C26.2746 31.8052 25.126 31.5186 25.126 31.3754C25.126 31.0888 26.5617 30.9456 28.859 30.8023C29.1461 30.8023 29.2897 30.5158 29.5769 30.8023C29.864 30.8023 30.1512 30.659 30.4383 30.8023C30.7255 30.3725 31.0126 30.8023 31.2998 30.8023C31.5869 30.8023 31.8741 30.9456 32.1612 30.8023C32.4484 30.659 32.7355 30.9456 33.1663 30.8023C33.4534 31.0888 33.8842 30.9456 34.1713 30.8023C34.4585 31.0888 34.8892 30.8023 35.1764 30.8023C35.4635 31.0888 35.8942 30.9456 36.325 30.8023C36.7557 30.659 37.0429 30.8023 37.4736 30.8023C37.9043 30.8023 38.1915 30.659 38.6222 30.8023C39.0529 30.659 39.4837 30.5158 39.7708 30.8023C40.2015 30.659 40.6323 30.8023 41.063 30.8023C41.4937 30.659 41.9245 30.8023 42.3552 30.8023C42.7859 30.8023 43.2167 31.0888 43.6474 30.8023C44.0781 30.8023 44.5088 30.8023 44.9396 30.8023C45.3703 30.8023 45.801 30.9456 46.2318 30.8023C46.6625 31.2321 47.0932 30.9456 47.524 30.8023C47.9547 30.659 48.3854 30.8023 48.8162 30.8023C49.2469 30.8023 49.6776 30.8023 50.1083 30.8023C50.5391 30.659 50.9698 30.9456 51.4005 30.8023C51.8313 30.659 52.262 30.9456 52.6927 30.8023C53.1235 30.659 53.5542 30.659 53.9849 30.8023C54.4156 30.8023 54.8464 31.0888 55.2771 30.8023C55.7078 30.8023 56.1386 30.3725 56.4257 30.8023C56.8565 30.659 57.1436 31.0888 57.5743 30.8023C58.0051 31.2321 58.2922 30.8023 58.723 30.8023C59.1537 30.8023 59.4408 30.9456 59.8716 30.8023C60.1587 30.659 60.5895 30.9456 60.8766 30.8023C61.1638 30.659 61.5945 31.0888 61.8816 30.8023C62.1688 30.8023 62.456 30.8023 62.8867 30.8023C63.1738 30.3725 63.461 30.8023 63.7481 30.8023C64.0353 30.9456 64.3224 30.5158 64.6096 30.8023C64.8968 30.3725 65.1839 30.8023 65.4711 30.8023C65.7582 30.9456 65.9018 30.659 66.1889 30.8023C66.4761 30.5158 66.6197 30.9456 66.9068 30.8023C67.194 30.9456 67.3376 30.8023 67.4811 30.8023C67.6247 30.8023 67.9119 30.8023 68.0555 30.8023C68.199 30.8023 68.3426 30.8023 68.4862 30.8023C69.3476 31.2321 69.9219 31.3754 69.9219 31.5186Z" fill="#212529"/>
<path d="M69.9219 45.2722C69.9219 45.4155 69.4912 45.5588 68.4862 45.702C68.3426 45.702 68.199 45.702 68.0555 45.702C67.9119 45.702 67.7683 45.8453 67.4811 45.702C67.3376 45.5588 67.0504 45.9886 66.9068 45.702C66.7633 45.5588 66.4761 45.702 66.1889 45.702C65.9018 45.702 65.7582 45.5588 65.4711 45.702C65.1839 46.1318 64.8968 45.2722 64.6096 45.702C64.3224 45.8453 64.0353 45.702 63.7481 45.702C63.461 45.4155 63.1738 45.702 62.8867 45.702C62.5995 45.4155 62.3124 45.5588 61.8816 45.702C61.5945 45.2722 61.1638 45.2722 60.8766 45.702C60.5895 45.702 60.1587 45.5588 59.8716 45.702C59.5844 45.702 59.1537 45.8453 58.723 45.702C58.2922 45.9886 58.0051 45.9886 57.5743 45.702C57.1436 45.9886 56.8565 45.8453 56.4257 45.702C55.995 45.5588 55.5643 45.9886 55.2771 45.702C54.8464 45.702 54.4156 45.8453 53.9849 45.702C53.5542 45.5588 53.1235 45.4155 52.6927 45.702C52.262 45.8453 51.8313 45.8453 51.4005 45.702C50.9698 45.9886 50.5391 45.8453 50.1083 45.702C49.6776 45.702 49.2469 45.5588 48.8162 45.702C48.3854 45.702 47.9547 45.8453 47.524 45.702C47.0932 45.5588 46.6625 45.5588 46.2318 45.702C45.801 45.9886 45.3703 45.5588 44.9396 45.702C44.5088 45.4155 44.0781 45.8453 43.6474 45.702C43.2167 45.702 42.7859 45.5588 42.3552 45.702C41.9245 45.702 41.4937 45.8453 41.063 45.702C40.6323 46.1318 40.2015 45.5588 39.7708 45.702C39.3401 45.5588 38.9094 45.702 38.6222 45.702C38.1915 45.8453 37.9043 45.4155 37.4736 45.702C37.0429 45.702 36.7557 45.8453 36.325 45.702C35.8942 45.9886 35.6071 45.5588 35.1764 45.702C34.8892 45.702 34.4585 45.702 34.1713 45.702C33.8842 45.2722 33.4534 45.702 33.1663 45.702C32.8791 45.702 32.592 45.9886 32.1612 45.702C31.8741 45.702 31.5869 45.5588 31.2998 45.702C31.0126 45.702 30.7255 45.129 30.4383 45.702C30.1512 45.8453 29.864 45.2722 29.5769 45.702C29.2897 45.9886 29.1461 45.702 28.859 45.702C28.5718 45.702 28.4282 45.702 28.1411 45.702C26.2746 45.5588 25.126 45.2722 25.126 45.129C25.126 44.8424 26.5617 44.6992 28.859 44.5559C29.1461 44.5559 29.2897 44.2694 29.5769 44.5559C29.864 44.5559 30.1512 44.4126 30.4383 44.5559C30.7255 44.1261 31.0126 44.5559 31.2998 44.5559C31.5869 44.5559 31.8741 44.6992 32.1612 44.5559C32.4484 44.4126 32.7355 44.6992 33.1663 44.5559C33.4534 44.8424 33.8842 44.6992 34.1713 44.5559C34.4585 44.8424 34.8892 44.5559 35.1764 44.5559C35.4635 44.8424 35.8942 44.6992 36.325 44.5559C36.7557 44.4126 37.0429 44.5559 37.4736 44.5559C37.9043 44.5559 38.1915 44.4126 38.6222 44.5559C39.0529 44.4126 39.4837 44.2694 39.7708 44.5559C40.2015 44.4126 40.6323 44.5559 41.063 44.5559C41.4937 44.4126 41.9245 44.5559 42.3552 44.5559C42.7859 44.5559 43.2167 44.8424 43.6474 44.5559C44.0781 44.5559 44.5088 44.5559 44.9396 44.5559C45.3703 44.5559 45.801 44.6992 46.2318 44.5559C46.6625 44.9857 47.0932 44.6992 47.524 44.5559C47.9547 44.4126 48.3854 44.5559 48.8162 44.5559C49.2469 44.5559 49.6776 44.5559 50.1083 44.5559C50.5391 44.4126 50.9698 44.6992 51.4005 44.5559C51.8313 44.4126 52.262 44.6992 52.6927 44.5559C53.1235 44.4126 53.5542 44.4126 53.9849 44.5559C54.4156 44.5559 54.8464 44.8424 55.2771 44.5559C55.7078 44.5559 56.1386 44.1261 56.4257 44.5559C56.8565 44.4126 57.1436 44.8424 57.5743 44.5559C58.0051 44.9857 58.2922 44.5559 58.723 44.5559C59.1537 44.5559 59.4408 44.6992 59.8716 44.5559C60.1587 44.4126 60.5895 44.6992 60.8766 44.5559C61.1638 44.4126 61.5945 44.8424 61.8816 44.5559C62.1688 44.5559 62.456 44.5559 62.8867 44.5559C63.1738 44.1261 63.461 44.5559 63.7481 44.5559C64.0353 44.6992 64.3224 44.2694 64.6096 44.5559C64.8968 44.1261 65.1839 44.5559 65.4711 44.5559C65.7582 44.6992 65.9018 44.4126 66.1889 44.5559C66.4761 44.2694 66.6197 44.6992 66.9068 44.5559C67.194 44.6992 67.3376 44.5559 67.4811 44.5559C67.6247 44.5559 67.9119 44.5559 68.0555 44.5559C68.199 44.5559 68.3426 44.5559 68.4862 44.5559C69.3476 44.9857 69.9219 45.129 69.9219 45.2722Z" fill="#212529"/>
<path d="M69.9219 58.8825C69.9219 59.0258 69.4912 59.1691 68.4862 59.3123C68.3426 59.3123 68.199 59.3123 68.0555 59.3123C67.9119 59.3123 67.7683 59.4556 67.4811 59.3123C67.3376 59.1691 67.0504 59.5988 66.9068 59.3123C66.7633 59.1691 66.4761 59.3123 66.1889 59.3123C65.9018 59.3123 65.7582 59.1691 65.4711 59.3123C65.1839 59.7421 64.8968 58.8825 64.6096 59.3123C64.3224 59.4556 64.0353 59.3123 63.7481 59.3123C63.461 59.0258 63.1738 59.3123 62.8867 59.3123C62.5995 59.0258 62.3124 59.1691 61.8816 59.3123C61.5945 58.8825 61.1638 58.8825 60.8766 59.3123C60.5895 59.3123 60.1587 59.1691 59.8716 59.3123C59.5844 59.3123 59.1537 59.4556 58.723 59.3123C58.2922 59.5988 58.0051 59.5988 57.5743 59.3123C57.1436 59.5988 56.8565 59.4556 56.4257 59.3123C55.995 59.1691 55.5643 59.5988 55.2771 59.3123C54.8464 59.3123 54.4156 59.4556 53.9849 59.3123C53.5542 59.1691 53.1235 59.0258 52.6927 59.3123C52.262 59.4556 51.8313 59.4556 51.4005 59.3123C50.9698 59.5988 50.5391 59.4556 50.1083 59.3123C49.6776 59.3123 49.2469 59.1691 48.8162 59.3123C48.3854 59.3123 47.9547 59.4556 47.524 59.3123C47.0932 59.1691 46.6625 59.1691 46.2318 59.3123C45.801 59.5988 45.3703 59.1691 44.9396 59.3123C44.5088 59.0258 44.0781 59.4556 43.6474 59.3123C43.2167 59.3123 42.7859 59.1691 42.3552 59.3123C41.9245 59.3123 41.4937 59.4556 41.063 59.3123C40.6323 59.7421 40.2015 59.1691 39.7708 59.3123C39.3401 59.1691 38.9094 59.3123 38.6222 59.3123C38.1915 59.4556 37.9043 59.0258 37.4736 59.3123C37.0429 59.3123 36.7557 59.4556 36.325 59.3123C35.8942 59.5988 35.6071 59.1691 35.1764 59.3123C34.8892 59.3123 34.4585 59.3123 34.1713 59.3123C33.8842 58.8825 33.4534 59.3123 33.1663 59.3123C32.8791 59.3123 32.592 59.5988 32.1612 59.3123C31.8741 59.3123 31.5869 59.1691 31.2998 59.3123C31.0126 59.3123 30.7255 58.7393 30.4383 59.3123C30.1512 59.4556 29.864 58.8825 29.5769 59.3123C29.2897 59.5988 29.1461 59.3123 28.859 59.3123C28.5718 59.3123 28.4282 59.3123 28.1411 59.3123C26.2746 59.1691 25.126 58.8825 25.126 58.7392C25.126 58.4527 26.5617 58.3094 28.859 58.1662C29.1461 58.1662 29.2897 57.8796 29.5769 58.1662C29.864 58.1662 30.1512 58.0229 30.4383 58.1662C30.7255 57.7364 31.0126 58.1662 31.2998 58.1662C31.5869 58.1662 31.8741 58.3094 32.1612 58.1662C32.4484 58.0229 32.7355 58.3094 33.1663 58.1662C33.4534 58.4527 33.8842 58.3094 34.1713 58.1662C34.4585 58.4527 34.8892 58.1662 35.1764 58.1662C35.4635 58.4527 35.8942 58.3094 36.325 58.1662C36.7557 58.0229 37.0429 58.1662 37.4736 58.1662C37.9043 58.1662 38.1915 58.0229 38.6222 58.1662C39.0529 58.0229 39.4837 57.8796 39.7708 58.1662C40.2015 58.0229 40.6323 58.1662 41.063 58.1662C41.4937 58.0229 41.9245 58.1662 42.3552 58.1662C42.7859 58.1662 43.2167 58.4527 43.6474 58.1662C44.0781 58.1662 44.5088 58.1662 44.9396 58.1662C45.3703 58.1662 45.801 58.3094 46.2318 58.1662C46.6625 58.596 47.0932 58.3094 47.524 58.1662C47.9547 58.0229 48.3854 58.1662 48.8162 58.1662C49.2469 58.1662 49.6776 58.1662 50.1083 58.1662C50.5391 58.0229 50.9698 58.3094 51.4005 58.1662C51.8313 58.0229 52.262 58.3094 52.6927 58.1662C53.1235 58.0229 53.5542 58.0229 53.9849 58.1662C54.4156 58.1662 54.8464 58.4527 55.2771 58.1662C55.7078 58.1662 56.1386 57.7364 56.4257 58.1662C56.8565 58.0229 57.1436 58.4527 57.5743 58.1662C58.0051 58.596 58.2922 58.1662 58.723 58.1662C59.1537 58.3094 59.4408 58.3094 59.8716 58.1662C60.1587 58.0229 60.5895 58.3094 60.8766 58.1662C61.1638 58.0229 61.5945 58.4527 61.8816 58.1662C62.1688 58.1662 62.456 58.1662 62.8867 58.1662C63.1738 57.7364 63.461 58.1662 63.7481 58.1662C64.0353 58.3094 64.3224 57.8796 64.6096 58.1662C64.8968 57.7364 65.1839 58.1662 65.4711 58.1662C65.7582 58.3094 65.9018 58.0229 66.1889 58.1662C66.4761 57.8796 66.6197 58.3094 66.9068 58.1662C67.194 58.3094 67.3376 58.1662 67.4811 58.1662C67.6247 58.1662 67.9119 58.1662 68.0555 58.1662C68.199 58.1662 68.3426 58.1662 68.4862 58.1662C69.3476 58.7392 69.9219 58.7392 69.9219 58.8825Z" fill="#212529"/>
<path d="M69.9219 72.6361C69.9219 72.7794 69.4912 72.9226 68.4862 73.0659C68.3426 73.0659 68.199 73.0659 68.0555 73.0659C67.9119 73.0659 67.7683 73.2092 67.4811 73.0659C67.3376 72.9226 67.0504 73.3524 66.9068 73.0659C66.7633 72.9226 66.4761 73.0659 66.1889 73.0659C65.9018 73.0659 65.7582 72.9226 65.4711 73.0659C65.1839 73.4957 64.8968 72.6361 64.6096 73.0659C64.3224 73.2092 64.0353 73.0659 63.7481 73.0659C63.461 72.7794 63.1738 73.0659 62.8867 73.0659C62.5995 72.7794 62.3124 72.9226 61.8816 73.0659C61.5945 72.6361 61.1638 72.6361 60.8766 73.0659C60.5895 73.0659 60.1587 72.9226 59.8716 73.0659C59.5844 73.0659 59.1537 73.2092 58.723 73.0659C58.2922 73.3524 58.0051 73.3524 57.5743 73.0659C57.1436 73.3524 56.8565 73.2092 56.4257 73.0659C55.995 72.9226 55.5643 73.3524 55.2771 73.0659C54.8464 73.0659 54.4156 73.2092 53.9849 73.0659C53.5542 72.9226 53.1235 72.7794 52.6927 73.0659C52.262 73.2092 51.8313 73.2092 51.4005 73.0659C50.9698 73.3524 50.5391 73.2092 50.1083 73.0659C49.6776 73.0659 49.2469 72.9226 48.8162 73.0659C48.3854 73.0659 47.9547 73.2092 47.524 73.0659C47.0932 72.9226 46.6625 72.9226 46.2318 73.0659C45.801 73.3524 45.3703 72.9226 44.9396 73.0659C44.5088 72.7794 44.0781 73.2092 43.6474 73.0659C43.2167 73.0659 42.7859 72.9226 42.3552 73.0659C41.9245 73.0659 41.4937 73.2092 41.063 73.0659C40.6323 73.4957 40.2015 72.9226 39.7708 73.0659C39.3401 72.9226 38.9094 73.0659 38.6222 73.0659C38.1915 73.2092 37.9043 72.7794 37.4736 73.0659C37.0429 73.0659 36.7557 73.2092 36.325 73.0659C35.8942 73.3524 35.6071 72.9226 35.1764 73.0659C34.8892 73.0659 34.4585 73.0659 34.1713 73.0659C33.8842 72.6361 33.4534 73.0659 33.1663 73.0659C32.8791 73.0659 32.592 73.3524 32.1612 73.0659C31.8741 73.0659 31.5869 72.9226 31.2998 73.0659C31.0126 73.0659 30.7255 72.4928 30.4383 73.0659C30.1512 73.2092 29.864 72.6361 29.5769 73.0659C29.2897 73.3524 29.1461 73.0659 28.859 73.0659C28.5718 73.0659 28.4282 73.0659 28.1411 73.0659C26.2746 72.9226 25.126 72.6361 25.126 72.4928C25.126 72.2063 26.5617 72.063 28.859 71.9198C29.1461 71.9198 29.2897 71.6332 29.5769 71.9198C29.864 71.9198 30.1512 71.7765 30.4383 71.9198C30.7255 71.49 31.0126 71.9198 31.2998 71.9198C31.5869 71.9198 31.8741 72.063 32.1612 71.9198C32.4484 71.7765 32.7355 72.063 33.1663 71.9198C33.4534 72.2063 33.8842 72.063 34.1713 71.9198C34.4585 72.2063 34.8892 71.9198 35.1764 71.9198C35.4635 72.2063 35.8942 72.063 36.325 71.9198C36.7557 71.7765 37.0429 71.9198 37.4736 71.9198C37.9043 71.9198 38.1915 71.7765 38.6222 71.9198C39.0529 71.7765 39.4837 71.6332 39.7708 71.9198C40.2015 71.7765 40.6323 71.9198 41.063 71.9198C41.4937 71.7765 41.9245 71.9198 42.3552 71.9198C42.7859 71.9198 43.2167 72.2063 43.6474 71.9198C44.0781 71.9198 44.5088 71.9198 44.9396 71.9198C45.3703 71.9198 45.801 72.063 46.2318 71.9198C46.6625 72.3496 47.0932 72.063 47.524 71.9198C47.9547 71.7765 48.3854 71.9198 48.8162 71.9198C49.2469 71.9198 49.6776 71.9198 50.1083 71.9198C50.5391 71.7765 50.9698 72.063 51.4005 71.9198C51.8313 71.7765 52.262 72.063 52.6927 71.9198C53.1235 71.7765 53.5542 71.7765 53.9849 71.9198C54.4156 71.9198 54.8464 72.2063 55.2771 71.9198C55.7078 71.9198 56.1386 71.49 56.4257 71.9198C56.8565 71.7765 57.1436 72.2063 57.5743 71.9198C58.0051 72.3496 58.2922 71.9198 58.723 71.9198C59.1537 71.9198 59.4408 72.063 59.8716 71.9198C60.1587 71.7765 60.5895 72.063 60.8766 71.9198C61.1638 71.7765 61.5945 72.2063 61.8816 71.9198C62.1688 71.9198 62.456 71.9198 62.8867 71.9198C63.1738 71.49 63.461 71.9198 63.7481 71.9198C64.0353 72.063 64.3224 71.6332 64.6096 71.9198C64.8968 71.49 65.1839 71.9198 65.4711 71.9198C65.7582 72.063 65.9018 71.7765 66.1889 71.9198C66.4761 71.6332 66.6197 72.063 66.9068 71.9198C67.194 72.063 67.3376 71.9198 67.4811 71.9198C67.6247 71.9198 67.9119 71.9198 68.0555 71.9198C68.199 71.9198 68.3426 71.9198 68.4862 71.9198C69.3476 72.3496 69.9219 72.4928 69.9219 72.6361Z" fill="#212529"/>
<path d="M66.1889 20.2006C66.0454 20.2006 65.9018 19.4843 65.7582 18.3381C65.7582 18.1949 65.7582 17.9083 65.7582 17.6218C65.7582 17.3353 65.6146 17.192 65.7582 16.9055C65.9018 16.6189 65.4711 16.3324 65.7582 16.0459C65.9018 15.7593 65.7582 15.4728 65.7582 15.1863C65.7582 14.8997 65.9018 14.6132 65.7582 14.1834C65.3275 13.8969 66.1889 13.4671 65.7582 13.1805C65.6146 12.7507 65.7582 12.4642 65.7582 12.0344C66.0454 11.6046 65.7582 11.1748 65.7582 10.8883C66.0454 10.4585 65.9018 10.0287 65.7582 9.59887C66.1889 9.16907 66.1889 8.73927 65.7582 8.30947C65.7582 7.87967 65.9018 7.44987 65.7582 6.87681C65.7582 6.59027 65.7582 6.44701 65.7582 6.16047C65.7582 6.01721 65.7582 5.87394 65.7582 5.73068C65.7582 5.58741 65.7582 5.58741 65.7582 5.44414C65.7582 5.30088 65.7582 5.30088 65.7582 5.15761C65.4711 4.15474 65.4711 3.00861 65.7582 2.43555C65.6146 1.86248 65.6146 1.28942 65.6146 0.859616C65.6146 0.429816 65.6146 0.143283 65.7582 -0.14325C65.9018 1.69575e-05 66.0454 0.143283 66.0454 0.28655C66.4761 0.859616 66.7633 1.00288 67.0504 1.14615C67.3376 1.43268 67.7683 1.71921 68.0554 2.14901C68.3426 2.43555 68.7733 2.86535 69.0605 3.15188C69.2041 3.29515 69.4912 3.43841 69.6348 3.72494L69.7784 3.86821L69.9219 4.01148L70.0655 4.15474C70.3527 4.58454 70.6398 5.15761 71.2141 5.30088C71.6449 5.58741 72.2192 6.01721 72.5063 6.44701C73.2242 6.59027 73.5114 7.16334 73.7985 7.73641C74.2292 8.16621 74.5164 8.73927 75.0907 9.0258C75.5214 9.4556 76.0957 9.74214 76.3829 10.3152C76.0957 11.0315 76.3829 11.4613 76.9572 11.7479C77.5315 12.0344 77.6751 12.6075 78.2494 13.0373C78.393 13.7536 79.1109 13.7536 79.5416 14.3267C79.9723 14.7565 80.2595 15.3295 80.6902 15.6161C81.1209 16.0459 81.5517 16.3324 81.8388 16.7622C81.9824 16.7622 82.126 16.7622 82.2695 16.9055L82.4131 17.0487C82.4131 17.0487 82.4131 17.0487 82.4131 17.192V17.3353C82.5567 17.7651 82.7003 18.0516 82.9874 18.3381C83.131 18.6247 83.2746 18.9112 83.5617 19.1977C83.8489 19.4843 83.9925 19.7708 84.2796 20.0573C84.2796 20.2006 84.4232 20.2006 84.4232 20.3439V20.4871V20.6304V20.7737H84.2796H83.9925C83.5617 20.7737 83.2746 20.7737 82.9874 20.9169C82.7003 20.9169 82.2695 21.0602 81.9824 21.0602C81.6952 21.0602 81.2645 21.2035 80.9774 21.2035C80.8338 21.3467 80.6902 21.3467 80.5466 21.3467C80.403 21.3467 80.2595 21.3467 80.1159 21.3467C79.8287 21.3467 79.6852 21.2035 79.398 21.3467C78.9673 21.3467 78.393 21.3467 77.9622 21.3467C77.5315 20.9169 77.1008 21.3467 76.6701 21.3467C76.2393 21.3467 75.8086 21.6333 75.3779 21.3467C74.9471 21.3467 74.5164 21.2035 74.2292 21.3467C73.7985 21.3467 73.5114 20.7737 73.0806 21.3467C72.6499 21.49 72.3627 20.9169 72.0756 21.3467C71.7884 21.6333 71.3577 21.3467 71.0706 21.3467C70.7834 21.3467 70.4963 21.3467 70.2091 21.3467C67.7683 20.6304 66.1889 20.4871 66.1889 20.2006C66.1889 19.9141 68.0554 19.7708 71.2141 19.4843C71.5013 19.4843 71.7884 19.1977 72.2192 19.4843C72.5063 19.4843 72.9371 19.341 73.2242 19.4843C73.6549 19.0545 73.9421 19.4843 74.3728 19.4843C74.8036 19.4843 75.2343 19.6275 75.5214 19.4843C75.9522 19.341 76.3829 19.6275 76.8136 19.4843C77.2444 19.7708 77.6751 19.6275 78.1058 19.4843C78.5366 19.7708 78.9673 19.4843 79.5416 19.4843C79.8287 19.6275 79.9723 19.6275 80.2595 19.6275C80.4031 19.6275 80.5466 19.6275 80.6902 19.4843H80.8338H80.9774C81.1209 19.4843 81.1209 19.4843 81.1209 19.4843C80.9774 19.341 80.8338 19.341 80.8338 19.341C80.8338 19.341 80.8338 19.341 80.9774 19.1977C80.8338 19.1977 80.8338 19.1977 80.8338 19.1977V19.0545L80.6902 18.6247C80.5466 18.4814 80.5466 18.4814 80.403 18.3381C79.9723 18.0516 79.6852 17.4785 79.2544 17.192C78.8237 16.9055 78.6801 16.1891 77.9622 16.0459C77.5315 15.6161 77.2444 15.1863 76.6701 14.7565C76.2393 14.3267 75.9522 13.8969 75.3779 13.4671C75.2343 12.7507 74.66 12.4642 74.0857 12.1777C73.5114 11.8911 73.2242 11.3181 72.7935 10.8883C72.3627 10.4585 71.932 10.0287 71.5013 9.59887C71.0706 9.16907 70.7834 8.596 70.3527 8.30947C69.7784 8.02294 69.6348 7.30661 69.2041 7.02007C68.7733 6.73354 68.3426 6.30374 68.0554 5.87394L67.9119 5.73068C67.9119 5.73068 67.9119 5.73068 67.9119 5.58741V5.44414C67.9119 5.30088 67.7683 5.30088 67.7683 5.44414C67.7683 5.44414 67.7683 5.58741 67.7683 5.73068C67.7683 5.87394 67.7683 5.87394 67.6247 5.15761C67.6247 5.15761 67.6247 5.15761 67.4811 5.15761C67.4811 5.15761 67.4811 5.15761 67.4811 5.44414C67.3376 5.30088 67.3376 5.44414 67.3376 5.44414C67.3376 5.58741 67.4811 5.73068 67.4811 5.73068C67.4811 5.87394 67.4811 6.01721 67.4811 6.16047C67.4811 6.44701 67.4811 6.59027 67.4811 6.87681C67.6247 7.30661 67.3376 7.87967 67.4811 8.30947C67.6247 8.73927 67.194 9.16907 67.4811 9.59887C67.4811 10.0287 67.4811 10.4585 67.4811 10.8883C67.9119 11.3181 67.4811 11.7479 67.4811 12.0344C67.3376 12.4642 67.7683 12.7507 67.4811 13.1805C67.9119 13.6103 67.4811 13.8969 67.4811 14.1834C67.3376 14.4699 67.6247 14.8997 67.4811 15.1863C67.7683 15.4728 67.3376 15.7593 67.4811 16.0459C67.3376 16.3324 67.4811 16.6189 67.4811 16.9055C67.4811 17.192 67.4811 17.4785 67.4811 17.6218C67.4811 17.9083 67.4811 18.0516 67.4811 18.3381C66.4761 19.6275 66.3325 20.2006 66.1889 20.2006Z" fill="#212529"/>
<path d="M1.00506 13.4671C1.00506 13.4671 1.14864 14.3267 1.14864 15.9026C1.14864 17.4786 1.29221 19.9141 1.29221 23.0659C1.29221 24.0688 1.29221 25.2149 1.29221 26.3611C1.29221 27.5072 1.43579 28.7966 1.29221 30.086C1.43579 31.5187 1.86652 32.9513 1.57937 34.384C1.43579 35.8167 1.57937 37.3926 1.57937 38.9685C1.57937 40.5445 1.43579 42.2637 1.57937 43.9829C2.0101 45.702 1.14864 47.5645 1.57937 49.427C1.72294 51.2894 1.57937 53.2952 1.57937 55.3009C1.29221 57.3066 1.57937 59.3124 1.57937 61.4614C1.29221 63.6104 1.43579 65.7594 1.57937 67.9084C1.14864 70.2006 1.14864 72.3496 1.57937 74.7851C1.57937 77.0774 1.43579 79.5129 1.57937 81.9485C1.57937 84.384 1.72294 86.8195 1.57937 89.3983C1.86652 91.9771 1.86652 94.5559 1.57937 97.1347C1.57937 97.4212 1.57937 97.4212 1.72294 97.4212C1.72294 97.4212 1.72294 97.4212 1.72294 97.5645H1.86652H2.0101C2.5844 97.5645 3.01513 97.5645 3.58944 97.5645C4.59448 97.5645 5.74309 97.7078 6.74813 97.7078C9.47609 97.851 12.2041 97.4212 14.932 97.7078C17.66 97.7078 20.5315 97.5645 23.403 97.7078C26.2746 97.851 29.1461 97.9943 32.0177 97.7078C34.8892 97.5645 37.9043 97.5645 40.9194 97.7078C43.9345 97.4212 46.9496 97.5645 49.9648 97.7078C52.9799 97.7078 56.1386 97.851 59.1537 97.7078C60.733 97.7078 62.3124 97.7078 63.7481 97.7078C64.466 97.7078 65.3275 97.7078 66.0454 97.7078H66.6197H66.9068H67.0504H67.194V97.5645V97.4212V97.1347V96.5617C67.194 95.8453 67.194 94.9857 67.194 94.2694C67.194 92.6935 67.194 91.1175 67.0504 89.6849V89.5416C67.0504 89.5416 67.0504 89.5416 66.9068 89.5416H66.3325C65.7582 89.5416 65.0403 89.5416 64.466 89.5416C63.1738 89.5416 61.8816 89.5416 60.5894 89.5416C57.5743 89.2551 54.5592 89.6849 51.5441 89.5416C48.529 89.5416 45.6575 89.3983 42.6423 89.5416C39.7708 89.5416 36.8993 89.6849 34.0277 89.5416C31.1562 89.9714 28.2847 89.3983 25.5567 89.5416C22.8287 89.3983 20.1008 89.5416 17.3728 89.5416C16.7985 89.5416 16.3678 89.5416 15.937 89.5416C15.0756 89.5416 14.2141 89.5416 13.4962 89.5416C13.4962 88.3955 13.4962 87.2493 13.6398 86.1032C13.6398 85.2436 13.6398 84.384 13.6398 83.6677C13.6398 81.0889 13.4962 78.5101 13.6398 75.9313C13.3527 73.3525 13.7834 70.9169 13.6398 68.4814C13.6398 66.0459 13.6398 63.6104 13.6398 61.3181C14.0705 59.0258 13.6398 56.7336 13.6398 54.4413C13.6398 52.149 13.3527 50 13.6398 47.9943C13.6398 45.8453 13.7834 43.8396 13.6398 41.8339C13.6398 39.8281 14.2141 37.9657 13.6398 35.9599C13.4962 34.0975 14.0705 32.235 13.6398 30.5158C13.3527 28.7966 13.6398 27.0774 13.6398 25.5015C13.6398 23.9255 13.6398 22.3496 13.6398 20.9169C13.6398 19.7708 13.6398 18.6247 13.6398 17.4786C13.6398 16.9055 13.6398 16.3324 13.6398 15.9026C13.6398 15.4728 13.6398 15.1863 13.6398 14.7565C11.4862 14.7565 9.61967 14.6132 8.04032 14.6132C6.3174 14.6132 4.73806 14.47 3.58944 14.47C2.29725 13.6104 1.00506 13.6104 1.00506 13.4671C1.00506 13.3238 2.29725 13.3238 4.73806 13.1806C5.88667 13.1806 7.46602 13.0373 9.18894 13.0373C10.0504 13.0373 11.0554 13.0373 12.0605 13.0373C12.6348 13.0373 13.0655 13.0373 13.6398 13.0373C14.3577 13.0373 15.0756 13.0373 15.7935 13.0373C15.7935 16.4757 15.937 20.3439 15.937 24.7851C15.937 26.3611 16.2242 28.0803 15.937 29.7995C15.937 31.5187 16.0806 33.3811 15.937 35.2436C16.3678 37.1061 15.937 39.1118 15.937 41.1175C15.937 43.1233 15.7935 45.129 15.937 47.278C16.0806 49.427 15.7935 51.576 15.937 53.725C15.6499 56.0172 15.7935 58.1662 15.937 60.6018C15.6499 62.894 15.937 65.3296 15.937 67.7651C15.6499 70.2006 15.7935 72.6361 15.937 75.2149C16.0806 77.7937 15.937 80.3725 15.937 82.9513C15.937 83.8109 15.937 84.5273 15.937 85.3869C15.937 85.8167 15.937 86.2465 15.937 86.533V86.8195H16.0806H16.3678C16.7985 86.8195 17.3728 86.8195 17.9471 86.8195C20.6751 86.6763 23.403 86.533 26.131 86.8195C28.859 86.6763 31.7305 86.8195 34.602 86.8195C37.4736 86.6763 40.3451 86.8195 43.2166 86.8195C46.0882 86.8195 49.1033 87.1061 52.1184 86.8195C55.1335 86.8195 58.1486 86.8195 61.1637 86.8195C62.4559 86.8195 63.7481 86.8195 65.0403 86.8195C65.6146 86.8195 66.3325 86.8195 66.9068 86.8195C67.9119 86.8195 68.9169 86.8195 69.9219 86.8195C69.9219 87.2493 69.9219 87.8224 69.9219 88.2522V88.9685V89.2551V89.3983C69.7784 90.9743 69.6348 92.5502 69.7784 93.9828C69.7784 94.6992 69.7784 95.5588 69.9219 96.2751V96.8482V97.1347V97.278V97.5645C69.9219 98.2808 69.9219 98.9972 69.9219 99.7135C68.7733 99.7135 67.6247 99.7135 66.4761 99.7135C65.7582 99.7135 64.8968 99.7135 64.1789 99.7135C62.5995 99.7135 61.0202 99.7135 59.5844 99.7135C56.4257 99.7135 53.4106 99.7135 50.3955 99.7135C47.3804 99.8568 44.3653 99.5702 41.3501 99.7135C38.335 99.8568 35.4635 99.5702 32.4484 99.7135C29.5768 99.8568 26.7053 99.8568 23.8338 99.7135C20.9622 99.7135 18.0907 99.427 15.3627 99.7135C12.6348 99.7135 9.90682 100.143 7.17886 99.7135C6.03025 99.7135 5.02521 99.7135 4.02017 99.7135C3.44586 99.7135 3.01513 99.7135 2.44083 99.7135H2.0101H1.29221C0.861482 99.7135 0.430751 99.7135 -0.143556 99.7135C-0.143556 99.2837 -0.143556 98.8539 -0.143556 98.4241C-0.143556 97.9943 -0.143556 97.4212 -0.143556 97.278C0.287174 94.6992 -0.143556 92.1204 -0.143556 89.5416C2.0802e-05 86.9628 2.0802e-05 84.5273 -0.143556 82.0917C-0.287133 79.6562 2.0802e-05 77.2207 -0.143556 74.9284C-0.287133 72.6361 0.143598 70.3439 -0.143556 68.0516C-0.143556 65.7594 -0.143556 63.6104 -0.143556 61.6046C-0.717863 59.4556 -0.143556 57.4499 -0.143556 55.4442C2.0802e-05 53.4384 -0.43071 51.576 -0.143556 49.5702C-0.574287 47.7078 -0.143556 45.8453 -0.143556 44.1261C2.0802e-05 42.4069 -0.287133 40.6877 -0.143556 39.1118C-0.43071 37.5359 2.0802e-05 35.9599 -0.143556 34.5273C2.0802e-05 33.0946 -0.143556 31.6619 -0.143556 30.3725C-0.143556 29.0831 -0.143556 27.7937 -0.143556 26.6476C-0.143556 25.5015 -0.143556 24.3553 -0.143556 23.3525C-0.143556 20.2006 2.08318e-05 17.9084 2.08318e-05 16.1892C0.861482 14.3267 1.00506 13.4671 1.00506 13.4671Z" fill="#212529"/>
<path d="M50.5391 20.7736C50.5391 20.9169 50.2519 21.0602 49.6776 21.2034C49.534 21.2034 49.534 21.2034 49.3904 21.2034C49.2469 21.2034 49.2469 21.3467 49.1033 21.2034C48.9597 21.0602 48.8161 21.49 48.8161 21.2034C48.6726 21.0602 48.529 21.2034 48.3854 21.2034C48.2418 21.2034 48.0982 21.0602 47.9547 21.2034C47.8111 21.6332 47.6675 20.7736 47.5239 21.2034C47.3804 21.3467 47.2368 21.2034 47.0932 21.2034C46.9496 20.9169 46.8061 21.2034 46.5189 21.2034C46.3753 20.9169 46.2317 21.0602 45.9446 21.2034C45.801 20.7736 45.5139 20.7736 45.3703 21.2034C45.2267 21.2034 44.9396 21.0602 44.796 21.2034C44.6524 21.2034 44.3652 21.3467 44.2217 21.2034C44.0781 21.49 43.7909 21.49 43.6474 21.2034C43.3602 21.49 43.2166 21.3467 42.9295 21.2034C42.6423 21.0602 42.4987 21.49 42.2116 21.2034C41.9244 21.2034 41.7809 21.3467 41.4937 21.2034C41.2066 21.0602 41.063 20.9169 40.7758 21.2034C40.4887 21.3467 40.3451 21.3467 40.0579 21.2034C39.7708 21.49 39.6272 21.3467 39.3401 21.2034C39.0529 21.2034 38.7658 21.0602 38.6222 21.2034C38.335 21.2034 38.0479 21.3467 37.9043 21.2034C37.6171 21.0602 37.33 21.0602 37.1864 21.2034C36.8993 21.49 36.6121 21.0602 36.4685 21.2034C36.1814 20.9169 36.0378 21.3467 35.7506 21.2034C35.4635 21.2034 35.3199 21.0602 35.0328 21.2034C34.7456 21.2034 34.602 21.3467 34.3149 21.2034C34.0277 21.7765 33.8841 21.0602 33.597 21.2034C33.3098 21.0602 33.1663 21.2034 32.8791 21.2034C32.5919 21.3467 32.4484 20.9169 32.1612 21.2034C31.8741 21.2034 31.7305 21.3467 31.5869 21.2034C31.4433 21.49 31.1562 21.0602 31.0126 21.2034C30.869 21.2034 30.5819 21.2034 30.4383 21.2034C30.2947 20.7736 30.0076 21.2034 29.864 21.2034C29.7204 21.2034 29.4333 21.49 29.2897 21.2034C29.1461 21.2034 29.0025 21.0602 28.7154 21.2034C28.5718 21.2034 28.4282 20.6304 28.2846 21.2034C28.1411 21.3467 27.9975 20.7736 27.8539 21.2034C27.7103 21.49 27.5668 21.2034 27.4232 21.2034C27.2796 21.2034 27.136 21.2034 26.9925 21.2034C25.8438 21.0602 25.2695 20.7736 25.2695 20.6304C25.2695 20.3438 25.9874 20.2006 27.4232 20.0573C27.5668 20.0573 27.7103 19.7708 27.8539 20.0573C27.9975 20.0573 28.1411 19.914 28.2846 20.0573C28.4282 19.6275 28.5718 20.0573 28.7154 20.0573C28.859 20.0573 29.0025 20.2006 29.2897 20.0573C29.4333 19.914 29.5768 20.2006 29.864 20.0573C30.0076 20.3438 30.2947 20.2006 30.4383 20.0573C30.5819 20.3438 30.869 20.0573 31.0126 20.0573C31.1562 20.3438 31.4433 20.2006 31.5869 20.0573C31.7305 19.914 32.0176 20.0573 32.1612 20.0573C32.4484 20.0573 32.5919 19.914 32.8791 20.0573C33.1663 19.914 33.3098 19.7708 33.597 20.0573C33.8841 19.914 34.0277 20.0573 34.3149 20.0573C34.602 19.914 34.7456 20.0573 35.0328 20.0573C35.3199 20.0573 35.4635 20.3438 35.7506 20.0573C36.0378 20.0573 36.1814 20.0573 36.4685 20.0573C36.7557 20.0573 36.8993 20.2006 37.1864 20.0573C37.4736 20.4871 37.7607 20.2006 37.9043 20.0573C38.1914 19.914 38.4786 20.0573 38.6222 20.0573C38.9093 20.0573 39.1965 20.0573 39.3401 20.0573C39.6272 19.914 39.7708 20.2006 40.0579 20.0573C40.3451 19.914 40.4887 20.2006 40.7758 20.0573C41.063 19.914 41.2066 19.914 41.4937 20.0573C41.7809 20.0573 41.9244 20.3438 42.2116 20.0573C42.4987 20.0573 42.6423 19.6275 42.9295 20.0573C43.2166 19.914 43.3602 20.3438 43.6474 20.0573C43.7909 20.4871 44.0781 20.0573 44.2217 20.0573C44.3652 20.0573 44.6524 20.2006 44.796 20.0573C44.9396 19.914 45.2267 20.2006 45.3703 20.0573C45.5139 19.914 45.801 20.3438 45.9446 20.0573C46.0882 20.0573 46.3753 20.0573 46.5189 20.0573C46.6625 19.6275 46.8061 20.0573 47.0932 20.0573C47.2368 20.0573 47.3804 19.7708 47.5239 20.0573C47.6675 19.6275 47.8111 20.0573 47.9547 20.0573C48.0982 20.2006 48.2418 19.914 48.3854 20.0573C48.529 19.7708 48.6726 20.2006 48.8161 20.0573C48.9597 20.2006 49.1033 20.0573 49.1033 20.0573C49.2469 20.0573 49.2469 20.0573 49.3904 20.0573C49.534 20.0573 49.534 20.0573 49.6776 20.0573C50.2519 20.4871 50.5391 20.6304 50.5391 20.7736Z" fill="#212529"/>
<path d="M50.5391 10.1719C50.5391 10.3152 50.2519 10.4585 49.6776 10.6017C49.534 10.6017 49.534 10.6017 49.3904 10.6017C49.2469 10.6017 49.2469 10.745 49.1033 10.6017C48.9597 10.4585 48.8161 10.8883 48.8161 10.6017C48.6726 10.4585 48.529 10.6017 48.3854 10.6017C48.2418 10.6017 48.0982 10.4585 47.9547 10.6017C47.8111 11.0315 47.6675 10.1719 47.5239 10.6017C47.3804 10.745 47.2368 10.6017 47.0932 10.6017C46.9496 10.3152 46.8061 10.6017 46.5189 10.6017C46.3753 10.3152 46.2317 10.4585 45.9446 10.6017C45.801 10.1719 45.5139 10.1719 45.3703 10.6017C45.2267 10.6017 44.9396 10.4585 44.796 10.6017C44.6524 10.6017 44.3652 10.745 44.2217 10.6017C44.0781 10.8883 43.7909 10.8883 43.6474 10.6017C43.3602 10.8883 43.2166 10.745 42.9295 10.6017C42.6423 10.4585 42.4987 10.8883 42.2116 10.6017C41.9244 10.6017 41.7809 10.745 41.4937 10.6017C41.2066 10.4585 41.063 10.3152 40.7758 10.6017C40.4887 10.745 40.3451 10.745 40.0579 10.6017C39.7708 10.8883 39.6272 10.745 39.3401 10.6017C39.0529 10.6017 38.7658 10.4585 38.6222 10.6017C38.335 10.6017 38.0479 10.745 37.9043 10.6017C37.6171 10.4585 37.33 10.4585 37.1864 10.6017C36.8993 10.8883 36.6121 10.4585 36.4685 10.6017C36.1814 10.3152 36.0378 10.745 35.7506 10.6017C35.4635 10.6017 35.3199 10.4585 35.0328 10.6017C34.7456 10.6017 34.602 10.745 34.3149 10.6017C34.0277 11.0315 33.8841 10.4585 33.597 10.6017C33.3098 10.4585 33.1663 10.6017 32.8791 10.6017C32.5919 10.745 32.4484 10.3152 32.1612 10.6017C31.8741 10.6017 31.7305 10.745 31.5869 10.6017C31.4433 10.8883 31.1562 10.4585 31.0126 10.6017C30.869 10.6017 30.5819 10.6017 30.4383 10.6017C30.2947 10.1719 30.0076 10.6017 29.864 10.6017C29.7204 10.6017 29.4333 10.8883 29.2897 10.6017C29.1461 10.6017 29.0025 10.4585 28.7154 10.6017C28.5718 10.6017 28.4282 10.0287 28.2846 10.6017C28.1411 10.745 27.9975 10.1719 27.8539 10.6017C27.7103 10.8883 27.5668 10.6017 27.4232 10.6017C27.2796 10.6017 27.136 10.6017 26.9925 10.6017C25.8438 10.4585 25.2695 10.1719 25.2695 10.0287C25.2695 9.74214 25.9874 9.59888 27.4232 9.45561C27.5668 9.45561 27.7103 9.16908 27.8539 9.45561C27.9975 9.45561 28.1411 9.31234 28.2846 9.45561C28.4282 9.02581 28.5718 9.45561 28.7154 9.45561C28.859 9.45561 29.0025 9.59888 29.2897 9.45561C29.4333 9.31234 29.5768 9.59888 29.864 9.45561C30.0076 9.74214 30.2947 9.59888 30.4383 9.45561C30.5819 9.74214 30.869 9.45561 31.0126 9.45561C31.1562 9.74214 31.4433 9.59888 31.5869 9.45561C31.7305 9.31234 32.0176 9.45561 32.1612 9.45561C32.4484 9.45561 32.5919 9.31234 32.8791 9.45561C33.1663 9.31234 33.3098 9.16908 33.597 9.45561C33.8841 9.31234 34.0277 9.45561 34.3149 9.45561C34.602 9.31234 34.7456 9.45561 35.0328 9.45561C35.3199 9.45561 35.4635 9.74214 35.7506 9.45561C36.0378 9.45561 36.1814 9.45561 36.4685 9.45561C36.7557 9.45561 36.8993 9.59888 37.1864 9.45561C37.4736 9.88541 37.7607 9.59888 37.9043 9.45561C38.1914 9.31234 38.4786 9.45561 38.6222 9.45561C38.9093 9.45561 39.1965 9.45561 39.3401 9.45561C39.6272 9.31234 39.7708 9.59888 40.0579 9.45561C40.3451 9.31234 40.4887 9.59888 40.7758 9.45561C41.063 9.31234 41.2066 9.31234 41.4937 9.45561C41.7809 9.45561 41.9244 9.74214 42.2116 9.45561C42.4987 9.45561 42.6423 9.02581 42.9295 9.45561C43.2166 9.31234 43.3602 9.74214 43.6474 9.45561C43.7909 9.88541 44.0781 9.45561 44.2217 9.45561C44.3652 9.45561 44.6524 9.59888 44.796 9.45561C44.9396 9.31234 45.2267 9.59888 45.3703 9.45561C45.5139 9.31234 45.801 9.74214 45.9446 9.45561C46.0882 9.45561 46.3753 9.45561 46.5189 9.45561C46.6625 9.02581 46.8061 9.45561 47.0932 9.45561C47.2368 9.59888 47.3804 9.16908 47.5239 9.45561C47.6675 9.02581 47.8111 9.45561 47.9547 9.45561C48.0982 9.59888 48.2418 9.31234 48.3854 9.45561C48.529 9.16908 48.6726 9.59888 48.8161 9.45561C48.9597 9.59888 49.1033 9.45561 49.1033 9.45561C49.2469 9.45561 49.2469 9.45561 49.3904 9.45561C49.534 9.45561 49.534 9.45561 49.6776 9.45561C50.2519 9.88541 50.5391 10.0287 50.5391 10.1719Z" fill="#212529"/>
<path d="M101.509 13.8969C101.652 13.8969 100.935 15.3295 99.6424 17.9083C99.3552 18.3381 99.2116 18.7679 98.9245 19.1977C98.6373 19.6275 98.4938 20.2006 98.063 20.7736C97.6323 21.2034 97.7759 22.063 97.2016 22.4928C96.7708 23.0659 96.4837 23.639 96.1965 24.3553C95.9094 25.0716 95.3351 25.6447 95.0479 26.361C94.9043 27.2206 93.8993 27.5072 93.8993 28.51C93.6121 29.3696 93.0378 30.086 92.6071 30.8023C91.8892 31.5186 91.7456 32.3782 91.3149 33.2378C90.597 33.9542 90.1663 34.8138 89.8791 35.8166C89.0177 36.533 88.587 37.3926 88.2998 38.5387C87.7255 39.3983 87.1512 40.2579 86.7205 41.404C86.1462 42.4069 85.7154 43.4098 84.9975 44.4126C84.7104 45.5587 84.1361 46.5616 83.2746 47.4212C82.9875 48.5673 82.2696 49.5702 81.5517 50.5731C80.8338 51.5759 80.5467 52.8653 79.6852 53.8682C79.398 54.298 79.2545 54.5845 79.1109 55.0143C78.9673 55.1576 78.9673 55.4441 78.8237 55.5874L78.6802 55.8739V56.1605C78.6802 56.3037 78.6802 56.5903 78.5366 56.7335C78.2494 58.0229 77.9623 59.3123 78.1058 60.6017C78.1058 61.8911 77.9623 63.3238 77.6751 64.6132C77.8187 65.3295 77.8187 66.0459 77.6751 66.6189C77.6751 66.9055 77.5315 67.3353 77.5315 67.6218V67.765C77.5315 67.765 77.5315 67.7651 77.388 67.9083V68.0516C77.388 68.0516 77.388 68.1949 77.2444 68.3381C77.2444 68.3381 77.5315 68.1949 77.5315 68.0516H77.6751C77.9623 67.765 78.2494 67.6218 78.5366 67.3353C79.1109 66.9055 79.6852 66.4757 80.2595 66.0458C81.4081 65.3295 82.7003 64.4699 83.7053 63.6103C84.7104 62.6075 86.0026 62.0344 87.1512 61.1748C87.2948 61.1748 87.4383 61.0315 87.5819 61.0315H87.7255C87.7255 61.0315 87.8691 60.745 88.0126 60.4585C88.1562 60.1719 88.2998 60.0287 88.4434 59.7421C88.7305 59.3123 88.8741 58.7393 89.1613 58.3095C89.8791 57.1633 90.7406 56.0172 91.1713 54.8711C91.7456 53.7249 92.32 52.5788 93.1814 51.4327C93.4686 50 94.6172 49.2837 95.1915 48.1375C96.053 47.1347 96.4837 45.9885 97.058 44.9857C97.6323 43.8396 98.4938 42.98 98.9245 41.8338C99.4988 40.831 99.9295 39.6848 100.647 38.8252C100.935 37.6791 101.94 36.9628 102.37 35.9599C102.945 34.957 103.519 34.0974 104.093 33.0946C104.955 32.3782 105.242 31.3754 105.673 30.3725C106.247 29.5129 106.534 28.51 107.252 27.7937C107.826 26.9341 108.401 26.2178 108.688 25.3582C109.118 24.4986 110.123 24.0688 110.123 23.0659C110.411 22.3496 111.272 21.7765 111.416 20.9169C111.416 20.9169 111.416 20.9169 111.416 20.7736C111.416 20.7736 111.416 20.7736 111.416 20.6304V20.4871C111.416 20.3438 111.559 20.3439 111.703 20.2006C111.703 20.0573 111.559 20.0573 111.416 19.914L111.272 19.7708L110.841 20.0573C110.698 19.9141 110.554 19.9141 110.411 19.7708C110.123 19.6275 109.836 19.341 109.549 19.1977C104.38 16.0459 101.509 14.1834 101.509 13.8969C101.652 13.7536 102.514 14.1834 104.38 15.1863C105.242 15.6161 106.39 16.1891 107.683 16.9055C108.257 17.192 108.975 17.6218 109.693 18.0516C110.123 18.1949 110.411 18.4814 110.841 18.6247C110.985 18.7679 111.272 18.7679 111.416 18.9112C111.703 19.0545 111.99 19.1977 112.134 19.341C112.564 19.6275 112.995 19.7708 113.426 20.0573C113.282 20.3438 113.139 20.6304 112.995 21.0602C112.851 21.2034 112.851 21.3467 112.708 21.49C112.708 21.6332 112.564 21.6332 112.564 21.7765L112.421 21.9198C111.99 22.6361 111.846 23.4957 111.272 24.0688C111.129 24.9284 110.411 25.6447 109.98 26.361C109.549 27.2206 108.975 27.937 108.544 28.7966C108.257 29.7994 107.539 30.3725 107.108 31.3754C106.39 32.0917 105.96 33.0946 105.529 34.0974C104.811 34.957 104.524 35.9599 103.95 36.9628C103.088 37.8224 102.801 38.8252 102.227 39.9714C101.796 40.9742 101.078 41.9771 100.504 42.98C99.7859 43.9828 99.3552 45.129 98.7809 46.1318C98.3502 47.2779 97.7759 48.4241 96.9144 49.4269C96.3401 50.5731 95.6222 51.5759 95.0479 52.7221C94.4736 53.8682 93.7557 55.0143 93.0378 56.1605C92.4635 57.3066 91.4585 58.3095 91.0278 59.5989C90.7406 60.0287 90.4535 60.6017 90.1663 61.0315C90.0227 61.3181 89.8791 61.4613 89.7356 61.7479C89.592 62.0344 89.4484 62.1777 89.1613 62.6075L88.587 63.0373L88.2998 63.3238C87.1512 64.0401 86.0026 64.8997 84.854 65.7593C83.5618 66.3324 82.5567 67.3353 81.4081 68.3381C80.8338 68.7679 80.2595 69.1977 79.6852 69.6275C78.8237 70.2006 78.1058 70.7736 77.2444 71.3467C76.2393 72.063 75.2343 72.9226 74.0857 73.639C74.2293 72.2063 74.3729 70.9169 74.5164 69.4842C74.5164 69.1977 74.5164 68.9112 74.66 68.4814V68.0516V67.765C74.66 67.4785 74.8036 67.0487 74.8036 66.7622C74.9472 66.0458 74.9472 65.4728 74.9472 64.7565C74.9472 63.3238 75.3779 62.0344 75.3779 60.745C75.3779 59.4556 75.5215 58.1662 75.8086 56.8768C75.8086 56.5903 75.8086 56.447 75.9522 56.3037V56.0172L76.0958 55.4441L76.3829 55.0143L76.5265 54.7278C76.6701 54.5845 76.8137 54.4413 76.8137 54.1547C77.1008 53.7249 77.2444 53.4384 77.388 53.0086C77.9623 51.8625 78.2494 50.5731 79.2545 49.8567C79.8288 48.7106 80.6902 47.851 81.121 46.7049C81.9824 45.8453 82.2696 44.6992 82.8439 43.6963C83.4182 42.6934 84.1361 41.8338 84.5668 40.831C84.9975 39.8281 85.7154 38.9685 86.2897 37.9656C86.5769 36.9628 87.5819 36.2464 87.8691 35.2436C88.4434 34.384 88.8741 33.5244 89.4484 32.6648C89.4484 31.5186 90.4535 31.0888 90.8842 30.2292C91.4585 29.5129 91.4585 28.51 92.32 27.937C92.4635 27.0774 93.1814 26.5043 93.6121 25.788C94.0429 25.2149 94.1865 24.3553 94.7608 23.7822C94.9043 23.0659 95.6222 22.6361 95.9094 21.9198C96.3401 21.49 96.6273 20.7736 96.9144 20.3438C97.2016 19.7708 97.4887 19.341 97.7759 18.9112C98.063 18.4814 98.3502 18.0516 98.6373 17.6218C100.504 15.1863 101.365 13.8969 101.509 13.8969Z" fill="#212529"/>
<path d="M101.509 13.8969C101.652 13.8969 101.509 14.4699 101.222 15.1863C101.222 15.3295 101.078 15.4728 101.078 15.6161C101.078 15.7593 100.935 15.9026 100.935 16.0459C100.647 16.0459 101.078 16.4757 100.791 16.4757C100.504 16.6189 100.504 16.7622 100.504 17.0487C100.504 17.192 100.217 17.3353 100.217 17.6218C100.36 18.0516 99.6423 17.7651 99.9295 18.1949C99.9295 18.4814 99.7859 18.6247 99.6424 18.9112C99.6424 18.9112 99.6424 18.9112 99.6424 19.0545V19.1977C99.3552 19.1977 99.2116 19.341 99.3552 19.4843C99.4988 19.4843 99.4988 19.4843 99.6424 19.4843C99.2116 19.7708 99.6423 19.9141 99.9295 19.6275L100.073 19.7708C100.217 19.9141 100.36 19.9141 100.504 19.9141C100.791 20.0573 101.078 20.0573 101.365 20.3439C101.796 20.2006 102.083 20.3439 102.227 20.7737C102.657 20.6304 102.945 20.9169 103.088 21.2035C103.232 21.49 103.806 21.3467 103.95 21.6333C104.237 21.7765 104.524 21.9198 104.811 22.2063C105.098 22.4929 105.242 22.7794 105.816 22.7794C106.103 22.9227 106.534 22.9227 106.821 23.3525C107.252 23.2092 107.539 23.4957 107.826 23.9255C107.97 23.9255 108.113 24.0688 108.257 24.2121C108.401 24.2121 108.401 24.3553 108.544 24.3553H108.688C108.688 24.3553 108.688 24.3553 108.831 24.3553C108.831 24.3553 108.831 24.3553 108.831 24.4986H108.975V24.3553V24.2121C108.975 24.0688 109.118 24.0688 109.118 23.9255C109.262 23.7823 109.406 23.639 109.406 23.4957C109.836 23.3525 109.693 22.7794 109.98 22.4929C110.123 22.2063 110.554 21.9198 110.554 21.49C110.554 21.3467 110.698 21.2035 110.698 20.9169C110.841 20.6304 110.841 20.7737 110.841 20.7737C110.698 20.6304 110.554 20.7737 110.698 20.7737C110.841 20.7737 110.985 20.7737 110.985 20.6304C111.128 20.6304 110.985 20.4871 110.985 20.4871H110.841L110.698 20.3439C110.554 20.2006 110.411 20.0573 110.267 20.0573C109.98 19.9141 109.693 19.9141 109.406 19.4843C108.975 19.4843 108.975 19.0545 108.688 19.0545C108.401 18.9112 108.113 18.7679 107.97 18.6247C107.97 18.1949 107.539 18.3381 107.252 18.1949C106.965 18.0516 106.678 18.0516 106.534 17.7651C106.39 17.6218 106.247 17.3353 105.96 17.3353C105.673 17.192 105.816 16.6189 105.385 16.9055C105.098 16.9055 105.242 16.3324 104.811 16.4757C104.524 16.6189 104.524 16.1891 104.237 16.0459C104.093 15.9026 103.95 15.7593 103.806 15.7593C102.227 14.7565 101.509 14.1834 101.509 13.8969C101.652 13.7536 102.801 14.0401 104.668 14.8997C104.811 15.043 105.098 14.8997 105.242 15.1863C105.385 15.3295 105.673 15.1863 105.816 15.4728C106.247 15.3295 106.247 15.6161 106.534 15.7593C106.821 15.9026 106.965 16.0459 107.252 16.0459C107.539 16.0459 107.683 16.3324 107.97 16.4757C108.113 16.7622 108.401 16.9055 108.688 16.9055C108.831 17.192 109.262 17.192 109.406 17.3353C109.549 17.7651 109.836 17.7651 110.267 17.7651C110.554 17.7651 110.841 18.1949 111.128 18.1949C111.272 18.3381 111.416 18.3381 111.559 18.4814C111.703 18.4814 111.703 18.4814 111.846 18.6247H111.99L112.134 18.7679C112.708 18.9112 113.426 19.341 113.713 19.6275C113.713 19.6275 113.856 19.6275 113.856 19.7708C113.713 20.2006 113.282 20.7737 112.995 21.3467C112.851 21.6333 112.708 22.0631 112.564 22.0631C112.421 22.2063 112.277 22.3496 112.277 22.4929C112.134 22.7794 111.559 22.9227 111.703 23.4957C111.559 23.7823 111.272 24.0688 111.128 24.4986C110.985 24.6419 110.841 24.7851 110.841 24.9284C110.841 25.0717 110.698 25.0717 110.698 25.2149C110.698 25.3582 110.554 25.5015 110.554 25.6447C110.267 25.788 109.98 26.0745 109.836 26.3611C109.693 26.6476 109.549 27.0774 109.406 27.5072C108.831 27.2207 108.113 26.7909 107.539 26.3611C107.395 26.3611 107.252 26.2178 107.108 26.2178C106.965 26.2178 106.965 26.0745 106.821 26.0745C106.678 25.9313 106.534 25.9313 106.39 25.788C105.96 25.6447 105.816 25.2149 105.385 25.2149C104.955 25.2149 104.811 24.6419 104.38 24.6419C103.95 24.4986 103.662 24.3553 103.519 24.0688C103.232 23.9255 103.088 23.4957 102.657 23.4957C102.514 23.3525 101.94 23.639 101.94 22.9227C101.652 22.9227 101.509 22.3496 101.078 22.3496C100.935 21.9198 100.504 22.0631 100.217 21.7765C99.9295 21.49 99.7859 21.3467 99.4988 21.3467C99.3552 21.3467 99.2116 21.2035 99.068 21.2035L98.9245 21.0602C98.7809 20.9169 98.7809 20.9169 98.6373 20.9169C98.3502 20.9169 98.2066 20.6304 98.063 20.4871C97.9194 20.3439 97.7759 20.2006 97.4887 20.0573C97.3451 20.0573 97.3451 19.9141 97.2015 19.9141C97.3451 19.6275 97.4887 19.341 97.7758 19.0545C97.6323 18.9112 97.7758 18.6247 97.9194 18.4814C98.063 18.3381 98.063 18.3381 98.2066 18.1949L98.3502 18.0516C98.4937 17.9083 98.3502 17.4785 98.7809 17.4785C98.6373 17.0487 98.9245 17.0487 99.2116 16.9055C99.3552 16.7622 99.3552 16.4757 99.6424 16.3324C99.4988 16.0459 99.9295 16.0459 99.9295 15.9026C100.217 15.9026 100.073 15.6161 100.217 15.4728C100.217 15.3295 100.36 15.1863 100.504 15.043C100.647 14.8997 100.647 14.7565 100.791 14.7565C101.078 14.1834 101.365 13.8969 101.509 13.8969Z" fill="#212529"/>
<path d="M88.4434 61.7478C88.2998 61.8911 87.8691 61.7479 87.0076 61.4613C86.864 61.4613 86.7204 61.3181 86.5769 61.3181C86.4333 61.3181 86.2897 61.1748 86.1461 61.0315C86.0026 60.745 85.5718 61.1748 85.5718 60.745C85.4283 60.6017 85.1411 60.4585 84.9975 60.4585C84.7104 60.4585 84.7104 60.1719 84.2796 60.1719C83.8489 60.3152 83.9925 59.5989 83.5618 59.8854C83.2746 59.8854 82.9874 59.7421 82.8439 59.4556C82.7003 59.0258 82.4131 59.1691 82.126 59.0258C81.9824 58.596 81.6953 58.596 81.2645 58.596C81.2645 58.0229 80.8338 57.8797 80.4031 58.1662C80.1159 58.0229 79.9723 57.7364 79.5416 57.7364C79.398 57.7364 79.2544 57.5931 79.1109 57.5931C78.9673 57.5931 78.9673 57.4499 78.8237 57.4499C78.6801 57.7364 78.8237 57.7364 78.5366 57.3066C78.5366 57.5931 78.6801 57.5931 78.5366 57.5931L78.393 57.4499C78.2494 57.4499 78.393 57.5931 78.393 57.5931C78.393 57.7364 78.5366 57.7364 78.393 57.7364V57.8797V58.0229C78.393 58.1662 78.393 58.4527 78.393 58.596C78.2494 59.0258 77.9623 59.3123 78.2494 59.8854C78.2494 60.3152 78.393 60.745 78.1058 61.1748C78.393 61.6046 78.2494 62.0344 77.9623 62.4642C77.9623 62.894 77.6751 63.3238 77.8187 63.7536C77.6751 64.1834 77.8187 64.6132 77.6751 65.043C77.5315 65.4728 77.388 65.9026 77.5315 66.3324C77.6751 66.7622 77.388 67.192 77.388 67.6218C77.2444 67.765 77.2444 68.0516 77.2444 68.1948C77.2444 68.1948 77.2444 68.3381 77.1008 68.3381C77.1008 68.3381 77.2444 68.1948 77.1008 68.4814C77.388 67.9083 77.388 68.0516 77.2444 68.1948C77.2444 68.3381 77.1008 68.4814 77.2444 68.4814C77.2444 68.6246 77.2444 68.6246 77.388 68.4814C77.388 68.4814 77.388 68.3381 77.5315 68.3381C77.5315 68.3381 77.5315 68.3381 77.6751 68.3381C77.8187 68.1948 77.9623 68.1948 78.1058 68.0516C78.393 67.9083 78.5366 67.4785 78.9673 67.4785C79.1109 67.0487 79.6852 67.192 79.8288 66.9054C80.1159 66.7622 80.4031 66.4756 80.6902 66.3324C81.121 66.4756 81.2645 66.0458 81.5517 65.7593C81.8388 65.616 81.9824 65.1862 82.2696 65.1862C82.5567 65.043 82.8439 65.043 82.9874 64.7564C83.131 64.6132 83.7053 64.8997 83.7053 64.3267C83.8489 64.0401 84.4232 64.3266 84.4232 63.8968C84.4232 63.467 84.8539 63.6103 84.9975 63.467C85.1411 63.3238 85.4283 63.1805 85.5718 63.1805C87.2948 62.0344 88.2998 61.6046 88.4434 61.7478C88.5869 62.0344 87.5819 62.894 85.859 64.4699C85.7154 64.6132 85.7154 65.043 85.2847 64.8997C85.1411 65.043 84.9975 65.3295 84.7104 65.3295C84.7104 65.7593 84.2796 65.7593 84.1361 65.9026C83.8489 66.0458 83.5618 66.1891 83.4182 66.4756C83.2746 66.7622 82.8439 66.7622 82.7003 67.0487C82.2696 67.0487 82.126 67.3352 81.9824 67.6218C81.5517 67.6218 81.4081 68.0516 81.121 68.1948C80.6902 68.1948 80.5466 68.4814 80.2595 68.9112C79.9723 69.1977 79.6852 69.341 79.398 69.6275C79.2545 69.7708 79.1109 69.7708 78.9673 69.914C78.9673 69.914 78.8237 70.0573 78.6801 70.2006C78.5366 70.3438 78.393 70.3438 78.2494 70.4871C77.6751 71.0602 77.1008 71.6332 76.5265 71.7765C76.2393 72.063 75.9522 72.3496 75.665 72.4928C75.3779 72.6361 75.0907 72.9226 74.8036 73.0659C74.66 73.2092 74.66 73.2092 74.5164 73.2092C74.5164 72.9226 74.5164 72.6361 74.66 72.2063C74.66 71.7765 74.8036 71.49 74.8036 71.2034C74.8036 70.9169 74.9471 70.3438 75.0907 69.914C75.2343 69.4842 75.2343 69.1977 75.0907 68.9112C75.0907 68.7679 75.0907 68.4814 75.0907 68.3381C75.0907 68.1948 75.0907 67.9083 75.2343 67.765C75.2343 67.6218 75.2343 67.3352 75.2343 67.192C75.3779 66.7622 75.3779 66.3324 75.3779 65.9026C75.8086 65.4728 75.665 65.043 75.5215 64.6132C75.5215 64.1834 75.5215 63.7536 75.665 63.3238C75.665 62.894 75.8086 62.4642 75.8086 62.0344C75.8086 61.6046 76.0958 61.1748 75.9522 60.745C75.8086 60.3152 76.2393 59.8854 76.0958 59.4556C76.0958 59.0258 75.9522 58.596 76.2393 58.1662C76.2393 58.0229 76.3829 57.7364 76.3829 57.5931V57.4499C76.3829 57.4499 76.3829 57.4499 76.3829 57.3066V57.1633C76.3829 57.0201 76.3829 56.8768 76.3829 56.5903C76.3829 56.1605 76.3829 55.7307 76.3829 55.3009C76.3829 54.8711 76.3829 54.4413 76.6701 54.4413C76.6701 54.1547 76.6701 53.8682 76.8136 53.5817C77.2444 53.8682 77.5315 54.1547 77.8187 54.1547C78.1058 54.5845 78.393 54.7278 78.6801 54.8711C78.9673 55.0143 79.2545 55.0143 79.5416 55.1576C79.6852 55.3009 79.8288 55.3009 79.9723 55.4441L80.1159 55.5874C80.2595 55.7307 80.4031 55.7307 80.5466 55.7307C80.9774 55.7307 81.121 56.1605 81.4081 56.3037C81.8388 56.3037 81.8388 56.8768 82.2696 56.8768C82.5567 57.0201 82.8439 57.1633 82.9874 57.3066C83.5618 57.0201 83.5618 57.5931 83.7053 57.7364C83.8489 57.8797 84.4232 57.7364 84.4232 58.1662C84.8539 58.0229 84.8539 58.4527 84.9975 58.596C85.1411 58.8825 85.5718 58.7393 85.5718 59.0258C85.859 58.8825 85.859 59.3123 86.1461 59.4556C86.2897 59.7421 86.4333 59.5989 86.5769 59.7421C86.7204 59.7421 86.864 59.8854 87.0076 60.0287C87.1512 60.1719 87.2948 60.1719 87.4383 60.3152C88.1562 61.3181 88.4434 61.6046 88.4434 61.7478Z" fill="#212529"/>
<path d="M83.4182 65.4728C83.2746 65.6161 82.9874 65.4728 82.5567 65.3295C82.4131 65.3295 82.4131 65.3295 82.2696 65.1863C82.126 65.1863 82.126 65.1863 81.9824 65.043C81.9824 64.7565 81.5517 65.1863 81.6953 64.8997C81.6953 64.7565 81.5517 64.7565 81.2645 64.7565C81.1209 64.7565 81.1209 64.4699 80.8338 64.6132C80.5466 64.8997 80.8338 64.1834 80.4031 64.4699C80.2595 64.4699 80.1159 64.3267 79.9723 64.3267C79.9723 64.0401 79.6852 64.1834 79.5416 64.0401C79.5416 63.6103 79.2544 63.7536 79.1109 63.7536C79.1109 63.3238 78.9673 63.1805 78.5366 63.4671C78.393 63.4671 78.393 63.3238 78.2494 63.3238H78.1058C78.1058 63.3238 78.1058 63.3238 77.9623 63.3238C77.9623 63.3238 77.8187 63.4671 77.8187 63.3238C77.8187 63.6103 77.8187 63.6103 77.6751 63.3238C77.6751 63.4671 77.8187 63.6103 77.8187 63.6103L77.6751 63.4671C77.5315 63.3238 77.6751 63.4671 77.6751 63.6103C77.6751 63.7536 77.8187 63.7536 77.6751 63.6103V63.7536C77.6751 63.7536 77.6751 63.8969 77.5315 63.8969C77.5315 64.0401 77.5315 64.1834 77.6751 64.3267C77.6751 64.6132 77.8187 64.8997 77.6751 65.043C77.9623 65.3295 77.8187 65.6161 77.5315 65.7593C77.5315 66.0459 77.2444 66.1891 77.388 66.4757C77.2444 66.7622 77.5315 67.0487 77.2444 67.3353C77.1008 67.6218 76.9572 67.9083 77.1008 68.1949H77.2444C77.1008 68.3381 77.1008 68.3381 77.1008 68.3381C77.1008 68.3381 77.2444 68.1949 77.2444 68.3381C77.2444 68.3381 77.2444 68.4814 77.1008 68.4814C77.1008 68.4814 77.2444 68.3381 77.1008 68.6247C77.388 68.0516 77.388 68.1949 77.2444 68.3381C77.1008 68.4814 77.1008 68.7679 77.1008 68.6247C77.1008 68.7679 77.1008 68.7679 77.1008 68.7679L77.2444 68.6247C77.2444 68.6247 77.2444 68.6247 77.2444 68.4814C77.2444 68.4814 77.2444 68.4814 77.2444 68.3381C77.2444 68.3381 77.2444 68.3381 77.388 68.3381H77.5315C77.6751 68.3381 77.8187 68.3381 77.8187 68.1949C77.9623 68.0516 78.1058 67.9083 78.393 67.9083C78.8237 68.0516 78.6801 67.7651 78.8237 67.6218C78.9673 67.4785 78.9673 67.192 79.2545 67.3353C79.398 67.192 79.6852 67.3353 79.6852 67.0487C79.8288 66.9055 80.2595 67.3353 80.1159 66.7622C80.2595 66.6189 80.5466 66.9055 80.5466 66.4757C80.5466 66.1891 80.8338 66.3324 80.9774 66.3324C81.121 66.3324 81.2645 66.1891 81.2645 66.1891C82.7003 65.4728 83.2746 65.3295 83.4182 65.4728C83.5618 65.7593 82.9874 66.3324 81.9824 67.3353C81.8388 67.4785 81.9824 67.7651 81.6953 67.6218C81.5517 67.7651 81.5517 67.9083 81.4081 67.9083C81.5517 68.3381 81.121 68.1949 80.9774 68.1949C80.8338 68.3381 80.6902 68.3381 80.5466 68.4814C80.5466 68.7679 80.2595 68.6247 80.1159 68.9112C79.8288 68.9112 79.6852 69.0545 79.6852 69.341C79.398 69.341 79.398 69.6275 79.2545 69.7708C79.1109 69.6275 78.9673 69.7708 78.9673 69.7708C78.9673 69.7708 78.9673 69.9141 78.8237 69.9141V70.0573C78.8237 70.0573 78.8237 70.2006 78.6801 70.2006C78.5366 70.3439 78.393 70.4871 78.2494 70.6304C78.1058 70.7737 77.9623 70.7737 77.8187 70.9169C77.6751 71.0602 77.5315 71.2035 77.388 71.3467C77.2444 71.49 77.1008 71.6333 76.8136 71.7765C76.3829 72.2063 75.9522 72.6361 75.8086 72.6361C75.5215 72.9227 75.3779 73.0659 75.2343 73.0659C74.9471 73.0659 74.8036 73.0659 74.66 73.2092L74.5164 73.3525C74.5164 73.2092 74.5164 72.9227 74.5164 72.7794C74.5164 72.4929 74.66 72.3496 74.66 72.0631C74.66 71.9198 74.8036 71.49 74.8036 71.2035C74.9471 70.9169 74.9471 70.6304 74.8036 70.6304C74.8036 70.4871 74.8036 70.2006 74.9471 69.9141C74.9471 69.6275 75.0907 69.4843 74.9471 69.1977C75.0907 68.6247 75.0907 68.1949 75.0907 67.7651C75.5215 67.4785 75.2343 67.192 75.2343 66.9055C75.0907 66.6189 75.2343 66.3324 75.3779 66.0459C75.3779 65.7593 75.3779 65.4728 75.5215 65.3295C75.3779 65.043 75.665 64.8997 75.665 64.6132C75.5215 64.3267 75.9522 64.1834 75.8086 63.8969C75.8086 63.7536 75.8086 63.6103 75.8086 63.4671V63.3238C75.8086 63.3238 75.8086 63.3238 75.8086 63.1805C75.8086 63.1805 75.8086 63.0373 75.9522 63.0373C75.9522 62.7507 76.0958 62.6075 76.0958 62.4642C76.0958 62.3209 76.2393 62.0344 76.0958 61.7479C76.0958 61.4613 75.9522 61.1748 75.9522 60.8883C75.9522 60.6018 75.9522 60.3152 76.2393 60.4585C76.2393 60.3152 76.2393 60.172 76.2393 60.172V60.0287H76.3829C76.6701 60.172 76.8136 60.3152 76.9572 60.3152C77.2444 60.6017 77.388 60.745 77.5315 60.745C77.6751 60.745 77.8187 60.745 77.9623 60.8883C78.1058 61.0315 78.2494 61.1748 78.393 61.1748C78.5366 61.3181 78.6801 61.3181 78.8237 61.3181C78.9673 61.3181 78.9673 61.3181 79.1109 61.3181L79.2545 61.4614C79.398 61.6046 79.398 61.6046 79.5416 61.6046C79.8288 61.4613 79.8288 62.0344 80.1159 61.8911C80.2595 62.0344 80.4031 62.0344 80.5466 62.1777C80.9774 61.8912 80.8338 62.3209 80.9774 62.4642C81.121 62.6075 81.4081 62.3209 81.4081 62.7507C81.6953 62.4642 81.6953 62.894 81.8388 63.0373C81.8388 63.1805 82.126 63.0373 82.126 63.3238C82.4131 63.1805 82.2696 63.6103 82.4131 63.6103C82.4131 63.8969 82.5567 63.7536 82.7003 63.8969C82.8439 63.8969 82.8439 64.0401 82.9874 64.1834C83.131 64.3267 83.131 64.3267 83.131 64.3267C83.2746 65.043 83.5618 65.3295 83.4182 65.4728Z" fill="#212529"/>
</g>
<defs>
<clipPath id="clip0_17_279">
<rect width="114" height="100" fill="white"/>
</clipPath>
</defs>
</svg>
