<svg width="213" height="50" viewBox="0 0 213 50" fill="none" xmlns="http://www.w3.org/2000/svg">
<path d="M98.7154 44.289C98.7154 44.5266 98.7391 44.7088 98.7866 44.8355C98.842 44.9543 98.9526 45.0374 99.1186 45.085C99.2847 45.1324 99.5297 45.1562 99.8538 45.1562C99.8774 45.1562 99.8893 45.18 99.8893 45.2276C99.8893 45.275 99.8774 45.2988 99.8538 45.2988C99.6007 45.2988 99.3241 45.2949 99.0237 45.2869C98.7312 45.279 98.4111 45.275 98.0633 45.275C97.7787 45.275 97.506 45.279 97.2452 45.2869C96.9922 45.2949 96.763 45.2988 96.5574 45.2988C96.5337 45.2988 96.5219 45.275 96.5219 45.2276C96.5219 45.18 96.5337 45.1562 96.5574 45.1562C96.8025 45.1562 96.9843 45.1365 97.1028 45.0968C97.2215 45.0572 97.3005 44.978 97.34 44.8593C97.3796 44.7405 97.3993 44.5662 97.3993 44.3365V38.8358C97.3993 38.6062 97.3796 38.436 97.34 38.325C97.3005 38.2062 97.2215 38.1271 97.1028 38.0874C96.9843 38.0399 96.8025 38.0162 96.5574 38.0162C96.5337 38.0162 96.5219 37.9924 96.5219 37.9449C96.5219 37.8973 96.5337 37.8737 96.5574 37.8737C96.763 37.8737 96.9922 37.8815 97.2452 37.8973C97.4981 37.9052 97.7669 37.9093 98.0514 37.9093C98.2412 37.9093 98.4901 37.8973 98.7984 37.8737C99.1067 37.8499 99.3953 37.8379 99.664 37.8379C100.162 37.8379 100.601 37.9052 100.98 38.0399C101.368 38.1667 101.676 38.3726 101.905 38.6577C102.134 38.9428 102.257 39.319 102.273 39.7863C102.288 40.1902 102.221 40.5427 102.071 40.8437C101.929 41.1446 101.727 41.3941 101.466 41.5922C101.213 41.7901 100.929 41.9406 100.613 42.0435C100.304 42.1387 99.9961 42.1861 99.6878 42.1861C99.6087 42.1861 99.5177 42.1822 99.415 42.1743C99.3202 42.1663 99.2253 42.1505 99.1304 42.1267C99.1067 42.1188 99.0988 42.0911 99.1067 42.0435C99.1146 41.9882 99.1345 41.9644 99.166 41.9723C99.2293 41.9882 99.3004 42 99.3795 42.0079C99.4585 42.0158 99.5218 42.0199 99.5692 42.0199C99.7984 42.0199 100.008 41.9485 100.198 41.806C100.387 41.6634 100.541 41.4456 100.66 41.1526C100.779 40.8595 100.838 40.4952 100.838 40.0596C100.838 39.6397 100.779 39.2873 100.66 39.0022C100.541 38.7091 100.368 38.4874 100.138 38.3369C99.9091 38.1785 99.6245 38.0993 99.2847 38.0993C99.1424 38.0993 99.0277 38.1191 98.9407 38.1588C98.8617 38.1983 98.8024 38.2735 98.7629 38.3845C98.7312 38.4954 98.7154 38.6538 98.7154 38.8596V44.289ZM111.874 38.8478V44.289C111.874 44.479 111.89 44.6256 111.921 44.7285C111.953 44.8235 112.016 44.8869 112.111 44.9187C112.214 44.9504 112.36 44.9661 112.55 44.9661H112.953C113.569 44.9661 114.103 44.7999 114.554 44.4672C115.004 44.1345 115.305 43.691 115.455 43.1366C115.463 43.1128 115.486 43.1049 115.526 43.1128C115.565 43.1207 115.585 43.1366 115.585 43.1604C115.562 43.4217 115.538 43.7385 115.514 44.1107C115.49 44.4751 115.478 44.8117 115.478 45.1206C115.478 45.2394 115.419 45.2988 115.301 45.2988H109.704C109.688 45.2988 109.68 45.275 109.68 45.2276C109.68 45.18 109.688 45.1562 109.704 45.1562C109.949 45.1562 110.131 45.1365 110.249 45.0968C110.368 45.0572 110.447 44.978 110.487 44.8593C110.534 44.7405 110.558 44.5662 110.558 44.3365V38.8358C110.558 38.6062 110.534 38.436 110.487 38.325C110.447 38.2062 110.368 38.1271 110.249 38.0874C110.131 38.0399 109.949 38.0162 109.704 38.0162C109.688 38.0162 109.68 37.9924 109.68 37.9449C109.68 37.8973 109.688 37.8737 109.704 37.8737C109.894 37.8737 110.119 37.8815 110.38 37.8973C110.649 37.9052 110.925 37.9093 111.21 37.9093C111.51 37.9093 111.787 37.9052 112.04 37.8973C112.293 37.8815 112.518 37.8737 112.716 37.8737C112.739 37.8737 112.751 37.8973 112.751 37.9449C112.751 37.9924 112.739 38.0162 112.716 38.0162C112.479 38.0162 112.297 38.0399 112.17 38.0874C112.052 38.1271 111.973 38.2062 111.933 38.325C111.894 38.4439 111.874 38.618 111.874 38.8478ZM129.22 39.3943C129.22 38.9745 129.122 38.6418 128.923 38.3963C128.734 38.1429 128.465 38.0162 128.118 38.0162C128.102 38.0162 128.093 37.9924 128.093 37.9449C128.093 37.8973 128.102 37.8737 128.118 37.8737C128.315 37.8737 128.517 37.8815 128.723 37.8973C128.936 37.9052 129.164 37.9093 129.41 37.9093C129.623 37.9093 129.833 37.9052 130.038 37.8973C130.244 37.8815 130.434 37.8737 130.608 37.8737C130.624 37.8737 130.631 37.8973 130.631 37.9449C130.631 37.9924 130.624 38.0162 130.608 38.0162C130.291 38.0162 130.046 38.1429 129.873 38.3963C129.706 38.6418 129.623 38.9745 129.623 39.3943V42.6971C129.623 43.2594 129.5 43.7504 129.256 44.1701C129.011 44.5821 128.667 44.9028 128.224 45.1324C127.782 45.3543 127.263 45.4651 126.67 45.4651C126.094 45.4651 125.576 45.3543 125.117 45.1324C124.667 44.9107 124.312 44.5939 124.05 44.1821C123.797 43.7623 123.671 43.2594 123.671 42.6733V38.8358C123.671 38.6062 123.651 38.436 123.612 38.325C123.572 38.2062 123.489 38.1271 123.362 38.0874C123.244 38.0399 123.067 38.0162 122.829 38.0162C122.805 38.0162 122.794 37.9924 122.794 37.9449C122.794 37.8973 122.805 37.8737 122.829 37.8737C123.035 37.8737 123.264 37.8815 123.517 37.8973C123.77 37.9052 124.039 37.9093 124.323 37.9093C124.623 37.9093 124.9 37.9052 125.153 37.8973C125.406 37.8815 125.631 37.8737 125.829 37.8737C125.853 37.8737 125.865 37.8973 125.865 37.9449C125.865 37.9924 125.853 38.0162 125.829 38.0162C125.592 38.0162 125.414 38.0399 125.295 38.0874C125.177 38.135 125.094 38.2182 125.047 38.3369C125.007 38.4557 124.987 38.63 124.987 38.8596V42.2574C124.987 43.2316 125.181 43.9366 125.568 44.3722C125.955 44.8078 126.473 45.0256 127.121 45.0256C127.777 45.0256 128.292 44.8276 128.663 44.4316C129.034 44.0276 129.22 43.4534 129.22 42.7089V39.3943ZM139.351 39.0735C139.351 39.3745 139.426 39.6398 139.576 39.8695C139.734 40.0912 139.936 40.2932 140.181 40.4754C140.434 40.6576 140.699 40.8398 140.976 41.0218C141.276 41.2119 141.56 41.4139 141.829 41.6278C142.106 41.8337 142.331 42.0752 142.506 42.3524C142.687 42.6218 142.778 42.9465 142.778 43.3267C142.778 43.7465 142.663 44.1147 142.434 44.4316C142.212 44.7483 141.908 44.9978 141.521 45.18C141.141 45.3543 140.707 45.4413 140.216 45.4413C139.98 45.4413 139.73 45.4176 139.47 45.3701C139.217 45.3226 138.983 45.2632 138.77 45.1918C138.564 45.1206 138.415 45.0454 138.32 44.9661C138.288 44.9424 138.26 44.9187 138.237 44.8949C138.213 44.8632 138.2 44.8117 138.2 44.7405L138.165 42.8515C138.158 42.8118 138.174 42.7921 138.213 42.7921C138.26 42.7841 138.288 42.796 138.295 42.8277C138.415 43.0732 138.545 43.3346 138.687 43.6118C138.83 43.8811 138.987 44.1306 139.161 44.3602C139.343 44.59 139.544 44.78 139.766 44.9305C139.987 45.073 140.24 45.1444 140.525 45.1444C140.707 45.1444 140.881 45.1127 141.046 45.0493C141.213 44.986 141.347 44.8711 141.45 44.7048C141.56 44.5384 141.616 44.3088 141.616 44.0157C141.616 43.6435 141.533 43.3267 141.366 43.0652C141.201 42.796 140.988 42.5623 140.726 42.3644C140.466 42.1584 140.193 41.9644 139.908 41.7822C139.632 41.6001 139.367 41.4139 139.113 41.2239C138.861 41.0258 138.656 40.804 138.497 40.5585C138.339 40.3051 138.26 40.0041 138.26 39.6556C138.26 39.2121 138.383 38.8517 138.628 38.5745C138.881 38.2894 139.197 38.0795 139.576 37.9449C139.964 37.8102 140.355 37.7429 140.75 37.7429C141.035 37.7429 141.319 37.7706 141.604 37.8261C141.888 37.8737 142.114 37.933 142.279 38.0043C142.358 38.036 142.406 38.0716 142.422 38.1112C142.446 38.1508 142.458 38.1944 142.458 38.2418V39.9883C142.458 40.0121 142.437 40.0318 142.398 40.0477C142.367 40.0556 142.342 40.0477 142.327 40.0239C142.279 39.9289 142.212 39.7745 142.126 39.5606C142.038 39.3388 141.924 39.1091 141.781 38.8716C141.639 38.6339 141.458 38.4319 141.236 38.2656C141.015 38.0915 140.747 38.0043 140.43 38.0043C140.232 38.0043 140.051 38.0439 139.885 38.123C139.727 38.2023 139.597 38.3211 139.493 38.4795C139.398 38.63 139.351 38.8279 139.351 39.0735Z" fill="black"/>
<path d="M43.67 24.3903C43.6185 24.3903 43.5928 24.3387 43.5928 24.2355C43.5928 24.1323 43.6185 24.0807 43.67 24.0807C44.2536 24.0807 44.6828 24.0377 44.9574 23.9517C45.2491 23.8657 45.438 23.6938 45.5238 23.4357C45.6268 23.1778 45.6783 22.7994 45.6783 22.3007V10.3568C45.6783 9.85802 45.6353 9.48826 45.5495 9.24749C45.4637 8.98952 45.2921 8.81754 45.0346 8.73156C44.7771 8.62836 44.3824 8.57677 43.8502 8.57677C43.7988 8.57677 43.773 8.52518 43.773 8.42199C43.773 8.3188 43.7988 8.26721 43.8502 8.26721H54.7669C54.9385 8.26721 55.0243 8.3446 55.0243 8.49938L55.0758 11.9304C55.0758 11.9648 55.0329 11.9906 54.9471 12.0078C54.8612 12.0249 54.8012 12.0078 54.7669 11.9562C54.4922 10.9415 54.0288 10.202 53.3766 9.73763C52.7243 9.25609 51.8661 9.01531 50.8018 9.01531H50.0294C49.5146 9.01531 49.1369 9.1271 48.8966 9.35068C48.6563 9.57425 48.5361 9.9182 48.5361 10.3826V22.1976C48.5361 22.7134 48.6048 23.109 48.7422 23.3842C48.8795 23.6422 49.1455 23.8227 49.5403 23.9259C49.9351 24.0292 50.5186 24.0807 51.291 24.0807C51.3253 24.0807 51.3426 24.1323 51.3426 24.2355C51.3426 24.3387 51.3253 24.3903 51.291 24.3903C50.7075 24.3903 50.0724 24.3816 49.3858 24.3644C48.7164 24.3472 47.9268 24.3387 47.0171 24.3387C46.3992 24.3387 45.7984 24.3472 45.2148 24.3644C44.6313 24.3816 44.1163 24.3903 43.67 24.3903ZM53.4795 18.9213C53.4795 18.2334 53.2135 17.6917 52.6813 17.2961C52.1493 16.8834 51.3769 16.677 50.3642 16.677H47.1716V15.9546H50.39C51.4026 15.9546 52.1665 15.7742 52.6813 15.4129C53.1963 15.0518 53.4537 14.5703 53.4537 13.9683C53.4537 13.9339 53.5052 13.9167 53.6083 13.9167C53.7113 13.9167 53.7628 13.9339 53.7628 13.9683C53.7628 14.5531 53.7541 15.0088 53.737 15.3355C53.737 15.6451 53.737 15.9718 53.737 16.3159C53.737 16.7457 53.7456 17.1671 53.7628 17.5799C53.7799 17.9926 53.7885 18.4398 53.7885 18.9213C53.7885 18.9729 53.737 18.9987 53.634 18.9987C53.531 18.9987 53.4795 18.9729 53.4795 18.9213ZM64.408 22.3007C64.408 22.7994 64.4509 23.1778 64.5368 23.4357C64.6226 23.6938 64.7942 23.8657 65.0517 23.9517C65.3092 24.0377 65.7039 24.0807 66.2361 24.0807C66.2875 24.0807 66.3132 24.1323 66.3132 24.2355C66.3132 24.3387 66.2875 24.3903 66.2361 24.3903C65.7897 24.3903 65.292 24.3816 64.7427 24.3644C64.1935 24.3472 63.5927 24.3387 62.9404 24.3387C62.3226 24.3387 61.7303 24.3472 61.164 24.3644C60.5975 24.3816 60.0912 24.3903 59.6449 24.3903C59.6105 24.3903 59.5934 24.3387 59.5934 24.2355C59.5934 24.1323 59.6105 24.0807 59.6449 24.0807C60.177 24.0807 60.5717 24.0377 60.8293 23.9517C61.1039 23.8657 61.2841 23.6938 61.3699 23.4357C61.4729 23.1778 61.5244 22.7994 61.5244 22.3007V10.3568C61.5244 9.85802 61.4729 9.48826 61.3699 9.24749C61.2841 8.98952 61.1039 8.81754 60.8293 8.73156C60.5717 8.62836 60.177 8.57677 59.6449 8.57677C59.6105 8.57677 59.5934 8.52518 59.5934 8.42199C59.5934 8.3188 59.6105 8.26721 59.6449 8.26721C60.0912 8.26721 60.5975 8.28441 61.164 8.3188C61.7303 8.33599 62.3226 8.3446 62.9404 8.3446C63.5927 8.3446 64.1935 8.33599 64.7427 8.3188C65.3092 8.28441 65.8069 8.26721 66.2361 8.26721C66.2875 8.26721 66.3132 8.3188 66.3132 8.42199C66.3132 8.52518 66.2875 8.57677 66.2361 8.57677C65.7211 8.57677 65.3264 8.62836 65.0517 8.73156C64.7942 8.83474 64.6226 9.01531 64.5368 9.27329C64.4509 9.53125 64.408 9.9096 64.408 10.4083V22.3007ZM72.9507 21.114V8.86053L73.7231 8.91213V21.114C73.7231 22.0255 73.912 22.7478 74.2895 23.281C74.6672 23.8142 75.1907 24.0807 75.8601 24.0807C75.8945 24.0807 75.9116 24.1323 75.9116 24.2355C75.9116 24.3387 75.8945 24.3903 75.8601 24.3903C75.4825 24.3903 75.0877 24.3816 74.6757 24.3644C74.281 24.3472 73.8433 24.3387 73.3627 24.3387C72.8477 24.3387 72.3414 24.3472 71.8436 24.3644C71.363 24.3816 70.9167 24.3903 70.5048 24.3903C70.4533 24.3903 70.4275 24.3387 70.4275 24.2355C70.4275 24.1323 70.4533 24.0807 70.5048 24.0807C71.2601 24.0807 71.8522 23.8142 72.2812 23.281C72.7276 22.7478 72.9507 22.0255 72.9507 21.114ZM86.0816 24.7772C86.0816 24.8288 86.0386 24.8546 85.9528 24.8546C85.8842 24.8718 85.8327 24.8718 85.7983 24.8546L73.1052 10.3826C72.4873 9.67743 71.9638 9.20449 71.5346 8.96373C71.1055 8.70575 70.6764 8.57677 70.2473 8.57677C70.213 8.57677 70.1958 8.52518 70.1958 8.42199C70.1958 8.3188 70.213 8.26721 70.2473 8.26721C70.5906 8.26721 70.9425 8.27581 71.3029 8.29301C71.6634 8.3102 71.9981 8.3188 72.307 8.3188C72.925 8.3188 73.4828 8.3102 73.9806 8.29301C74.4783 8.27581 74.8645 8.26721 75.1392 8.26721C75.3623 8.26721 75.5254 8.3704 75.6284 8.57677C75.7485 8.76595 76.0146 9.10991 76.4265 9.60864L85.8756 20.5207L86.0816 24.7772ZM86.0816 11.5692V24.7772L85.3349 24.0033V11.5692C85.3349 10.6577 85.1461 9.93541 84.7685 9.40227C84.3908 8.85193 83.8674 8.57677 83.1979 8.57677C83.1636 8.57677 83.1464 8.52518 83.1464 8.42199C83.1464 8.3188 83.1636 8.26721 83.1979 8.26721C83.5756 8.26721 83.9618 8.28441 84.3565 8.3188C84.7685 8.33599 85.2147 8.3446 85.6954 8.3446C86.1587 8.3446 86.6137 8.33599 87.0599 8.3188C87.5062 8.28441 87.9181 8.26721 88.2958 8.26721C88.3301 8.26721 88.3473 8.3188 88.3473 8.42199C88.3473 8.52518 88.3301 8.57677 88.2958 8.57677C87.6092 8.57677 87.0686 8.85193 86.6737 9.40227C86.279 9.93541 86.0816 10.6577 86.0816 11.5692ZM101.461 24.6998C99.5219 24.6998 97.8568 24.3387 96.4666 23.6163C95.0763 22.8768 94.012 21.8879 93.2739 20.6498C92.553 19.3943 92.1926 18.0099 92.1926 16.4963C92.1926 15.2238 92.4329 14.0715 92.9135 13.0396C93.4112 11.9906 94.0978 11.0963 94.9733 10.3568C95.8658 9.60004 96.9043 9.01531 98.0886 8.60257C99.273 8.18981 100.56 7.98345 101.951 7.98345C102.723 7.98345 103.521 8.04364 104.345 8.16402C105.186 8.28441 105.864 8.45638 106.379 8.67996C106.533 8.73156 106.628 8.80035 106.662 8.88634C106.714 8.95513 106.748 9.0841 106.765 9.27329L107.1 12.859C107.1 12.9106 107.057 12.945 106.971 12.9622C106.885 12.9794 106.825 12.9537 106.791 12.8849C106.207 11.5778 105.384 10.5545 104.319 9.81502C103.272 9.05831 102.062 8.67996 100.689 8.67996C98.9039 8.67996 97.5564 9.30768 96.6467 10.5631C95.7542 11.8014 95.3079 13.4523 95.3079 15.5161C95.3079 17.2532 95.5998 18.7838 96.1834 20.1079C96.784 21.415 97.5909 22.4383 98.6035 23.1778C99.6334 23.9001 100.801 24.2612 102.105 24.2612C102.757 24.2612 103.281 24.1839 103.676 24.0292C104.07 23.8743 104.354 23.5733 104.525 23.1262C104.714 22.679 104.809 22.017 104.809 21.1399C104.809 20.3144 104.757 19.7124 104.654 19.334C104.568 18.9385 104.345 18.6805 103.985 18.5601C103.624 18.4398 103.049 18.3796 102.26 18.3796C102.157 18.3796 102.105 18.3107 102.105 18.1732C102.105 18.0356 102.148 17.9668 102.234 17.9668C103.418 18.0356 104.491 18.0787 105.452 18.0959C106.413 18.0959 107.426 18.07 108.49 18.0184C108.576 18.0184 108.619 18.0787 108.619 18.199C108.619 18.3194 108.576 18.3796 108.49 18.3796C108.199 18.3623 107.984 18.4226 107.847 18.5601C107.727 18.6805 107.649 18.9557 107.615 19.3856C107.581 19.8156 107.563 20.4863 107.563 21.3978C107.563 21.9654 107.581 22.3867 107.615 22.6618C107.649 22.9371 107.675 23.1434 107.692 23.281C107.727 23.4013 107.744 23.5304 107.744 23.6679C107.744 23.7711 107.718 23.8399 107.666 23.8743C107.632 23.9087 107.555 23.9431 107.435 23.9774C106.491 24.1839 105.495 24.3559 104.448 24.4934C103.418 24.631 102.423 24.6998 101.461 24.6998ZM117.367 16.677L117.753 15.9546H123.057L123.237 16.677H117.367ZM130.214 24.0807C130.3 24.0807 130.343 24.1323 130.343 24.2355C130.343 24.3387 130.3 24.3903 130.214 24.3903C129.699 24.3903 129.158 24.3731 128.592 24.3387C128.042 24.3043 127.51 24.2871 126.995 24.2871C126.412 24.2871 125.906 24.3043 125.476 24.3387C125.048 24.3731 124.567 24.3903 124.035 24.3903C123.966 24.3903 123.932 24.3387 123.932 24.2355C123.932 24.1323 123.966 24.0807 124.035 24.0807C124.739 24.0807 125.142 23.9431 125.245 23.6679C125.366 23.3756 125.211 22.8081 124.781 21.9654L119.555 11.6208L120.817 9.40227L115.693 20.7271C115.229 21.7589 115.221 22.5759 115.667 23.1778C116.113 23.7798 116.817 24.0807 117.778 24.0807C117.864 24.0807 117.907 24.1323 117.907 24.2355C117.907 24.3387 117.864 24.3903 117.778 24.3903C117.263 24.3903 116.791 24.3731 116.362 24.3387C115.933 24.3043 115.393 24.2871 114.74 24.2871C114.071 24.2871 113.53 24.3043 113.118 24.3387C112.723 24.3731 112.234 24.3903 111.651 24.3903C111.582 24.3903 111.548 24.3387 111.548 24.2355C111.548 24.1323 111.582 24.0807 111.651 24.0807C112.114 24.0807 112.509 23.9861 112.835 23.797C113.178 23.5905 113.513 23.2294 113.839 22.7134C114.182 22.1804 114.569 21.4322 114.998 20.4692L120.585 8.16402C120.602 8.11242 120.679 8.08663 120.817 8.08663C120.954 8.06943 121.031 8.09523 121.048 8.16402L127.485 20.8561C127.897 21.6644 128.249 22.3093 128.54 22.7909C128.849 23.2551 129.133 23.5905 129.391 23.797C129.665 23.9861 129.94 24.0807 130.214 24.0807ZM146.147 24.3903C145.889 24.3903 145.469 24.0549 144.885 23.3842C144.319 22.7134 143.633 21.7504 142.826 20.4949C142.019 19.2223 141.109 17.7089 140.097 15.9546L142.465 15.2066C143.838 17.3735 145.006 19.1105 145.967 20.4176C146.944 21.7073 147.812 22.6446 148.567 23.2294C149.323 23.797 150.043 24.0807 150.73 24.0807C150.764 24.0807 150.781 24.1323 150.781 24.2355C150.781 24.3387 150.764 24.3903 150.73 24.3903C149.528 24.3903 148.55 24.3903 147.794 24.3903C147.039 24.3903 146.49 24.3903 146.147 24.3903ZM140.277 8.18981C141.856 8.18981 143.074 8.48218 143.932 9.06691C144.808 9.63445 145.245 10.4341 145.245 11.466C145.245 12.1195 145.082 12.7387 144.756 13.3234C144.447 13.9082 144.027 14.4327 143.495 14.897C142.98 15.3442 142.387 15.6967 141.718 15.9546C141.066 16.2127 140.396 16.3416 139.71 16.3416C139.47 16.3416 139.22 16.3416 138.964 16.3416C138.723 16.3416 138.5 16.3331 138.294 16.3159V22.3007C138.294 22.7994 138.337 23.1778 138.423 23.4357C138.508 23.6938 138.68 23.8657 138.938 23.9517C139.195 24.0377 139.59 24.0807 140.122 24.0807C140.156 24.0807 140.173 24.1323 140.173 24.2355C140.173 24.3387 140.156 24.3903 140.122 24.3903C139.676 24.3903 139.178 24.3816 138.629 24.3644C138.08 24.3472 137.479 24.3387 136.826 24.3387C136.208 24.3387 135.617 24.3472 135.049 24.3644C134.5 24.3816 134.003 24.3903 133.557 24.3903C133.505 24.3903 133.479 24.3387 133.479 24.2355C133.479 24.1323 133.505 24.0807 133.557 24.0807C134.089 24.0807 134.483 24.0377 134.741 23.9517C134.998 23.8657 135.17 23.6938 135.256 23.4357C135.358 23.1778 135.411 22.7994 135.411 22.3007V10.3568C135.411 9.85802 135.367 9.48826 135.282 9.24749C135.195 8.98952 135.024 8.81754 134.767 8.73156C134.509 8.62836 134.115 8.57677 133.583 8.57677C133.549 8.57677 133.53 8.52518 133.53 8.42199C133.53 8.3188 133.549 8.26721 133.583 8.26721C134.028 8.26721 134.526 8.28441 135.076 8.3188C135.625 8.33599 136.208 8.3446 136.826 8.3446C137.341 8.3446 137.899 8.3188 138.5 8.26721C139.118 8.21562 139.71 8.18981 140.277 8.18981ZM142.285 12.4463C142.285 11.4316 142.182 10.6577 141.976 10.1246C141.77 9.59145 141.487 9.23029 141.127 9.04112C140.766 8.83474 140.354 8.73156 139.89 8.73156C139.496 8.73156 139.178 8.79174 138.938 8.91213C138.714 9.01531 138.551 9.1959 138.449 9.45386C138.345 9.69464 138.294 10.0128 138.294 10.4083V15.5677C138.534 15.6021 138.792 15.6279 139.066 15.6451C139.341 15.6623 139.581 15.6709 139.788 15.6709C140.697 15.6709 141.341 15.4473 141.718 15.0003C142.095 14.5531 142.285 13.7017 142.285 12.4463ZM158.409 16.677L158.795 15.9546H164.099L164.279 16.677H158.409ZM171.256 24.0807C171.342 24.0807 171.385 24.1323 171.385 24.2355C171.385 24.3387 171.342 24.3903 171.256 24.3903C170.741 24.3903 170.2 24.3731 169.634 24.3387C169.084 24.3043 168.552 24.2871 168.038 24.2871C167.455 24.2871 166.948 24.3043 166.519 24.3387C166.09 24.3731 165.609 24.3903 165.076 24.3903C165.008 24.3903 164.974 24.3387 164.974 24.2355C164.974 24.1323 165.008 24.0807 165.076 24.0807C165.781 24.0807 166.184 23.9431 166.287 23.6679C166.407 23.3756 166.252 22.8081 165.824 21.9654L160.597 11.6208L161.858 9.40227L156.735 20.7271C156.271 21.7589 156.263 22.5759 156.71 23.1778C157.155 23.7798 157.859 24.0807 158.82 24.0807C158.907 24.0807 158.949 24.1323 158.949 24.2355C158.949 24.3387 158.907 24.3903 158.82 24.3903C158.305 24.3903 157.833 24.3731 157.405 24.3387C156.975 24.3043 156.435 24.2871 155.782 24.2871C155.113 24.2871 154.572 24.3043 154.16 24.3387C153.765 24.3731 153.276 24.3903 152.693 24.3903C152.624 24.3903 152.59 24.3387 152.59 24.2355C152.59 24.1323 152.624 24.0807 152.693 24.0807C153.156 24.0807 153.551 23.9861 153.877 23.797C154.221 23.5905 154.555 23.2294 154.881 22.7134C155.225 22.1804 155.61 21.4322 156.04 20.4692L161.627 8.16402C161.644 8.11242 161.721 8.08663 161.858 8.08663C161.996 8.06943 162.074 8.09523 162.091 8.16402L168.527 20.8561C168.938 21.6644 169.291 22.3093 169.582 22.7909C169.891 23.2551 170.175 23.5905 170.432 23.797C170.707 23.9861 170.982 24.0807 171.256 24.0807ZM176.813 21.114V8.86053L177.585 8.91213V21.114C177.585 22.0255 177.773 22.7478 178.152 23.281C178.529 23.8142 179.053 24.0807 179.722 24.0807C179.756 24.0807 179.773 24.1323 179.773 24.2355C179.773 24.3387 179.756 24.3903 179.722 24.3903C179.345 24.3903 178.949 24.3816 178.538 24.3644C178.143 24.3472 177.705 24.3387 177.225 24.3387C176.71 24.3387 176.203 24.3472 175.706 24.3644C175.225 24.3816 174.779 24.3903 174.367 24.3903C174.316 24.3903 174.29 24.3387 174.29 24.2355C174.29 24.1323 174.316 24.0807 174.367 24.0807C175.123 24.0807 175.714 23.8142 176.144 23.281C176.589 22.7478 176.813 22.0255 176.813 21.114ZM189.944 24.7772C189.944 24.8288 189.901 24.8546 189.815 24.8546C189.746 24.8718 189.694 24.8718 189.66 24.8546L176.968 10.3826C176.349 9.67743 175.826 9.20449 175.396 8.96373C174.968 8.70575 174.538 8.57677 174.11 8.57677C174.075 8.57677 174.058 8.52518 174.058 8.42199C174.058 8.3188 174.075 8.26721 174.11 8.26721C174.453 8.26721 174.805 8.27581 175.165 8.29301C175.525 8.3102 175.86 8.3188 176.169 8.3188C176.786 8.3188 177.345 8.3102 177.843 8.29301C178.341 8.27581 178.726 8.26721 179.002 8.26721C179.224 8.26721 179.387 8.3704 179.491 8.57677C179.61 8.76595 179.877 9.10991 180.288 9.60864L189.738 20.5207L189.944 24.7772ZM189.944 11.5692V24.7772L189.196 24.0033V11.5692C189.196 10.6577 189.008 9.93541 188.63 9.40227C188.253 8.85193 187.73 8.57677 187.06 8.57677C187.026 8.57677 187.008 8.52518 187.008 8.42199C187.008 8.3188 187.026 8.26721 187.06 8.26721C187.438 8.26721 187.823 8.28441 188.219 8.3188C188.63 8.33599 189.077 8.3446 189.558 8.3446C190.02 8.3446 190.476 8.33599 190.922 8.3188C191.368 8.28441 191.78 8.26721 192.158 8.26721C192.192 8.26721 192.209 8.3188 192.209 8.42199C192.209 8.52518 192.192 8.57677 192.158 8.57677C191.471 8.57677 190.931 8.85193 190.535 9.40227C190.141 9.93541 189.944 10.6577 189.944 11.5692ZM200.508 8.86053C199.462 8.86053 198.57 9.21309 197.831 9.9182C197.11 10.6061 196.536 11.5864 196.106 12.859C196.089 12.9106 196.038 12.9365 195.951 12.9365C195.866 12.9193 195.822 12.8849 195.822 12.8333C195.858 12.5924 195.892 12.2571 195.926 11.8272C195.96 11.38 195.994 10.8985 196.029 10.3826C196.081 9.86662 196.115 9.36787 196.132 8.88634C196.166 8.40479 196.183 8.00924 196.183 7.69968C196.183 7.61369 196.227 7.57069 196.312 7.57069C196.415 7.57069 196.466 7.61369 196.466 7.69968C196.466 7.87165 196.553 8.00064 196.724 8.08663C196.913 8.15542 197.119 8.20702 197.341 8.24141C197.582 8.2586 197.78 8.26721 197.934 8.26721C199.411 8.3188 201.135 8.3446 203.109 8.3446C204.311 8.3446 205.272 8.33599 205.993 8.3188C206.713 8.28441 207.408 8.26721 208.078 8.26721C208.696 8.26721 209.16 8.23281 209.469 8.16402C209.795 8.07803 210.001 7.89746 210.086 7.62229C210.103 7.55349 210.156 7.5191 210.241 7.5191C210.344 7.5191 210.395 7.55349 210.395 7.62229C210.361 7.89746 210.327 8.28441 210.293 8.78314C210.275 9.26469 210.249 9.78063 210.215 10.331C210.198 10.8641 210.181 11.3628 210.164 11.8272C210.147 12.2743 210.139 12.6096 210.139 12.8333C210.139 12.8849 210.095 12.9106 210.009 12.9106C209.923 12.9106 209.872 12.8849 209.855 12.8333C209.597 11.4746 209.108 10.4771 208.387 9.84081C207.684 9.1873 206.825 8.86053 205.813 8.86053C205.47 8.86053 205.203 8.91213 205.014 9.01531C204.843 9.10131 204.722 9.25609 204.654 9.47967C204.603 9.70324 204.576 10.0128 204.576 10.4083V22.3007C204.576 22.7994 204.628 23.1778 204.731 23.4357C204.834 23.6938 205.031 23.8657 205.323 23.9517C205.633 24.0377 206.096 24.0807 206.713 24.0807C206.766 24.0807 206.791 24.1323 206.791 24.2355C206.791 24.3387 206.766 24.3903 206.713 24.3903C206.233 24.3903 205.692 24.3816 205.092 24.3644C204.491 24.3472 203.83 24.3387 203.109 24.3387C202.423 24.3387 201.779 24.3472 201.178 24.3644C200.578 24.3816 200.028 24.3903 199.53 24.3903C199.479 24.3903 199.453 24.3387 199.453 24.2355C199.453 24.1323 199.479 24.0807 199.53 24.0807C200.131 24.0807 200.586 24.0377 200.896 23.9517C201.203 23.8657 201.41 23.6938 201.513 23.4357C201.633 23.1778 201.693 22.7994 201.693 22.3007V10.3568C201.693 9.9784 201.659 9.68603 201.591 9.47967C201.538 9.25609 201.427 9.10131 201.256 9.01531C201.084 8.91213 200.835 8.86053 200.508 8.86053Z" fill="black"/>
<path d="M0.118921 44.8844C0.0396403 44.8844 0 44.7653 0 44.527C0 44.2887 0.0396403 44.1695 0.118921 44.1695C1.58561 44.1695 2.67572 44.0701 3.38923 43.8716C4.1424 43.6729 4.6379 43.2759 4.87574 42.68C5.15322 42.0843 5.29197 41.2105 5.29197 40.0587V12.475C5.29197 11.3232 5.15322 10.4693 4.87574 9.91324C4.6379 9.31747 4.16221 8.9203 3.4487 8.72172C2.73518 8.48341 1.64507 8.36427 0.178381 8.36427C0.0991005 8.36427 0.0594603 8.24511 0.0594603 8.0068C0.0594603 7.7685 0.0991005 7.64935 0.178381 7.64935H24.0814C24.4382 7.64935 24.6166 7.82808 24.6166 8.18554L24.7355 15.5134C24.7355 15.6326 24.6166 15.712 24.3788 15.7517C24.1805 15.7517 24.0814 15.6921 24.0814 15.5729C23.9625 13.4282 23.3084 11.78 22.1193 10.6282C20.9697 9.47635 19.4633 8.90045 17.6003 8.90045H13.9732C11.9912 8.90045 10.683 9.13876 10.0488 9.61537C9.41454 10.092 9.09742 11.065 9.09742 12.5345V39.8204C9.09742 41.012 9.25598 41.9254 9.57311 42.5609C9.92986 43.1567 10.6236 43.5737 11.6542 43.812C12.7245 44.0503 14.2902 44.1695 16.3516 44.1695C16.4705 44.1695 16.53 44.2887 16.53 44.527C16.53 44.7653 16.4705 44.8844 16.3516 44.8844C15.0434 44.8844 13.6363 44.8645 12.1299 44.8248C10.6632 44.7851 9.01814 44.7653 7.19469 44.7653C5.88657 44.7653 4.61808 44.7851 3.38923 44.8248C2.16039 44.8645 1.07028 44.8844 0.118921 44.8844ZM21.0489 31.7181C21.0489 29.9705 20.5732 28.7194 19.6219 27.9648C18.7102 27.2101 17.1641 26.8328 14.984 26.8328H7.31362V25.5817H15.1623C17.2633 25.5817 18.7498 25.2442 19.6219 24.5689C20.5336 23.8938 20.9895 22.8412 20.9895 21.4115C20.9895 21.332 21.1084 21.2922 21.3463 21.2922C21.5841 21.2922 21.703 21.332 21.703 21.4115C21.703 22.6029 21.6832 23.5364 21.6436 24.2115C21.6436 24.847 21.6436 25.5222 21.6436 26.2371C21.6436 27.1506 21.6633 28.0442 21.703 28.9179C21.7427 29.7917 21.7625 30.7251 21.7625 31.7181C21.7625 31.7975 21.6436 31.8372 21.4056 31.8372C21.1678 31.8372 21.0489 31.7975 21.0489 31.7181Z" fill="black"/>
<path d="M21.9744 34.0316C19.9801 34.0316 18.2706 33.657 16.8461 32.9076C15.4216 32.1404 14.3353 31.1145 13.5874 29.8299C12.8395 28.5454 12.4656 27.1181 12.4656 25.5479C12.4656 24.2277 12.7149 23.0323 13.2135 21.9618C13.7299 20.8735 14.4421 19.9368 15.3504 19.1518C16.2762 18.3668 17.3535 17.7601 18.5822 17.332C19.8287 16.9038 21.1821 16.6896 22.6421 16.6896C23.4792 16.6896 24.2982 16.77 25.0996 16.9306C25.9008 17.0911 26.5596 17.332 27.0761 17.6532C27.2364 17.7601 27.3253 17.8494 27.3432 17.9207C27.361 17.9921 27.3788 18.1081 27.3967 18.2687L27.7171 21.266C27.7171 21.3017 27.6637 21.3374 27.5568 21.3731C27.4679 21.391 27.4144 21.3641 27.3967 21.2928C27.0049 19.9904 26.3015 19.0001 25.2865 18.3222C24.2715 17.6263 23.0073 17.2784 21.4936 17.2784C19.2322 17.2784 17.4872 17.9385 16.2585 19.2589C15.0475 20.5613 14.4421 22.3365 14.4421 24.5845C14.4421 26.3509 14.7983 27.912 15.5105 29.2679C16.2228 30.606 17.1934 31.6587 18.4219 32.4259C19.6506 33.1931 21.0485 33.5766 22.6155 33.5766C23.4881 33.5766 24.1824 33.4963 24.6989 33.3357C25.2153 33.1752 25.5892 32.8629 25.8207 32.3991C26.0522 31.9352 26.168 31.2483 26.168 30.3384C26.168 29.4821 26.1145 28.8576 26.0077 28.465C25.9008 28.0548 25.6338 27.7871 25.2064 27.6622C24.779 27.5373 24.0935 27.4749 23.1497 27.4749C23.0428 27.4749 22.9894 27.4035 22.9894 27.2607C22.9894 27.1181 23.0339 27.0467 23.123 27.0467C24.2448 27.1181 25.2687 27.1627 26.1946 27.1805C27.1206 27.1805 28.091 27.1537 29.106 27.1002C29.1951 27.1002 29.2397 27.1627 29.2397 27.2876C29.2397 27.4124 29.1951 27.4749 29.106 27.4749C28.6965 27.4571 28.3937 27.5195 28.1979 27.6622C28.0198 27.7871 27.9041 28.0726 27.8507 28.5185C27.7972 28.9646 27.7706 29.6605 27.7706 30.606C27.7706 31.1948 27.7883 31.632 27.824 31.9174C27.8595 32.2028 27.8863 32.417 27.9041 32.5596C27.9398 32.6845 27.9575 32.8184 27.9575 32.9611C27.9575 33.0682 27.9398 33.1395 27.9041 33.1752C27.8685 33.2109 27.7883 33.2466 27.6637 33.2822C26.7556 33.4963 25.8029 33.6748 24.8057 33.8174C23.8263 33.9602 22.8826 34.0316 21.9744 34.0316Z" fill="black"/>
</svg>
